<svg xmlns="http://www.w3.org/2000/svg" xmlns:xlink="http://www.w3.org/1999/xlink" xmlns:lucid="lucid" width="1457.86" height="933.02"><g transform="translate(736.8632478632478 192.0222222222222)" lucid:page-tab-id="0_0"><path d="M126 346a6 6 0 0 1 6-6h237.33a6 6 0 0 1 6 6v108a6 6 0 0 1-6 6H132a6 6 0 0 1-6-6z" stroke="#282c33" stroke-width="2" fill="#fff"/><use xlink:href="#a" transform="matrix(1,0,0,1,137.99999999999997,351.99999999999994) translate(20.008547008547026 58.87179487179486)"/><path d="M108.67 606a6 6 0 0 1 6-6h272a6 6 0 0 1 6 6v108a6 6 0 0 1-6 6h-272a6 6 0 0 1-6-6z" stroke="#282c33" stroke-width="2" fill="#fff"/><use xlink:href="#b" transform="matrix(1,0,0,1,120.66666666666657,612) translate(2.6367521367521505 58.87179487179486)"/><path d="M170.67 72.67a6 6 0 0 1 6-6h148a6 6 0 0 1 6 6v108a6 6 0 0 1-6 6h-148a6 6 0 0 1-6-6z" stroke="#282c33" stroke-width="2" fill="#fff"/><use xlink:href="#c" transform="matrix(1,0,0,1,182.66666666666666,78.66666666666669) translate(-1.7435897435897232 59.623931623931625)"/><path d="M250.67 462v118.5" stroke="#3a414a" stroke-width="2" fill="none"/><path d="M251.64 462.03h-1.95V461h1.94z" stroke="#3a414a" stroke-width=".05" fill="#3a414a"/><path d="M250.67 595.76l-4.64-14.26h9.27z" stroke="#3a414a" stroke-width="2" fill="#3a414a"/><path d="M250.67 188.67V320.5" stroke="#3a414a" stroke-width="2" fill="none"/><path d="M251.64 188.7h-1.95v-1.03h1.94z" stroke="#3a414a" stroke-width=".05" fill="#3a414a"/><path d="M250.67 335.76l-4.64-14.26h9.27z" stroke="#3a414a" stroke-width="2" fill="#3a414a"/><path d="M394.55 659.5l5.14-2.83 3.54-2.17m8.4-5.5l5.82-4.23 5.78-4.62 4.15-3.6m7.33-6.84l5.13-5.26 5.2-5.82 3.14-3.8m6.14-7.94l.48-.63 4.47-6.48 4.17-6.63 1.78-3.1m4.78-8.84l.8-1.55 3.18-6.78 2.8-6.74 1.24-3.33m3.22-9.5l.12-.38 1.76-6.4 1.45-6.23 1.12-6.05.07-.5m1.24-9.97l.1-1 .33-5.43.1-5.2-.13-5-.22-3.43m-1.2-9.97l-.06-.44-.82-4.23-.96-4.07-1.1-3.9-1.24-3.77-1.1-2.9m-4.16-9.14l-.9-1.7-1.8-3.14-1.96-3.04-2.06-2.95-2.18-2.86-2.3-2.76-.1-.1m-7.03-7.17l-.62-.58-2.88-2.5-3.06-2.4-3.25-2.33-3.43-2.27-2.94-1.76m-8.9-4.66l-4.34-1.92-4.78-1.88-5.16-1.77-4.54-1.35m-9.75-2.4l-3.85-.8-6.02-1" stroke="#3a414a" stroke-width="2" stroke-linejoin="round" fill="none"/><path d="M395.04 660.35l-1.37.76v-2.2l.43-.25z" stroke="#3a414a" stroke-width=".05" fill="#3a414a"/><path d="M379.55 412.4l14.67-3.16-.95 9.22z" stroke="#3a414a" stroke-width="2" fill="#3a414a"/><path d="M377.34 368.76l1.73-.03 2.7-.17 2.65-.28 2.63-.4.33-.06m9.77-2.5l.3-.1 2.57-.96 2.57-1.1 2.57-1.2 2.58-1.35 2.6-1.5 2.6-1.63 2.06-1.44m7.83-6.38l.55-.5 2.6-2.55 2.62-2.78 2.6-3 2.56-3.24 2.28-3.15m5.4-8.53l2.1-3.8 2.22-4.5 2.12-4.75 1.97-4.98.1-.27m3.12-9.6l.22-.72 1.4-5.56 1.22-5.7.98-5.8.25-1.98m1-10.05l.24-5.65v-5.9l-.26-5.82-.24-2.8m-1.2-10.04l-.7-4.18-1.16-5.44-1.37-5.32-1.4-4.7m-3.48-9.48l-.4-.97-2.12-4.77-2.3-4.64-2.48-4.52-1.87-3.08m-5.66-8.36l-.94-1.3-3.18-4-3.36-3.9-3.56-3.78-2.25-2.2m-7.53-6.74l-2.1-1.73-4.4-3.36-4.66-3.23-4.92-3.12-.37-.22m-8.83-4.88l-1.56-.8-5.9-2.8-6.27-2.63-4.8-1.78m-9.57-3.18l-7.27-2.04-2.5-.58" stroke="#3a414a" stroke-width="2" stroke-linejoin="round" fill="none"/><path d="M377.38 369.74l-1.05.02v-1.95h1z" stroke="#3a414a" stroke-width=".05" fill="#3a414a"/><path d="M334.84 127.3l14.9-1.76-1.8 9.1z" stroke="#3a414a" stroke-width="2" fill="#3a414a"/><path d="M460 484.16a6 6 0 0 1 6-6h228a6 6 0 0 1 6 6v91.68a6 6 0 0 1-6 6H466a6 6 0 0 1-6-6z" stroke="#000" stroke-opacity="0" stroke-width="2" fill="#fff" fill-opacity="0"/><use xlink:href="#d" transform="matrix(1,0,0,1,465,483.15555555555557) translate(45.25641025641028 37.80929487179486)"/><use xlink:href="#e" transform="matrix(1,0,0,1,465,483.15555555555557) translate(68.50427350427353 84.30502136752133)"/><path d="M460 206a6 6 0 0 1 6-6h228a6 6 0 0 1 6 6v91.7a6 6 0 0 1-6 6H466a6 6 0 0 1-6-6z" stroke="#000" stroke-opacity="0" stroke-width="2" fill="#fff" fill-opacity="0"/><use xlink:href="#d" transform="matrix(1,0,0,1,465,205) translate(45.25641025641028 37.80929487179486)"/><use xlink:href="#e" transform="matrix(1,0,0,1,465,205) translate(68.50427350427353 84.30502136752133)"/><path d="M-470 346a6 6 0 0 1 6-6h208a6 6 0 0 1 6 6v108a6 6 0 0 1-6 6h-208a6 6 0 0 1-6-6z" stroke="#282c33" stroke-width="2" fill="#fff"/><use xlink:href="#a" transform="matrix(1,0,0,1,-458,351.99999999999994) translate(5.008547008547026 58.87179487179486)"/><path d="M-440 72.67a6 6 0 0 1 6-6h148a6 6 0 0 1 6 6v108a6 6 0 0 1-6 6h-148a6 6 0 0 1-6-6z" stroke="#282c33" stroke-width="2" fill="#fff"/><use xlink:href="#c" transform="matrix(1,0,0,1,-428,78.66666666666652) translate(-1.7435897435897232 59.623931623931625)"/><path d="M-360 188.67V320.5" stroke="#3a414a" stroke-width="2" fill="none"/><path d="M-359.02 188.7h-1.96v-1.03h1.96z" stroke="#3a414a" stroke-width=".05" fill="#3a414a"/><path d="M-360 335.76l-4.63-14.26h9.26z" stroke="#3a414a" stroke-width="2" fill="#3a414a"/><path d="M-248 368.73l1.4-.03 2.32-.14 2.2-.24 2.13-.3 1.7-.33m9.34-2.95l.4-.18 1.75-.82 1.73-.9 1.7-1 1.68-1.05 1.66-1.16 1.65-1.25 1.64-1.36 1.64-1.47 1.63-1.6.44-.47m6.18-7.6l1.46-2.2 1.6-2.66 1.6-2.9 1.58-3.2 1.56-3.5 1.17-2.96m3.1-9.3l.16-.56 1.34-5.2 1.2-5.7 1.07-6.28.2-1.47m1.04-9.76l.26-3.1.34-8.08v-8.42m-.43-9.8l-.74-8.87-1.2-9.57-.2-1.07m-1.67-9.67l-1.76-8.25-2.33-9.06-.52-1.76m-2.94-9.36l-1.92-5.5-2.94-7.44-2.36-5.3m-4.35-8.8l-2.47-4.5-3.07-5.07-3.02-4.56-1.8-2.5m-6.14-7.67l-.8-.9-2.78-2.98-2.72-2.68-2.67-2.4-2.62-2.16-2.55-1.94-.3-.2m-8.33-5.15l-1.18-.62-2.38-1.12-2.35-1-2.36-.86-.76-.25" stroke="#3a414a" stroke-width="2" stroke-linejoin="round" fill="none"/><path d="M-247.95 369.7l-1.05.03v-1.96l1-.02z" stroke="#3a414a" stroke-width=".05" fill="#3a414a"/><path d="M-275.8 127.2l14.82-2.3-1.5 9.15z" stroke="#3a414a" stroke-width="2" fill="#3a414a"/><path d="M-200 190.82a6 6 0 0 1 6-6H34a6 6 0 0 1 6 6v91.7a6 6 0 0 1-6 6h-228a6 6 0 0 1-6-6z" stroke="#000" stroke-opacity="0" stroke-width="2" fill="#fff" fill-opacity="0"/><use xlink:href="#d" transform="matrix(1,0,0,1,-195,189.82222222222208) translate(45.25641025641028 37.80929487179486)"/><use xlink:href="#e" transform="matrix(1,0,0,1,-195,189.82222222222208) translate(68.50427350427353 84.30502136752133)"/><path d="M-710-54a6 6 0 0 1 6-6h228a6 6 0 0 1 6 6v48a6 6 0 0 1-6 6h-228a6 6 0 0 1-6-6z" stroke="#000" stroke-opacity="0" stroke-width="2" fill="#fff" fill-opacity="0"/><use xlink:href="#b" transform="matrix(1,0,0,1,-705,-55) translate(-12.86324786324785 36.623931623931625)"/><path d="M-589.24.65l134.14 114.03" stroke="#3a414a" stroke-width="2" fill="none"/><path d="M-589.85 1.4L-591.5 0h2.85z" stroke="#3a414a" stroke-width=".05" fill="#3a414a"/><path d="M-443.47 124.57l-13.87-5.7 6-7.07z" stroke="#3a414a" stroke-width="2" fill="#3a414a"/><path d="M-380-164.02a6 6 0 0 1 6-6h228a6 6 0 0 1 6 6v119.24a6 6 0 0 1-6 6h-228a6 6 0 0 1-6-6z" stroke="#000" stroke-opacity="0" stroke-width="2" fill="#fff" fill-opacity="0"/><use xlink:href="#f" transform="matrix(1,0,0,1,-375,-165.0222222222222) translate(-20.3846153846153 45.95726495726497)"/><use xlink:href="#g" transform="matrix(1,0,0,1,-375,-165.0222222222222) translate(54.829059829059865 106.12820512820511)"/><path d="M160-165.02a6 6 0 0 1 6-6h228a6 6 0 0 1 6 6v119.24a6 6 0 0 1-6 6H166a6 6 0 0 1-6-6z" stroke="#000" stroke-opacity="0" stroke-width="2" fill="#fff" fill-opacity="0"/><g><use xlink:href="#h" transform="matrix(1,0,0,1,165,-166.0222222222222) translate(9.700854700854762 48.9407051282051)"/><use xlink:href="#i" transform="matrix(1,0,0,1,165,-166.0222222222222) translate(24.743589743589794 109.11164529914524)"/></g><g><path d="M61-157v869.52" stroke="#ced4db" stroke-width="4" stroke-linecap="round" fill="none"/></g><defs><path fill="#3a414a" d="M398-1260v503h520v117H398v529h641V0H270v-1374h746l-17 114H398" id="j"/><path fill="#3a414a" d="M1060-1050L669 0H526L140-1050h129l334 924 327-924h130" id="k"/><path fill="#3a414a" d="M500-1426c-1-55 44-99 101-99 60 0 104 43 104 99 1 59-43 105-104 103-58 2-102-45-101-103zm218 376v942h305V0H262v-108h332v-834H272v-108h446" id="l"/><path fill="#3a414a" d="M563-1069c140 1 227 52 294 132v-555l124 17V0H873l-16-145C788-44 700 20 557 20c-301 0-399-237-404-542 0-210 69-384 189-476 61-48 134-71 221-71zm294 256c-53-83-140-149-263-149-225 0-302 186-301 439 0 138 24 245 71 321S480-88 573-88c139 4 226-99 284-179v-546" id="m"/><path fill="#3a414a" d="M619-1069c299 1 434 265 404 594H309c5 228 108 381 324 381 131 0 196-40 283-97l65 93C898-33 773 20 638 20c-313 0-456-225-462-544-1-216 83-387 212-476 66-46 143-69 231-69zm289 482c0-216-94-366-286-366-197 0-303 150-311 366h597" id="n"/><path fill="#3a414a" d="M656-966c-151 4-249 101-313 192V0H219v-1050h104l10 153c63-93 213-169 353-172 210-3 298 110 298 309V0H860v-627c-3-197-4-346-204-339" id="o"/><path fill="#3a414a" d="M335-521c0 258 111 421 334 427 119 3 212-43 285-93l65 84C944-36 804 18 674 20c-311 3-482-226-477-541 5-320 158-541 478-548 129 0 242 40 341 119l-66 89c-95-65-189-98-281-98-221 7-334 183-334 438" id="p"/><g id="a"><use transform="matrix(0.019373219373219366,0,0,0.019373219373219366,0,0)" xlink:href="#j"/><use transform="matrix(0.019373219373219366,0,0,0.019373219373219366,23.24786324786324,0)" xlink:href="#k"/><use transform="matrix(0.019373219373219366,0,0,0.019373219373219366,46.49572649572648,0)" xlink:href="#l"/><use transform="matrix(0.019373219373219366,0,0,0.019373219373219366,69.74358974358972,0)" xlink:href="#m"/><use transform="matrix(0.019373219373219366,0,0,0.019373219373219366,92.99145299145296,0)" xlink:href="#n"/><use transform="matrix(0.019373219373219366,0,0,0.019373219373219366,116.2393162393162,0)" xlink:href="#o"/><use transform="matrix(0.019373219373219366,0,0,0.019373219373219366,139.48717948717945,0)" xlink:href="#p"/><use transform="matrix(0.019373219373219366,0,0,0.019373219373219366,162.7350427350427,0)" xlink:href="#n"/></g><path fill="#3a414a" d="M597-102c187 0 311-101 311-295v-977h129v933c-6 280-163 461-440 461S163-163 163-441v-933h126v977c-4 193 122 294 308 295" id="q"/><path fill="#3a414a" d="M900-1071c58 0 94 10 142 21l-14 330H908c1-77-2-158 2-231-101-6-175 23-241 85-59 58-108 149-145 274v488h216V0H229v-104h171v-841H229v-105h266l23 252c81-153 163-271 382-273" id="r"/><path fill="#3a414a" d="M760-88c84 0 150-22 206-51l54 89C962-9 850 19 757 20 563 26 421-96 420-275v-671H172v-104h248v-242l124-15v257h370l-17 104H544v668c3 133 71 191 216 190" id="s"/><path fill="#3a414a" d="M558-1069c229-5 374 118 374 330v532c0 85 27 116 90 137l-34 91C900 6 836-41 815-130 740-30 632 20 491 20c-201 4-336-126-334-323 0-107 44-185 125-245 106-78 315-91 521-85v-102c2-166-102-222-263-222-100 0-180 22-269 53l-36-102c108-40 196-61 323-63zm71 531c-214-2-335 62-335 239 0 147 74 220 221 220 133-2 229-72 288-159v-300H629" id="t"/><path fill="#3a414a" d="M1057-1050L682 9c-74 204-177 382-433 408l-22-108C428 279 507 173 561 0h-41L143-1050h134l331 944 320-944h129" id="u"/><g id="b"><use transform="matrix(0.019373219373219366,0,0,0.019373219373219366,0,0)" xlink:href="#q"/><use transform="matrix(0.019373219373219366,0,0,0.019373219373219366,23.24786324786324,0)" xlink:href="#o"/><use transform="matrix(0.019373219373219366,0,0,0.019373219373219366,46.49572649572648,0)" xlink:href="#p"/><use transform="matrix(0.019373219373219366,0,0,0.019373219373219366,69.74358974358972,0)" xlink:href="#n"/><use transform="matrix(0.019373219373219366,0,0,0.019373219373219366,92.99145299145296,0)" xlink:href="#r"/><use transform="matrix(0.019373219373219366,0,0,0.019373219373219366,116.2393162393162,0)" xlink:href="#s"/><use transform="matrix(0.019373219373219366,0,0,0.019373219373219366,139.48717948717945,0)" xlink:href="#t"/><use transform="matrix(0.019373219373219366,0,0,0.019373219373219366,162.7350427350427,0)" xlink:href="#l"/><use transform="matrix(0.019373219373219366,0,0,0.019373219373219366,185.98290598290595,0)" xlink:href="#o"/><use transform="matrix(0.019373219373219366,0,0,0.019373219373219366,209.2307692307692,0)" xlink:href="#s"/><use transform="matrix(0.019373219373219366,0,0,0.019373219373219366,232.47863247863245,0)" xlink:href="#u"/></g><path fill="#3a414a" d="M744-728c178 34 319 120 316 339C1053-105 840 0 560 0H217v-1374h309c261 6 474 82 474 345 0 178-114 266-256 301zm-145-51c169-1 269-75 269-248 0-174-119-235-288-235H344v483h255zm4 664c184-4 320-69 320-262 0-205-121-281-314-281H344v543h259" id="v"/><path fill="#3a414a" d="M759 20c-160 1-297-95-297-258v-1129H136v-108h450v1237C575-55 834-70 956-126l36 96C935-3 849 22 759 20" id="w"/><path fill="#3a414a" d="M458-1191c4-246 253-336 506-287 42 9 83 23 123 40l-45 101c-64-31-139-46-225-46-157 0-235 61-235 184v235h361l-13 106H582V0H458v-858H198v-106h260v-227" id="x"/><g id="c"><use transform="matrix(0.019373219373219366,0,0,0.019373219373219366,0,0)" xlink:href="#v"/><use transform="matrix(0.019373219373219366,0,0,0.019373219373219366,23.24786324786324,0)" xlink:href="#n"/><use transform="matrix(0.019373219373219366,0,0,0.019373219373219366,46.49572649572648,0)" xlink:href="#w"/><use transform="matrix(0.019373219373219366,0,0,0.019373219373219366,69.74358974358972,0)" xlink:href="#l"/><use transform="matrix(0.019373219373219366,0,0,0.019373219373219366,92.99145299145296,0)" xlink:href="#n"/><use transform="matrix(0.019373219373219366,0,0,0.019373219373219366,116.2393162393162,0)" xlink:href="#x"/></g><path fill="#e81313" d="M744-728c178 34 319 120 316 339C1053-105 840 0 560 0H217v-1374h309c261 6 474 82 474 345 0 178-114 266-256 301zm-145-51c169-1 269-75 269-248 0-174-119-235-288-235H344v483h255zm4 664c184-4 320-69 320-262 0-205-121-281-314-281H344v543h259" id="y"/><path fill="#e81313" d="M558-1069c229-5 374 118 374 330v532c0 85 27 116 90 137l-34 91C900 6 836-41 815-130 740-30 632 20 491 20c-201 4-336-126-334-323 0-107 44-185 125-245 106-78 315-91 521-85v-102c2-166-102-222-263-222-100 0-180 22-269 53l-36-102c108-40 196-61 323-63zm71 531c-214-2-335 62-335 239 0 147 74 220 221 220 133-2 229-72 288-159v-300H629" id="z"/><path fill="#e81313" d="M1057-1050L682 9c-74 204-177 382-433 408l-22-108C428 279 507 173 561 0h-41L143-1050h134l331 944 320-944h129" id="A"/><path fill="#e81313" d="M619-1069c299 1 434 265 404 594H309c5 228 108 381 324 381 131 0 196-40 283-97l65 93C898-33 773 20 638 20c-313 0-456-225-462-544-1-216 83-387 212-476 66-46 143-69 231-69zm289 482c0-216-94-366-286-366-197 0-303 150-311 366h597" id="B"/><path fill="#e81313" d="M240-208c76 63 184 115 317 115 186 0 339-97 271-277-11-26-36-50-72-70-78-46-274-78-362-119-99-46-173-100-173-235 0-198 176-270 381-275 157-3 281 49 368 113l-58 92c-83-56-166-97-309-95-93 0-158 15-195 44-62 42-77 140-28 197 84 97 315 110 440 178 94 51 163 118 163 257C979-55 780 13 556 20c-176 4-302-61-393-137" id="C"/><path fill="#e81313" d="M538-967l-29-508h183l-29 508H538" id="D"/><g id="d"><use transform="matrix(0.019373219373219366,0,0,0.019373219373219366,0,0)" xlink:href="#y"/><use transform="matrix(0.019373219373219366,0,0,0.019373219373219366,23.24786324786324,0)" xlink:href="#z"/><use transform="matrix(0.019373219373219366,0,0,0.019373219373219366,46.49572649572648,0)" xlink:href="#A"/><use transform="matrix(0.019373219373219366,0,0,0.019373219373219366,69.74358974358972,0)" xlink:href="#B"/><use transform="matrix(0.019373219373219366,0,0,0.019373219373219366,92.99145299145296,0)" xlink:href="#C"/><use transform="matrix(0.019373219373219366,0,0,0.019373219373219366,116.2393162393162,0)" xlink:href="#D"/></g><path fill="#e81313" d="M558-1374c296-1 503 104 503 375 0 229-162 335-354 380L1129 0H969L571-609H357V0H229v-1374h329zm22 655c209-3 341-70 340-280-3-205-120-265-336-265H357v545h223" id="E"/><path fill="#e81313" d="M523 20C324 22 219-89 219-284v-766h124v751c1 146 56 214 198 215 137 2 262-98 316-183v-783h124V0H877l-14-147C793-55 668 17 523 20" id="F"/><path fill="#e81313" d="M759 20c-160 1-297-95-297-258v-1129H136v-108h450v1237C575-55 834-70 956-126l36 96C935-3 849 22 759 20" id="G"/><g id="e"><use transform="matrix(0.019373219373219366,0,0,0.019373219373219366,0,0)" xlink:href="#E"/><use transform="matrix(0.019373219373219366,0,0,0.019373219373219366,23.24786324786324,0)" xlink:href="#F"/><use transform="matrix(0.019373219373219366,0,0,0.019373219373219366,46.49572649572648,0)" xlink:href="#G"/><use transform="matrix(0.019373219373219366,0,0,0.019373219373219366,69.74358974358972,0)" xlink:href="#B"/></g><path fill="#3a414a" d="M534-95c211 5 315-152 314-364v-803H445v-112h530v929C968-157 835 22 531 21c-145-2-276-54-366-124l63-89c98 62 183 94 306 97" id="H"/><path fill="#3a414a" d="M538-967l-29-508h183l-29 508H538" id="I"/><path fill="#3a414a" d="M240-208c76 63 184 115 317 115 186 0 339-97 271-277-11-26-36-50-72-70-78-46-274-78-362-119-99-46-173-100-173-235 0-198 176-270 381-275 157-3 281 49 368 113l-58 92c-83-56-166-97-309-95-93 0-158 15-195 44-62 42-77 140-28 197 84 97 315 110 440 178 94 51 163 118 163 257C979-55 780 13 556 20c-176 4-302-61-393-137" id="J"/><g id="f"><use transform="matrix(0.025071225071225056,0,0,0.025071225071225056,0,0)" xlink:href="#H"/><use transform="matrix(0.025071225071225056,0,0,0.025071225071225056,30.085470085470067,0)" xlink:href="#n"/><use transform="matrix(0.025071225071225056,0,0,0.025071225071225056,60.170940170940135,0)" xlink:href="#x"/><use transform="matrix(0.025071225071225056,0,0,0.025071225071225056,90.2564102564102,0)" xlink:href="#x"/><use transform="matrix(0.025071225071225056,0,0,0.025071225071225056,120.34188034188027,0)" xlink:href="#r"/><use transform="matrix(0.025071225071225056,0,0,0.025071225071225056,150.42735042735035,0)" xlink:href="#n"/><use transform="matrix(0.025071225071225056,0,0,0.025071225071225056,180.5128205128204,0)" xlink:href="#u"/><use transform="matrix(0.025071225071225056,0,0,0.025071225071225056,210.59829059829048,0)" xlink:href="#I"/><use transform="matrix(0.025071225071225056,0,0,0.025071225071225056,240.68376068376054,0)" xlink:href="#J"/></g><path fill="#3a414a" d="M558-1374c296-1 503 104 503 375 0 229-162 335-354 380L1129 0H969L571-609H357V0H229v-1374h329zm22 655c209-3 341-70 340-280-3-205-120-265-336-265H357v545h223" id="K"/><path fill="#3a414a" d="M523 20C324 22 219-89 219-284v-766h124v751c1 146 56 214 198 215 137 2 262-98 316-183v-783h124V0H877l-14-147C793-55 668 17 523 20" id="L"/><g id="g"><use transform="matrix(0.025071225071225056,0,0,0.025071225071225056,0,0)" xlink:href="#K"/><use transform="matrix(0.025071225071225056,0,0,0.025071225071225056,30.085470085470067,0)" xlink:href="#L"/><use transform="matrix(0.025071225071225056,0,0,0.025071225071225056,60.170940170940135,0)" xlink:href="#w"/><use transform="matrix(0.025071225071225056,0,0,0.025071225071225056,90.2564102564102,0)" xlink:href="#n"/></g><path fill="#3a414a" d="M589-1374c299 1 515 119 513 414 2 320-214 431-527 434H391V0H263v-1374h326zm13 737c226 0 360-84 360-320 0-220-135-308-346-308H391v628h211" id="M"/><g id="h"><use transform="matrix(0.025071225071225056,0,0,0.025071225071225056,0,0)" xlink:href="#M"/><use transform="matrix(0.025071225071225056,0,0,0.025071225071225056,30.085470085470067,0)" xlink:href="#n"/><use transform="matrix(0.025071225071225056,0,0,0.025071225071225056,60.170940170940135,0)" xlink:href="#t"/><use transform="matrix(0.025071225071225056,0,0,0.025071225071225056,90.2564102564102,0)" xlink:href="#r"/><use transform="matrix(0.025071225071225056,0,0,0.025071225071225056,120.34188034188027,0)" xlink:href="#w"/><use transform="matrix(0.025071225071225056,0,0,0.025071225071225056,150.42735042735035,0)" xlink:href="#I"/><use transform="matrix(0.025071225071225056,0,0,0.025071225071225056,180.5128205128204,0)" xlink:href="#J"/></g><path fill="#3a414a" d="M250-1251c6 437-31 839-53 1251H69l78-1374h213l244 957 233-957h216L1131 0h-131c-26-414-62-819-70-1251L675-250H523" id="N"/><path fill="#3a414a" d="M654-966c-149 0-247 100-311 189V0H219v-1472l124-15v592c66-99 195-171 343-174 206-3 298 111 298 309V0H860v-782c0-123-69-184-206-184" id="O"/><path fill="#3a414a" d="M166-523c0-314 128-542 437-546 302-4 435 234 431 544-4 308-129 545-434 545-309 0-434-230-434-543zm437-437c-229 9-301 177-301 437 0 289 99 433 298 433s298-145 298-435c0-147-24-257-74-328S700-960 603-960" id="P"/><g id="i"><use transform="matrix(0.025071225071225056,0,0,0.025071225071225056,0,0)" xlink:href="#N"/><use transform="matrix(0.025071225071225056,0,0,0.025071225071225056,30.085470085470067,0)" xlink:href="#n"/><use transform="matrix(0.025071225071225056,0,0,0.025071225071225056,60.170940170940135,0)" xlink:href="#s"/><use transform="matrix(0.025071225071225056,0,0,0.025071225071225056,90.2564102564102,0)" xlink:href="#O"/><use transform="matrix(0.025071225071225056,0,0,0.025071225071225056,120.34188034188027,0)" xlink:href="#P"/><use transform="matrix(0.025071225071225056,0,0,0.025071225071225056,150.42735042735035,0)" xlink:href="#m"/></g></defs></g></svg>