<svg xmlns="http://www.w3.org/2000/svg" xmlns:xlink="http://www.w3.org/1999/xlink" xmlns:lucid="lucid" width="1149" height="505"><g transform="translate(-74 -46)" lucid:page-tab-id="0_0"><path d="M204.72 147.18a6 6 0 0 1 6-6h68a6 6 0 0 1 6 6v68a6 6 0 0 1-6 6h-68a6 6 0 0 1-6-6z" stroke="#3a414a" fill-opacity="0"/><path d="M220 160h62.72v54.35H220z" fill="#fff" fill-opacity="0"/><path d="M251.8 197.58h-15.83V196c2.1-.13 2.96-.52 2.96-1.3 0-.8-.6-1.9-2.17-4.2-1-1.4-1.9-2.77-2.76-4.15-.33.4-.66.85-1.05 1.3-2.57 3.1-4.2 5.73-4.2 6.78 0 .98.9 1.44 3.28 1.58v1.58h-11.1V196c2.42-.13 3.74-1.18 7.42-6.1l2.82-3.7c1-1.23.46-.64 1.45-1.83l-8.4-12.94c-1.33-1.97-1.72-2.3-3.43-2.56v-1.58h16.42v1.57c-2.17.06-3.1.46-3.1 1.24 0 .87 1.65 3.63 3.82 6.45.26.33.6.73.86 1.12l2.36-3.02c1.78-2.3 2.5-3.22 2.5-4.2 0-1-.53-1.32-2.04-1.45l-1.3-.13v-1.58h11.03v1.57c-2.04.32-3.35 1.05-4.6 2.56l-6.64 8.28 9.74 15c.46.7.92.98 1.97 1.3v1.58M274.96 192.15c0 8-2.92 15.98-10.5 15.98-7.94 0-10.5-8.64-10.5-16.26 0-8.22 3.2-15.8 10.7-15.8 6.08 0 10.3 6.55 10.3 16.08m-4.46.23c0-9.66-2.04-15.1-6.13-15.1-3.86 0-5.95 5.48-5.95 14.9 0 9.45 2.05 14.74 6.04 14.74 3.95 0 6.04-5.34 6.04-14.54"/><path d="M400 160h62.72v54.35H400z" fill="#fff" fill-opacity="0"/><path d="M431.8 197.58h-15.83V196c2.1-.13 2.96-.52 2.96-1.3 0-.8-.6-1.9-2.17-4.2-1-1.4-1.9-2.77-2.76-4.15-.33.4-.66.85-1.05 1.3-2.57 3.1-4.2 5.73-4.2 6.78 0 .98.9 1.44 3.28 1.58v1.58h-11.1V196c2.42-.13 3.74-1.18 7.42-6.1l2.82-3.7c1-1.23.46-.64 1.45-1.83l-8.4-12.94c-1.33-1.97-1.72-2.3-3.43-2.56v-1.58h16.42v1.57c-2.17.06-3.1.46-3.1 1.24 0 .87 1.65 3.63 3.82 6.45.26.33.6.73.86 1.12l2.36-3.02c1.78-2.3 2.5-3.22 2.5-4.2 0-1-.53-1.32-2.04-1.45l-1.3-.13v-1.58h11.03v1.57c-2.04.32-3.35 1.05-4.6 2.56l-6.64 8.28 9.74 15c.46.7.92.98 1.97 1.3v1.58M451.15 207.48h-12.82v-.7c3.44-.18 4.42-1.16 4.42-3.7V182.2c0-1.58-.42-2.27-1.4-2.27-.46 0-1.25.23-2.1.56l-1.24.45v-.65l8.32-4.23.42.14v27.75c0 2 .93 2.83 4.4 2.83v.7"/><path d="M580 160h62.72v54.35H580z" fill="#fff" fill-opacity="0"/><path d="M611.8 197.58h-15.83V196c2.1-.13 2.96-.52 2.96-1.3 0-.8-.6-1.9-2.17-4.2-1-1.4-1.9-2.77-2.76-4.15-.33.4-.66.85-1.05 1.3-2.57 3.1-4.2 5.73-4.2 6.78 0 .98.9 1.44 3.28 1.58v1.58h-11.1V196c2.42-.13 3.74-1.18 7.42-6.1l2.82-3.7c1-1.23.46-.64 1.45-1.83l-8.4-12.94c-1.33-1.97-1.72-2.3-3.43-2.56v-1.58h16.42v1.57c-2.17.06-3.1.46-3.1 1.24 0 .87 1.65 3.63 3.82 6.45.26.33.6.73.86 1.12l2.36-3.02c1.78-2.3 2.5-3.22 2.5-4.2 0-1-.53-1.32-2.04-1.45l-1.3-.13v-1.58h11.03v1.57c-2.04.32-3.35 1.05-4.6 2.56l-6.64 8.28 9.74 15c.46.7.92.98 1.97 1.3v1.58M634.87 201.1l-2.5 6.38H614.2v-.56l8.27-8.78c4.36-4.6 6.04-8.13 6.04-12.08 0-4.23-2.5-6.55-6.45-6.55-3.35 0-4.97 1.5-6.83 6.05l-.98-.23c.98-5.44 3.95-9.25 9.67-9.25 5.26 0 8.6 3.58 8.6 8.18 0 3.67-1.8 7.15-5.95 11.52l-7.66 8.18h10.86c1.95 0 2.93-.5 4.46-3.1"/><path d="M819.3 160H884v54.35H819.3z" fill="#fff" fill-opacity="0"/><path d="M851.12 197.58h-15.84V196c2.1-.13 2.96-.52 2.96-1.3 0-.8-.6-1.9-2.17-4.2-1-1.4-1.9-2.77-2.76-4.15-.32.4-.65.85-1.04 1.3-2.56 3.1-4.2 5.73-4.2 6.78 0 .98.9 1.44 3.28 1.58v1.58h-11.1V196c2.42-.13 3.74-1.18 7.42-6.1l2.82-3.7c1-1.23.46-.64 1.45-1.83l-8.4-12.94c-1.33-1.97-1.72-2.3-3.43-2.56v-1.58h16.43v1.57c-2.17.06-3.1.46-3.1 1.24 0 .87 1.65 3.63 3.82 6.45.27.33.6.73.86 1.12l2.37-3.02c1.78-2.3 2.5-3.22 2.5-4.2 0-1-.52-1.32-2.04-1.45l-1.3-.13v-1.58h11.03v1.57c-2.04.32-3.35 1.05-4.6 2.56l-6.64 8.28 9.73 15c.46.7.92.98 1.97 1.3v1.58M876.65 187.6l-.2.55c-3.1.33-4.4 1.16-6.17 2.7l-4.92 4.27 2.97 7.06c.7 1.63 1.25 2.74 2.46 2.74 1.4 0 2.4-2 3.43-3.4l.7.52c-.56.98-2.74 5.95-5.9 5.95-2.14 0-3.12-2.47-3.63-3.68l-2.92-6.83-2.6 2.27-2.1 7.7h-3.53l6.88-27.36c.1-.26.14-.6.14-.92 0-.5-.47-1.02-1.5-1.02-.4 0-.87 0-1.24.1l-.14-.66 7.33-1.16-5.25 21.2 7.76-6.93c.5-.46.97-1.06.97-1.67 0-.55-.73-.88-1.2-.88h-.55l.18-.56h9.02"/><path d="M1100 160h81.36v54.35H1100z" fill="#fff" fill-opacity="0"/><path d="M1131.8 197.58h-15.83V196c2.1-.13 2.96-.52 2.96-1.3 0-.8-.6-1.9-2.17-4.2-1-1.4-1.9-2.77-2.76-4.15-.33.4-.66.85-1.05 1.3-2.57 3.1-4.2 5.73-4.2 6.78 0 .98.9 1.44 3.28 1.58v1.58h-11.1V196c2.42-.13 3.74-1.18 7.42-6.1l2.82-3.7c1-1.23.46-.64 1.45-1.83l-8.4-12.94c-1.33-1.97-1.72-2.3-3.43-2.56v-1.58h16.42v1.57c-2.17.06-3.1.46-3.1 1.24 0 .87 1.65 3.63 3.82 6.45.26.33.6.73.86 1.12l2.36-3.02c1.78-2.3 2.5-3.22 2.5-4.2 0-1-.53-1.32-2.04-1.45l-1.3-.13v-1.58h11.03v1.57c-2.04.32-3.35 1.05-4.6 2.56l-6.64 8.28 9.74 15c.46.7.92.98 1.97 1.3v1.58M1174.7 177.14l-.17.74h-.84c-3.5 0-4.56 1.2-4.98 2.93l-6.7 26.68h-1.1l-12.74-24.44h-.28l-5.02 20.82c-.1.37-.13.74-.13 1.25 0 .94.78 1.64 3.53 1.64h.88l-.2.74h-12.35l.2-.74h.84c3.48 0 4.55-1.3 4.92-2.88l5.86-23.65c-.9-2-2.9-2.32-4.28-2.32h-.88l.18-.74h9.3l10.96 21.6h.23l4.5-17.93c.1-.4.2-.73.2-1.2 0-.93-.8-1.72-3.53-1.72h-.93l.18-.74h12.36"/><path d="M400 340h62.72v58.5H400z" fill="#fff" fill-opacity="0"/><path d="M431.68 347.3v1.57c-2.04.26-2.9.78-3.95 3.6L418 378.65c-2.3 6.17-3.67 8.74-5.05 10.25-1.38 1.43-3.3 2.16-5.52 2.16-3.75 0-6.38-2.1-6.38-5.2 0-2.5 1.58-4.4 4.08-4.4 2.23 0 3.94 1.5 3.94 3.42 0 .26-.07.6-.13.92-.07.2-.07.4-.07.4 0 .58.53 1.1 1.12 1.1 1.57 0 3.2-2.1 4.33-5.38l1.18-3.48-7.8-19.06c-1.33-3.3-3.82-8.8-4.4-9.6-.4-.52-.8-.72-2.25-.9v-1.6h16.37v1.6l-1.06.05c-1.64.13-2.36.66-2.36 1.64 0 .27.6 1.98 1.3 3.82l4.74 12.2 4.47-12.35c.6-1.7.74-2.43.74-3.22 0-1.57-.73-2.03-3.55-2.16v-1.58h9.98M451.15 393.47h-12.82v-.7c3.44-.18 4.42-1.15 4.42-3.7V368.2c0-1.58-.42-2.28-1.4-2.28-.46 0-1.25.23-2.1.56l-1.24.46v-.65l8.32-4.23.42.13v27.74c0 2 .93 2.84 4.4 2.84v.7"/><path d="M580 340h62.72v58.5H580z" fill="#fff" fill-opacity="0"/><path d="M611.68 347.3v1.57c-2.04.26-2.9.78-3.95 3.6L598 378.65c-2.3 6.17-3.67 8.74-5.05 10.25-1.38 1.43-3.3 2.16-5.52 2.16-3.75 0-6.38-2.1-6.38-5.2 0-2.5 1.58-4.4 4.08-4.4 2.23 0 3.94 1.5 3.94 3.42 0 .26-.07.6-.13.92-.07.2-.07.4-.07.4 0 .58.53 1.1 1.12 1.1 1.57 0 3.2-2.1 4.33-5.38l1.18-3.48-7.8-19.06c-1.33-3.3-3.82-8.8-4.4-9.6-.4-.52-.8-.72-2.25-.9v-1.6h16.37v1.6l-1.06.05c-1.64.13-2.36.66-2.36 1.64 0 .27.6 1.98 1.3 3.82l4.74 12.2 4.47-12.35c.6-1.7.74-2.43.74-3.22 0-1.57-.73-2.03-3.55-2.16v-1.58h9.98M634.87 387.1l-2.5 6.37H614.2v-.55l8.27-8.8c4.36-4.58 6.04-8.12 6.04-12.07 0-4.22-2.5-6.55-6.45-6.55-3.35 0-4.97 1.5-6.83 6.04l-.98-.23c.98-5.42 3.95-9.23 9.67-9.23 5.26 0 8.6 3.57 8.6 8.17 0 3.67-1.8 7.16-5.95 11.53l-7.66 8.17h10.86c1.95 0 2.93-.5 4.46-3.1"/><path d="M819.3 340H884v58.5H819.3z" fill="#fff" fill-opacity="0"/><path d="M851 347.3v1.57c-2.05.26-2.9.78-3.95 3.6l-9.73 26.17c-2.3 6.17-3.68 8.74-5.06 10.25-1.38 1.43-3.3 2.16-5.52 2.16-3.75 0-6.38-2.1-6.38-5.2 0-2.5 1.58-4.4 4.08-4.4 2.23 0 3.94 1.5 3.94 3.42 0 .26-.06.6-.13.92-.07.2-.07.4-.07.4 0 .58.53 1.1 1.12 1.1 1.58 0 3.22-2.1 4.34-5.38l1.18-3.48-7.82-19.06c-1.3-3.3-3.8-8.8-4.4-9.6-.4-.52-.8-.72-2.24-.9v-1.6h16.37v1.6l-1.05.05c-1.65.13-2.37.66-2.37 1.64 0 .27.6 1.98 1.32 3.82l4.74 12.2 4.47-12.35c.6-1.7.72-2.43.72-3.22 0-1.57-.72-2.03-3.55-2.16v-1.58h10M876.65 373.6l-.2.55c-3.1.32-4.4 1.16-6.17 2.7l-4.92 4.26 2.97 7.08c.7 1.62 1.25 2.74 2.46 2.74 1.4 0 2.4-2 3.43-3.4l.7.52c-.56.97-2.74 5.94-5.9 5.94-2.14 0-3.12-2.46-3.63-3.67l-2.92-6.82-2.6 2.28-2.1 7.7h-3.53l6.88-27.35c.1-.27.14-.6.14-.92 0-.5-.47-1.02-1.5-1.02-.4 0-.87 0-1.24.1l-.14-.66 7.33-1.16-5.25 21.18 7.76-6.92c.5-.46.97-1.07.97-1.67 0-.56-.73-.88-1.2-.88h-.55l.18-.56h9.02"/><path d="M1100 340h81.36v58.5H1100z" fill="#fff" fill-opacity="0"/><path d="M1131.68 347.3v1.57c-2.04.26-2.9.78-3.95 3.6l-9.72 26.17c-2.3 6.17-3.67 8.74-5.05 10.25-1.38 1.43-3.3 2.16-5.52 2.16-3.75 0-6.38-2.1-6.38-5.2 0-2.5 1.58-4.4 4.08-4.4 2.23 0 3.94 1.5 3.94 3.42 0 .26-.07.6-.13.92-.07.2-.07.4-.07.4 0 .58.53 1.1 1.12 1.1 1.57 0 3.2-2.1 4.33-5.38l1.18-3.48-7.8-19.06c-1.33-3.3-3.82-8.8-4.4-9.6-.4-.52-.8-.72-2.25-.9v-1.6h16.37v1.6l-1.06.05c-1.64.13-2.36.66-2.36 1.64 0 .27.6 1.98 1.3 3.82l4.74 12.2 4.47-12.35c.6-1.7.74-2.43.74-3.22 0-1.57-.73-2.03-3.55-2.16v-1.58h9.98M1174.7 363.13l-.17.75h-.84c-3.5 0-4.56 1.2-4.98 2.92l-6.7 26.67h-1.1l-12.74-24.44h-.28l-5.02 20.82c-.1.37-.13.74-.13 1.25 0 .93.78 1.63 3.53 1.63h.88l-.2.74h-12.35l.2-.74h.84c3.48 0 4.55-1.3 4.92-2.88l5.86-23.65c-.9-2-2.9-2.32-4.28-2.32h-.88l.18-.75h9.3l10.96 21.6h.23l4.5-17.93c.1-.4.2-.74.2-1.2 0-.93-.8-1.72-3.53-1.72h-.93l.18-.75h12.36"/><path d="M286.68 181.18h45.82a.1.1 0 0 0 .1-.1.1.1 0 0 1 .08-.08h26.7" stroke="#e08fff" stroke-width="3" fill="none"/><path d="M286.72 182.68h-1.53l-.02-3h1.54z" stroke="#e08fff" stroke-width=".05" fill="#e08fff"/><path d="M375.15 181l-14.27 4.64v-9.28z" stroke="#e08fff" stroke-width="3" fill="#e08fff"/><path d="M461.5 180h77.88M461.54 180H460" stroke="#e08fff" stroke-width="3" fill="none"/><path d="M555.15 180l-14.27 4.64v-9.28z" stroke="#e08fff" stroke-width="3" fill="#e08fff"/><path d="M704.18 180h75.2" stroke="#e08fff" stroke-width="3" fill="none"/><path d="M704.22 181.5h-1.53l-.02-3h1.54z" stroke="#e08fff" stroke-width=".05" fill="#e08fff"/><path d="M795.15 180l-14.27 4.64v-9.28z" stroke="#e08fff" stroke-width="3" fill="#e08fff"/><path d="M900.8 180h77.9M900.85 180h-1.54" stroke="#e08fff" stroke-width="3" fill="none"/><path d="M994.46 180l-14.27 4.64v-9.28z" stroke="#e08fff" stroke-width="3" fill="#e08fff"/><path d="M420 221.5v97.88M420 221.54V220" stroke="#6db1ff" stroke-width="3" fill="none"/><path d="M420 335.15l-4.64-14.27h9.28z" stroke="#6db1ff" stroke-width="3" fill="#6db1ff"/><path d="M600 221.5v97.88M600 221.54V220" stroke="#6db1ff" stroke-width="3" fill="none"/><path d="M600 335.15l-4.64-14.27h9.28z" stroke="#6db1ff" stroke-width="3" fill="#6db1ff"/><path d="M840 221.5v97.88M840 221.54V220" stroke="#6db1ff" stroke-width="3" fill="none"/><path d="M840 335.15l-4.64-14.27h9.28z" stroke="#6db1ff" stroke-width="3" fill="#6db1ff"/><path d="M1120 221.5v97.88M1120 221.54V220" stroke="#6db1ff" stroke-width="3" fill="none"/><path d="M1120 335.15l-4.64-14.27h9.28z" stroke="#6db1ff" stroke-width="3" fill="#6db1ff"/><path d="M642.72 156a6 6 0 0 1 6-6h48a6 6 0 0 1 6 6v48a6 6 0 0 1-6 6h-48a6 6 0 0 1-6-6z" stroke="#000" stroke-opacity="0" fill="#fff" fill-opacity="0"/><use xlink:href="#a" transform="matrix(1,0,0,1,647.720448709473,155) translate(10.000000000000005 31.99999999999999)"/><path d="M1020 156a6 6 0 0 1 6-6h48a6 6 0 0 1 6 6v48a6 6 0 0 1-6 6h-48a6 6 0 0 1-6-6z" stroke="#000" stroke-opacity="0" fill="#fff" fill-opacity="0"/><use xlink:href="#a" transform="matrix(1,0,0,1,1025,155) translate(10.000000000000005 31.99999999999999)"/><path d="M380 73.82a6 6 0 0 1 6-6h229.8a6 6 0 0 1 6 6v68a6 6 0 0 1-6 6H386a6 6 0 0 1-6-6z" stroke="#000" stroke-opacity="0" fill="#fff" fill-opacity="0"/><use xlink:href="#b" transform="matrix(1,0,0,1,385,72.82051282051282) translate(66.76923076923077 24.615384615384613)"/><use xlink:href="#c" transform="matrix(1,0,0,1,385,72.82051282051282) translate(50.358974358974365 57.43589743589743)"/><path d="M320 446a6 6 0 0 1 6-6h248a6 6 0 0 1 6 6v88a6 6 0 0 1-6 6H326a6 6 0 0 1-6-6z" stroke="#000" stroke-opacity="0" fill="#fff" fill-opacity="0"/><use xlink:href="#d" transform="matrix(1,0,0,1,325,445) translate(26.538461538461547 35.86538461538461)"/><use xlink:href="#e" transform="matrix(1,0,0,1,325,445) translate(26.538461538461547 68.68589743589743)"/><path d="M100 240.53a6 6 0 0 1 6-6h228a6 6 0 0 1 6 6v88a6 6 0 0 1-6 6H106a6 6 0 0 1-6-6z" stroke="#000" stroke-opacity="0" fill="#fff" fill-opacity="0"/><g><use xlink:href="#f" transform="matrix(1,0,0,1,105,239.52991452991455) translate(8.333333333333343 35.86538461538461)"/><use xlink:href="#g" transform="matrix(1,0,0,1,105,239.52991452991455) translate(139.6153846153846 35.86538461538461)"/><use xlink:href="#h" transform="matrix(1,0,0,1,105,239.52991452991455) translate(57.56410256410257 68.68589743589743)"/></g><defs><path fill="#3a414a" d="M45-37c13 0 21 8 21 21C67-2 57 4 45 5 33 4 23-2 24-16c0-13 8-21 21-21" id="i"/><g id="a"><use transform="matrix(0.11111111111111108,0,0,0.11111111111111108,0,0)" xlink:href="#i"/><use transform="matrix(0.11111111111111108,0,0,0.11111111111111108,9.999999999999996,0)" xlink:href="#i"/><use transform="matrix(0.11111111111111108,0,0,0.11111111111111108,19.999999999999993,0)" xlink:href="#i"/></g><path fill="#3a414a" d="M599-1254c-140 0-279 61-275 203 6 104 56 139 140 181 101 51 299 91 406 152 118 63 208 156 203 337-8 277-212 401-503 404-210 0-373-70-483-176l103-116c93 85 208 149 383 146 177-3 320-76 320-255 0-188-142-217-302-269-160-53-304-103-389-215-73-95-71-267 2-366 76-102 213-172 389-171 202 0 329 61 440 157l-102 113c-84-75-190-122-332-125" id="j"/><path fill="#3a414a" d="M770-117c82 0 147-22 202-50l65 114C973-8 859 23 755 23 544 29 402-98 401-295v-628H159v-130h242v-239l168-20v259h364l-20 130H569v626c3 126 65 181 201 180" id="k"/><path fill="#3a414a" d="M561-1075c242-4 394 116 394 340v505c0 84 24 115 86 135l-41 118C903 9 834-36 807-125 739-36 626 22 477 23c-203 4-342-127-340-325 0-109 44-189 127-250 108-79 315-93 522-87v-88c16-267-344-226-525-155l-44-127c108-41 213-64 344-66zm73 550c-199-2-317 56-317 221 0 133 68 199 203 199 121-2 213-69 266-149v-271H634" id="l"/><path fill="#3a414a" d="M617-1075c310 0 460 268 424 608H333c1 214 118 350 308 350 127 0 196-40 281-95l79 111C915-32 785 22 639 23c-324-6-476-222-482-548 0-219 84-390 217-479 69-47 150-71 243-71zm266 478c-1-199-84-340-264-340-183 0-278 139-285 340h549" id="m"/><path fill="#3a414a" d="M243-230c76 62 183 114 316 114 170 0 313-88 245-249-12-23-36-44-72-63-77-43-270-78-356-120-96-47-168-106-169-240-6-270 370-339 621-253 63 23 117 50 161 82l-74 114c-81-54-169-95-306-94-136-1-228 31-228 138 0 80 44 103 112 132 87 36 264 72 348 119 96 49 162 119 162 259C997-57 792 16 559 23c-184 3-316-62-412-142" id="n"/><g id="b"><use transform="matrix(0.013675213675213673,0,0,0.013675213675213673,0,0)" xlink:href="#j"/><use transform="matrix(0.013675213675213673,0,0,0.013675213675213673,16.41025641025641,0)" xlink:href="#k"/><use transform="matrix(0.013675213675213673,0,0,0.013675213675213673,32.82051282051282,0)" xlink:href="#l"/><use transform="matrix(0.013675213675213673,0,0,0.013675213675213673,49.230769230769226,0)" xlink:href="#k"/><use transform="matrix(0.013675213675213673,0,0,0.013675213675213673,65.64102564102564,0)" xlink:href="#m"/><use transform="matrix(0.013675213675213673,0,0,0.013675213675213673,82.05128205128204,0)" xlink:href="#n"/></g><path fill="#3a414a" d="M853-1588c-240 213-428 437-428 888 0 454 184 668 428 888l-88 92C485 43 249-196 249-700c0-503 237-744 516-980" id="o"/><path fill="#3a414a" d="M860 0v-653H340V0H167v-1377h173v582h520v-582h173V0H860" id="p"/><path fill="#3a414a" d="M479-1429c-1-65 54-117 121-117 70 0 124 50 123 117 1 68-52 120-123 120-68 0-122-53-121-120zm255 376v920h297V0H241v-133h325v-787H251v-133h483" id="q"/><path fill="#3a414a" d="M537 23c-300 0-396-242-401-548 0-212 69-387 190-479 62-48 136-71 223-71 117 0 211 41 282 124v-547l168 21V0H852l-16-139C770-43 679 23 537 23zm294-828c-50-74-125-133-238-135-88 0-156 34-203 103s-71 173-71 312c0 275 84 412 253 412 127 2 206-89 259-166v-526" id="r"/><path fill="#3a414a" d="M653-943c-139 4-223 94-284 176V0H201v-1053h143l13 146c69-93 203-165 348-168 204-2 296 113 296 310V0H833v-641c-2-175-5-306-180-302" id="s"/><path fill="#3a414a" d="M347 188C591-32 775-246 775-700c0-451-188-675-428-888l88-92c280 237 516 476 516 980 0 503-237 744-516 980" id="t"/><g id="c"><use transform="matrix(0.013675213675213673,0,0,0.013675213675213673,0,0)" xlink:href="#o"/><use transform="matrix(0.013675213675213673,0,0,0.013675213675213673,16.41025641025641,0)" xlink:href="#p"/><use transform="matrix(0.013675213675213673,0,0,0.013675213675213673,32.82051282051282,0)" xlink:href="#q"/><use transform="matrix(0.013675213675213673,0,0,0.013675213675213673,49.230769230769226,0)" xlink:href="#r"/><use transform="matrix(0.013675213675213673,0,0,0.013675213675213673,65.64102564102564,0)" xlink:href="#r"/><use transform="matrix(0.013675213675213673,0,0,0.013675213675213673,82.05128205128204,0)" xlink:href="#m"/><use transform="matrix(0.013675213675213673,0,0,0.013675213675213673,98.46153846153845,0)" xlink:href="#s"/><use transform="matrix(0.013675213675213673,0,0,0.013675213675213673,114.87179487179486,0)" xlink:href="#t"/></g><path fill="#3a414a" d="M1061-1377L1139 0H972c-21-402-57-793-54-1218L686-247H512l-249-971c15 420-23 820-39 1218H61l78-1377h242l223 943 213-943h244" id="u"/><path fill="#3a414a" d="M505 23C304 25 201-90 201-287v-766h168v746c0 134 49 194 177 196 125 1 236-87 285-167v-775h168V0H856l-14-142C774-50 649 20 505 23" id="v"/><path fill="#3a414a" d="M912-1076c61 0 101 10 149 23l-24 356H899v-224c-171-3-283 112-356 346v446h214V0H211v-129h164v-795H211v-129h292l31 249c78-155 163-269 378-272" id="w"/><path fill="#3a414a" d="M663-936c55-73 112-139 232-139 155 0 204 114 204 291V0H943v-757c0-66-4-114-12-143s-31-44-69-44c-90 7-138 56-184 126V0H521v-757c0-66-4-114-12-143s-31-44-69-44c-92 7-137 55-184 126V0H101v-1053h132l10 122c54-71 111-144 229-144 101 0 166 44 191 139" id="x"/><g id="d"><use transform="matrix(0.013675213675213673,0,0,0.013675213675213673,0,0)" xlink:href="#u"/><use transform="matrix(0.013675213675213673,0,0,0.013675213675213673,16.41025641025641,0)" xlink:href="#m"/><use transform="matrix(0.013675213675213673,0,0,0.013675213675213673,32.82051282051282,0)" xlink:href="#l"/><use transform="matrix(0.013675213675213673,0,0,0.013675213675213673,49.230769230769226,0)" xlink:href="#n"/><use transform="matrix(0.013675213675213673,0,0,0.013675213675213673,65.64102564102564,0)" xlink:href="#v"/><use transform="matrix(0.013675213675213673,0,0,0.013675213675213673,82.05128205128204,0)" xlink:href="#w"/><use transform="matrix(0.013675213675213673,0,0,0.013675213675213673,98.46153846153845,0)" xlink:href="#m"/><use transform="matrix(0.013675213675213673,0,0,0.013675213675213673,114.87179487179486,0)" xlink:href="#x"/><use transform="matrix(0.013675213675213673,0,0,0.013675213675213673,131.28205128205127,0)" xlink:href="#m"/><use transform="matrix(0.013675213675213673,0,0,0.013675213675213673,147.69230769230768,0)" xlink:href="#s"/><use transform="matrix(0.013675213675213673,0,0,0.013675213675213673,164.1025641025641,0)" xlink:href="#k"/><use transform="matrix(0.013675213675213673,0,0,0.013675213675213673,180.5128205128205,0)" xlink:href="#n"/></g><path fill="#3a414a" d="M1050-1060c75 203 77 539 0 742C980-125 847 23 600 23 222 23 97-295 93-685c-3-274 79-498 227-623 140-118 421-121 560-2 75 59 132 143 170 250zM850-268c97-168 96-671 0-840-54-95-134-146-250-146s-196 51-250 147c-96 170-97 674 3 841 56 93 134 143 247 143 116 0 196-51 250-145" id="y"/><path fill="#3a414a" d="M669-1075c305 0 391 240 395 548 0 212-66 388-188 479-62 47-138 71-229 71-122 0-218-44-287-132L348 0H201v-1477l168-21v582c66-88 160-159 300-159zM369-249c47 73 128 134 238 136 88 0 156-34 203-102s71-172 71-313c0-275-83-412-248-412-125-2-212 94-264 169v522" id="z"/><path fill="#3a414a" d="M1079-1053L696 0H501L121-1053h178l305 900 301-900h174" id="A"/><path fill="#3a414a" d="M757 23C575 25 443-87 443-269v-1075H120v-133h491v1217C599-84 846-101 962-154l45 123C944-1 855 25 757 23" id="B"/><g id="e"><use transform="matrix(0.013675213675213673,0,0,0.013675213675213673,0,0)" xlink:href="#o"/><use transform="matrix(0.013675213675213673,0,0,0.013675213675213673,16.41025641025641,0)" xlink:href="#y"/><use transform="matrix(0.013675213675213673,0,0,0.013675213675213673,32.82051282051282,0)" xlink:href="#z"/><use transform="matrix(0.013675213675213673,0,0,0.013675213675213673,49.230769230769226,0)" xlink:href="#n"/><use transform="matrix(0.013675213675213673,0,0,0.013675213675213673,65.64102564102564,0)" xlink:href="#m"/><use transform="matrix(0.013675213675213673,0,0,0.013675213675213673,82.05128205128204,0)" xlink:href="#w"/><use transform="matrix(0.013675213675213673,0,0,0.013675213675213673,98.46153846153845,0)" xlink:href="#A"/><use transform="matrix(0.013675213675213673,0,0,0.013675213675213673,114.87179487179486,0)" xlink:href="#l"/><use transform="matrix(0.013675213675213673,0,0,0.013675213675213673,131.28205128205127,0)" xlink:href="#z"/><use transform="matrix(0.013675213675213673,0,0,0.013675213675213673,147.69230769230768,0)" xlink:href="#B"/><use transform="matrix(0.013675213675213673,0,0,0.013675213675213673,164.1025641025641,0)" xlink:href="#m"/><use transform="matrix(0.013675213675213673,0,0,0.013675213675213673,180.5128205128205,0)" xlink:href="#t"/></g><path fill="#3a414a" d="M994-1377v139H688v1099h306V0H206v-139h306v-1099H206v-139h788" id="C"/><g id="f"><use transform="matrix(0.013675213675213673,0,0,0.013675213675213673,0,0)" xlink:href="#C"/><use transform="matrix(0.013675213675213673,0,0,0.013675213675213673,16.41025641025641,0)" xlink:href="#s"/><use transform="matrix(0.013675213675213673,0,0,0.013675213675213673,32.82051282051282,0)" xlink:href="#q"/><use transform="matrix(0.013675213675213673,0,0,0.013675213675213673,49.230769230769226,0)" xlink:href="#k"/><use transform="matrix(0.013675213675213673,0,0,0.013675213675213673,65.64102564102564,0)" xlink:href="#q"/><use transform="matrix(0.013675213675213673,0,0,0.013675213675213673,82.05128205128204,0)" xlink:href="#l"/><use transform="matrix(0.013675213675213673,0,0,0.013675213675213673,98.46153846153845,0)" xlink:href="#B"/></g><g id="g"><use transform="matrix(0.013675213675213673,0,0,0.013675213675213673,0,0)" xlink:href="#j"/><use transform="matrix(0.013675213675213673,0,0,0.013675213675213673,16.41025641025641,0)" xlink:href="#k"/><use transform="matrix(0.013675213675213673,0,0,0.013675213675213673,32.82051282051282,0)" xlink:href="#l"/><use transform="matrix(0.013675213675213673,0,0,0.013675213675213673,49.230769230769226,0)" xlink:href="#k"/><use transform="matrix(0.013675213675213673,0,0,0.013675213675213673,65.64102564102564,0)" xlink:href="#m"/></g><path fill="#3a414a" d="M583-1377c309 1 532 120 531 423 0 322-216 439-533 443H405V0H231v-1377h352zm14 726c210-1 331-82 331-301 0-204-126-287-324-287H405v588h192" id="D"/><path fill="#3a414a" d="M147-525c6-319 139-544 455-550 309-3 455 233 451 548-4 317-139 543-453 550-308 3-455-235-453-548zm658-313c-87-128-321-126-409 1-82 118-82 502 0 621 87 127 321 127 408 0 81-118 82-504 1-622" id="E"/><g id="h"><use transform="matrix(0.013675213675213673,0,0,0.013675213675213673,0,0)" xlink:href="#o"/><use transform="matrix(0.013675213675213673,0,0,0.013675213675213673,16.41025641025641,0)" xlink:href="#D"/><use transform="matrix(0.013675213675213673,0,0,0.013675213675213673,32.82051282051282,0)" xlink:href="#w"/><use transform="matrix(0.013675213675213673,0,0,0.013675213675213673,49.230769230769226,0)" xlink:href="#q"/><use transform="matrix(0.013675213675213673,0,0,0.013675213675213673,65.64102564102564,0)" xlink:href="#E"/><use transform="matrix(0.013675213675213673,0,0,0.013675213675213673,82.05128205128204,0)" xlink:href="#w"/><use transform="matrix(0.013675213675213673,0,0,0.013675213675213673,98.46153846153845,0)" xlink:href="#t"/></g></defs></g></svg>