<svg xmlns="http://www.w3.org/2000/svg" xmlns:xlink="http://www.w3.org/1999/xlink" xmlns:lucid="lucid" width="1921" height="453"><g transform="translate(-40 -621)" lucid:page-tab-id="0_0"><path d="M102.72 689.82a6 6 0 0 1 6-6H774a6 6 0 0 1 6 6v338.24a6 6 0 0 1-6 6H108.72a6 6 0 0 1-6-6z" fill="#fff"/><path d="M148.16 683.9h40.38m20.18 0l40.38-.02m20.2 0h40.37m20.18 0h40.38m20.2 0l40.37-.02m20.2 0h40.36m20.2 0h40.37m20.2 0l40.36-.02m20.18 0h40.38m20.2 0h40.36m20.2 0l20.18-.02.94.08.9.22.88.36.8.5.72.6.6.72.5.8.37.87.23.92v18.83m0 18.84v37.7m.02 18.83v37.7m0 18.83l.02 37.7m0 18.83v37.7m0 18.83l.02 37.68m0 18.84v18.84l-.07.94-.22.92-.35.87-.5.8-.6.7-.72.62-.8.5-.88.35-.9.22h-20.2m-20.2 0H694.2m-20.18 0h-40.38m-20.2 0h-40.37m-20.18 0l-40.38.02m-20.2 0h-40.38m-20.18 0h-40.38m-20.2 0l-40.37.02m-20.2 0h-40.37m-20.2 0h-40.37m-20.2 0l-40.36.02m-20.2 0h-20.18l-.94-.07-.9-.23-.88-.36-.8-.48-.72-.6-.6-.73-.5-.8-.37-.88-.2-.92v-18.84m0-18.84l-.02-37.7m0-18.83v-37.7m-.02-18.84v-37.7m0-18.83l-.02-37.7m0-18.83v-37.7m-.02-18.83v-18.85l.07-.93.2-.93.37-.87.5-.8.6-.72.72-.6.8-.5.87-.36.9-.22h20.2" stroke="#979ea8" stroke-width="2" fill="none"/><path d="M120 717.14a6 6 0 0 1 6-6h428a6 6 0 0 1 6 6v290.92a6 6 0 0 1-6 6H126a6 6 0 0 1-6-6z" fill="#fff"/><path d="M165.9 711.2h40.86m20.43 0h40.84m20.43 0l40.85-.02m20.42 0h40.85m20.42 0l40.85-.02m20.43 0h40.85m20.42 0l20.43-.02.94.08.9.22.88.36.8.5.72.6.6.72.5.8.37.87.23.9v19.46m0 19.46l.02 38.9m0 19.47v38.9m.02 19.46v38.92m0 19.45l.02 38.92m0 19.46v19.46l-.07.94-.22.92-.35.87-.5.8-.6.7-.72.62-.8.5-.88.35-.9.22H534.5m-20.4 0h-40.86m-20.43 0h-40.84m-20.43.02h-40.85m-20.42 0l-40.85.02m-20.42 0h-40.85m-20.43 0l-40.85.02m-20.42 0H126l-.94-.07-.9-.23-.88-.36-.8-.48-.72-.6-.6-.73-.5-.8-.37-.88-.23-.92v-19.46m0-19.45l-.02-38.93m0-19.45V872.8m-.02-19.46v-38.9m0-19.47l-.02-38.9m0-19.47v-19.46l.07-.94.22-.9.35-.88.5-.8.6-.72.72-.6.8-.5.88-.36.9-.22h20.44" stroke="#979ea8" stroke-width="2" fill="none"/><path d="M194.82 744.06H314.6v54.36H194.82z" fill="#fff" fill-opacity="0"/><path d="M226.62 781.65H210.8v-1.58c2.1-.13 2.94-.53 2.94-1.3 0-.8-.6-1.92-2.17-4.22-.98-1.38-1.9-2.76-2.76-4.14-.3.4-.64.86-1.04 1.32-2.56 3.1-4.2 5.72-4.2 6.77 0 .98.92 1.44 3.28 1.57v1.58h-11.1v-1.58c2.43-.13 3.74-1.18 7.42-6.1l2.83-3.7c.97-1.24.45-.65 1.43-1.83l-8.4-12.95c-1.32-1.98-1.72-2.3-3.43-2.57v-1.58h16.43v1.58c-2.16.06-3.08.46-3.08 1.25 0 .85 1.64 3.6 3.8 6.44.27.33.6.72.86 1.1l2.38-3c1.77-2.3 2.5-3.23 2.5-4.2 0-1-.53-1.33-2.04-1.46l-1.32-.13v-1.58h11.04v1.58c-2.03.33-3.35 1.05-4.6 2.56l-6.63 8.27 9.72 15c.46.7.92.97 1.97 1.3v1.58M252.16 771.62l-.2.56c-3.1.32-4.4 1.16-6.17 2.7l-4.93 4.27 2.97 7.06c.7 1.63 1.26 2.75 2.47 2.75 1.4 0 2.42-2 3.44-3.4l.7.52c-.56.97-2.74 5.95-5.9 5.95-2.14 0-3.1-2.47-3.62-3.67l-2.93-6.83-2.6 2.27-2.1 7.7h-3.53l6.87-27.36c.1-.28.14-.6.14-.93 0-.5-.46-1-1.5-1-.4 0-.87 0-1.24.08l-.14-.65 7.34-1.16-5.25 21.18 7.75-6.92c.5-.46.98-1.07.98-1.67 0-.56-.75-.88-1.2-.88h-.57l.2-.56h9M281.7 781.28h-25.87v-3.06h25.88v3.06M303.04 791.5H290.2v-.7c3.45-.18 4.43-1.15 4.43-3.7v-20.87c0-1.58-.42-2.28-1.4-2.28-.46 0-1.25.24-2.1.56l-1.24.47v-.65l8.3-4.22.42.14v27.73c0 2 .93 2.84 4.42 2.84v.7"/><path d="M440 744.06h64.67v54.36H440z" fill="#fff" fill-opacity="0"/><path d="M471.8 781.65h-15.83v-1.58c2.1-.13 2.96-.53 2.96-1.3 0-.8-.6-1.92-2.17-4.22-1-1.38-1.9-2.76-2.76-4.14-.33.4-.66.86-1.05 1.32-2.57 3.1-4.2 5.72-4.2 6.77 0 .98.9 1.44 3.28 1.57v1.58h-11.1v-1.58c2.42-.13 3.74-1.18 7.42-6.1l2.82-3.7c1-1.24.46-.65 1.45-1.83l-8.4-12.95c-1.33-1.98-1.72-2.3-3.43-2.57v-1.58h16.42v1.58c-2.17.06-3.1.46-3.1 1.25 0 .85 1.65 3.6 3.82 6.44.26.33.6.72.86 1.1l2.36-3c1.78-2.3 2.5-3.23 2.5-4.2 0-1-.53-1.33-2.04-1.46l-1.3-.13v-1.58h11.03v1.58c-2.04.33-3.35 1.05-4.6 2.56l-6.64 8.27 9.74 15c.46.7.92.97 1.97 1.3v1.58M497.33 771.66l-.18.56c-3.1.32-4.42 1.16-6.18 2.7l-4.93 4.26 2.98 7.07c.7 1.62 1.25 2.74 2.46 2.74 1.4 0 2.42-2 3.44-3.4l.7.5c-.56.98-2.75 5.95-5.9 5.95-2.14 0-3.12-2.46-3.63-3.67l-2.94-6.83-2.6 2.28-2.1 7.7h-3.52l6.88-27.35c.1-.28.14-.6.14-.93 0-.5-.47-1.02-1.5-1.02-.4 0-.87 0-1.25.1l-.13-.66 7.35-1.16-5.25 21.2 7.75-6.93c.52-.46.98-1.07.98-1.67 0-.56-.74-.88-1.2-.88h-.57l.2-.56h9"/><path d="M621.8 744.06h119.8v54.36H621.8z" fill="#fff" fill-opacity="0"/><path d="M653.62 781.65h-15.84v-1.58c2.1-.13 2.96-.53 2.96-1.3 0-.8-.6-1.92-2.17-4.22-1-1.38-1.9-2.76-2.76-4.14-.32.4-.65.86-1.04 1.32-2.56 3.1-4.2 5.72-4.2 6.77 0 .98.9 1.44 3.28 1.57v1.58h-11.1v-1.58c2.42-.13 3.74-1.18 7.42-6.1l2.82-3.7c1-1.24.46-.65 1.45-1.83l-8.4-12.95c-1.33-1.98-1.72-2.3-3.43-2.57v-1.58h16.43v1.58c-2.17.06-3.1.46-3.1 1.25 0 .85 1.65 3.6 3.82 6.44.27.33.6.72.86 1.1l2.37-3c1.78-2.3 2.5-3.23 2.5-4.2 0-1-.53-1.33-2.04-1.46l-1.3-.13v-1.58h11.03v1.58c-2.04.33-3.35 1.05-4.6 2.56l-6.64 8.27 9.73 15c.46.7.92.97 1.97 1.3v1.58M679.16 771.62l-.2.56c-3.1.32-4.4 1.16-6.17 2.7l-4.93 4.27 2.97 7.06c.7 1.63 1.25 2.75 2.46 2.75 1.4 0 2.42-2 3.44-3.4l.7.52c-.56.97-2.74 5.95-5.9 5.95-2.14 0-3.12-2.47-3.63-3.67l-2.9-6.83-2.62 2.27-2.1 7.7h-3.52l6.88-27.36c.1-.28.14-.6.14-.93 0-.5-.47-1-1.5-1-.4 0-.87 0-1.24.08l-.14-.65 7.34-1.16-5.25 21.18 7.75-6.92c.5-.46.97-1.07.97-1.67 0-.56-.74-.88-1.2-.88h-.56l.18-.56h9.02M709.4 781.28h-12.12v12.13h-3.07V781.3H682.1v-3.06h12.13V766.1h3.08v12.12h12.12v3.06M730.03 791.5H717.2v-.7c3.45-.18 4.42-1.15 4.42-3.7v-20.87c0-1.58-.42-2.28-1.4-2.28-.46 0-1.25.24-2.08.56l-1.26.47v-.65l8.32-4.22.42.14v27.73c0 2 .93 2.84 4.4 2.84v.7"/><path d="M175 924.06h119.78v62.68H175z" fill="#fff" fill-opacity="0"/><path d="M206.68 931.35v1.58c-2.04.26-2.9.8-3.95 3.6L193 962.7c-2.3 6.18-3.67 8.74-5.05 10.25-1.38 1.45-3.3 2.17-5.52 2.17-3.75 0-6.38-2.1-6.38-5.2 0-2.5 1.58-4.4 4.08-4.4 2.23 0 3.94 1.52 3.94 3.42 0 .26-.07.6-.13.92-.07.2-.07.4-.07.4 0 .6.53 1.1 1.12 1.1 1.57 0 3.2-2.1 4.33-5.38l1.18-3.48-7.8-19.06c-1.33-3.28-3.82-8.8-4.4-9.6-.4-.52-.8-.7-2.25-.9v-1.6h16.37v1.6l-1.06.05c-1.64.13-2.36.65-2.36 1.64 0 .26.6 1.97 1.3 3.8l4.74 12.23 4.47-12.35c.6-1.7.74-2.43.74-3.22 0-1.58-.73-2.04-3.55-2.17v-1.58h9.98M232.34 957.67l-.18.55c-3.1.33-4.42 1.16-6.18 2.7l-4.93 4.27 2.98 7.05c.7 1.63 1.25 2.75 2.46 2.75 1.38 0 2.4-2 3.43-3.4l.7.5c-.56 1-2.75 5.96-5.9 5.96-2.14 0-3.12-2.46-3.63-3.67l-2.93-6.84-2.6 2.28-2.1 7.7h-3.52l6.88-27.36c.1-.27.14-.6.14-.92 0-.52-.47-1.03-1.5-1.03-.4 0-.87 0-1.25.1l-.14-.65 7.35-1.17-5.25 21.2 7.75-6.92c.52-.47.98-1.07.98-1.67 0-.55-.73-.88-1.2-.88h-.56l.2-.55h9M261.9 967.33H236v-3.07h25.9v3.07M283.22 977.55H270.4v-.7c3.43-.18 4.4-1.16 4.4-3.7v-20.87c0-1.58-.4-2.28-1.38-2.28-.47 0-1.26.23-2.1.56l-1.25.46v-.65l8.32-4.23.4.14v27.74c0 2 .94 2.83 4.42 2.83v.7"/><path d="M440 924.06h64.67v58.52H440z" fill="#fff" fill-opacity="0"/><path d="M471.68 931.35v1.58c-2.04.26-2.9.8-3.95 3.6L458 962.7c-2.3 6.18-3.67 8.74-5.05 10.25-1.38 1.45-3.3 2.17-5.52 2.17-3.75 0-6.38-2.1-6.38-5.2 0-2.5 1.58-4.4 4.08-4.4 2.23 0 3.94 1.52 3.94 3.42 0 .26-.07.6-.13.92-.07.2-.07.4-.07.4 0 .6.53 1.1 1.12 1.1 1.57 0 3.2-2.1 4.33-5.38l1.18-3.48-7.8-19.06c-1.33-3.28-3.82-8.8-4.4-9.6-.4-.52-.8-.7-2.25-.9v-1.6h16.37v1.6l-1.06.05c-1.64.13-2.36.65-2.36 1.64 0 .26.6 1.97 1.3 3.8l4.74 12.23 4.47-12.35c.6-1.7.74-2.43.74-3.22 0-1.58-.73-2.04-3.55-2.17v-1.58h9.98M497.33 957.65l-.18.56c-3.1.33-4.42 1.17-6.18 2.7l-4.93 4.28 2.98 7.06c.7 1.63 1.25 2.74 2.46 2.74 1.4 0 2.42-2 3.44-3.4l.7.52c-.56.98-2.75 5.95-5.9 5.95-2.14 0-3.12-2.46-3.63-3.67l-2.94-6.83-2.6 2.27-2.1 7.72h-3.52l6.88-27.37c.1-.28.14-.6.14-.93 0-.5-.47-1.02-1.5-1.02-.4 0-.87 0-1.25.1l-.13-.66 7.35-1.16-5.25 21.2 7.75-6.94c.52-.46.98-1.06.98-1.67 0-.57-.74-.9-1.2-.9h-.57l.2-.55h9"/><path d="M621.8 924.06h119.8v62.68H621.8z" fill="#fff" fill-opacity="0"/><path d="M653.5 931.35v1.58c-2.05.26-2.9.8-3.95 3.6l-9.73 26.17c-2.3 6.18-3.68 8.74-5.06 10.25-1.38 1.45-3.3 2.17-5.52 2.17-3.75 0-6.38-2.1-6.38-5.2 0-2.5 1.58-4.4 4.08-4.4 2.23 0 3.94 1.52 3.94 3.42 0 .26-.06.6-.13.92-.07.2-.07.4-.07.4 0 .6.53 1.1 1.12 1.1 1.58 0 3.22-2.1 4.34-5.38l1.18-3.48-7.82-19.06c-1.3-3.28-3.8-8.8-4.4-9.6-.4-.52-.8-.7-2.24-.9v-1.6h16.37v1.6l-1.05.05c-1.65.13-2.37.65-2.37 1.64 0 .26.6 1.97 1.32 3.8l4.74 12.23 4.46-12.35c.6-1.7.73-2.43.73-3.22 0-1.58-.73-2.04-3.55-2.17v-1.58h10M679.16 957.67l-.2.55c-3.1.33-4.4 1.16-6.17 2.7l-4.93 4.27 2.97 7.05c.7 1.63 1.25 2.75 2.46 2.75 1.4 0 2.42-2 3.44-3.4l.7.5c-.56 1-2.74 5.96-5.9 5.96-2.14 0-3.12-2.46-3.63-3.67l-2.9-6.84-2.62 2.28-2.1 7.7h-3.52l6.88-27.36c.1-.27.14-.6.14-.92 0-.52-.47-1.03-1.5-1.03-.4 0-.87 0-1.24.1l-.14-.65 7.34-1.17-5.25 21.2 7.75-6.92c.5-.47.97-1.07.97-1.67 0-.55-.74-.88-1.2-.88h-.56l.18-.55h9.02M709.4 967.33h-12.12v12.13h-3.07v-12.13H682.1v-3.07h12.13v-12.12h3.08v12.12h12.12v3.07M730.03 977.55H717.2v-.7c3.45-.18 4.42-1.16 4.42-3.7v-20.87c0-1.58-.42-2.28-1.4-2.28-.46 0-1.25.23-2.08.56l-1.26.46v-.65l8.32-4.23.42.14v27.74c0 2 .93 2.83 4.4 2.83v.7"/><path d="M81.5 765.24h45.82a.1.1 0 0 0 .1-.1.1.1 0 0 1 .08-.08h26.7M81.54 765.24H80" stroke="#e08fff" stroke-width="3" fill="none"/><path d="M169.96 765.06l-14.26 4.64v-9.27z" stroke="#e08fff" stroke-width="3" fill="#e08fff"/><path d="M321.5 764.06h77.88M321.54 764.06H320" stroke="#e08fff" stroke-width="3" fill="none"/><path d="M415.15 764.06l-14.27 4.64v-9.27z" stroke="#e08fff" stroke-width="3" fill="#e08fff"/><path d="M506.68 764.06h75.2M506.72 764.06h-1.54" stroke="#e08fff" stroke-width="3" fill="none"/><path d="M597.65 764.06l-14.27 4.64v-9.27z" stroke="#e08fff" stroke-width="3" fill="#e08fff"/><path d="M741.5 764.06h77.88M741.54 764.06H740" stroke="#e08fff" stroke-width="3" fill="none"/><path d="M835.15 764.06l-14.27 4.64v-9.27z" stroke="#e08fff" stroke-width="3" fill="#e08fff"/><path d="M221.62 805.56v97.88M221.62 805.6v-1.54" stroke="#6db1ff" stroke-width="3" fill="none"/><path d="M221.62 919.2L217 904.95h9.26z" stroke="#6db1ff" stroke-width="3" fill="#6db1ff"/><path d="M460 805.56v97.88M460 805.6v-1.54" stroke="#6db1ff" stroke-width="3" fill="none"/><path d="M460 919.2l-4.64-14.26h9.28z" stroke="#6db1ff" stroke-width="3" fill="#6db1ff"/><path d="M660 805.56v97.88M660 805.6v-1.54" stroke="#6db1ff" stroke-width="3" fill="none"/><path d="M660 919.2l-4.64-14.26h9.28z" stroke="#6db1ff" stroke-width="3" fill="#6db1ff"/><path d="M1183.72 686a6 6 0 0 1 6-6H1855a6 6 0 0 1 6 6v338.24a6 6 0 0 1-6 6h-665.28a6 6 0 0 1-6-6z" fill="#fff"/><path d="M1229.15 680.07h40.38m20.2 0h40.37m20.2 0l40.36-.02m20.2 0h40.37m20.2 0h40.36m20.18 0l40.38-.02m20.2 0h40.36m20.2 0h40.37m20.18 0l40.37-.02m20.2 0h40.37m20.2 0H1855l.93.07.92.22.87.35.8.5.72.6.6.72.5.8.36.88.22.9v18.85m0 18.85l.02 37.68m0 18.85v37.68m0 18.85l.02 37.7m0 18.84l.02 37.68m0 18.85v37.68m0 18.85l.02 18.84-.08.94-.22.9-.36.88-.5.8-.6.72-.72.6-.8.5-.87.37-.92.22h-20.18m-20.2 0h-40.37m-20.2 0h-40.36m-20.2 0l-40.37.02m-20.2 0h-40.37m-20.18 0h-40.38m-20.2 0h-40.37m-20.18 0h-40.38m-20.2.02h-40.38m-20.18 0h-40.38m-20.2 0h-40.37m-20.2.02h-20.18l-.94-.07-.92-.22-.87-.36-.8-.5-.73-.62-.6-.7-.5-.82-.36-.87-.2-.92v-18.85m-.02-18.84v-37.7m0-18.84l-.02-37.68m0-18.85v-37.68m0-18.85l-.02-37.68m0-18.85l-.02-37.68m0-18.86V686l.07-.94.2-.9.37-.88.5-.8.6-.72.72-.6.8-.5.86-.37.92-.23h20.2" stroke="#979ea8" stroke-width="2" fill="none"/><path d="M1441 713.32a6 6 0 0 1 6-6h388a6 6 0 0 1 6 6v290.92a6 6 0 0 1-6 6h-388a6 6 0 0 1-6-6z" fill="#fff"/><path d="M1489.27 707.38h43.22m21.6 0l43.2-.02m21.62 0h43.2m21.62 0l43.22-.02m21.6 0h43.22m21.6-.02H1835l.93.07.92.2.87.37.8.5.72.6.6.72.5.8.36.86.22.92v19.46m0 19.45l.02 38.9m0 19.47l.02 38.9m0 19.47v38.9m.02 19.47v38.92m0 19.46l.02 19.46-.08.94-.22.9-.36.88-.5.8-.6.72-.72.6-.8.5-.87.37-.92.22h-21.6m-21.6 0h-43.23m-21.6.02h-43.22m-21.6 0h-43.22m-21.6 0l-43.23.02m-21.6 0h-43.22m-21.6 0l-21.6.02-.94-.07-.92-.22-.87-.36-.8-.5-.72-.62-.6-.7-.5-.82-.36-.87-.23-.92v-19.46m0-19.46l-.02-38.9m0-19.47v-38.92m-.02-19.46v-38.9m0-19.47l-.02-38.92m0-19.45v-19.46l.07-.94.22-.92.35-.86.5-.8.6-.72.72-.62.8-.5.87-.35.92-.2h21.6" stroke="#979ea8" stroke-width="2" fill="none"/><path d="M1275.8 740.24h119.8v54.35h-119.8z" fill="#fff" fill-opacity="0"/><path d="M1307.62 777.82h-15.84v-1.57c2.1-.14 2.96-.53 2.96-1.32 0-.8-.6-1.9-2.17-4.2-1-1.38-1.9-2.76-2.76-4.14-.32.38-.65.84-1.04 1.3-2.56 3.1-4.2 5.72-4.2 6.77 0 .98.9 1.44 3.28 1.58v1.57h-11.1v-1.57c2.42-.14 3.74-1.2 7.42-6.12l2.82-3.68c1-1.25.46-.65 1.45-1.84l-8.4-12.93c-1.33-1.97-1.72-2.3-3.43-2.57v-1.57h16.43v1.57c-2.17.07-3.1.46-3.1 1.25 0 .86 1.65 3.62 3.82 6.44.27.32.6.72.86 1.1l2.37-3c1.78-2.3 2.5-3.23 2.5-4.22 0-.98-.53-1.3-2.04-1.44l-1.3-.14v-1.57h11.03v1.57c-2.04.33-3.35 1.06-4.6 2.57l-6.64 8.28 9.73 14.98c.46.72.92 1 1.97 1.32v1.57M1333.16 767.8l-.2.55c-3.1.33-4.4 1.16-6.17 2.7l-4.93 4.27 2.97 7.06c.7 1.63 1.25 2.74 2.46 2.74 1.4 0 2.42-2 3.44-3.4l.7.52c-.56.98-2.74 5.95-5.9 5.95-2.14 0-3.12-2.47-3.63-3.68l-2.9-6.83-2.62 2.27-2.1 7.7h-3.52l6.88-27.36c.1-.26.14-.6.14-.92 0-.5-.47-1.02-1.5-1.02-.4 0-.87 0-1.24.1l-.14-.65 7.34-1.16-5.25 21.2 7.75-6.93c.5-.46.97-1.06.97-1.67 0-.55-.74-.88-1.2-.88h-.56l.18-.56h9.02M1362.7 777.46h-25.87v-3.07h25.88v3.06M1384.03 787.68h-12.82v-.7c3.45-.18 4.42-1.16 4.42-3.7V762.4c0-1.57-.42-2.27-1.4-2.27-.46 0-1.25.23-2.08.56l-1.26.45v-.65l8.32-4.23.42.14v27.75c0 2 .93 2.83 4.4 2.83v.7"/><path d="M1521 740.24h64.67v54.35H1521z" fill="#fff" fill-opacity="0"/><path d="M1552.8 777.82h-15.83v-1.57c2.1-.14 2.95-.53 2.95-1.32 0-.8-.6-1.9-2.17-4.2-.98-1.38-1.9-2.76-2.76-4.14-.33.38-.66.84-1.06 1.3-2.56 3.1-4.2 5.72-4.2 6.77 0 .98.92 1.44 3.28 1.58v1.57h-11.1v-1.57c2.43-.14 3.74-1.2 7.42-6.12l2.83-3.68c.98-1.25.46-.65 1.44-1.84l-8.4-12.93c-1.3-1.97-1.7-2.3-3.42-2.57v-1.57h16.43v1.57c-2.15.07-3.07.46-3.07 1.25 0 .86 1.64 3.62 3.8 6.44.27.32.6.72.86 1.1l2.36-3c1.77-2.3 2.5-3.23 2.5-4.22 0-.98-.53-1.3-2.04-1.44l-1.32-.14v-1.57h11.04v1.57c-2.03.33-3.35 1.06-4.6 2.57l-6.63 8.28 9.73 14.98c.46.72.92 1 1.97 1.32v1.57M1578.33 767.83l-.2.56c-3.1.32-4.4 1.15-6.17 2.7l-4.92 4.26 2.97 7.06c.7 1.63 1.27 2.74 2.48 2.74 1.4 0 2.4-2 3.43-3.4l.7.52c-.55.98-2.73 5.95-5.9 5.95-2.13 0-3.1-2.46-3.6-3.67l-2.94-6.83-2.6 2.28-2.1 7.72h-3.52l6.87-27.37c.1-.28.15-.6.15-.93 0-.5-.46-1.02-1.5-1.02-.4 0-.87 0-1.24.1l-.13-.66 7.34-1.16-5.24 21.2 7.76-6.93c.5-.47.98-1.07.98-1.68 0-.55-.75-.88-1.2-.88h-.57l.2-.57h9"/><path d="M1702.8 740.24h119.8v54.35h-119.8z" fill="#fff" fill-opacity="0"/><path d="M1734.62 777.82h-15.84v-1.57c2.1-.14 2.95-.53 2.95-1.32 0-.8-.6-1.9-2.16-4.2-1-1.38-1.9-2.76-2.76-4.14-.32.38-.65.84-1.05 1.3-2.56 3.1-4.2 5.72-4.2 6.77 0 .98.92 1.44 3.28 1.58v1.57h-11.1v-1.57c2.43-.14 3.74-1.2 7.42-6.12l2.83-3.68c1-1.25.46-.65 1.45-1.84l-8.42-12.93c-1.3-1.97-1.7-2.3-3.4-2.57v-1.57h16.43v1.57c-2.17.07-3.1.46-3.1 1.25 0 .86 1.65 3.62 3.82 6.44.26.32.6.72.85 1.1l2.37-3c1.77-2.3 2.5-3.23 2.5-4.22 0-.98-.53-1.3-2.04-1.44l-1.32-.14v-1.57h11.06v1.57c-2.04.33-3.36 1.06-4.6 2.57l-6.64 8.28 9.72 14.98c.46.72.92 1 1.98 1.32v1.57M1760.15 767.8l-.18.55c-3.12.33-4.42 1.16-6.18 2.7l-4.94 4.27 2.98 7.06c.7 1.63 1.25 2.74 2.46 2.74 1.4 0 2.4-2 3.44-3.4l.7.52c-.56.98-2.75 5.95-5.9 5.95-2.14 0-3.12-2.47-3.63-3.68l-2.92-6.83-2.6 2.27-2.1 7.7h-3.52l6.87-27.36c.1-.26.14-.6.14-.92 0-.5-.46-1.02-1.48-1.02-.43 0-.9 0-1.27.1l-.14-.65 7.33-1.16-5.25 21.2 7.76-6.93c.5-.46.98-1.06.98-1.67 0-.55-.74-.88-1.2-.88h-.57l.2-.56h9M1790.4 777.46h-12.13v12.13h-3.06v-12.14h-12.12v-3.07h12.13v-12.13h3.07v12.12h12.13v3.06M1811.03 787.68h-12.83v-.7c3.44-.18 4.42-1.16 4.42-3.7V762.4c0-1.57-.42-2.27-1.4-2.27-.46 0-1.25.23-2.1.56l-1.24.45v-.65l8.32-4.23.4.14v27.75c0 2 .94 2.83 4.43 2.83v.7"/><path d="M1256 920.24h119.78v62.68H1256z" fill="#fff" fill-opacity="0"/><path d="M1287.67 927.53v1.57c-2.04.27-2.9.8-3.94 3.62l-9.73 26.15c-2.3 6.18-3.68 8.74-5.06 10.26-1.38 1.44-3.28 2.16-5.52 2.16-3.74 0-6.37-2.1-6.37-5.2 0-2.5 1.57-4.4 4.07-4.4 2.24 0 3.94 1.5 3.94 3.42 0 .26-.06.6-.13.92-.06.2-.06.4-.06.4 0 .58.52 1.1 1.1 1.1 1.6 0 3.24-2.1 4.35-5.38l1.2-3.48-7.84-19.06c-1.3-3.3-3.8-8.8-4.4-9.6-.4-.52-.8-.72-2.23-.92v-1.57h16.36v1.57l-1.04.07c-1.64.13-2.37.66-2.37 1.64 0 .28.6 1.98 1.3 3.82l4.74 12.23 4.47-12.36c.6-1.72.73-2.44.73-3.23 0-1.57-.72-2.03-3.55-2.17v-1.57h10M1313.34 953.84l-.2.56c-3.1.32-4.4 1.16-6.17 2.7l-4.92 4.27 2.97 7.06c.7 1.63 1.26 2.74 2.47 2.74 1.38 0 2.4-2 3.42-3.4l.7.52c-.56.97-2.74 5.94-5.9 5.94-2.14 0-3.1-2.47-3.62-3.67l-2.93-6.83-2.6 2.27-2.1 7.73h-3.52l6.87-27.37c.1-.28.14-.6.14-.93 0-.5-.46-1.02-1.5-1.02-.4 0-.87 0-1.24.1l-.14-.65 7.34-1.16-5.25 21.18 7.76-6.93c.5-.46.98-1.07.98-1.67 0-.56-.74-.88-1.2-.88h-.56l.2-.56h9M1342.9 963.5H1317v-3.06h25.9v3.06M1364.22 973.73h-12.83v-.7c3.43-.2 4.4-1.16 4.4-3.72v-20.85c0-1.58-.4-2.28-1.4-2.28-.45 0-1.24.24-2.08.56l-1.25.47v-.65l8.3-4.23.43.14v27.74c0 2 .93 2.83 4.42 2.83v.7"/><path d="M1521 920.24h64.67v58.5H1521z" fill="#fff" fill-opacity="0"/><path d="M1552.67 927.53v1.57c-2.04.27-2.9.8-3.94 3.62l-9.73 26.15c-2.3 6.18-3.68 8.74-5.06 10.26-1.38 1.44-3.28 2.16-5.52 2.16-3.74 0-6.37-2.1-6.37-5.2 0-2.5 1.57-4.4 4.07-4.4 2.24 0 3.94 1.5 3.94 3.42 0 .26-.06.6-.13.92-.06.2-.06.4-.06.4 0 .58.52 1.1 1.1 1.1 1.6 0 3.24-2.1 4.35-5.38l1.2-3.48-7.84-19.06c-1.3-3.3-3.8-8.8-4.4-9.6-.4-.52-.8-.72-2.23-.92v-1.57h16.36v1.57l-1.04.07c-1.64.13-2.37.66-2.37 1.64 0 .28.6 1.98 1.3 3.82l4.74 12.23 4.47-12.36c.6-1.72.73-2.44.73-3.23 0-1.57-.72-2.03-3.55-2.17v-1.57h10M1578.33 953.83l-.2.55c-3.1.33-4.4 1.17-6.17 2.7l-4.92 4.27 2.97 7.07c.7 1.62 1.27 2.74 2.48 2.74 1.4 0 2.4-2 3.43-3.4l.7.52c-.55.97-2.73 5.94-5.9 5.94-2.13 0-3.1-2.46-3.6-3.67l-2.94-6.83-2.6 2.28-2.1 7.7h-3.52l6.87-27.35c.1-.28.15-.6.15-.93 0-.5-.46-1.02-1.5-1.02-.4 0-.87 0-1.24.1l-.13-.66 7.34-1.16-5.24 21.18 7.76-6.92c.5-.46.98-1.07.98-1.67 0-.56-.75-.9-1.2-.9h-.57l.2-.54h9"/><path d="M1702.8 920.24h119.8v62.68h-119.8z" fill="#fff" fill-opacity="0"/><path d="M1734.48 927.53v1.57c-2.03.27-2.9.8-3.94 3.62l-9.73 26.15c-2.3 6.18-3.67 8.74-5.05 10.26-1.38 1.44-3.28 2.16-5.52 2.16-3.74 0-6.37-2.1-6.37-5.2 0-2.5 1.58-4.4 4.07-4.4 2.24 0 3.95 1.5 3.95 3.42 0 .26-.07.6-.13.92-.07.2-.07.4-.07.4 0 .58.53 1.1 1.12 1.1 1.57 0 3.22-2.1 4.33-5.38l1.2-3.48-7.83-19.06c-1.32-3.3-3.8-8.8-4.4-9.6-.4-.52-.8-.72-2.24-.92v-1.57h16.36v1.57l-1.05.07c-1.64.13-2.36.66-2.36 1.64 0 .28.6 1.98 1.32 3.82l4.73 12.23 4.47-12.36c.6-1.72.72-2.44.72-3.23 0-1.57-.72-2.03-3.54-2.17v-1.57h9.98M1760.15 953.84l-.18.56c-3.12.32-4.42 1.16-6.18 2.7l-4.94 4.27 2.98 7.06c.7 1.63 1.25 2.74 2.46 2.74 1.4 0 2.4-2 3.44-3.4l.7.52c-.56.97-2.75 5.94-5.9 5.94-2.14 0-3.12-2.47-3.63-3.67l-2.92-6.83-2.6 2.27-2.1 7.73h-3.52l6.87-27.37c.1-.28.14-.6.14-.93 0-.5-.46-1.02-1.48-1.02-.43 0-.9 0-1.27.1l-.14-.65 7.33-1.16-5.25 21.18 7.76-6.93c.5-.46.98-1.07.98-1.67 0-.56-.74-.88-1.2-.88h-.57l.2-.56h9M1790.4 963.5h-12.13v12.13h-3.06V963.5h-12.12v-3.06h12.13V948.3h3.07v12.14h12.13v3.06M1811.03 973.73h-12.83v-.7c3.44-.2 4.42-1.16 4.42-3.72v-20.85c0-1.58-.42-2.28-1.4-2.28-.46 0-1.25.24-2.1.56l-1.24.47v-.65l8.32-4.23.4.14v27.74c0 2 .94 2.83 4.43 2.83v.7"/><path d="M1162.5 761.42h45.82a.1.1 0 0 0 .08-.1.1.1 0 0 1 .1-.08h26.7M1162.53 761.42H1161" stroke="#e08fff" stroke-width="3" fill="none"/><path d="M1250.96 761.24l-14.27 4.63v-9.27z" stroke="#e08fff" stroke-width="3" fill="#e08fff"/><path d="M1402.5 760.24h77.88M1402.53 760.24H1401" stroke="#e08fff" stroke-width="3" fill="none"/><path d="M1496.14 760.24l-14.26 4.63v-9.27z" stroke="#e08fff" stroke-width="3" fill="#e08fff"/><path d="M1587.68 760.24h75.2M1587.72 760.24h-1.54" stroke="#e08fff" stroke-width="3" fill="none"/><path d="M1678.64 760.24l-14.26 4.63v-9.27z" stroke="#e08fff" stroke-width="3" fill="#e08fff"/><path d="M1822.5 760.24h77.88M1822.53 760.24H1821" stroke="#e08fff" stroke-width="3" fill="none"/><path d="M1916.14 760.24l-14.26 4.63v-9.27z" stroke="#e08fff" stroke-width="3" fill="#e08fff"/><path d="M1302.62 801.74v97.88M1302.62 801.78v-1.54" stroke="#6db1ff" stroke-width="3" fill="none"/><path d="M1302.62 915.38l-4.64-14.26h9.27z" stroke="#6db1ff" stroke-width="3" fill="#6db1ff"/><path d="M1541 801.74v97.88M1541 801.78v-1.54" stroke="#6db1ff" stroke-width="3" fill="none"/><path d="M1541 915.38l-4.64-14.26h9.27z" stroke="#6db1ff" stroke-width="3" fill="#6db1ff"/><path d="M1741 801.74v97.88M1741 801.78v-1.54" stroke="#6db1ff" stroke-width="3" fill="none"/><path d="M1741 915.38l-4.64-14.26h9.27z" stroke="#6db1ff" stroke-width="3" fill="#6db1ff"/><path d="M851.86 828.77a6 6 0 0 1 6-6h248a6 6 0 0 1 6 6v52.7a6 6 0 0 1-6 6h-248a6 6 0 0 1-6-6z" stroke="#000" stroke-opacity="0" fill="#fff" fill-opacity="0"/><use xlink:href="#a" transform="matrix(1,0,0,1,856.8581748487882,827.7690895288946) translate(1.9230769230769482 40.36057692307691)"/><path d="M848.4 855.12H810.05" stroke="#6f7681" stroke-width="7" fill="none"/><path d="M851.9 858.62h-3.6v-7h3.6z" stroke="#6f7681" stroke-width=".05" fill="#6f7681"/><path d="M792.3 855.12l14.26-4.64v9.27z" stroke="#6f7681" stroke-width="7" fill="#6f7681"/><path d="M1115.32 855.12h38.33" stroke="#6f7681" stroke-width="7" fill="none"/><path d="M1115.4 858.62h-3.57v-7h3.58z" stroke="#6f7681" stroke-width=".05" fill="#6f7681"/><path d="M1171.43 855.12l-14.27 4.63v-9.27z" stroke="#6f7681" stroke-width="7" fill="#6f7681"/><defs><path fill="#3a414a" d="M425-1235v464h510v143H425v489h626V0H251v-1377h782l-20 142H425" id="b"/><path fill="#3a414a" d="M535 23c-305 0-384-240-388-548 0-210 63-387 181-479 60-48 133-71 220-71 140 1 227 55 294 137l14-115h143V424l-168-21v-536C766-40 674 23 535 23zm296-828c-47-75-129-133-241-135-175 0-263 138-263 415 0 272 81 408 243 408 125 1 208-86 261-162v-526" id="c"/><path fill="#3a414a" d="M505 23C304 25 201-90 201-287v-766h168v746c0 134 49 194 177 196 125 1 236-87 285-167v-775h168V0H856l-14-142C774-50 649 20 505 23" id="d"/><path fill="#3a414a" d="M479-1429c-1-65 54-117 121-117 70 0 124 50 123 117 1 68-52 120-123 120-68 0-122-53-121-120zm255 376v920h297V0H241v-133h325v-787H251v-133h483" id="e"/><path fill="#3a414a" d="M1079-1053L696 0H501L121-1053h178l305 900 301-900h174" id="f"/><path fill="#3a414a" d="M561-1075c242-4 394 116 394 340v505c0 84 24 115 86 135l-41 118C903 9 834-36 807-125 739-36 626 22 477 23c-203 4-342-127-340-325 0-109 44-189 127-250 108-79 315-93 522-87v-88c16-267-344-226-525-155l-44-127c108-41 213-64 344-66zm73 550c-199-2-317 56-317 221 0 133 68 199 203 199 121-2 213-69 266-149v-271H634" id="g"/><path fill="#3a414a" d="M757 23C575 25 443-87 443-269v-1075H120v-133h491v1217C599-84 846-101 962-154l45 123C944-1 855 25 757 23" id="h"/><path fill="#3a414a" d="M617-1075c310 0 460 268 424 608H333c1 214 118 350 308 350 127 0 196-40 281-95l79 111C915-32 785 22 639 23c-324-6-476-222-482-548 0-219 84-390 217-479 69-47 150-71 243-71zm266 478c-1-199-84-340-264-340-183 0-278 139-285 340h549" id="i"/><path fill="#3a414a" d="M653-943c-139 4-223 94-284 176V0H201v-1053h143l13 146c69-93 203-165 348-168 204-2 296 113 296 310V0H833v-641c-2-175-5-306-180-302" id="j"/><path fill="#3a414a" d="M770-117c82 0 147-22 202-50l65 114C973-8 859 23 755 23 544 29 402-98 401-295v-628H159v-130h242v-239l168-20v259h364l-20 130H569v626c3 126 65 181 201 180" id="k"/><g id="a"><use transform="matrix(0.020512820512820506,0,0,0.020512820512820506,0,0)" xlink:href="#b"/><use transform="matrix(0.020512820512820506,0,0,0.020512820512820506,24.615384615384606,0)" xlink:href="#c"/><use transform="matrix(0.020512820512820506,0,0,0.020512820512820506,49.23076923076921,0)" xlink:href="#d"/><use transform="matrix(0.020512820512820506,0,0,0.020512820512820506,73.84615384615381,0)" xlink:href="#e"/><use transform="matrix(0.020512820512820506,0,0,0.020512820512820506,98.46153846153842,0)" xlink:href="#f"/><use transform="matrix(0.020512820512820506,0,0,0.020512820512820506,123.07692307692304,0)" xlink:href="#g"/><use transform="matrix(0.020512820512820506,0,0,0.020512820512820506,147.69230769230765,0)" xlink:href="#h"/><use transform="matrix(0.020512820512820506,0,0,0.020512820512820506,172.30769230769224,0)" xlink:href="#i"/><use transform="matrix(0.020512820512820506,0,0,0.020512820512820506,196.9230769230769,0)" xlink:href="#j"/><use transform="matrix(0.020512820512820506,0,0,0.020512820512820506,221.5384615384615,0)" xlink:href="#k"/></g></defs></g></svg>