<svg xmlns="http://www.w3.org/2000/svg" xmlns:xlink="http://www.w3.org/1999/xlink" xmlns:lucid="lucid" width="393" height="502"><g transform="translate(-1003 0)" lucid:page-tab-id="0_0"><path d="M1046.6 388.08L1258 61.98" stroke="#3a414a" stroke-width="2" fill="none"/><path d="M1047.44 388.6l-.65 1-.9-.83-.78-.2.68-1.04zM1258.7 61.28l.77.2-.68 1.04-1.64-1.06.64-1z" stroke="#3a414a" stroke-width=".05" fill="#3a414a"/><path d="M1049.67 391.62l184.82-75.7" stroke="#3a414a" stroke-width="2" fill="none"/><path d="M1050.06 392.5l-1.02.43-.58-1.82-.04-.03.9-.36zM1235.7 316.44l.04.04-.9.37-.74-1.8 1.03-.43z" stroke="#3a414a" stroke-width=".05" fill="#3a414a"/><path d="M1242.38 305.38l19.23-242.36" stroke="#3a414a" stroke-width="2" fill="none"/><path d="M1243.36 305.43l-.1 1.2-1.36-.35h-.4l-.17.05.08-1.05zM1262.1 62.12h.4l.17-.05-.1 1.05-1.93-.15.1-1.2z" stroke="#3a414a" stroke-width=".05" fill="#3a414a"/><path d="M1357.67 306.17L1264.9 62.5" stroke="#3a414a" stroke-width="2" fill="none"/><path d="M1358.97 306.85l-1.9.5-.32-.85 1.82-.7zM1265.82 62.17l-1.83.7-.4-1.05 1.9-.52z" stroke="#3a414a" stroke-width=".05" fill="#3a414a"/><path d="M1050 392.65l302.74-77.48" stroke="#3a414a" stroke-width="2" fill="none"/><path d="M1050.26 393.6l-.94.23-.6-1.86 1.06-.27zM1354 315.85l-1.05.27-.48-1.9.94-.23z" stroke="#3a414a" stroke-width=".05" fill="#3a414a"/><path d="M1249.87 312.97l102.4.23" stroke="#3a414a" stroke-width="2" fill="none"/><path d="M1249.9 312v1.94h-1.27l.25-.86v-.43l-.22-.66zM1353.5 312.23l-.24.86v.42l.2.66h-1.23v-1.95z" stroke="#3a414a" stroke-width=".05" fill="#3a414a"/><path d="M1268.3 55.45c0 3.13-2.72 5.67-6.1 5.67-3.35 0-6.08-2.54-6.08-5.67s2.73-5.67 6.1-5.67c3.36 0 6.1 2.54 6.1 5.67zM1366.44 313.22c0 3.13-2.72 5.67-6.1 5.67-3.35 0-6.08-2.55-6.08-5.68s2.73-5.67 6.1-5.67c3.36 0 6.08 2.54 6.08 5.67zM1048.47 394.6c0 3.13-2.73 5.67-6.1 5.67-3.36 0-6.08-2.54-6.08-5.67s2.7-5.67 6.08-5.67c3.36 0 6.1 2.54 6.1 5.67zM1247.87 312.95c0 3.13-2.72 5.67-6.1 5.67-3.35 0-6.08-2.54-6.08-5.67s2.72-5.67 6.08-5.67c3.37 0 6.1 2.54 6.1 5.67z" stroke="#000" stroke-width="2"/><path d="M1268.3 285.67c0 3.13-2.72 5.67-6.1 5.67-3.35 0-6.08-2.54-6.08-5.67s2.73-5.67 6.1-5.67c3.36 0 6.1 2.54 6.1 5.67zM1112.18 350.04c0 3.13-2.72 5.67-6.1 5.67-3.35 0-6.08-2.53-6.08-5.66 0-3.13 2.73-5.67 6.1-5.67 3.36 0 6.08 2.54 6.08 5.67zM1332.18 297c0 3.14-2.72 5.68-6.1 5.68-3.35 0-6.08-2.54-6.08-5.67 0-3.12 2.73-5.66 6.1-5.66 3.36 0 6.08 2.54 6.08 5.67zM1277.8 107.7c0 3.13-2.72 5.67-6.08 5.67-3.37 0-6.1-2.54-6.1-5.67s2.73-5.67 6.1-5.67c3.36 0 6.1 2.54 6.1 5.67z" stroke="#fe7070" stroke-width="2" fill="#fe7070"/><path d="M1269.8 55.5l4.52.35m4.5.44l7.43 1.7 1.35.54m4.2 1.72l3.27 1.94 2.4 1.98 1.43 1.6m2.24 3.93l.08.2.55 2.05.02.08.23 2.24-.1 2.94-.26 1.45m-1.05 4.4l-1.07 3.3-2.45 5.04m-2.38 3.84l-1.96 2.93-.68.75" stroke="#6f7681" stroke-linejoin="round" fill="none"/><path d="M1269.85 55.02l-.07.94-.57-.04.1-.34v-.43l-.06-.18z" stroke="#6f7681" stroke-width=".05" fill="#6f7681"/><path d="M1280.16 106.8l9.34-11.73 5.1 7.74z" stroke="#6f7681" fill="#6f7681"/><path d="M1360.6 306.12l2.24-3.87m2.05-3.95l.98-2.73.43-2.44.02-1.73-.23-1.33-.17-.44m-2.7-3.43l-1.02-.6-1.85-.7-2.83-.52-2.9-.04m-4.42.42l-4.07.64-.32.1" stroke="#6f7681" stroke-linejoin="round" fill="none"/><path d="M1361.02 306.34l-.17.3-.38-.1h-.4l-.32.1.45-.77z" stroke="#6f7681" stroke-width=".05" fill="#6f7681"/><path d="M1332.74 292l10.72-10.5 4.12 8.3z" stroke="#6f7681" fill="#6f7681"/><path d="M1042.1 387.52l-1.7-2.38-1.06-1.82m-2.18-4.5l-.1-.22-1.23-3.67-.88-3.86-.25-1.97m-.34-5l-.02-.88.26-3.78.6-3.57.48-1.7m1.65-4.74l1.35-2.7 1.6-2.5 1.75-2.26.83-.87m3.72-3.36l.67-.5 1.73-1.1 2.25-1.17 2.96-1.23 1.34-.44m4.84-1.34l2.67-.62 6.03-.86 1.2-.07m5.03-.28l.42-.02 6.4.16 3.2.36m4.97.78l1.65.33 3.2.92" stroke="#6f7681" stroke-linejoin="round" fill="none"/><path d="M1043.06 388.07l-.57-.14h-.4l-.25.07-.16-.2.77-.56z" stroke="#6f7681" stroke-width=".05" fill="#6f7681"/><path d="M1104.94 342.24l-13.44-6.68 6.5-6.62z" stroke="#6f7681" fill="#6f7681"/><path d="M1234.25 312.7l-4.54-2.55m-4.52-2.55l-4.9-2.74-3.7-3.04m-3.5-3.84l-.6-1-.5-1.27-.22-1.04-.04-.92.1-.87.28-.87.45-.9.73-1 1.2-1.14.16-.1m4.54-2.5l1.4-.64 8.44-2.24.15-.02m5.18-.5l5.18-.53" stroke="#6f7681" stroke-linejoin="round" fill="none"/><path d="M1234.8 312.46l-.1.36v.43l.1.3-.8-.44.47-.82z" stroke="#6f7681" stroke-width=".05" fill="#6f7681"/><path d="M1254.2 283.03l-14.44 4.05.38-9.26z" stroke="#6f7681" fill="#6f7681"/><path d="M1080 428.18a6 6 0 0 1 6-6h228a6 6 0 0 1 6 6v48a6 6 0 0 1-6 6h-228a6 6 0 0 1-6-6z" fill="none"/><use xlink:href="#a" transform="matrix(1,0,0,1,1080,422.17710725623124) translate(45.93333333333334 23.94)"/><use xlink:href="#b" transform="matrix(1,0,0,1,1080,422.17710725623124) translate(72.86666666666667 51.77111111111111)"/><defs><path d="M550-510c0 133-83 210-217 210H180V0H90v-720h243c135 4 217 76 217 210zm-93 0c1-76-49-130-124-130H180v260h153c75 1 125-54 124-130" id="c"/><path d="M331-481c-79-1-129 55-129 136V0h-90v-550h85v95h8c16-64 75-106 155-105 129 0 196 94 186 235h-90c6-96-36-156-125-156" id="d"/><path d="M520-205c1 133-86 217-220 215C161 7 80-67 80-205v-140c4-138 81-211 220-215 133-2 220 81 220 214v141zM300-480c-80-1-130 53-130 135v140c-1 82 49 136 130 135 80 1 130-53 130-135v-140c1-82-50-136-130-135" id="e"/><path d="M335 10c-82 0-138-40-154-105h-8V0H88v-720h90c-1 89 3 183-5 265h8c16-65 72-105 154-105 125 5 185 87 185 215v140C516-77 460 5 335 10zm-34-492c-77-1-123 58-123 137v140c-2 79 46 138 123 137 80 1 129-56 129-137v-140c1-84-47-137-129-137" id="f"/><path d="M244 10C137 12 62-55 63-160c4-115 78-170 195-170h164c12-102-35-154-130-153-58-1-107 23-122 64H80c18-88 105-142 214-141 126-2 218 60 218 180V0h-82v-105h-8C406-34 333 11 244 10zm16-270c-64-1-107 35-107 98 0 64 44 99 111 98 87-3 151-38 158-121v-75H260" id="g"/><path d="M95 0v-82h200v-386H120v-82h265v468h165V0H95zm155-704c0-43 35-61 85-61 37 0 66 25 65 61 0 43-36 59-85 59-37 0-66-22-65-59" id="h"/><path d="M387 0C286 1 222-60 222-160v-488H40v-82h272v570c-1 48 28 78 75 78h163V0H387" id="i"/><path d="M375 0c-90 2-156-55-155-142v-326H60v-82h160v-170h90v170h215v82H310v326c-1 89 124 53 205 60V0H375" id="j"/><path d="M50-550h100c49 132 109 253 149 394 3 13 4 24 5 34h7c28-161 96-285 142-428h97L282 170h-96l77-210" id="k"/><g id="a"><use transform="matrix(0.02244444444444444,0,0,0.02244444444444444,0,0)" xlink:href="#c"/><use transform="matrix(0.02244444444444444,0,0,0.02244444444444444,13.466666666666665,0)" xlink:href="#d"/><use transform="matrix(0.02244444444444444,0,0,0.02244444444444444,26.93333333333333,0)" xlink:href="#e"/><use transform="matrix(0.02244444444444444,0,0,0.02244444444444444,40.39999999999999,0)" xlink:href="#f"/><use transform="matrix(0.02244444444444444,0,0,0.02244444444444444,53.86666666666666,0)" xlink:href="#g"/><use transform="matrix(0.02244444444444444,0,0,0.02244444444444444,67.33333333333333,0)" xlink:href="#f"/><use transform="matrix(0.02244444444444444,0,0,0.02244444444444444,80.8,0)" xlink:href="#h"/><use transform="matrix(0.02244444444444444,0,0,0.02244444444444444,94.26666666666667,0)" xlink:href="#i"/><use transform="matrix(0.02244444444444444,0,0,0.02244444444444444,107.73333333333333,0)" xlink:href="#h"/><use transform="matrix(0.02244444444444444,0,0,0.02244444444444444,121.2,0)" xlink:href="#j"/><use transform="matrix(0.02244444444444444,0,0,0.02244444444444444,134.66666666666666,0)" xlink:href="#k"/></g><path d="M530-183C546 43 162 72 88-105c-11-24-17-51-18-80h95c0 73 61 117 137 115 78 1 135-37 136-110-1-106-100-129-182-157C146-375 92-444 92-540c0-152 150-222 300-176 75 26 125 81 129 177h-95c1-69-52-112-122-111-69-1-122 36-122 102-1 109 109 123 191 154 89 34 149 99 157 211" id="l"/><path d="M206-491c-42 0-59 32-59 77V0H62v-550h78v81h7c5-55 31-91 88-91 49 0 81 30 95 91h6c4-55 35-91 92-91 74 1 110 61 110 141V0h-86v-419c0-42-17-71-56-72-42 0-61 32-61 77V0h-70v-419c0-43-19-72-59-72" id="m"/><path d="M173-95c9 81 4 176 5 265H88v-720h85v95h8c16-65 72-105 154-105 125 5 185 87 185 215v140C516-77 460 5 335 10c-82 0-138-40-154-105h-8zm128-387c-77-1-123 58-123 137v140c-2 79 46 138 123 137 80 1 129-56 129-137v-140c1-84-47-137-129-137" id="n"/><path d="M300 10C167 12 80-68 80-200v-150c-1-132 87-212 220-210 133-2 221 78 220 210v101H170C159-141 202-70 300-70c58 0 106-19 127-55h90C496-41 407 11 300 10zm0-490c-91 0-138 57-130 156h260c8-99-39-156-130-156" id="o"/><path d="M48 0l199-282L60-550h108c43 71 95 132 131 210 41-72 90-140 135-210h107L354-283 552 0H444c-47-76-102-143-142-225-11 7-12 29-23 39L155 0H48" id="p"/><g id="b"><use transform="matrix(0.02244444444444444,0,0,0.02244444444444444,0,0)" xlink:href="#l"/><use transform="matrix(0.02244444444444444,0,0,0.02244444444444444,13.466666666666665,0)" xlink:href="#h"/><use transform="matrix(0.02244444444444444,0,0,0.02244444444444444,26.93333333333333,0)" xlink:href="#m"/><use transform="matrix(0.02244444444444444,0,0,0.02244444444444444,40.39999999999999,0)" xlink:href="#n"/><use transform="matrix(0.02244444444444444,0,0,0.02244444444444444,53.86666666666666,0)" xlink:href="#i"/><use transform="matrix(0.02244444444444444,0,0,0.02244444444444444,67.33333333333333,0)" xlink:href="#o"/><use transform="matrix(0.02244444444444444,0,0,0.02244444444444444,80.8,0)" xlink:href="#p"/></g></defs></g></svg>