<svg xmlns="http://www.w3.org/2000/svg" xmlns:xlink="http://www.w3.org/1999/xlink" xmlns:lucid="lucid" width="700" height="542"><g transform="translate(-280 0)" lucid:page-tab-id="0_0"><path d="M624.34 413.56l211.4-326.1" stroke="#3a414a" stroke-width="2" fill="none"/><path d="M625.17 414.07l-.64 1-.9-.8-.77-.2.68-1.06zM836.43 86.76l.78.2-.67 1.04-1.63-1.06.64-1z" stroke="#3a414a" stroke-width=".05" fill="#3a414a"/><path d="M627.4 417.1l184.83-75.7" stroke="#3a414a" stroke-width="2" fill="none"/><path d="M627.8 418l-1.03.4-.57-1.8-.04-.05.9-.36zM813.44 341.92l.03.04-.9.37-.73-1.8 1.02-.43z" stroke="#3a414a" stroke-width=".05" fill="#3a414a"/><path d="M820.12 330.86L839.35 88.5" stroke="#3a414a" stroke-width="2" fill="none"/><path d="M821.1 330.9l-.1 1.2-1.36-.34h-.4l-.17.05.08-1.04zM839.84 87.6h.4l.16-.05-.08 1.05-1.94-.16.1-1.18z" stroke="#3a414a" stroke-width=".05" fill="#3a414a"/><path d="M935.4 331.65L842.65 87.98" stroke="#3a414a" stroke-width="2" fill="none"/><path d="M936.7 332.33l-1.88.52-.33-.87 1.8-.7zM843.56 87.65l-1.83.7-.4-1.05 1.9-.52z" stroke="#3a414a" stroke-width=".05" fill="#3a414a"/><path d="M627.73 418.13l302.75-77.48" stroke="#3a414a" stroke-width="2" fill="none"/><path d="M628 419.07l-.94.24-.6-1.85 1.06-.27zM931.74 341.33l-1.05.27-.5-1.9.95-.23z" stroke="#3a414a" stroke-width=".05" fill="#3a414a"/><path d="M827.6 338.45l102.4.23" stroke="#3a414a" stroke-width="2" fill="none"/><path d="M827.64 337.47v1.95h-1.27l.25-.86v-.43l-.22-.66zM931.24 337.7l-.24.87v.43l.2.66h-1.23v-1.95z" stroke="#3a414a" stroke-width=".05" fill="#3a414a"/><path d="M846.04 80.93c0 3.13-2.72 5.67-6.1 5.67-3.35 0-6.08-2.54-6.08-5.67s2.73-5.67 6.1-5.67c3.36 0 6.08 2.54 6.08 5.67zM944.18 338.7c0 3.13-2.72 5.67-6.1 5.67-3.35 0-6.08-2.54-6.08-5.67s2.73-5.67 6.1-5.67c3.36 0 6.08 2.54 6.08 5.67zM626.2 420.08c0 3.13-2.72 5.67-6.08 5.67-3.37 0-6.1-2.54-6.1-5.67s2.73-5.67 6.1-5.67c3.36 0 6.1 2.55 6.1 5.68zM825.6 338.43c0 3.13-2.7 5.67-6.08 5.67-3.36 0-6.1-2.54-6.1-5.67s2.74-5.67 6.1-5.67c3.37 0 6.1 2.54 6.1 5.67z" stroke="#000" stroke-width="2"/><path d="M630.18 428.18a6 6 0 0 1 6-6h228a6 6 0 0 1 6 6v48a6 6 0 0 1-6 6h-228a6 6 0 0 1-6-6z" fill="none"/><use xlink:href="#a" transform="matrix(1,0,0,1,630.1781453636627,422.17710725623124) translate(72.86666666666667 37.855555555555554)"/><path d="M420 127.12a6 6 0 0 1 6-6h68a6 6 0 0 1 6 6v48a6 6 0 0 1-6 6h-68a6 6 0 0 1-6-6z" fill="none"/><use xlink:href="#b" transform="matrix(1,0,0,1,420,121.11870157994011) translate(26.53333333333334 37.855555555555554)"/><path d="M420 187.12a6 6 0 0 1 6-6h68a6 6 0 0 1 6 6v48a6 6 0 0 1-6 6h-68a6 6 0 0 1-6-6z" fill="none"/><use xlink:href="#c" transform="matrix(1,0,0,1,420,181.1187015799401) translate(26.533333333333335 37.855555555555554)"/><path d="M420 247.12a6 6 0 0 1 6-6h68a6 6 0 0 1 6 6v48a6 6 0 0 1-6 6h-68a6 6 0 0 1-6-6z" fill="none"/><use xlink:href="#d" transform="matrix(1,0,0,1,420,241.11870157994008) translate(26.533333333333335 37.855555555555554)"/><path d="M420 307.16a6 6 0 0 1 6-6h68a6 6 0 0 1 6 6v48a6 6 0 0 1-6 6h-68a6 6 0 0 1-6-6z" fill="none"/><use xlink:href="#e" transform="matrix(1,0,0,1,420,301.15909204338334) translate(26.533333333333335 37.855555555555554)"/><path d="M340 67.12a6 6 0 0 1 6-6h228a6 6 0 0 1 6 6v48a6 6 0 0 1-6 6H346a6 6 0 0 1-6-6z" fill="none"/><use xlink:href="#f" transform="matrix(1,0,0,1,340,61.11870157994011) translate(31.20000000000003 38.633333333333326)"/><use xlink:href="#g" transform="matrix(1,0,0,1,340,61.11870157994011) translate(120 38.633333333333326)"/><path d="M500.5 151.1l5.12-.1m5.1-.1l.64-.02 9.57-.6m5.1-.47l7.6-.8 2.54-.36m5.06-.75l3.56-.54 6.5-1.24m5.02-.97l9.95-2.33m4.95-1.3l9.38-2.63.46-.16m4.86-1.58l8.64-2.8 1.06-.4m4.8-1.8l9.57-3.57m4.72-1.95l9.42-3.98m4.7-2l7.35-3.1 2.05-.9m4.67-2.1l9.35-4.13m4.67-2.08l9.34-4.14m4.68-2.07L680.3 98m4.68-2.07l9.34-4.15M699 89.7l2.35-1.03 7.17-2.68m4.8-1.8l2.94-1.1 6.72-2.18m4.87-1.6l.55-.17 9.28-2.6m4.97-1.22l6.3-1.48 3.68-.7m5.02-.97l.57-.1 8.93-1.32.62-.07m5.08-.54l3.02-.32 7.17-.45m5.1-.18l5-.1 5.24.1m5.1.18l7.26.46 2.94.3m5.08.54l1.12.12 3.94.58" stroke="#6f7681" stroke-linejoin="round" fill="none"/><path d="M500.53 151.58H500v-.94h.5z" stroke="#6f7681" stroke-width=".05" fill="#6f7681"/><path d="M838.36 73.98l-14.86 2.07 1.62-9.13z" stroke="#6f7681" fill="#6f7681"/><path d="M500.5 211.1l5.02-.1m5.02-.1l9.76-.22.27-.02m5-.32l10.02-.64m5-.32l6-.4 4-.4m4.98-.55l9.98-1.07m5-.53l9.97-1.07m5-.54l1.25-.13 8.7-1.16m4.96-.66l9.95-1.32m4.96-.66l9.95-1.32m4.98-.66l9.95-1.32m4.97-.66l9.95-1.32m4.97-.66l9.95-1.32m4.97-.66l9.95-1.32m4.96-.66l9.95-1.32m4.98-.66l9.95-1.32m4.97-.66l9.95-1.32m4.98-.66l2.65-.35 7.34-.46m5-.32l10.02-.65m5-.15l10.05-.22m5-.05l10.04.2m5 .2l9.6.6.42.05m5 .52l4.8.5 5.14.76m4.96.78l6.83 1.3 3 .7m4.87 1.18l5.8 1.6 3.8 1.25m4.75 1.65l2.92 1.1 5.12 2.14 1.23.57m4.5 2.17l3.55 1.85 4.24 2.44.96.6m4.2 2.75l2.7 1.86 3.66 2.78 1.66 1.38m3.8 3.28l1.44 1.3 3.27 3.2 2.4 2.56m3.3 3.77l.5.6 3 3.74 2.62 3.6m2.8 4.18l.3.46 2.75 4.56 2 3.65m2.28 4.48l1.02 2.05 2.55 5.72.54 1.38M925 267l.1.2 2.37 6.83.74 2.47m1.46 4.8l.08.28 2.15 8.4.22 1.05m1.04 4.9l.73 3.44 1.08 6.44m.8 4.96l.62 4.98" stroke="#6f7681" stroke-linejoin="round" fill="none"/><path d="M500.53 211.58H500v-.94h.5z" stroke="#6f7681" stroke-width=".05" fill="#6f7681"/><path d="M937.92 330.42l-6.08-13.7 9.23-.97z" stroke="#6f7681" fill="#6f7681"/><path d="M500.5 271.1l4.94-.1m4.93-.1h.4l9.45-.6m4.92-.38l9.82-1.05m4.9-.52l.93-.1 8.83-1.32m4.88-.73l9.77-1.46m4.87-.8l9.72-1.72m4.86-.87l9.72-1.72m4.86-.86l9.72-1.7m4.86-.88l9.72-1.73m4.86-.86l9.72-1.7m4.86-.87l9.72-1.72m4.86-.85l9.72-1.72m4.86-.85l9.8-1.05m4.92-.52l1.44-.14 8.4-.54m4.93-.28l5.27-.16 4.6.02m4.93.02h.44l8.98.44.44.04m4.9.46l2.76.25 7.04.98m4.86.87l2.05.38 6 1.37 1.57.43m4.75 1.34l4.16 1.35 4.58 1.7.55.25m4.52 1.96l3 1.44 3.6 1.9 2.13 1.26m4.17 2.64l.14.1 2.9 2.06 2.7 2.12 2.05 1.76m3.6 3.4l1.5 1.55 2.1 2.35 2 2.42.84 1.14m2.84 4.04l1.6 2.6 1.55 2.78 1.46 2.9.15.35m1.93 4.54l.53 1.32 1.16 3.34 1.05 3.53.3 1.2m1.1 4.8l.36 1.73.5 3.13" stroke="#6f7681" stroke-linejoin="round" fill="none"/><path d="M500.52 271.58H500v-.94h.5z" stroke="#6f7681" stroke-width=".05" fill="#6f7681"/><path d="M819.4 330.14l-5.63-13.9 9.24-.65z" stroke="#6f7681" fill="#6f7681"/><path d="M500.5 331.17l4.85.1m4.85.16l7.28.46 2.4.24m4.83.5l1.1.12 7.93 1.17.6.1m4.75.92l2.08.4 6.92 1.62.47.13m4.67 1.3l1.27.36 5.9 1.9 2.04.77m4.53 1.74l3.8 1.6 4.56 2.14.48.27m4.3 2.27l3.22 1.86 3.5 2.22 1.52 1.05m3.9 2.86l.77.57 2.73 2.26 2.5 2.26 1.33 1.3m3.36 3.5l1.76 2.03 1.82 2.3 1.7 2.33.66 1m2.55 4.13l1.1 2 1.2 2.43 1.12 2.48.73 1.88m1.57 4.6l.4 1.3.7 2.75.14.63" stroke="#6f7681" stroke-linejoin="round" fill="none"/><path d="M500.52 330.7l-.02.94h-.5v-.96z" stroke="#6f7681" stroke-width=".05" fill="#6f7681"/><path d="M619.94 411.8l-6.14-13.68 9.22-1z" stroke="#6f7681" fill="#6f7681"/><defs><path d="M530-183C546 43 162 72 88-105c-11-24-17-51-18-80h95c0 73 61 117 137 115 78 1 135-37 136-110-1-106-100-129-182-157C146-375 92-444 92-540c0-152 150-222 300-176 75 26 125 81 129 177h-95c1-69-52-112-122-111-69-1-122 36-122 102-1 109 109 123 191 154 89 34 149 99 157 211" id="h"/><path d="M95 0v-82h200v-386H120v-82h265v468h165V0H95zm155-704c0-43 35-61 85-61 37 0 66 25 65 61 0 43-36 59-85 59-37 0-66-22-65-59" id="i"/><path d="M206-491c-42 0-59 32-59 77V0H62v-550h78v81h7c5-55 31-91 88-91 49 0 81 30 95 91h6c4-55 35-91 92-91 74 1 110 61 110 141V0h-86v-419c0-42-17-71-56-72-42 0-61 32-61 77V0h-70v-419c0-43-19-72-59-72" id="j"/><path d="M173-95c9 81 4 176 5 265H88v-720h85v95h8c16-65 72-105 154-105 125 5 185 87 185 215v140C516-77 460 5 335 10c-82 0-138-40-154-105h-8zm128-387c-77-1-123 58-123 137v140c-2 79 46 138 123 137 80 1 129-56 129-137v-140c1-84-47-137-129-137" id="k"/><path d="M387 0C286 1 222-60 222-160v-488H40v-82h272v570c-1 48 28 78 75 78h163V0H387" id="l"/><path d="M300 10C167 12 80-68 80-200v-150c-1-132 87-212 220-210 133-2 221 78 220 210v101H170C159-141 202-70 300-70c58 0 106-19 127-55h90C496-41 407 11 300 10zm0-490c-91 0-138 57-130 156h260c8-99-39-156-130-156" id="m"/><path d="M48 0l199-282L60-550h108c43 71 95 132 131 210 41-72 90-140 135-210h107L354-283 552 0H444c-47-76-102-143-142-225-11 7-12 29-23 39L155 0H48" id="n"/><g id="a"><use transform="matrix(0.02244444444444444,0,0,0.02244444444444444,0,0)" xlink:href="#h"/><use transform="matrix(0.02244444444444444,0,0,0.02244444444444444,13.466666666666665,0)" xlink:href="#i"/><use transform="matrix(0.02244444444444444,0,0,0.02244444444444444,26.93333333333333,0)" xlink:href="#j"/><use transform="matrix(0.02244444444444444,0,0,0.02244444444444444,40.39999999999999,0)" xlink:href="#k"/><use transform="matrix(0.02244444444444444,0,0,0.02244444444444444,53.86666666666666,0)" xlink:href="#l"/><use transform="matrix(0.02244444444444444,0,0,0.02244444444444444,67.33333333333333,0)" xlink:href="#m"/><use transform="matrix(0.02244444444444444,0,0,0.02244444444444444,80.8,0)" xlink:href="#n"/></g><path d="M526-185C513-67 435 11 306 10 167 7 86-67 86-205v-310c4-138 81-212 220-215 128-1 207 77 220 195h-90c-7-69-55-115-130-115-80-1-130 53-130 135v310c-1 82 49 136 130 135 75 0 123-46 130-115h90" id="o"/><path d="M283-80v-565c-57 45-120 84-180 126v-91l155-110h115v640h162V0H90v-80h193" id="p"/><g id="b"><use transform="matrix(0.022444444444444437,0,0,0.022444444444444437,0,0)" xlink:href="#o"/><use transform="matrix(0.022444444444444437,0,0,0.022444444444444437,13.466666666666661,0)" xlink:href="#p"/></g><path d="M296-650c-78-2-138 45-138 120H65c10-130 94-200 231-200 134 0 217 69 217 200 0 210-184 302-307 421-11 9-25 18-38 25v4c114-4 235-1 352-2V0H70v-100c104-97 233-179 313-298 22-38 36-76 37-131 1-74-50-122-124-121" id="q"/><g id="c"><use transform="matrix(0.02244444444444444,0,0,0.02244444444444444,0,0)" xlink:href="#o"/><use transform="matrix(0.02244444444444444,0,0,0.02244444444444444,13.466666666666665,0)" xlink:href="#q"/></g><path d="M524-210C530-38 375 46 208-4 130-28 78-91 68-185h90c9 66 62 116 136 115 83 1 140-57 139-140 1-83-59-142-143-140h-84v-95c69-66 129-141 208-197v-2c-101 8-217 2-324 4v-80h400v100c-67 63-133 129-202 190 146 4 231 77 236 220" id="r"/><g id="d"><use transform="matrix(0.02244444444444444,0,0,0.02244444444444444,0,0)" xlink:href="#o"/><use transform="matrix(0.02244444444444444,0,0,0.02244444444444444,13.466666666666665,0)" xlink:href="#r"/></g><path d="M369-720h98L175-275v40h235v-175h90V0h-90v-155H85v-130" id="s"/><g id="e"><use transform="matrix(0.02244444444444444,0,0,0.02244444444444444,0,0)" xlink:href="#o"/><use transform="matrix(0.02244444444444444,0,0,0.02244444444444444,13.466666666666665,0)" xlink:href="#s"/></g><path d="M244 10C137 12 62-55 63-160c4-115 78-170 195-170h164c12-102-35-154-130-153-58-1-107 23-122 64H80c18-88 105-142 214-141 126-2 218 60 218 180V0h-82v-105h-8C406-34 333 11 244 10zm16-270c-64-1-107 35-107 98 0 64 44 99 111 98 87-3 151-38 158-121v-75H260" id="t"/><path d="M518-154c0 120-98 164-233 164C177 10 88-43 77-135h95c12 49 73 65 141 65 63 0 109-26 114-83 6-72-103-81-175-91-98-13-159-56-161-160-5-142 160-182 301-146 64 16 111 60 124 129h-95c-12-45-67-59-131-59-62 0-107 22-108 80-2 80 98 71 166 83 106 19 170 53 170 163" id="u"/><g id="f"><use transform="matrix(0.02466666666666666,0,0,0.02466666666666666,0,0)" xlink:href="#o"/><use transform="matrix(0.02466666666666666,0,0,0.02466666666666666,14.799999999999995,0)" xlink:href="#l"/><use transform="matrix(0.02466666666666666,0,0,0.02466666666666666,29.59999999999999,0)" xlink:href="#t"/><use transform="matrix(0.02466666666666666,0,0,0.02466666666666666,44.399999999999984,0)" xlink:href="#u"/><use transform="matrix(0.02466666666666666,0,0,0.02466666666666666,59.19999999999998,0)" xlink:href="#u"/></g><path d="M195-720v638h340V0H105v-720h90" id="v"/><path d="M335 10c-82 0-138-40-154-105h-8V0H88v-720h90c-1 89 3 183-5 265h8c16-65 72-105 154-105 125 5 185 87 185 215v140C516-77 460 5 335 10zm-34-492c-77-1-123 58-123 137v140c-2 79 46 138 123 137 80 1 129-56 129-137v-140c1-84-47-137-129-137" id="w"/><g id="g"><use transform="matrix(0.02466666666666666,0,0,0.02466666666666666,0,0)" xlink:href="#v"/><use transform="matrix(0.02466666666666666,0,0,0.02466666666666666,14.799999999999995,0)" xlink:href="#t"/><use transform="matrix(0.02466666666666666,0,0,0.02466666666666666,29.59999999999999,0)" xlink:href="#w"/><use transform="matrix(0.02466666666666666,0,0,0.02466666666666666,44.399999999999984,0)" xlink:href="#m"/><use transform="matrix(0.02466666666666666,0,0,0.02466666666666666,59.19999999999998,0)" xlink:href="#l"/><use transform="matrix(0.02466666666666666,0,0,0.02466666666666666,73.99999999999997,0)" xlink:href="#u"/></g></defs></g></svg>