<svg xmlns="http://www.w3.org/2000/svg" xmlns:xlink="http://www.w3.org/1999/xlink" xmlns:lucid="lucid" width="2014.56" height="1283"><g transform="translate(953.5555555555555 361)" lucid:page-tab-id="0_0"><path d="M283.33 347a6 6 0 0 1 6-6h323.34a6 6 0 0 1 6 6v108a6 6 0 0 1-6 6H289.33a6 6 0 0 1-6-6z" stroke="#282c33" stroke-width="2" fill="#fff"/><use xlink:href="#a" transform="matrix(1,0,0,1,295.3333333333332,352.9999999999999) translate(13.7777777777778 65.33333333333334)"/><path d="M220 787a6 6 0 0 1 6-6h450a6 6 0 0 1 6 6v108a6 6 0 0 1-6 6H226a6 6 0 0 1-6-6z" stroke="#282c33" stroke-width="2" fill="#fff"/><use xlink:href="#b" transform="matrix(1,0,0,1,231.99999999999994,793) translate(23.944444444444485 65.33333333333334)"/><path d="M311-54a6 6 0 0 1 6-6h268a6 6 0 0 1 6 6V54a6 6 0 0 1-6 6H317a6 6 0 0 1-6-6z" stroke="#282c33" stroke-width="2" fill="#fff"/><use xlink:href="#c" transform="matrix(1,0,0,1,322.9999999999999,-48) translate(21.333333333333343 65.33333333333334)"/><path d="M451 464.5v290.64" stroke="#4c535d" stroke-width="5" fill="none"/><path d="M453.48 464.56h-4.96V462h4.96z" stroke="#4c535d" stroke-width=".05" fill="#4c535d"/><path d="M451 771.9l-4.63-14.26h9.26z" stroke="#4c535d" stroke-width="5" fill="#4c535d"/><path d="M451 63.5v251.64" stroke="#4c535d" stroke-width="5" fill="none"/><path d="M453.48 63.56h-4.96V61h4.96z" stroke="#4c535d" stroke-width=".05" fill="#4c535d"/><path d="M451 331.9l-4.63-14.26h9.26z" stroke="#4c535d" stroke-width="5" fill="#4c535d"/><path d="M685.63 839.54l.05-.02 2.7-1.65 2.72-1.82 2.76-2.02 2.8-2.23 2.84-2.47 2.9-2.73 2.94-3.03 3-3.37 1.38-1.67m17.32-27l.8-1.53 3.43-7.38 3.45-8.3 3.43-9.3 3.36-10.46 3.22-11.67 2.8-12.13m5.22-31.72l1.58-15.5 1.05-17.5.32-18.08-.33-13.1m-2.26-32.04l-.93-8.68-2.5-16.67-3.04-15.64-3.44-14.5-2.15-7.58m-10.38-30.4l-3.57-8.45-4.28-9-4.28-8.15-4.28-7.36-4.25-6.67-4.2-6.03-4.17-5.46-3.4-4.08m-23.55-21.75l-1.16-.83-3.92-2.6-3.92-2.34-3.9-2.14-3.95-1.95-3.95-1.75-4-1.56-3.76-1.3" stroke="#4c535d" stroke-width="6" stroke-linejoin="round" fill="none"/><path d="M687.14 842.1l-4.14 2.3v-6.8l1.25-.7z" stroke="#4c535d" stroke-width=".05" fill="#4c535d"/><path d="M629.2 414.8l14.88-1.96-1.7 9.12z" stroke="#4c535d" stroke-width="6" fill="#4c535d"/><path d="M622.67 369.73l.44-.03 1.73-.18 1.74-.25 1.75-.34 1.76-.4 1.8-.5 1.82-.6 1.86-.7 1.9-.8 1.95-.92 2.02-1.04 2.07-1.2 2.13-1.36 2.22-1.54L649 359m19.65-20.97l.88-1.2 3.32-5.02 3.47-5.7 3.6-6.54 3.68-7.45 3.76-8.44 3.76-9.52 2.7-7.8m7.88-27.73l2.75-12.92 2.38-14.08 1.82-14.42 1.2-14.46.06-1.16m.48-28.83l-.47-11.28-1.04-12.5-1.48-11.74-1.85-10.94-2.16-10.17-.13-.52m-8.46-27.55l-2.22-5.6-3.07-6.9-3.18-6.4-3.27-5.93-3.33-5.52-3.4-5.13-3.48-4.77-3.54-4.46-3.6-4.17-.34-.37m-21.7-18.9l-1.02-.72-4.16-2.64-4.26-2.46-4.4-2.3-4.53-2.13-4.7-1.97-2.52-.94" stroke="#4c535d" stroke-width="6" stroke-linejoin="round" fill="none"/><path d="M622.8 372.76l-3.13.06v-5.95l3-.06z" stroke="#4c535d" stroke-width=".05" fill="#4c535d"/><path d="M601.4 2.42l14.97-.93-2.3 8.97z" stroke="#4c535d" stroke-width="6" fill="#4c535d"/><path d="M800 566a6 6 0 0 1 6-6h228a6 6 0 0 1 6 6v140.22a6 6 0 0 1-6 6H806a6 6 0 0 1-6-6z" stroke="#000" stroke-opacity="0" stroke-width="2" fill="#fff" fill-opacity="0"/><use xlink:href="#d" transform="matrix(1,0,0,1,805,565) translate(8.333333333333343 57.802083333333336)"/><use xlink:href="#e" transform="matrix(1,0,0,1,805,565) translate(43.888888888888886 128.91319444444446)"/><path d="M800 106a6 6 0 0 1 6-6h228a6 6 0 0 1 6 6v140.22a6 6 0 0 1-6 6H806a6 6 0 0 1-6-6z" stroke="#000" stroke-opacity="0" stroke-width="2" fill="#fff" fill-opacity="0"/><use xlink:href="#d" transform="matrix(1,0,0,1,805,105) translate(8.333333333333343 57.802083333333336)"/><use xlink:href="#e" transform="matrix(1,0,0,1,805,105) translate(43.888888888888886 128.91319444444446)"/><path d="M-585 493.1a6 6 0 0 1 6-6h318a6 6 0 0 1 6 6v108a6 6 0 0 1-6 6h-318a6 6 0 0 1-6-6z" stroke="#282c33" stroke-width="2" fill="#fff"/><use xlink:href="#a" transform="matrix(1,0,0,1,-573.0000000000001,499.1111111111111) translate(10.7777777777778 65.33333333333334)"/><path d="M-560 106a6 6 0 0 1 6-6h268a6 6 0 0 1 6 6v108a6 6 0 0 1-6 6h-268a6 6 0 0 1-6-6z" stroke="#282c33" stroke-width="2" fill="#fff"/><use xlink:href="#c" transform="matrix(1,0,0,1,-548,112) translate(21.333333333333343 65.33333333333334)"/><path d="M-420 223.5v237.75" stroke="#4c535d" stroke-width="5" fill="none"/><path d="M-417.52 223.56h-4.96V221h4.96z" stroke="#4c535d" stroke-width=".05" fill="#4c535d"/><path d="M-420 478.02l-4.63-14.26h9.26z" stroke="#4c535d" stroke-width="5" fill="#4c535d"/><path d="M-251 515.9l.53-.02 3.38-.2 3.28-.35 3.17-.47 3.07-.6 3-.7 2.9-.8 2.87-.93 2.8-1.05 2.76-1.16m23.33-16.3l.6-.6 2.63-2.8 2.66-3.1 2.66-3.36 2.67-3.68 2.7-4.05 2.68-4.44 2.7-4.9 2.66-5.38 2.65-5.95 2.6-6.56 1.46-4.18m7.38-27.64l.38-1.8 1.78-10.52 1.44-11.4 1.02-12.2.54-12.95v-8.05m-1.37-28.58l-.4-4.8-1.75-13.87-2.28-13.5-2.75-12.93-2.87-11.2m-9.04-27.14l-2.06-5.22-3.87-8.68-3.9-7.88-3.9-7.12-3.9-6.42-3.84-5.8-3.8-5.2-2.67-3.4m-20.35-20.03l-1.8-1.38-3.35-2.33-3.3-2.1-3.27-1.88-3.25-1.7-3.24-1.53-3.23-1.36-3.22-1.2-.4-.12" stroke="#4c535d" stroke-width="6" stroke-linejoin="round" fill="none"/><path d="M-250.86 518.87l-3.14.06v-5.95l3.02-.06z" stroke="#4c535d" stroke-width=".05" fill="#4c535d"/><path d="M-269.42 161.58l14.83-2.24-1.5 9.14z" stroke="#4c535d" stroke-width="6" fill="#4c535d"/><path d="M-140 194.78a6 6 0 0 1 6-6H94a6 6 0 0 1 6 6V335a6 6 0 0 1-6 6h-228a6 6 0 0 1-6-6z" stroke="#000" stroke-opacity="0" stroke-width="2" fill="#fff" fill-opacity="0"/><use xlink:href="#d" transform="matrix(1,0,0,1,-135,193.7777777777777) translate(8.333333333333343 57.802083333333336)"/><use xlink:href="#e" transform="matrix(1,0,0,1,-135,193.7777777777777) translate(43.888888888888886 128.91319444444446)"/><path d="M-860-34.56a6 6 0 0 1 6-6h228a6 6 0 0 1 6 6v69.12a6 6 0 0 1-6 6h-228a6 6 0 0 1-6-6z" stroke="#000" stroke-opacity="0" stroke-width="2" fill="#fff" fill-opacity="0"/><use xlink:href="#b" transform="matrix(1,0,0,1,-855,-35.55555555555556) translate(-80.55555555555551 53.77777777777778)"/><path d="M-654.35 42.5l77.9 98.04" stroke="#4c535d" stroke-width="5" fill="none"/><path d="M-652.37 41.02l-3.88 3.08-2.82-3.55h6.32z" stroke="#4c535d" stroke-width=".05" fill="#4c535d"/><path d="M-566.03 153.67l-12.5-8.3 7.25-5.76z" stroke="#4c535d" stroke-width="5" fill="#4c535d"/><path d="M-640-334a6 6 0 0 1 6-6h548a6 6 0 0 1 6 6v140.22a6 6 0 0 1-6 6h-548a6 6 0 0 1-6-6z" stroke="#000" stroke-opacity="0" stroke-width="2" fill="#fff" fill-opacity="0"/><use xlink:href="#f" transform="matrix(1,0,0,1,-635,-335) translate(26.111111111111143 89.08333333333334)"/><use xlink:href="#g" transform="matrix(1,0,0,1,-635,-335) translate(381.66666666666663 89.08333333333334)"/><path d="M191-334a6 6 0 0 1 6-6h508a6 6 0 0 1 6 6v140.22a6 6 0 0 1-6 6H197a6 6 0 0 1-6-6z" stroke="#000" stroke-opacity="0" stroke-width="2" fill="#fff" fill-opacity="0"/><g><use xlink:href="#h" transform="matrix(1,0,0,1,196,-335) translate(6.111111111111143 89.08333333333334)"/><use xlink:href="#i" transform="matrix(1,0,0,1,196,-335) translate(290.55555555555554 89.08333333333334)"/></g><g><path d="M142-157v869.52" stroke="#ced4db" stroke-width="4" stroke-linecap="round" fill="none"/></g><defs><path fill="#3a414a" d="M398-1260v503h520v117H398v529h641V0H270v-1374h746l-17 114H398" id="j"/><path fill="#3a414a" d="M1060-1050L669 0H526L140-1050h129l334 924 327-924h130" id="k"/><path fill="#3a414a" d="M500-1426c-1-55 44-99 101-99 60 0 104 43 104 99 1 59-43 105-104 103-58 2-102-45-101-103zm218 376v942h305V0H262v-108h332v-834H272v-108h446" id="l"/><path fill="#3a414a" d="M563-1069c140 1 227 52 294 132v-555l124 17V0H873l-16-145C788-44 700 20 557 20c-301 0-399-237-404-542 0-210 69-384 189-476 61-48 134-71 221-71zm294 256c-53-83-140-149-263-149-225 0-302 186-301 439 0 138 24 245 71 321S480-88 573-88c139 4 226-99 284-179v-546" id="m"/><path fill="#3a414a" d="M619-1069c299 1 434 265 404 594H309c5 228 108 381 324 381 131 0 196-40 283-97l65 93C898-33 773 20 638 20c-313 0-456-225-462-544-1-216 83-387 212-476 66-46 143-69 231-69zm289 482c0-216-94-366-286-366-197 0-303 150-311 366h597" id="n"/><path fill="#3a414a" d="M656-966c-151 4-249 101-313 192V0H219v-1050h104l10 153c63-93 213-169 353-172 210-3 298 110 298 309V0H860v-627c-3-197-4-346-204-339" id="o"/><path fill="#3a414a" d="M335-521c0 258 111 421 334 427 119 3 212-43 285-93l65 84C944-36 804 18 674 20c-311 3-482-226-477-541 5-320 158-541 478-548 129 0 242 40 341 119l-66 89c-95-65-189-98-281-98-221 7-334 183-334 438" id="p"/><g id="a"><use transform="matrix(0.02962962962962963,0,0,0.02962962962962963,0,0)" xlink:href="#j"/><use transform="matrix(0.02962962962962963,0,0,0.02962962962962963,35.55555555555556,0)" xlink:href="#k"/><use transform="matrix(0.02962962962962963,0,0,0.02962962962962963,71.11111111111111,0)" xlink:href="#l"/><use transform="matrix(0.02962962962962963,0,0,0.02962962962962963,106.66666666666667,0)" xlink:href="#m"/><use transform="matrix(0.02962962962962963,0,0,0.02962962962962963,142.22222222222223,0)" xlink:href="#n"/><use transform="matrix(0.02962962962962963,0,0,0.02962962962962963,177.77777777777777,0)" xlink:href="#o"/><use transform="matrix(0.02962962962962963,0,0,0.02962962962962963,213.33333333333331,0)" xlink:href="#p"/><use transform="matrix(0.02962962962962963,0,0,0.02962962962962963,248.88888888888886,0)" xlink:href="#n"/></g><path fill="#3a414a" d="M597-102c187 0 311-101 311-295v-977h129v933c-6 280-163 461-440 461S163-163 163-441v-933h126v977c-4 193 122 294 308 295" id="q"/><path fill="#3a414a" d="M900-1071c58 0 94 10 142 21l-14 330H908c1-77-2-158 2-231-101-6-175 23-241 85-59 58-108 149-145 274v488h216V0H229v-104h171v-841H229v-105h266l23 252c81-153 163-271 382-273" id="r"/><path fill="#3a414a" d="M760-88c84 0 150-22 206-51l54 89C962-9 850 19 757 20 563 26 421-96 420-275v-671H172v-104h248v-242l124-15v257h370l-17 104H544v668c3 133 71 191 216 190" id="s"/><path fill="#3a414a" d="M558-1069c229-5 374 118 374 330v532c0 85 27 116 90 137l-34 91C900 6 836-41 815-130 740-30 632 20 491 20c-201 4-336-126-334-323 0-107 44-185 125-245 106-78 315-91 521-85v-102c2-166-102-222-263-222-100 0-180 22-269 53l-36-102c108-40 196-61 323-63zm71 531c-214-2-335 62-335 239 0 147 74 220 221 220 133-2 229-72 288-159v-300H629" id="t"/><path fill="#3a414a" d="M1057-1050L682 9c-74 204-177 382-433 408l-22-108C428 279 507 173 561 0h-41L143-1050h134l331 944 320-944h129" id="u"/><g id="b"><use transform="matrix(0.02962962962962963,0,0,0.02962962962962963,0,0)" xlink:href="#q"/><use transform="matrix(0.02962962962962963,0,0,0.02962962962962963,35.55555555555556,0)" xlink:href="#o"/><use transform="matrix(0.02962962962962963,0,0,0.02962962962962963,71.11111111111111,0)" xlink:href="#p"/><use transform="matrix(0.02962962962962963,0,0,0.02962962962962963,106.66666666666667,0)" xlink:href="#n"/><use transform="matrix(0.02962962962962963,0,0,0.02962962962962963,142.22222222222223,0)" xlink:href="#r"/><use transform="matrix(0.02962962962962963,0,0,0.02962962962962963,177.77777777777777,0)" xlink:href="#s"/><use transform="matrix(0.02962962962962963,0,0,0.02962962962962963,213.33333333333331,0)" xlink:href="#t"/><use transform="matrix(0.02962962962962963,0,0,0.02962962962962963,248.88888888888886,0)" xlink:href="#l"/><use transform="matrix(0.02962962962962963,0,0,0.02962962962962963,284.4444444444444,0)" xlink:href="#o"/><use transform="matrix(0.02962962962962963,0,0,0.02962962962962963,319.99999999999994,0)" xlink:href="#s"/><use transform="matrix(0.02962962962962963,0,0,0.02962962962962963,355.5555555555555,0)" xlink:href="#u"/></g><path fill="#3a414a" d="M744-728c178 34 319 120 316 339C1053-105 840 0 560 0H217v-1374h309c261 6 474 82 474 345 0 178-114 266-256 301zm-145-51c169-1 269-75 269-248 0-174-119-235-288-235H344v483h255zm4 664c184-4 320-69 320-262 0-205-121-281-314-281H344v543h259" id="v"/><path fill="#3a414a" d="M759 20c-160 1-297-95-297-258v-1129H136v-108h450v1237C575-55 834-70 956-126l36 96C935-3 849 22 759 20" id="w"/><path fill="#3a414a" d="M458-1191c4-246 253-336 506-287 42 9 83 23 123 40l-45 101c-64-31-139-46-225-46-157 0-235 61-235 184v235h361l-13 106H582V0H458v-858H198v-106h260v-227" id="x"/><g id="c"><use transform="matrix(0.02962962962962963,0,0,0.02962962962962963,0,0)" xlink:href="#v"/><use transform="matrix(0.02962962962962963,0,0,0.02962962962962963,35.55555555555556,0)" xlink:href="#n"/><use transform="matrix(0.02962962962962963,0,0,0.02962962962962963,71.11111111111111,0)" xlink:href="#w"/><use transform="matrix(0.02962962962962963,0,0,0.02962962962962963,106.66666666666667,0)" xlink:href="#l"/><use transform="matrix(0.02962962962962963,0,0,0.02962962962962963,142.22222222222223,0)" xlink:href="#n"/><use transform="matrix(0.02962962962962963,0,0,0.02962962962962963,177.77777777777777,0)" xlink:href="#x"/></g><path fill="#e81313" d="M744-728c178 34 319 120 316 339C1053-105 840 0 560 0H217v-1374h309c261 6 474 82 474 345 0 178-114 266-256 301zm-145-51c169-1 269-75 269-248 0-174-119-235-288-235H344v483h255zm4 664c184-4 320-69 320-262 0-205-121-281-314-281H344v543h259" id="y"/><path fill="#e81313" d="M558-1069c229-5 374 118 374 330v532c0 85 27 116 90 137l-34 91C900 6 836-41 815-130 740-30 632 20 491 20c-201 4-336-126-334-323 0-107 44-185 125-245 106-78 315-91 521-85v-102c2-166-102-222-263-222-100 0-180 22-269 53l-36-102c108-40 196-61 323-63zm71 531c-214-2-335 62-335 239 0 147 74 220 221 220 133-2 229-72 288-159v-300H629" id="z"/><path fill="#e81313" d="M1057-1050L682 9c-74 204-177 382-433 408l-22-108C428 279 507 173 561 0h-41L143-1050h134l331 944 320-944h129" id="A"/><path fill="#e81313" d="M619-1069c299 1 434 265 404 594H309c5 228 108 381 324 381 131 0 196-40 283-97l65 93C898-33 773 20 638 20c-313 0-456-225-462-544-1-216 83-387 212-476 66-46 143-69 231-69zm289 482c0-216-94-366-286-366-197 0-303 150-311 366h597" id="B"/><path fill="#e81313" d="M240-208c76 63 184 115 317 115 186 0 339-97 271-277-11-26-36-50-72-70-78-46-274-78-362-119-99-46-173-100-173-235 0-198 176-270 381-275 157-3 281 49 368 113l-58 92c-83-56-166-97-309-95-93 0-158 15-195 44-62 42-77 140-28 197 84 97 315 110 440 178 94 51 163 118 163 257C979-55 780 13 556 20c-176 4-302-61-393-137" id="C"/><path fill="#e81313" d="M538-967l-29-508h183l-29 508H538" id="D"/><g id="d"><use transform="matrix(0.02962962962962963,0,0,0.02962962962962963,0,0)" xlink:href="#y"/><use transform="matrix(0.02962962962962963,0,0,0.02962962962962963,35.55555555555556,0)" xlink:href="#z"/><use transform="matrix(0.02962962962962963,0,0,0.02962962962962963,71.11111111111111,0)" xlink:href="#A"/><use transform="matrix(0.02962962962962963,0,0,0.02962962962962963,106.66666666666667,0)" xlink:href="#B"/><use transform="matrix(0.02962962962962963,0,0,0.02962962962962963,142.22222222222223,0)" xlink:href="#C"/><use transform="matrix(0.02962962962962963,0,0,0.02962962962962963,177.77777777777777,0)" xlink:href="#D"/></g><path fill="#e81313" d="M558-1374c296-1 503 104 503 375 0 229-162 335-354 380L1129 0H969L571-609H357V0H229v-1374h329zm22 655c209-3 341-70 340-280-3-205-120-265-336-265H357v545h223" id="E"/><path fill="#e81313" d="M523 20C324 22 219-89 219-284v-766h124v751c1 146 56 214 198 215 137 2 262-98 316-183v-783h124V0H877l-14-147C793-55 668 17 523 20" id="F"/><path fill="#e81313" d="M759 20c-160 1-297-95-297-258v-1129H136v-108h450v1237C575-55 834-70 956-126l36 96C935-3 849 22 759 20" id="G"/><g id="e"><use transform="matrix(0.02962962962962963,0,0,0.02962962962962963,0,0)" xlink:href="#E"/><use transform="matrix(0.02962962962962963,0,0,0.02962962962962963,35.55555555555556,0)" xlink:href="#F"/><use transform="matrix(0.02962962962962963,0,0,0.02962962962962963,71.11111111111111,0)" xlink:href="#G"/><use transform="matrix(0.02962962962962963,0,0,0.02962962962962963,106.66666666666667,0)" xlink:href="#B"/></g><path fill="#3a414a" d="M534-95c211 5 315-152 314-364v-803H445v-112h530v929C968-157 835 22 531 21c-145-2-276-54-366-124l63-89c98 62 183 94 306 97" id="H"/><path fill="#3a414a" d="M538-967l-29-508h183l-29 508H538" id="I"/><path fill="#3a414a" d="M240-208c76 63 184 115 317 115 186 0 339-97 271-277-11-26-36-50-72-70-78-46-274-78-362-119-99-46-173-100-173-235 0-198 176-270 381-275 157-3 281 49 368 113l-58 92c-83-56-166-97-309-95-93 0-158 15-195 44-62 42-77 140-28 197 84 97 315 110 440 178 94 51 163 118 163 257C979-55 780 13 556 20c-176 4-302-61-393-137" id="J"/><g id="f"><use transform="matrix(0.02962962962962963,0,0,0.02962962962962963,0,0)" xlink:href="#H"/><use transform="matrix(0.02962962962962963,0,0,0.02962962962962963,35.55555555555556,0)" xlink:href="#n"/><use transform="matrix(0.02962962962962963,0,0,0.02962962962962963,71.11111111111111,0)" xlink:href="#x"/><use transform="matrix(0.02962962962962963,0,0,0.02962962962962963,106.66666666666667,0)" xlink:href="#x"/><use transform="matrix(0.02962962962962963,0,0,0.02962962962962963,142.22222222222223,0)" xlink:href="#r"/><use transform="matrix(0.02962962962962963,0,0,0.02962962962962963,177.77777777777777,0)" xlink:href="#n"/><use transform="matrix(0.02962962962962963,0,0,0.02962962962962963,213.33333333333331,0)" xlink:href="#u"/><use transform="matrix(0.02962962962962963,0,0,0.02962962962962963,248.88888888888886,0)" xlink:href="#I"/><use transform="matrix(0.02962962962962963,0,0,0.02962962962962963,284.4444444444444,0)" xlink:href="#J"/></g><path fill="#3a414a" d="M558-1374c296-1 503 104 503 375 0 229-162 335-354 380L1129 0H969L571-609H357V0H229v-1374h329zm22 655c209-3 341-70 340-280-3-205-120-265-336-265H357v545h223" id="K"/><path fill="#3a414a" d="M523 20C324 22 219-89 219-284v-766h124v751c1 146 56 214 198 215 137 2 262-98 316-183v-783h124V0H877l-14-147C793-55 668 17 523 20" id="L"/><g id="g"><use transform="matrix(0.02962962962962963,0,0,0.02962962962962963,0,0)" xlink:href="#K"/><use transform="matrix(0.02962962962962963,0,0,0.02962962962962963,35.55555555555556,0)" xlink:href="#L"/><use transform="matrix(0.02962962962962963,0,0,0.02962962962962963,71.11111111111111,0)" xlink:href="#w"/><use transform="matrix(0.02962962962962963,0,0,0.02962962962962963,106.66666666666667,0)" xlink:href="#n"/></g><path fill="#3a414a" d="M589-1374c299 1 515 119 513 414 2 320-214 431-527 434H391V0H263v-1374h326zm13 737c226 0 360-84 360-320 0-220-135-308-346-308H391v628h211" id="M"/><g id="h"><use transform="matrix(0.02962962962962963,0,0,0.02962962962962963,0,0)" xlink:href="#M"/><use transform="matrix(0.02962962962962963,0,0,0.02962962962962963,35.55555555555556,0)" xlink:href="#n"/><use transform="matrix(0.02962962962962963,0,0,0.02962962962962963,71.11111111111111,0)" xlink:href="#t"/><use transform="matrix(0.02962962962962963,0,0,0.02962962962962963,106.66666666666667,0)" xlink:href="#r"/><use transform="matrix(0.02962962962962963,0,0,0.02962962962962963,142.22222222222223,0)" xlink:href="#w"/><use transform="matrix(0.02962962962962963,0,0,0.02962962962962963,177.77777777777777,0)" xlink:href="#I"/><use transform="matrix(0.02962962962962963,0,0,0.02962962962962963,213.33333333333331,0)" xlink:href="#J"/></g><path fill="#3a414a" d="M250-1251c6 437-31 839-53 1251H69l78-1374h213l244 957 233-957h216L1131 0h-131c-26-414-62-819-70-1251L675-250H523" id="N"/><path fill="#3a414a" d="M654-966c-149 0-247 100-311 189V0H219v-1472l124-15v592c66-99 195-171 343-174 206-3 298 111 298 309V0H860v-782c0-123-69-184-206-184" id="O"/><path fill="#3a414a" d="M166-523c0-314 128-542 437-546 302-4 435 234 431 544-4 308-129 545-434 545-309 0-434-230-434-543zm437-437c-229 9-301 177-301 437 0 289 99 433 298 433s298-145 298-435c0-147-24-257-74-328S700-960 603-960" id="P"/><g id="i"><use transform="matrix(0.02962962962962963,0,0,0.02962962962962963,0,0)" xlink:href="#N"/><use transform="matrix(0.02962962962962963,0,0,0.02962962962962963,35.55555555555556,0)" xlink:href="#n"/><use transform="matrix(0.02962962962962963,0,0,0.02962962962962963,71.11111111111111,0)" xlink:href="#s"/><use transform="matrix(0.02962962962962963,0,0,0.02962962962962963,106.66666666666667,0)" xlink:href="#O"/><use transform="matrix(0.02962962962962963,0,0,0.02962962962962963,142.22222222222223,0)" xlink:href="#P"/><use transform="matrix(0.02962962962962963,0,0,0.02962962962962963,177.77777777777777,0)" xlink:href="#m"/></g></defs></g></svg>