<svg xmlns="http://www.w3.org/2000/svg" xmlns:xlink="http://www.w3.org/1999/xlink" xmlns:lucid="lucid" width="1140" height="835.96"><g transform="translate(-20 -24.038461538461533)" lucid:page-tab-id="0_0"><path d="M274 258.52a6 6 0 0 1 6-6h198a6 6 0 0 1 6 6V514a6 6 0 0 1-6 6H280a6 6 0 0 1-6-6z" stroke="#e08fff" stroke-width="2" fill="#fff"/><path d="M540 366a6 6 0 0 1 6-6h188a6 6 0 0 1 6 6v188a6 6 0 0 1-6 6H546a6 6 0 0 1-6-6z" stroke="#00c2a8" stroke-width="2" fill="#fff"/><path d="M300 285.54a6 6 0 0 1 6-6h148a6 6 0 0 1 6 6v208.92a6 6 0 0 1-6 6H306a6 6 0 0 1-6-6z" stroke="#3a414a" fill="#fff"/><use xlink:href="#a" transform="matrix(1,0,0,1,312,291.53846153846155) translate(68 24.615384615384613)"/><use xlink:href="#b" transform="matrix(1,0,0,1,312,291.53846153846155) translate(18.769230769230774 57.43589743589743)"/><use xlink:href="#b" transform="matrix(1,0,0,1,312,291.53846153846155) translate(18.769230769230774 90.25641025641025)"/><use xlink:href="#b" transform="matrix(1,0,0,1,312,291.53846153846155) translate(18.769230769230774 123.07692307692307)"/><use xlink:href="#b" transform="matrix(1,0,0,1,312,291.53846153846155) translate(18.769230769230774 155.89743589743588)"/><use xlink:href="#c" transform="matrix(1,0,0,1,312,291.53846153846155) translate(18.769230769230774 188.7179487179487)"/><path d="M540 126a6 6 0 0 1 6-6h188a6 6 0 0 1 6 6v208a6 6 0 0 1-6 6H546a6 6 0 0 1-6-6z" stroke="#00c2a8" stroke-width="2" fill="#fff"/><path d="M840 166a6 6 0 0 1 6-6h108a6 6 0 0 1 6 6v153a6 6 0 0 1-6 6H846a6 6 0 0 1-6-6z" stroke="#3a414a" fill="#fff"/><use xlink:href="#d" transform="matrix(1,0,0,1,852,172.00000000000003) translate(8.5 48.49166666666666)"/><use xlink:href="#e" transform="matrix(1,0,0,1,852,172.00000000000003) translate(35.166666666666664 48.49166666666666)"/><use xlink:href="#f" transform="matrix(1,0,0,1,852,172.00000000000003) translate(8.5 77.55833333333332)"/><use xlink:href="#e" transform="matrix(1,0,0,1,852,172.00000000000003) translate(35.166666666666664 77.55833333333332)"/><use xlink:href="#g" transform="matrix(1,0,0,1,852,172.00000000000003) translate(8.5 106.62499999999999)"/><use xlink:href="#h" transform="matrix(1,0,0,1,852,172.00000000000003) translate(35.166666666666664 106.62499999999999)"/><path d="M580 166a6 6 0 0 1 6-6h108a6 6 0 0 1 6 6v153a6 6 0 0 1-6 6H586a6 6 0 0 1-6-6z" stroke="#3a414a" fill="#fff"/><use xlink:href="#i" transform="matrix(1,0,0,1,592,172) translate(-0.7307692307692264 29.974358974358978)"/><use xlink:href="#b" transform="matrix(1,0,0,1,592,172) translate(-0.7307692307692264 62.794871794871796)"/><use xlink:href="#b" transform="matrix(1,0,0,1,592,172) translate(-0.7307692307692264 95.61538461538461)"/><use xlink:href="#c" transform="matrix(1,0,0,1,592,172) translate(-0.7307692307692264 128.43589743589743)"/><path d="M460.95 389.88l3.67-.86 3.8-1.07 3.47-1.13 3.2-1.2 2.98-1.26 2.8-1.32 2.6-1.37 2.47-1.43 2.34-1.5 2.2-1.54 2.13-1.6 2.03-1.7 1.96-1.77 1.9-1.86 1.82-1.96 1.78-2.06 1.74-2.2 1.7-2.37 1.7-2.54 1.66-2.76 1.65-3.03 1.66-3.36 1.68-3.78 1.72-4.36 1.8-5.2 1.96-6.58 2.5-9.82 7.92-35.06 1.64-5.5 1.44-4.15 1.33-3.38 1.27-2.85 1.22-2.46 1.17-2.18 1.17-1.94 1.16-1.75 1.16-1.6 1.15-1.46 1.17-1.34 1.18-1.26 1.2-1.17 1.2-1.1 1.25-1.03 1.28-.98 1.32-.92 1.37-.87 1.42-.82 1.47-.77 1.56-.73 1.64-.7 1.74-.65 1.86-.6 1.18-.33" stroke="#3a414a" stroke-linejoin="round" fill="none"/><path d="M461.08 390.37l-.62.14v-1l.4-.1z" stroke="#3a414a" stroke-width=".05" fill="#3a414a"/><path d="M577.93 242.7l-13.54 6.45-1.2-9.2z" stroke="#3a414a" fill="#3a414a"/><path d="M700.95 211h122.19" stroke="#3a414a" fill="none"/><path d="M700.96 211.5h-.5v-1h.5z" stroke="#3a414a" stroke-width=".05" fill="#3a414a"/><path d="M837.9 211l-14.26 4.64v-9.27z" stroke="#3a414a" fill="#3a414a"/><path d="M538.5 171.05l-1.95.07m-3.9.17l-3.92.36m-3.87.58l-1.74.27-2.1.47m-3.83.9l-3.78 1.1m-3.7 1.3l-1.15.4-2.48 1.06m-3.57 1.64l-2.88 1.44-.6.37m-3.4 1.98l-.2.12-3.06 2.04m-3.17 2.34l-1.65 1.26-1.4 1.2m-2.9 2.62l-2.8 2.72v.03m-2.63 2.9l-.58.66-1.9 2.4m-2.33 3.15l-1.54 2.2-.63 1.06m-2.02 3.36l-1.83 3.47m-1.64 3.56l-.7 1.54-.78 2.1m-1.3 3.68l-1.13 3.68-.02.08m-.9 3.82l-.27 1.07-.48 2.77m-.58 3.87l-.42 3.7v.2m-.2 3.92l-.06 1.3v.66" stroke="#3a414a" stroke-linejoin="round" fill="none"/><path d="M539.02 171.54h-.5l-.03-.98.52-.02z" stroke="#3a414a" stroke-width=".05" fill="#3a414a"/><path d="M450 232.5l8.6 18.05 11.68-16.24" stroke="#3a414a" fill="none"/><path d="M580 386a6 6 0 0 1 6-6h108a6 6 0 0 1 6 6v153a6 6 0 0 1-6 6H586a6 6 0 0 1-6-6z" stroke="#3a414a" fill="#fff"/><use xlink:href="#i" transform="matrix(1,0,0,1,592,392) translate(-0.7307692307692264 29.974358974358978)"/><use xlink:href="#b" transform="matrix(1,0,0,1,592,392) translate(-0.7307692307692264 62.794871794871796)"/><use xlink:href="#b" transform="matrix(1,0,0,1,592,392) translate(-0.7307692307692264 95.61538461538461)"/><use xlink:href="#c" transform="matrix(1,0,0,1,592,392) translate(-0.7307692307692264 128.43589743589743)"/><path d="M460.96 390l3.57.08 3.42.22 2.94.3 2.55.38 2.27.44 2.04.48 1.85.5 1.7.57 1.58.58 1.47.62 1.4.66 1.32.7 1.27.73 1.24.8 1.22.84 1.2.92 1.22 1 1.25 1.13 1.3 1.3 1.4 1.5 1.62 1.87 2.03 2.6 13.36 18.33 2.6 3.02 2.5 2.68 2.52 2.48 2.6 2.35 2.73 2.27 2.9 2.2 3.14 2.2 3.4 2.16 3.75 2.18 4.17 2.2 4.7 2.2 5.3 2.24 6.13 2.28 3.13 1.02" stroke="#3a414a" stroke-linejoin="round" fill="none"/><path d="M461 389.5l-.03 1h-.5v-1z" stroke="#3a414a" stroke-width=".05" fill="#3a414a"/><path d="M577.98 462.06l-15 .55 2.55-8.9z" stroke="#3a414a" fill="#3a414a"/><path d="M460.97 390l1.3.04 1.74.1 1.66.18 1.58.23 1.52.3 1.47.34 1.42.38 1.4.46 1.35.5 1.33.56 1.3.62 1.3.68 1.3.74 1.27.8 1.28.9 1.28.97 1.3 1.08 1.3 1.18 1.32 1.3 1.34 1.42 1.38 1.6 1.4 1.77 1.46 2 1.5 2.26 1.56 2.6 1.63 2.97 1.72 3.47 1.83 4.1 1.96 4.96 2.12 6.12 2.36 7.83 2.72 10.67 3.5 16.55 16.7 94.77 3.1 12.12 2.74 9.12 2.5 7.25 2.37 5.96 2.23 5 2.12 4.3 2.04 3.7 1.97 3.25 1.9 2.88 1.87 2.56 1.82 2.3 1.8 2.06 1.75 1.88 1.74 1.7 1.74 1.57 1.72 1.43 1.48 1.12" stroke="#3a414a" stroke-linejoin="round" fill="none"/><path d="M461 389.5l-.03 1h-.5v-1z" stroke="#3a414a" stroke-width=".05" fill="#3a414a"/><path d="M578.56 639.27l-14.83-2.3 4.18-8.26z" stroke="#3a414a" fill="#3a414a"/><path d="M644.67 604.67c0 2.57-2.1 4.66-4.67 4.66-2.58 0-4.67-2.1-4.67-4.66 0-2.58 2.1-4.67 4.67-4.67 2.58 0 4.67 2.1 4.67 4.67zM644.67 634c0 2.58-2.1 4.67-4.67 4.67-2.58 0-4.67-2.1-4.67-4.67 0-2.58 2.1-4.67 4.67-4.67 2.58 0 4.67 2.1 4.67 4.67zM644.67 663.33c0 2.58-2.1 4.67-4.67 4.67-2.58 0-4.67-2.1-4.67-4.67s2.1-4.66 4.67-4.66c2.58 0 4.67 2.1 4.67 4.66z" stroke="#3a414a"/><path d="M580 161a6 6 0 0 1 6-6h108a6 6 0 0 1 6 6v28a6 6 0 0 1-6 6H586a6 6 0 0 1-6-6z" stroke="#000" stroke-opacity="0" fill="#fff" fill-opacity="0"/><use xlink:href="#j" transform="matrix(1,0,0,1,585,159.99999999999994) translate(0.29914529914531585 22.38782051282051)"/><use xlink:href="#k" transform="matrix(1,0,0,1,585,159.99999999999994) translate(96.02564102564102 22.38782051282051)"/><path d="M300 281.3a6 6 0 0 1 6-6h148a6 6 0 0 1 6 6V334a6 6 0 0 1-6 6H306a6 6 0 0 1-6-6z" stroke="#000" stroke-opacity="0" fill="#fff" fill-opacity="0"/><use xlink:href="#l" transform="matrix(1,0,0,1,305,280.29914529914527) translate(47.64957264957266 23.95032051282051)"/><use xlink:href="#m" transform="matrix(1,0,0,1,305,280.29914529914527) translate(33.974358974358985 51.30074786324786)"/><path d="M840 161a6 6 0 0 1 6-6h108a6 6 0 0 1 6 6v52.7a6 6 0 0 1-6 6H846a6 6 0 0 1-6-6z" stroke="#000" stroke-opacity="0" fill="#fff" fill-opacity="0"/><use xlink:href="#n" transform="matrix(1,0,0,1,845,159.99999999999994) translate(0.29914529914531585 34.26282051282051)"/><path d="M580 386a6 6 0 0 1 6-6h108a6 6 0 0 1 6 6v28a6 6 0 0 1-6 6H586a6 6 0 0 1-6-6z" stroke="#000" stroke-opacity="0" fill="#fff" fill-opacity="0"/><use xlink:href="#j" transform="matrix(1,0,0,1,585,385) translate(0.29914529914531585 22.38782051282051)"/><use xlink:href="#o" transform="matrix(1,0,0,1,585,385) translate(96.02564102564102 22.38782051282051)"/><path d="M350 78.95a6 6 0 0 1 6-6h108a6 6 0 0 1 6 6V213.7a6 6 0 0 1-6 6H356a6 6 0 0 1-6-6z" stroke="#000" stroke-opacity="0" fill="#fff" fill-opacity="0"/><use xlink:href="#p" transform="matrix(1,0,0,1,355,77.94871794871793) translate(0 24.79407051282051)"/><use xlink:href="#q" transform="matrix(1,0,0,1,355,77.94871794871793) translate(0 52.14449786324786)"/><use xlink:href="#r" transform="matrix(1,0,0,1,355,77.94871794871793) translate(0 79.4949252136752)"/><use xlink:href="#s" transform="matrix(1,0,0,1,355,77.94871794871793) translate(68.37606837606836 79.4949252136752)"/><use xlink:href="#t" transform="matrix(1,0,0,1,355,77.94871794871793) translate(0 106.84535256410255)"/><use xlink:href="#m" transform="matrix(1,0,0,1,355,77.94871794871793) translate(0 134.1957799145299)"/><path d="M540 50.04a6 6 0 0 1 6-6h188a6 6 0 0 1 6 6v52.7a6 6 0 0 1-6 6H546a6 6 0 0 1-6-6z" stroke="#000" stroke-opacity="0" fill="#fff" fill-opacity="0"/><use xlink:href="#u" transform="matrix(1,0,0,1,544.9999999999999,49.03846153846153) translate(53.974358974358985 23.95032051282051)"/><use xlink:href="#v" transform="matrix(1,0,0,1,544.9999999999999,49.03846153846153) translate(40.299145299145316 51.30074786324786)"/><path d="M74 114.74a6 6 0 0 1 6-6h188a6 6 0 0 1 6 6v45.52a6 6 0 0 1-6 6H80a6 6 0 0 1-6-6z" stroke="#000" stroke-opacity="0" fill="#fff" fill-opacity="0"/><use xlink:href="#w" transform="matrix(1,0,0,1,79,113.73931623931621) translate(0 32.66666666666666)"/><path d="M980 161a6 6 0 0 1 6-6h148a6 6 0 0 1 6 6v85.52a6 6 0 0 1-6 6H986a6 6 0 0 1-6-6z" stroke="#000" stroke-opacity="0" fill="#fff" fill-opacity="0"/><use xlink:href="#x" transform="matrix(1,0,0,1,985,159.99999999999994) translate(0 23.26282051282051)"/><use xlink:href="#y" transform="matrix(1,0,0,1,985,159.99999999999994) translate(95.7264957264957 23.26282051282051)"/><use xlink:href="#z" transform="matrix(1,0,0,1,985,159.99999999999994) translate(123.07692307692304 23.26282051282051)"/><use xlink:href="#A" transform="matrix(1,0,0,1,985,159.99999999999994) translate(0 50.61324786324786)"/><use xlink:href="#B" transform="matrix(1,0,0,1,985,159.99999999999994) translate(0 77.9636752136752)"/><path d="M990 706a6 6 0 0 1 6-6h128a6 6 0 0 1 6 6v88a6 6 0 0 1-6 6H996a6 6 0 0 1-6-6z" stroke="#ffe342" stroke-width="2" fill="#fff"/><use xlink:href="#C" transform="matrix(1,0,0,1,995,705) translate(12.350427350427353 53.50160256410256)"/><path d="M318.18 685.4a9.58 9.58 0 0 1 8.62-5.4h104.4a9.58 9.58 0 0 1 8.62 5.4l33.56 69.2a12.37 12.37 0 0 1 0 10.8l-33.56 69.2a9.58 9.58 0 0 1-8.62 5.4H326.8a9.58 9.58 0 0 1-8.62-5.4l-33.56-69.2a12.37 12.37 0 0 1 0-10.8z" stroke="#ff8f8f" stroke-width="2" fill="#fff"/><g><use xlink:href="#D" transform="matrix(1,0,0,1,287,685) translate(46.87679487179487 50.68910256410256)"/><use xlink:href="#E" transform="matrix(1,0,0,1,287,685) translate(46.87679487179487 80.77457264957263)"/><use xlink:href="#F" transform="matrix(1,0,0,1,287,685) translate(24.312692307692313 110.86004273504273)"/></g><path d="M380 520.96v1.96m0 3.9v3.93m0 3.9v3.93m0 3.9v3.93m0 3.92v3.9m0 3.93v3.9m0 3.93v3.9m0 3.92v3.92m0 3.9v3.93m0 3.9v3.93m0 3.9v2.04l-.02.08-.03.07-.05.07-.05.06-.06.05-.07.04-.08.02-.07.02h-.16l-.07.03-.08.03-.06.04-.05.05-.05.05-.05.07-.03.07v2.02m0 3.9v3.9m0 3.9l-.02 3.9m0 3.9v3.88m0 3.9v3.9m0 3.9v3.9m0 3.9v3.9m0 3.9v3.88m0 3.9v3.9m0 3.9v3.9m0 3.9v1.94M380 520.98v-.52M368.82 660.83L379 678.05l10.18-17.22" stroke="#3a414a" fill="none"/><path d="M240 561.9a6 6 0 0 1 6-6h108a6 6 0 0 1 6 6v85.53a6 6 0 0 1-6 6H246a6 6 0 0 1-6-6z" stroke="#000" stroke-opacity="0" fill="#fff" fill-opacity="0"/><g><use xlink:href="#G" transform="matrix(1,0,0,1,245,560.9059829059829) translate(-26.75213675213672 23.48717948717949)"/><use xlink:href="#H" transform="matrix(1,0,0,1,245,560.9059829059829) translate(27.94871794871797 50.837606837606835)"/><use xlink:href="#I" transform="matrix(1,0,0,1,245,560.9059829059829) translate(41.62393162393164 78.18803418803418)"/></g><path d="M480 706a6 6 0 0 1 6-6h108a6 6 0 0 1 6 6v85.52a6 6 0 0 1-6 6H486a6 6 0 0 1-6-6z" stroke="#000" stroke-opacity="0" fill="#fff" fill-opacity="0"/><g><use xlink:href="#J" transform="matrix(1,0,0,1,485,705) translate(0 37.01282051282051)"/><use xlink:href="#K" transform="matrix(1,0,0,1,485,705) translate(0 64.36324786324786)"/></g><path d="M225.5 334h91.12M225.5 334h-.5" stroke="#1071e5" fill="none"/><path d="M331.38 334l-14.26 4.64v-9.28z" stroke="#1071e5" fill="#1071e5"/><path d="M120 288.48a6 6 0 0 1 6-6h108a6 6 0 0 1 6 6V374a6 6 0 0 1-6 6H126a6 6 0 0 1-6-6z" stroke="#000" stroke-opacity="0" fill="#fff" fill-opacity="0"/><g><use xlink:href="#L" transform="matrix(1,0,0,1,125,287.4786324786325) translate(0 50.76282051282051)"/></g><path d="M70 486a6 6 0 0 1 6-6h128a6 6 0 0 1 6 6v108a6 6 0 0 1-6 6H76a6 6 0 0 1-6-6z" stroke="#9391ff" stroke-width="2" fill="#fff"/><g><use xlink:href="#M" transform="matrix(1,0,0,1,75,485.0000000000001) translate(19.871794871794876 46.62660256410256)"/><use xlink:href="#N" transform="matrix(1,0,0,1,75,485.0000000000001) translate(12.350427350427353 76.71207264957263)"/></g><path d="M272.53 386.27h-2.02m-4.04.05l-4.06.04m-4.05.04l-4.05.04m-4.05.04l-4.06.04m-4.06.04l-4.05.04m-4.06.12l-4.05.25m-4.05.25l-1.08.07-2.96.3m-4.02.4l-.9.1-3.1.47m-4 .62l-4 .75m-3.95.9l-1.13.27-2.78.77m-3.87 1.2l-1.07.34-2.75 1.02M186.6 396l-2.77 1.3-.9.47m-3.54 1.95l-.74.42-2.38 1.5-.32.24m-3.3 2.37l-.8.6-2.08 1.74-.25.2m-2.96 2.77l-.74.73-1.9 2-.16.2m-2.6 3.1l-.88 1.12-1.56 2.13m-2.23 3.38l-1.4 2.34-.64 1.16m-1.9 3.58l-.8 1.66-.9 2.02m-1.56 3.74l-.76 1.93-.66 1.87m-1.28 3.85l-1.15 3.8v.08m-1.02 3.92l-.44 1.72-.48 2.22m-.84 3.96l-.07.33-.6 3.68m-.68 4l-.5 4.02m-.5 4.02l-.1.65-.13 1.36" stroke="#3a414a" stroke-linejoin="round" fill="none"/><path d="M273.04 386.76h-.5l-.02-1h.52z" stroke="#3a414a" stroke-width=".05" fill="#3a414a"/><path d="M132.3 459.66l7.83 18.4 12.36-15.72" stroke="#3a414a" fill="none"/><path d="M40 635.33a6 6 0 0 1 6-6h148a6 6 0 0 1 6 6V770.1a6 6 0 0 1-6 6H46a6 6 0 0 1-6-6z" stroke="#000" stroke-opacity="0" fill="#fff" fill-opacity="0"/><g><use xlink:href="#O" transform="matrix(1,0,0,1,45,634.3333333333335) translate(54.2735042735043 33.35657051282051)"/><use xlink:href="#P" transform="matrix(1,0,0,1,45,634.3333333333335) translate(67.94871794871797 60.70699786324786)"/><use xlink:href="#Q" transform="matrix(1,0,0,1,45,634.3333333333335) translate(13.247863247863279 88.0574252136752)"/><use xlink:href="#R" transform="matrix(1,0,0,1,45,634.3333333333335) translate(108.97435897435898 88.0574252136752)"/><use xlink:href="#S" transform="matrix(1,0,0,1,45,634.3333333333335) translate(40.59829059829063 115.40785256410255)"/></g><path d="M600.87 748.76h4.83m4.82 0h19.3m4.83 0h9.65m4.82 0h19.3m4.83 0h9.65m4.83 0h19.3m4.82 0h9.65m4.83 0h19.3m4.82 0h9.65m4.83 0h19.3m4.83 0h4.92l.1.03.08.03.08.05.08.06.06.08.05.08.04.1.02.08v.2l.03.1.04.08.05.08.06.08.08.06.08.05.1.04.08.02h4.84m4.84 0h19.35m4.84 0h9.66m4.84 0h19.35m4.84 0h9.67m4.83 0h19.36m4.83 0h9.67m4.84 0h19.36m4.84 0h9.67m4.84 0h19.36m4.84 0h4.84M618.16 738.58l-17.2 10.18 17.2 10.18" stroke="#3a414a" fill="none"/><path d="M989.04 750.5h-.52v-1h.52z" stroke="#3a414a" stroke-width=".05" fill="#3a414a"/><path d="M1060 253.4v5.05m0 5.06v20.24m0 5.06v10.12m0 5.06v20.23m0 5.07v10.12m0 5.05v20.23m0 5.06v10.1m0 5.07v20.25m0 5.06v10.12m0 5.06v20.23m0 5.07v10.12m0 5.05v20.23m0 5.06v10.12m0 5.06v20.23m0 5.06v10.12m0 5.06v20.24m0 5.06v10.1m0 5.07v20.23m0 5.06v10.12m0 5.06v20.23m0 5.06v10.13m0 5.06v20.22m0 5.06v5.06M1070.18 270.68l-10.18-17.2-10.18 17.2" stroke="#3a414a" fill="none"/><path d="M1060.5 699.04h-1v-.52h1z" stroke="#3a414a" stroke-width=".05" fill="#3a414a"/><path d="M920 576.48a6 6 0 0 1 6-6h108a6 6 0 0 1 6 6V662a6 6 0 0 1-6 6H926a6 6 0 0 1-6-6z" stroke="#000" stroke-opacity="0" fill="#fff" fill-opacity="0"/><g><use xlink:href="#T" transform="matrix(1,0,0,1,924.9999999999999,575.4786324786326) translate(14.273504273504301 23.26282051282051)"/><use xlink:href="#U" transform="matrix(1,0,0,1,924.9999999999999,575.4786324786326) translate(0.5982905982906175 50.61324786324786)"/><use xlink:href="#R" transform="matrix(1,0,0,1,924.9999999999999,575.4786324786326) translate(68.97435897435898 50.61324786324786)"/><use xlink:href="#K" transform="matrix(1,0,0,1,924.9999999999999,575.4786324786326) translate(27.94871794871797 77.9636752136752)"/></g><defs><path fill="#979ea8" d="M100 363V216h1000v147H100" id="V"/><g id="b"><use transform="matrix(0.013675213675213673,0,0,0.013675213675213673,0,0)" xlink:href="#V"/><use transform="matrix(0.013675213675213673,0,0,0.013675213675213673,16.41025641025641,0)" xlink:href="#V"/><use transform="matrix(0.013675213675213673,0,0,0.013675213675213673,32.82051282051282,0)" xlink:href="#V"/><use transform="matrix(0.013675213675213673,0,0,0.013675213675213673,49.230769230769226,0)" xlink:href="#V"/><use transform="matrix(0.013675213675213673,0,0,0.013675213675213673,65.64102564102564,0)" xlink:href="#V"/><use transform="matrix(0.013675213675213673,0,0,0.013675213675213673,82.05128205128204,0)" xlink:href="#V"/></g><g id="c"><use transform="matrix(0.013675213675213673,0,0,0.013675213675213673,0,0)" xlink:href="#V"/><use transform="matrix(0.013675213675213673,0,0,0.013675213675213673,16.41025641025641,0)" xlink:href="#V"/><use transform="matrix(0.013675213675213673,0,0,0.013675213675213673,32.82051282051282,0)" xlink:href="#V"/><use transform="matrix(0.013675213675213673,0,0,0.013675213675213673,49.230769230769226,0)" xlink:href="#V"/><use transform="matrix(0.013675213675213673,0,0,0.013675213675213673,65.64102564102564,0)" xlink:href="#V"/><use transform="matrix(0.013675213675213673,0,0,0.013675213675213673,82.05128205128204,0)" xlink:href="#V"/></g><path fill="#6f7681" d="M251-627c96 0 199 113 199 326C450-87 342 11 252 11 153 11 50-105 50-307c0-199 102-320 201-320zm98 142c-27-55-65-81-99-81-62 0-135 88-135 247 0 44 5 84 14 118zm23 67L152-138c27 55 66 85 103 85 55 0 130-66 130-240 0-48-5-90-13-125" id="W"/><use transform="matrix(0.026666666666666665,0,0,0.026666666666666665,0,0)" xlink:href="#W" id="d"/><path fill="#6f7681" d="M71-348h360v67H71v-67" id="X"/><g id="e"><use transform="matrix(0.026666666666666665,0,0,0.026666666666666665,0,0)" xlink:href="#X"/><use transform="matrix(0.026666666666666665,0,0,0.026666666666666665,13.333333333333332,0)" xlink:href="#X"/><use transform="matrix(0.026666666666666665,0,0,0.026666666666666665,26.666666666666664,0)" xlink:href="#X"/><use transform="matrix(0.026666666666666665,0,0,0.026666666666666665,40,0)" xlink:href="#X"/></g><path fill="#6f7681" d="M298-624v570h112V1H116v-55h115v-483l-123 36-17-39 160-84h47" id="Y"/><use transform="matrix(0.026666666666666665,0,0,0.026666666666666665,0,0)" xlink:href="#Y" id="f"/><path fill="#6f7681" d="M244-566c-67 0-104 39-115 80l-51-40c37-63 103-101 174-101 102 0 181 78 181 175 0 90-64 153-110 196-45 42-117 104-169 195h261c11 1 12-12 24-9V0H73v-44c52-104 110-168 181-232 45-41 110-95 110-171 0-67-54-119-120-119" id="Z"/><use transform="matrix(0.026666666666666665,0,0,0.026666666666666665,0,0)" xlink:href="#Z" id="g"/><g id="h"><use transform="matrix(0.026666666666666665,0,0,0.026666666666666665,0,0)" xlink:href="#X"/><use transform="matrix(0.026666666666666665,0,0,0.026666666666666665,13.333333333333332,0)" xlink:href="#X"/><use transform="matrix(0.026666666666666665,0,0,0.026666666666666665,26.666666666666664,0)" xlink:href="#X"/><use transform="matrix(0.026666666666666665,0,0,0.026666666666666665,40,0)" xlink:href="#X"/></g><g id="i"><use transform="matrix(0.013675213675213673,0,0,0.013675213675213673,0,0)" xlink:href="#V"/><use transform="matrix(0.013675213675213673,0,0,0.013675213675213673,16.41025641025641,0)" xlink:href="#V"/><use transform="matrix(0.013675213675213673,0,0,0.013675213675213673,32.82051282051282,0)" xlink:href="#V"/><use transform="matrix(0.013675213675213673,0,0,0.013675213675213673,49.230769230769226,0)" xlink:href="#V"/><use transform="matrix(0.013675213675213673,0,0,0.013675213675213673,65.64102564102564,0)" xlink:href="#V"/><use transform="matrix(0.013675213675213673,0,0,0.013675213675213673,82.05128205128204,0)" xlink:href="#V"/></g><path fill="#3a414a" d="M770-117c82 0 147-22 202-50l65 114C973-8 859 23 755 23 544 29 402-98 401-295v-628H159v-130h242v-239l168-20v259h364l-20 130H569v626c3 126 65 181 201 180" id="aa"/><path fill="#3a414a" d="M651-943c-136 0-221 94-282 176V0H201v-1475l168-18v584c68-95 190-163 336-166 203-2 296 113 296 310V0H833v-761c-1-127-56-182-182-182" id="ab"/><path fill="#3a414a" d="M912-1076c61 0 101 10 149 23l-24 356H899v-224c-171-3-283 112-356 346v446h214V0H211v-129h164v-795H211v-129h292l31 249c78-155 163-269 378-272" id="ac"/><path fill="#3a414a" d="M617-1075c310 0 460 268 424 608H333c1 214 118 350 308 350 127 0 196-40 281-95l79 111C915-32 785 22 639 23c-324-6-476-222-482-548 0-219 84-390 217-479 69-47 150-71 243-71zm266 478c-1-199-84-340-264-340-183 0-278 139-285 340h549" id="ad"/><path fill="#3a414a" d="M561-1075c242-4 394 116 394 340v505c0 84 24 115 86 135l-41 118C903 9 834-36 807-125 739-36 626 22 477 23c-203 4-342-127-340-325 0-109 44-189 127-250 108-79 315-93 522-87v-88c16-267-344-226-525-155l-44-127c108-41 213-64 344-66zm73 550c-199-2-317 56-317 221 0 133 68 199 203 199 121-2 213-69 266-149v-271H634" id="ae"/><path fill="#3a414a" d="M537 23c-300 0-396-242-401-548 0-212 69-387 190-479 62-48 136-71 223-71 117 0 211 41 282 124v-547l168 21V0H852l-16-139C770-43 679 23 537 23zm294-828c-50-74-125-133-238-135-88 0-156 34-203 103s-71 173-71 312c0 275 84 412 253 412 127 2 206-89 259-166v-526" id="af"/><g id="j"><use transform="matrix(0.011396011396011393,0,0,0.011396011396011393,0,0)" xlink:href="#aa"/><use transform="matrix(0.011396011396011393,0,0,0.011396011396011393,13.675213675213671,0)" xlink:href="#ab"/><use transform="matrix(0.011396011396011393,0,0,0.011396011396011393,27.350427350427342,0)" xlink:href="#ac"/><use transform="matrix(0.011396011396011393,0,0,0.011396011396011393,41.025641025641015,0)" xlink:href="#ad"/><use transform="matrix(0.011396011396011393,0,0,0.011396011396011393,54.700854700854684,0)" xlink:href="#ae"/><use transform="matrix(0.011396011396011393,0,0,0.011396011396011393,68.37606837606836,0)" xlink:href="#af"/></g><path fill="#3a414a" d="M1035-137V0H240v-137h339v-1058l-316 192-73-120 410-254h147v1240h288" id="ag"/><use transform="matrix(0.011396011396011393,0,0,0.011396011396011393,0,0)" xlink:href="#ag" id="k"/><path fill="#3a414a" d="M663-936c55-73 112-139 232-139 155 0 204 114 204 291V0H943v-757c0-66-4-114-12-143s-31-44-69-44c-90 7-138 56-184 126V0H521v-757c0-66-4-114-12-143s-31-44-69-44c-92 7-137 55-184 126V0H101v-1053h132l10 122c54-71 111-144 229-144 101 0 166 44 191 139" id="ah"/><path fill="#3a414a" d="M479-1429c-1-65 54-117 121-117 70 0 124 50 123 117 1 68-52 120-123 120-68 0-122-53-121-120zm255 376v920h297V0H241v-133h325v-787H251v-133h483" id="ai"/><path fill="#3a414a" d="M653-943c-139 4-223 94-284 176V0H201v-1053h143l13 146c69-93 203-165 348-168 204-2 296 113 296 310V0H833v-641c-2-175-5-306-180-302" id="aj"/><g id="l"><use transform="matrix(0.011396011396011393,0,0,0.011396011396011393,0,0)" xlink:href="#ah"/><use transform="matrix(0.011396011396011393,0,0,0.011396011396011393,13.675213675213671,0)" xlink:href="#ae"/><use transform="matrix(0.011396011396011393,0,0,0.011396011396011393,27.350427350427342,0)" xlink:href="#ai"/><use transform="matrix(0.011396011396011393,0,0,0.011396011396011393,41.025641025641015,0)" xlink:href="#aj"/></g><g id="m"><use transform="matrix(0.011396011396011393,0,0,0.011396011396011393,0,0)" xlink:href="#aa"/><use transform="matrix(0.011396011396011393,0,0,0.011396011396011393,13.675213675213671,0)" xlink:href="#ab"/><use transform="matrix(0.011396011396011393,0,0,0.011396011396011393,27.350427350427342,0)" xlink:href="#ac"/><use transform="matrix(0.011396011396011393,0,0,0.011396011396011393,41.025641025641015,0)" xlink:href="#ad"/><use transform="matrix(0.011396011396011393,0,0,0.011396011396011393,54.700854700854684,0)" xlink:href="#ae"/><use transform="matrix(0.011396011396011393,0,0,0.011396011396011393,68.37606837606836,0)" xlink:href="#af"/></g><path fill="#3a414a" d="M669-1075c305 0 391 240 395 548 0 212-66 388-188 479-62 47-138 71-229 71-122 0-218-44-287-132L348 0H201v-1477l168-21v582c66-88 160-159 300-159zM369-249c47 73 128 134 238 136 88 0 156-34 203-102s71-172 71-313c0-275-83-412-248-412-125-2-212 94-264 169v522" id="ak"/><path fill="#3a414a" d="M1077-1053L707 7c-78 218-197 392-470 416l-26-134C408 262 493 167 547 0h-56L123-1053h180l302 925 298-925h174" id="al"/><path fill="#3a414a" d="M365-522c0 247 100 400 312 400 115 0 203-43 274-92l82 110C955-34 815 22 677 23c-328-6-494-215-494-545 0-326 169-546 496-553 134 0 251 41 352 122l-82 112c-91-63-182-94-272-94-209 8-312 171-312 413" id="am"/><path fill="#3a414a" d="M147-525c6-319 139-544 455-550 309-3 455 233 451 548-4 317-139 543-453 550-308 3-455-235-453-548zm658-313c-87-128-321-126-409 1-82 118-82 502 0 621 87 127 321 127 408 0 81-118 82-504 1-622" id="an"/><g id="n"><use transform="matrix(0.011396011396011393,0,0,0.011396011396011393,0,0)" xlink:href="#ak"/><use transform="matrix(0.011396011396011393,0,0,0.011396011396011393,13.675213675213671,0)" xlink:href="#al"/><use transform="matrix(0.011396011396011393,0,0,0.011396011396011393,27.350427350427342,0)" xlink:href="#aa"/><use transform="matrix(0.011396011396011393,0,0,0.011396011396011393,41.025641025641015,0)" xlink:href="#ad"/><use transform="matrix(0.011396011396011393,0,0,0.011396011396011393,54.700854700854684,0)" xlink:href="#am"/><use transform="matrix(0.011396011396011393,0,0,0.011396011396011393,68.37606837606836,0)" xlink:href="#an"/><use transform="matrix(0.011396011396011393,0,0,0.011396011396011393,82.05128205128203,0)" xlink:href="#af"/><use transform="matrix(0.011396011396011393,0,0,0.011396011396011393,95.7264957264957,0)" xlink:href="#ad"/></g><path fill="#3a414a" d="M118-1202c103-122 212-197 421-197 252 0 415 140 415 384 0 164-56 264-138 375-133 181-292 324-479 497h649L965 0H146v-137c206-201 365-345 510-539 78-105 116-182 121-333 1-153-93-252-246-250-158 3-214 55-297 147" id="ao"/><use transform="matrix(0.011396011396011393,0,0,0.011396011396011393,0,0)" xlink:href="#ao" id="o"/><path fill="#3a414a" d="M243-230c76 62 183 114 316 114 170 0 313-88 245-249-12-23-36-44-72-63-77-43-270-78-356-120-96-47-168-106-169-240-6-270 370-339 621-253 63 23 117 50 161 82l-74 114c-81-54-169-95-306-94-136-1-228 31-228 138 0 80 44 103 112 132 87 36 264 72 348 119 96 49 162 119 162 259C997-57 792 16 559 23c-184 3-316-62-412-142" id="ap"/><path fill="#3a414a" d="M577-1076c214 0 342-26 480-89l52 158c-91 29-189 30-308 31 122 56 183 144 183 265 0 217-164 365-396 358-67 0-107-6-157-20-28 19-55 58-55 102 1 127 205 88 331 88 144 0 261 58 323 141 93 128 46 308-82 383-89 53-212 83-372 83-272 0-443-59-445-317h152c1 161 119 178 292 180 116 0 201-14 254-43s80-73 80-130C900-59 669-41 483-37c-155 4-265-71-265-198 0-72 39-133 116-184-118-63-177-160-177-291 0-237 176-366 420-366zm4 611c150 0 230-95 229-246 0-161-78-242-233-242-160 0-246 96-248 243 2 150 90 245 252 245" id="aq"/><path fill="#3a414a" d="M757 23C575 25 443-87 443-269v-1075H120v-133h491v1217C599-84 846-101 962-154l45 123C944-1 855 25 757 23" id="ar"/><g id="p"><use transform="matrix(0.011396011396011393,0,0,0.011396011396011393,0,0)" xlink:href="#ap"/><use transform="matrix(0.011396011396011393,0,0,0.011396011396011393,13.675213675213671,0)" xlink:href="#ai"/><use transform="matrix(0.011396011396011393,0,0,0.011396011396011393,27.350427350427342,0)" xlink:href="#aq"/><use transform="matrix(0.011396011396011393,0,0,0.011396011396011393,41.025641025641015,0)" xlink:href="#aj"/><use transform="matrix(0.011396011396011393,0,0,0.011396011396011393,54.700854700854684,0)" xlink:href="#ae"/><use transform="matrix(0.011396011396011393,0,0,0.011396011396011393,68.37606837606836,0)" xlink:href="#ar"/></g><path fill="#3a414a" d="M439-1181c3-263 268-355 538-302 46 10 90 24 131 42l-54 125c-63-27-140-44-226-44-147 0-221 58-221 175v214h357l-18 132H607V0H439v-839H188v-132h251v-210" id="as"/><path fill="#3a414a" d="M981 0H743L607-773 459 0H227L35-1053h172l134 949 168-815h199l159 815 134-949h164" id="at"/><g id="q"><use transform="matrix(0.011396011396011393,0,0,0.011396011396011393,0,0)" xlink:href="#as"/><use transform="matrix(0.011396011396011393,0,0,0.011396011396011393,13.675213675213671,0)" xlink:href="#ar"/><use transform="matrix(0.011396011396011393,0,0,0.011396011396011393,27.350427350427342,0)" xlink:href="#an"/><use transform="matrix(0.011396011396011393,0,0,0.011396011396011393,41.025641025641015,0)" xlink:href="#at"/><use transform="matrix(0.011396011396011393,0,0,0.011396011396011393,54.700854700854684,0)" xlink:href="#ap"/></g><path fill="#3a414a" d="M380-1498V0H212v-1477zm703 445L609-579 1138 0H917L399-575l466-478h218" id="au"/><g id="r"><use transform="matrix(0.011396011396011393,0,0,0.011396011396011393,0,0)" xlink:href="#ak"/><use transform="matrix(0.011396011396011393,0,0,0.011396011396011393,13.675213675213671,0)" xlink:href="#ae"/><use transform="matrix(0.011396011396011393,0,0,0.011396011396011393,27.350427350427342,0)" xlink:href="#am"/><use transform="matrix(0.011396011396011393,0,0,0.011396011396011393,41.025641025641015,0)" xlink:href="#au"/></g><g id="s"><use transform="matrix(0.011396011396011393,0,0,0.011396011396011393,0,0)" xlink:href="#aa"/><use transform="matrix(0.011396011396011393,0,0,0.011396011396011393,13.675213675213671,0)" xlink:href="#an"/></g><g id="t"><use transform="matrix(0.011396011396011393,0,0,0.011396011396011393,0,0)" xlink:href="#ah"/><use transform="matrix(0.011396011396011393,0,0,0.011396011396011393,13.675213675213671,0)" xlink:href="#ae"/><use transform="matrix(0.011396011396011393,0,0,0.011396011396011393,27.350427350427342,0)" xlink:href="#ai"/><use transform="matrix(0.011396011396011393,0,0,0.011396011396011393,41.025641025641015,0)" xlink:href="#aj"/></g><g id="u"><use transform="matrix(0.011396011396011393,0,0,0.011396011396011393,0,0)" xlink:href="#ah"/><use transform="matrix(0.011396011396011393,0,0,0.011396011396011393,13.675213675213671,0)" xlink:href="#an"/><use transform="matrix(0.011396011396011393,0,0,0.011396011396011393,27.350427350427342,0)" xlink:href="#aj"/><use transform="matrix(0.011396011396011393,0,0,0.011396011396011393,41.025641025641015,0)" xlink:href="#au"/><use transform="matrix(0.011396011396011393,0,0,0.011396011396011393,54.700854700854684,0)" xlink:href="#ad"/><use transform="matrix(0.011396011396011393,0,0,0.011396011396011393,68.37606837606836,0)" xlink:href="#al"/></g><path fill="#3a414a" d="M358-906c68-94 166-166 314-169 303 3 381 242 381 548 0 304-107 542-406 550-115 0-208-41-278-122v502l-168 21v-1477h143zm11 657c48 72 129 131 241 132 87 0 153-33 197-100s66-170 66-311c0-275-80-412-241-412-124-2-211 95-263 169v522" id="av"/><g id="v"><use transform="matrix(0.011396011396011393,0,0,0.011396011396011393,0,0)" xlink:href="#av"/><use transform="matrix(0.011396011396011393,0,0,0.011396011396011393,13.675213675213671,0)" xlink:href="#ae"/><use transform="matrix(0.011396011396011393,0,0,0.011396011396011393,27.350427350427342,0)" xlink:href="#aa"/><use transform="matrix(0.011396011396011393,0,0,0.011396011396011393,41.025641025641015,0)" xlink:href="#am"/><use transform="matrix(0.011396011396011393,0,0,0.011396011396011393,54.700854700854684,0)" xlink:href="#ab"/><use transform="matrix(0.011396011396011393,0,0,0.011396011396011393,68.37606837606836,0)" xlink:href="#ai"/><use transform="matrix(0.011396011396011393,0,0,0.011396011396011393,82.05128205128203,0)" xlink:href="#aj"/><use transform="matrix(0.011396011396011393,0,0,0.011396011396011393,95.7264957264957,0)" xlink:href="#aq"/></g><path fill="#3a414a" d="M599-1254c-140 0-279 61-275 203 6 104 56 139 140 181 101 51 299 91 406 152 118 63 208 156 203 337-8 277-212 401-503 404-210 0-373-70-483-176l103-116c93 85 208 149 383 146 177-3 320-76 320-255 0-188-142-217-302-269-160-53-304-103-389-215-73-95-71-267 2-366 76-102 213-172 389-171 202 0 329 61 440 157l-102 113c-84-75-190-122-332-125" id="aw"/><path fill="#3a414a" d="M1135-127C1044-43 909 27 723 23 326 6 130-270 127-689c-4-300 116-515 295-629 139-89 356-102 520-47 61 23 118 56 173 100l-97 113c-75-65-163-102-289-102-304 0-423 227-422 565 0 334 113 551 418 563 148 3 242-54 320-115" id="ax"/><path fill="#3a414a" d="M867-351H322L212 0H41l448-1377h222L1159 0H977zM367-495h455l-226-736" id="ay"/><path fill="#3a414a" d="M271 0v-1377h174v1222h628L1053 0H271" id="az"/><path fill="#3a414a" d="M425-1235v464h510v143H425v489h626V0H251v-1377h782l-20 142H425" id="aA"/><path fill="#3a414a" d="M895-161c-34-368-21-811-23-1216h161V0H790L305-1211c32 371 21 806 23 1211H167v-1377h235" id="aB"/><g id="w"><use transform="matrix(0.014814814814814812,0,0,0.014814814814814812,0,0)" xlink:href="#aw"/><use transform="matrix(0.014814814814814812,0,0,0.014814814814814812,17.777777777777775,0)" xlink:href="#ax"/><use transform="matrix(0.014814814814814812,0,0,0.014814814814814812,35.55555555555555,0)" xlink:href="#ay"/><use transform="matrix(0.014814814814814812,0,0,0.014814814814814812,53.33333333333333,0)" xlink:href="#az"/><use transform="matrix(0.014814814814814812,0,0,0.014814814814814812,71.1111111111111,0)" xlink:href="#aA"/><use transform="matrix(0.014814814814814812,0,0,0.014814814814814812,88.88888888888887,0)" xlink:href="#aB"/><use transform="matrix(0.014814814814814812,0,0,0.014814814814814812,106.66666666666664,0)" xlink:href="#aA"/></g><g id="x"><use transform="matrix(0.011396011396011393,0,0,0.011396011396011393,0,0)" xlink:href="#aa"/><use transform="matrix(0.011396011396011393,0,0,0.011396011396011393,13.675213675213671,0)" xlink:href="#ac"/><use transform="matrix(0.011396011396011393,0,0,0.011396011396011393,27.350427350427342,0)" xlink:href="#ae"/><use transform="matrix(0.011396011396011393,0,0,0.011396011396011393,41.025641025641015,0)" xlink:href="#am"/><use transform="matrix(0.011396011396011393,0,0,0.011396011396011393,54.700854700854684,0)" xlink:href="#au"/><use transform="matrix(0.011396011396011393,0,0,0.011396011396011393,68.37606837606836,0)" xlink:href="#ap"/></g><use transform="matrix(0.011396011396011393,0,0,0.011396011396011393,0,0)" xlink:href="#ax" id="y"/><path fill="#3a414a" d="M241 206l-136-60 856-1765 134 66" id="aC"/><use transform="matrix(0.011396011396011393,0,0,0.011396011396011393,0,0)" xlink:href="#aC" id="z"/><path fill="#3a414a" d="M583-1377c309 1 532 120 531 423 0 322-216 439-533 443H405V0H231v-1377h352zm14 726c210-1 331-82 331-301 0-204-126-287-324-287H405v588h192" id="aD"/><g id="A"><use transform="matrix(0.011396011396011393,0,0,0.011396011396011393,0,0)" xlink:href="#aD"/><use transform="matrix(0.011396011396011393,0,0,0.011396011396011393,13.675213675213671,0)" xlink:href="#al"/><use transform="matrix(0.011396011396011393,0,0,0.011396011396011393,27.350427350427342,0)" xlink:href="#aa"/><use transform="matrix(0.011396011396011393,0,0,0.011396011396011393,41.025641025641015,0)" xlink:href="#ab"/><use transform="matrix(0.011396011396011393,0,0,0.011396011396011393,54.700854700854684,0)" xlink:href="#an"/><use transform="matrix(0.011396011396011393,0,0,0.011396011396011393,68.37606837606836,0)" xlink:href="#aj"/></g><g id="B"><use transform="matrix(0.011396011396011393,0,0,0.011396011396011393,0,0)" xlink:href="#aa"/><use transform="matrix(0.011396011396011393,0,0,0.011396011396011393,13.675213675213671,0)" xlink:href="#ai"/><use transform="matrix(0.011396011396011393,0,0,0.011396011396011393,27.350427350427342,0)" xlink:href="#ah"/><use transform="matrix(0.011396011396011393,0,0,0.011396011396011393,41.025641025641015,0)" xlink:href="#ad"/></g><g id="C"><use transform="matrix(0.012535612535612533,0,0,0.012535612535612533,0,0)" xlink:href="#aw"/><use transform="matrix(0.012535612535612533,0,0,0.012535612535612533,15.04273504273504,0)" xlink:href="#ae"/><use transform="matrix(0.012535612535612533,0,0,0.012535612535612533,30.08547008547008,0)" xlink:href="#ah"/><use transform="matrix(0.012535612535612533,0,0,0.012535612535612533,45.128205128205124,0)" xlink:href="#av"/><use transform="matrix(0.012535612535612533,0,0,0.012535612535612533,60.17094017094016,0)" xlink:href="#ar"/><use transform="matrix(0.012535612535612533,0,0,0.012535612535612533,75.2136752136752,0)" xlink:href="#ad"/><use transform="matrix(0.012535612535612533,0,0,0.012535612535612533,90.25641025641025,0)" xlink:href="#ac"/></g><path fill="#3a414a" d="M505 23C304 25 201-90 201-287v-766h168v746c0 134 49 194 177 196 125 1 236-87 285-167v-775h168V0H856l-14-142C774-50 649 20 505 23" id="aE"/><g id="D"><use transform="matrix(0.012535612535612533,0,0,0.012535612535612533,0,0)" xlink:href="#am"/><use transform="matrix(0.012535612535612533,0,0,0.012535612535612533,15.04273504273504,0)" xlink:href="#aE"/><use transform="matrix(0.012535612535612533,0,0,0.012535612535612533,30.08547008547008,0)" xlink:href="#ap"/><use transform="matrix(0.012535612535612533,0,0,0.012535612535612533,45.128205128205124,0)" xlink:href="#aa"/><use transform="matrix(0.012535612535612533,0,0,0.012535612535612533,60.17094017094016,0)" xlink:href="#an"/><use transform="matrix(0.012535612535612533,0,0,0.012535612535612533,75.2136752136752,0)" xlink:href="#ah"/></g><g id="E"><use transform="matrix(0.012535612535612533,0,0,0.012535612535612533,0,0)" xlink:href="#ah"/><use transform="matrix(0.012535612535612533,0,0,0.012535612535612533,15.04273504273504,0)" xlink:href="#ad"/><use transform="matrix(0.012535612535612533,0,0,0.012535612535612533,30.08547008547008,0)" xlink:href="#ah"/><use transform="matrix(0.012535612535612533,0,0,0.012535612535612533,45.128205128205124,0)" xlink:href="#an"/><use transform="matrix(0.012535612535612533,0,0,0.012535612535612533,60.17094017094016,0)" xlink:href="#ac"/><use transform="matrix(0.012535612535612533,0,0,0.012535612535612533,75.2136752136752,0)" xlink:href="#al"/></g><g id="F"><use transform="matrix(0.012535612535612533,0,0,0.012535612535612533,0,0)" xlink:href="#ae"/><use transform="matrix(0.012535612535612533,0,0,0.012535612535612533,15.04273504273504,0)" xlink:href="#ar"/><use transform="matrix(0.012535612535612533,0,0,0.012535612535612533,30.08547008547008,0)" xlink:href="#ar"/><use transform="matrix(0.012535612535612533,0,0,0.012535612535612533,45.128205128205124,0)" xlink:href="#an"/><use transform="matrix(0.012535612535612533,0,0,0.012535612535612533,60.17094017094016,0)" xlink:href="#am"/><use transform="matrix(0.012535612535612533,0,0,0.012535612535612533,75.2136752136752,0)" xlink:href="#ae"/><use transform="matrix(0.012535612535612533,0,0,0.012535612535612533,90.25641025641025,0)" xlink:href="#aa"/><use transform="matrix(0.012535612535612533,0,0,0.012535612535612533,105.29914529914531,0)" xlink:href="#an"/><use transform="matrix(0.012535612535612533,0,0,0.012535612535612533,120.34188034188034,0)" xlink:href="#ac"/></g><g id="G"><use transform="matrix(0.011396011396011393,0,0,0.011396011396011393,0,0)" xlink:href="#ai"/><use transform="matrix(0.011396011396011393,0,0,0.011396011396011393,13.675213675213671,0)" xlink:href="#aj"/><use transform="matrix(0.011396011396011393,0,0,0.011396011396011393,27.350427350427342,0)" xlink:href="#aa"/><use transform="matrix(0.011396011396011393,0,0,0.011396011396011393,41.025641025641015,0)" xlink:href="#ad"/><use transform="matrix(0.011396011396011393,0,0,0.011396011396011393,54.700854700854684,0)" xlink:href="#ac"/><use transform="matrix(0.011396011396011393,0,0,0.011396011396011393,68.37606837606836,0)" xlink:href="#am"/><use transform="matrix(0.011396011396011393,0,0,0.011396011396011393,82.05128205128203,0)" xlink:href="#ad"/><use transform="matrix(0.011396011396011393,0,0,0.011396011396011393,95.7264957264957,0)" xlink:href="#av"/><use transform="matrix(0.011396011396011393,0,0,0.011396011396011393,109.40170940170937,0)" xlink:href="#aa"/><use transform="matrix(0.011396011396011393,0,0,0.011396011396011393,123.07692307692305,0)" xlink:href="#ap"/></g><g id="H"><use transform="matrix(0.011396011396011393,0,0,0.011396011396011393,0,0)" xlink:href="#ah"/><use transform="matrix(0.011396011396011393,0,0,0.011396011396011393,13.675213675213671,0)" xlink:href="#ad"/><use transform="matrix(0.011396011396011393,0,0,0.011396011396011393,27.350427350427342,0)" xlink:href="#ah"/><use transform="matrix(0.011396011396011393,0,0,0.011396011396011393,41.025641025641015,0)" xlink:href="#an"/><use transform="matrix(0.011396011396011393,0,0,0.011396011396011393,54.700854700854684,0)" xlink:href="#ac"/><use transform="matrix(0.011396011396011393,0,0,0.011396011396011393,68.37606837606836,0)" xlink:href="#al"/></g><g id="I"><use transform="matrix(0.011396011396011393,0,0,0.011396011396011393,0,0)" xlink:href="#am"/><use transform="matrix(0.011396011396011393,0,0,0.011396011396011393,13.675213675213671,0)" xlink:href="#ae"/><use transform="matrix(0.011396011396011393,0,0,0.011396011396011393,27.350427350427342,0)" xlink:href="#ar"/><use transform="matrix(0.011396011396011393,0,0,0.011396011396011393,41.025641025641015,0)" xlink:href="#ar"/><use transform="matrix(0.011396011396011393,0,0,0.011396011396011393,54.700854700854684,0)" xlink:href="#ap"/></g><g id="J"><use transform="matrix(0.011396011396011393,0,0,0.011396011396011393,0,0)" xlink:href="#aa"/><use transform="matrix(0.011396011396011393,0,0,0.011396011396011393,13.675213675213671,0)" xlink:href="#ac"/><use transform="matrix(0.011396011396011393,0,0,0.011396011396011393,27.350427350427342,0)" xlink:href="#ae"/><use transform="matrix(0.011396011396011393,0,0,0.011396011396011393,41.025641025641015,0)" xlink:href="#am"/><use transform="matrix(0.011396011396011393,0,0,0.011396011396011393,54.700854700854684,0)" xlink:href="#au"/><use transform="matrix(0.011396011396011393,0,0,0.011396011396011393,68.37606837606836,0)" xlink:href="#ap"/></g><g id="K"><use transform="matrix(0.011396011396011393,0,0,0.011396011396011393,0,0)" xlink:href="#ah"/><use transform="matrix(0.011396011396011393,0,0,0.011396011396011393,13.675213675213671,0)" xlink:href="#ad"/><use transform="matrix(0.011396011396011393,0,0,0.011396011396011393,27.350427350427342,0)" xlink:href="#ah"/><use transform="matrix(0.011396011396011393,0,0,0.011396011396011393,41.025641025641015,0)" xlink:href="#an"/><use transform="matrix(0.011396011396011393,0,0,0.011396011396011393,54.700854700854684,0)" xlink:href="#ac"/><use transform="matrix(0.011396011396011393,0,0,0.011396011396011393,68.37606837606836,0)" xlink:href="#al"/></g><g id="L"><use transform="matrix(0.011396011396011393,0,0,0.011396011396011393,0,0)" xlink:href="#am"/><use transform="matrix(0.011396011396011393,0,0,0.011396011396011393,13.675213675213671,0)" xlink:href="#an"/><use transform="matrix(0.011396011396011393,0,0,0.011396011396011393,27.350427350427342,0)" xlink:href="#aE"/><use transform="matrix(0.011396011396011393,0,0,0.011396011396011393,41.025641025641015,0)" xlink:href="#aj"/><use transform="matrix(0.011396011396011393,0,0,0.011396011396011393,54.700854700854684,0)" xlink:href="#aa"/><use transform="matrix(0.011396011396011393,0,0,0.011396011396011393,68.37606837606836,0)" xlink:href="#ad"/><use transform="matrix(0.011396011396011393,0,0,0.011396011396011393,82.05128205128203,0)" xlink:href="#ac"/></g><g id="M"><use transform="matrix(0.012535612535612533,0,0,0.012535612535612533,0,0)" xlink:href="#ap"/><use transform="matrix(0.012535612535612533,0,0,0.012535612535612533,15.04273504273504,0)" xlink:href="#ai"/><use transform="matrix(0.012535612535612533,0,0,0.012535612535612533,30.08547008547008,0)" xlink:href="#aq"/><use transform="matrix(0.012535612535612533,0,0,0.012535612535612533,45.128205128205124,0)" xlink:href="#aj"/><use transform="matrix(0.012535612535612533,0,0,0.012535612535612533,60.17094017094016,0)" xlink:href="#ae"/><use transform="matrix(0.012535612535612533,0,0,0.012535612535612533,75.2136752136752,0)" xlink:href="#ar"/></g><g id="N"><use transform="matrix(0.012535612535612533,0,0,0.012535612535612533,0,0)" xlink:href="#ab"/><use transform="matrix(0.012535612535612533,0,0,0.012535612535612533,15.04273504273504,0)" xlink:href="#ae"/><use transform="matrix(0.012535612535612533,0,0,0.012535612535612533,30.08547008547008,0)" xlink:href="#aj"/><use transform="matrix(0.012535612535612533,0,0,0.012535612535612533,45.128205128205124,0)" xlink:href="#af"/><use transform="matrix(0.012535612535612533,0,0,0.012535612535612533,60.17094017094016,0)" xlink:href="#ar"/><use transform="matrix(0.012535612535612533,0,0,0.012535612535612533,75.2136752136752,0)" xlink:href="#ad"/><use transform="matrix(0.012535612535612533,0,0,0.012535612535612533,90.25641025641025,0)" xlink:href="#ac"/></g><g id="O"><use transform="matrix(0.011396011396011393,0,0,0.011396011396011393,0,0)" xlink:href="#ab"/><use transform="matrix(0.011396011396011393,0,0,0.011396011396011393,13.675213675213671,0)" xlink:href="#ae"/><use transform="matrix(0.011396011396011393,0,0,0.011396011396011393,27.350427350427342,0)" xlink:href="#aj"/><use transform="matrix(0.011396011396011393,0,0,0.011396011396011393,41.025641025641015,0)" xlink:href="#af"/><use transform="matrix(0.011396011396011393,0,0,0.011396011396011393,54.700854700854684,0)" xlink:href="#ar"/><use transform="matrix(0.011396011396011393,0,0,0.011396011396011393,68.37606837606836,0)" xlink:href="#ad"/><use transform="matrix(0.011396011396011393,0,0,0.011396011396011393,82.05128205128203,0)" xlink:href="#ap"/></g><g id="P"><use transform="matrix(0.011396011396011393,0,0,0.011396011396011393,0,0)" xlink:href="#ap"/><use transform="matrix(0.011396011396011393,0,0,0.011396011396011393,13.675213675213671,0)" xlink:href="#ai"/><use transform="matrix(0.011396011396011393,0,0,0.011396011396011393,27.350427350427342,0)" xlink:href="#aq"/><use transform="matrix(0.011396011396011393,0,0,0.011396011396011393,41.025641025641015,0)" xlink:href="#aj"/><use transform="matrix(0.011396011396011393,0,0,0.011396011396011393,54.700854700854684,0)" xlink:href="#ae"/><use transform="matrix(0.011396011396011393,0,0,0.011396011396011393,68.37606837606836,0)" xlink:href="#ar"/></g><path fill="#3a414a" d="M535 23c-305 0-384-240-388-548 0-210 63-387 181-479 60-48 133-71 220-71 140 1 227 55 294 137l14-115h143V424l-168-21v-536C766-40 674 23 535 23zm296-828c-47-75-129-133-241-135-175 0-263 138-263 415 0 272 81 408 243 408 125 1 208-86 261-162v-526" id="aF"/><g id="Q"><use transform="matrix(0.011396011396011393,0,0,0.011396011396011393,0,0)" xlink:href="#aF"/><use transform="matrix(0.011396011396011393,0,0,0.011396011396011393,13.675213675213671,0)" xlink:href="#aE"/><use transform="matrix(0.011396011396011393,0,0,0.011396011396011393,27.350427350427342,0)" xlink:href="#ad"/><use transform="matrix(0.011396011396011393,0,0,0.011396011396011393,41.025641025641015,0)" xlink:href="#aE"/><use transform="matrix(0.011396011396011393,0,0,0.011396011396011393,54.700854700854684,0)" xlink:href="#ad"/><use transform="matrix(0.011396011396011393,0,0,0.011396011396011393,68.37606837606836,0)" xlink:href="#ap"/></g><g id="R"><use transform="matrix(0.011396011396011393,0,0,0.011396011396011393,0,0)" xlink:href="#ae"/><use transform="matrix(0.011396011396011393,0,0,0.011396011396011393,13.675213675213671,0)" xlink:href="#aj"/><use transform="matrix(0.011396011396011393,0,0,0.011396011396011393,27.350427350427342,0)" xlink:href="#af"/></g><g id="S"><use transform="matrix(0.011396011396011393,0,0,0.011396011396011393,0,0)" xlink:href="#am"/><use transform="matrix(0.011396011396011393,0,0,0.011396011396011393,13.675213675213671,0)" xlink:href="#ab"/><use transform="matrix(0.011396011396011393,0,0,0.011396011396011393,27.350427350427342,0)" xlink:href="#ae"/><use transform="matrix(0.011396011396011393,0,0,0.011396011396011393,41.025641025641015,0)" xlink:href="#aj"/><use transform="matrix(0.011396011396011393,0,0,0.011396011396011393,54.700854700854684,0)" xlink:href="#aj"/><use transform="matrix(0.011396011396011393,0,0,0.011396011396011393,68.37606837606836,0)" xlink:href="#ad"/><use transform="matrix(0.011396011396011393,0,0,0.011396011396011393,82.05128205128203,0)" xlink:href="#ar"/><use transform="matrix(0.011396011396011393,0,0,0.011396011396011393,95.7264957264957,0)" xlink:href="#ap"/></g><g id="T"><use transform="matrix(0.011396011396011393,0,0,0.011396011396011393,0,0)" xlink:href="#ap"/><use transform="matrix(0.011396011396011393,0,0,0.011396011396011393,13.675213675213671,0)" xlink:href="#aa"/><use transform="matrix(0.011396011396011393,0,0,0.011396011396011393,27.350427350427342,0)" xlink:href="#ac"/><use transform="matrix(0.011396011396011393,0,0,0.011396011396011393,41.025641025641015,0)" xlink:href="#an"/><use transform="matrix(0.011396011396011393,0,0,0.011396011396011393,54.700854700854684,0)" xlink:href="#ak"/><use transform="matrix(0.011396011396011393,0,0,0.011396011396011393,68.37606837606836,0)" xlink:href="#ad"/><use transform="matrix(0.011396011396011393,0,0,0.011396011396011393,82.05128205128203,0)" xlink:href="#ap"/></g><g id="U"><use transform="matrix(0.011396011396011393,0,0,0.011396011396011393,0,0)" xlink:href="#aa"/><use transform="matrix(0.011396011396011393,0,0,0.011396011396011393,13.675213675213671,0)" xlink:href="#ai"/><use transform="matrix(0.011396011396011393,0,0,0.011396011396011393,27.350427350427342,0)" xlink:href="#ah"/><use transform="matrix(0.011396011396011393,0,0,0.011396011396011393,41.025641025641015,0)" xlink:href="#ad"/></g></defs></g></svg>