<?xml version="1.0" encoding="utf-8" standalone="no"?>
<!DOCTYPE svg PUBLIC "-//W3C//DTD SVG 1.1//EN"
  "http://www.w3.org/Graphics/SVG/1.1/DTD/svg11.dtd">
<svg xmlns:xlink="http://www.w3.org/1999/xlink" width="576pt" height="396pt" viewBox="0 0 576 396" xmlns="http://www.w3.org/2000/svg" version="1.1">
 <metadata>
  <rdf:RDF xmlns:dc="http://purl.org/dc/elements/1.1/" xmlns:cc="http://creativecommons.org/ns#" xmlns:rdf="http://www.w3.org/1999/02/22-rdf-syntax-ns#">
   <cc:Work>
    <dc:type rdf:resource="http://purl.org/dc/dcmitype/StillImage"/>
    <dc:date>2022-06-15T17:50:04.332783</dc:date>
    <dc:format>image/svg+xml</dc:format>
    <dc:creator>
     <cc:Agent>
      <dc:title>Matplotlib v3.5.1, https://matplotlib.org/</dc:title>
     </cc:Agent>
    </dc:creator>
   </cc:Work>
  </rdf:RDF>
 </metadata>
 <defs>
  <style type="text/css">*{stroke-linejoin: round; stroke-linecap: butt}</style>
 </defs>
 <g id="figure_1">
  <g id="patch_1">
   <path d="M 0 396 
L 576 396 
L 576 0 
L 0 0 
z
" style="fill: #ffffff"/>
  </g>
  <g id="axes_1">
   <g id="patch_2">
    <path d="M 42.679688 350.004687 
L 562.01875 350.004687 
L 562.01875 32.27 
L 42.679688 32.27 
z
" style="fill: #eaeaf2"/>
   </g>
   <g id="matplotlib.axis_1">
    <g id="xtick_1">
     <g id="line2d_1">
      <path d="M 42.679688 350.004687 
L 42.679688 32.27 
" clip-path="url(#pf1548682ab)" style="fill: none; stroke: #ffffff; stroke-linecap: round"/>
     </g>
     <g id="line2d_2"/>
     <g id="text_1">
      <!-- −2 -->
      <g style="fill: #262626" transform="translate(35.308594 364.603125)scale(0.1 -0.1)">
       <defs>
        <path id="DejaVuSans-2212" d="M 678 2272 
L 4684 2272 
L 4684 1741 
L 678 1741 
L 678 2272 
z
" transform="scale(0.015625)"/>
        <path id="DejaVuSans-32" d="M 1228 531 
L 3431 531 
L 3431 0 
L 469 0 
L 469 531 
Q 828 903 1448 1529 
Q 2069 2156 2228 2338 
Q 2531 2678 2651 2914 
Q 2772 3150 2772 3378 
Q 2772 3750 2511 3984 
Q 2250 4219 1831 4219 
Q 1534 4219 1204 4116 
Q 875 4013 500 3803 
L 500 4441 
Q 881 4594 1212 4672 
Q 1544 4750 1819 4750 
Q 2544 4750 2975 4387 
Q 3406 4025 3406 3419 
Q 3406 3131 3298 2873 
Q 3191 2616 2906 2266 
Q 2828 2175 2409 1742 
Q 1991 1309 1228 531 
z
" transform="scale(0.015625)"/>
       </defs>
       <use xlink:href="#DejaVuSans-2212"/>
       <use xlink:href="#DejaVuSans-32" x="83.789062"/>
      </g>
     </g>
    </g>
    <g id="xtick_2">
     <g id="line2d_3">
      <path d="M 107.59707 350.004687 
L 107.59707 32.27 
" clip-path="url(#pf1548682ab)" style="fill: none; stroke: #ffffff; stroke-linecap: round"/>
     </g>
     <g id="line2d_4"/>
     <g id="text_2">
      <!-- −1 -->
      <g style="fill: #262626" transform="translate(100.225977 364.603125)scale(0.1 -0.1)">
       <defs>
        <path id="DejaVuSans-31" d="M 794 531 
L 1825 531 
L 1825 4091 
L 703 3866 
L 703 4441 
L 1819 4666 
L 2450 4666 
L 2450 531 
L 3481 531 
L 3481 0 
L 794 0 
L 794 531 
z
" transform="scale(0.015625)"/>
       </defs>
       <use xlink:href="#DejaVuSans-2212"/>
       <use xlink:href="#DejaVuSans-31" x="83.789062"/>
      </g>
     </g>
    </g>
    <g id="xtick_3">
     <g id="line2d_5">
      <path d="M 172.514453 350.004687 
L 172.514453 32.27 
" clip-path="url(#pf1548682ab)" style="fill: none; stroke: #ffffff; stroke-linecap: round"/>
     </g>
     <g id="line2d_6"/>
     <g id="text_3">
      <!-- 0 -->
      <g style="fill: #262626" transform="translate(169.333203 364.603125)scale(0.1 -0.1)">
       <defs>
        <path id="DejaVuSans-30" d="M 2034 4250 
Q 1547 4250 1301 3770 
Q 1056 3291 1056 2328 
Q 1056 1369 1301 889 
Q 1547 409 2034 409 
Q 2525 409 2770 889 
Q 3016 1369 3016 2328 
Q 3016 3291 2770 3770 
Q 2525 4250 2034 4250 
z
M 2034 4750 
Q 2819 4750 3233 4129 
Q 3647 3509 3647 2328 
Q 3647 1150 3233 529 
Q 2819 -91 2034 -91 
Q 1250 -91 836 529 
Q 422 1150 422 2328 
Q 422 3509 836 4129 
Q 1250 4750 2034 4750 
z
" transform="scale(0.015625)"/>
       </defs>
       <use xlink:href="#DejaVuSans-30"/>
      </g>
     </g>
    </g>
    <g id="xtick_4">
     <g id="line2d_7">
      <path d="M 237.431836 350.004687 
L 237.431836 32.27 
" clip-path="url(#pf1548682ab)" style="fill: none; stroke: #ffffff; stroke-linecap: round"/>
     </g>
     <g id="line2d_8"/>
     <g id="text_4">
      <!-- 1 -->
      <g style="fill: #262626" transform="translate(234.250586 364.603125)scale(0.1 -0.1)">
       <use xlink:href="#DejaVuSans-31"/>
      </g>
     </g>
    </g>
    <g id="xtick_5">
     <g id="line2d_9">
      <path d="M 302.349219 350.004687 
L 302.349219 32.27 
" clip-path="url(#pf1548682ab)" style="fill: none; stroke: #ffffff; stroke-linecap: round"/>
     </g>
     <g id="line2d_10"/>
     <g id="text_5">
      <!-- 2 -->
      <g style="fill: #262626" transform="translate(299.167969 364.603125)scale(0.1 -0.1)">
       <use xlink:href="#DejaVuSans-32"/>
      </g>
     </g>
    </g>
    <g id="xtick_6">
     <g id="line2d_11">
      <path d="M 367.266602 350.004687 
L 367.266602 32.27 
" clip-path="url(#pf1548682ab)" style="fill: none; stroke: #ffffff; stroke-linecap: round"/>
     </g>
     <g id="line2d_12"/>
     <g id="text_6">
      <!-- 3 -->
      <g style="fill: #262626" transform="translate(364.085352 364.603125)scale(0.1 -0.1)">
       <defs>
        <path id="DejaVuSans-33" d="M 2597 2516 
Q 3050 2419 3304 2112 
Q 3559 1806 3559 1356 
Q 3559 666 3084 287 
Q 2609 -91 1734 -91 
Q 1441 -91 1130 -33 
Q 819 25 488 141 
L 488 750 
Q 750 597 1062 519 
Q 1375 441 1716 441 
Q 2309 441 2620 675 
Q 2931 909 2931 1356 
Q 2931 1769 2642 2001 
Q 2353 2234 1838 2234 
L 1294 2234 
L 1294 2753 
L 1863 2753 
Q 2328 2753 2575 2939 
Q 2822 3125 2822 3475 
Q 2822 3834 2567 4026 
Q 2313 4219 1838 4219 
Q 1578 4219 1281 4162 
Q 984 4106 628 3988 
L 628 4550 
Q 988 4650 1302 4700 
Q 1616 4750 1894 4750 
Q 2613 4750 3031 4423 
Q 3450 4097 3450 3541 
Q 3450 3153 3228 2886 
Q 3006 2619 2597 2516 
z
" transform="scale(0.015625)"/>
       </defs>
       <use xlink:href="#DejaVuSans-33"/>
      </g>
     </g>
    </g>
    <g id="xtick_7">
     <g id="line2d_13">
      <path d="M 432.183984 350.004687 
L 432.183984 32.27 
" clip-path="url(#pf1548682ab)" style="fill: none; stroke: #ffffff; stroke-linecap: round"/>
     </g>
     <g id="line2d_14"/>
     <g id="text_7">
      <!-- 4 -->
      <g style="fill: #262626" transform="translate(429.002734 364.603125)scale(0.1 -0.1)">
       <defs>
        <path id="DejaVuSans-34" d="M 2419 4116 
L 825 1625 
L 2419 1625 
L 2419 4116 
z
M 2253 4666 
L 3047 4666 
L 3047 1625 
L 3713 1625 
L 3713 1100 
L 3047 1100 
L 3047 0 
L 2419 0 
L 2419 1100 
L 313 1100 
L 313 1709 
L 2253 4666 
z
" transform="scale(0.015625)"/>
       </defs>
       <use xlink:href="#DejaVuSans-34"/>
      </g>
     </g>
    </g>
    <g id="xtick_8">
     <g id="line2d_15">
      <path d="M 497.101367 350.004687 
L 497.101367 32.27 
" clip-path="url(#pf1548682ab)" style="fill: none; stroke: #ffffff; stroke-linecap: round"/>
     </g>
     <g id="line2d_16"/>
     <g id="text_8">
      <!-- 5 -->
      <g style="fill: #262626" transform="translate(493.920117 364.603125)scale(0.1 -0.1)">
       <defs>
        <path id="DejaVuSans-35" d="M 691 4666 
L 3169 4666 
L 3169 4134 
L 1269 4134 
L 1269 2991 
Q 1406 3038 1543 3061 
Q 1681 3084 1819 3084 
Q 2600 3084 3056 2656 
Q 3513 2228 3513 1497 
Q 3513 744 3044 326 
Q 2575 -91 1722 -91 
Q 1428 -91 1123 -41 
Q 819 9 494 109 
L 494 744 
Q 775 591 1075 516 
Q 1375 441 1709 441 
Q 2250 441 2565 725 
Q 2881 1009 2881 1497 
Q 2881 1984 2565 2268 
Q 2250 2553 1709 2553 
Q 1456 2553 1204 2497 
Q 953 2441 691 2322 
L 691 4666 
z
" transform="scale(0.015625)"/>
       </defs>
       <use xlink:href="#DejaVuSans-35"/>
      </g>
     </g>
    </g>
    <g id="xtick_9">
     <g id="line2d_17">
      <path d="M 562.01875 350.004687 
L 562.01875 32.27 
" clip-path="url(#pf1548682ab)" style="fill: none; stroke: #ffffff; stroke-linecap: round"/>
     </g>
     <g id="line2d_18"/>
     <g id="text_9">
      <!-- 6 -->
      <g style="fill: #262626" transform="translate(558.8375 364.603125)scale(0.1 -0.1)">
       <defs>
        <path id="DejaVuSans-36" d="M 2113 2584 
Q 1688 2584 1439 2293 
Q 1191 2003 1191 1497 
Q 1191 994 1439 701 
Q 1688 409 2113 409 
Q 2538 409 2786 701 
Q 3034 994 3034 1497 
Q 3034 2003 2786 2293 
Q 2538 2584 2113 2584 
z
M 3366 4563 
L 3366 3988 
Q 3128 4100 2886 4159 
Q 2644 4219 2406 4219 
Q 1781 4219 1451 3797 
Q 1122 3375 1075 2522 
Q 1259 2794 1537 2939 
Q 1816 3084 2150 3084 
Q 2853 3084 3261 2657 
Q 3669 2231 3669 1497 
Q 3669 778 3244 343 
Q 2819 -91 2113 -91 
Q 1303 -91 875 529 
Q 447 1150 447 2328 
Q 447 3434 972 4092 
Q 1497 4750 2381 4750 
Q 2619 4750 2861 4703 
Q 3103 4656 3366 4563 
z
" transform="scale(0.015625)"/>
       </defs>
       <use xlink:href="#DejaVuSans-36"/>
      </g>
     </g>
    </g>
    <g id="text_10">
     <!-- $w_1$ -->
     <g style="fill: #262626" transform="translate(292.599219 382.080469)scale(0.15 -0.15)">
      <defs>
       <path id="DejaVuSans-Oblique-77" d="M 544 3500 
L 1113 3500 
L 1259 684 
L 2566 3500 
L 3231 3500 
L 3425 684 
L 4666 3500 
L 5241 3500 
L 3641 0 
L 2969 0 
L 2797 2900 
L 1459 0 
L 781 0 
L 544 3500 
z
" transform="scale(0.015625)"/>
      </defs>
      <use xlink:href="#DejaVuSans-Oblique-77" transform="translate(0 0.3125)"/>
      <use xlink:href="#DejaVuSans-31" transform="translate(81.787109 -16.09375)scale(0.7)"/>
     </g>
    </g>
   </g>
   <g id="matplotlib.axis_2">
    <g id="ytick_1">
     <g id="line2d_19">
      <path d="M 42.679688 350.004687 
L 562.01875 350.004687 
" clip-path="url(#pf1548682ab)" style="fill: none; stroke: #ffffff; stroke-linecap: round"/>
     </g>
     <g id="line2d_20"/>
     <g id="text_11">
      <!-- 0 -->
      <g style="fill: #262626" transform="translate(29.317187 353.803906)scale(0.1 -0.1)">
       <use xlink:href="#DejaVuSans-30"/>
      </g>
     </g>
    </g>
    <g id="ytick_2">
     <g id="line2d_21">
      <path d="M 42.679688 310.287852 
L 562.01875 310.287852 
" clip-path="url(#pf1548682ab)" style="fill: none; stroke: #ffffff; stroke-linecap: round"/>
     </g>
     <g id="line2d_22"/>
     <g id="text_12">
      <!-- 1 -->
      <g style="fill: #262626" transform="translate(29.317187 314.08707)scale(0.1 -0.1)">
       <use xlink:href="#DejaVuSans-31"/>
      </g>
     </g>
    </g>
    <g id="ytick_3">
     <g id="line2d_23">
      <path d="M 42.679688 270.571016 
L 562.01875 270.571016 
" clip-path="url(#pf1548682ab)" style="fill: none; stroke: #ffffff; stroke-linecap: round"/>
     </g>
     <g id="line2d_24"/>
     <g id="text_13">
      <!-- 2 -->
      <g style="fill: #262626" transform="translate(29.317187 274.370234)scale(0.1 -0.1)">
       <use xlink:href="#DejaVuSans-32"/>
      </g>
     </g>
    </g>
    <g id="ytick_4">
     <g id="line2d_25">
      <path d="M 42.679688 230.85418 
L 562.01875 230.85418 
" clip-path="url(#pf1548682ab)" style="fill: none; stroke: #ffffff; stroke-linecap: round"/>
     </g>
     <g id="line2d_26"/>
     <g id="text_14">
      <!-- 3 -->
      <g style="fill: #262626" transform="translate(29.317187 234.653398)scale(0.1 -0.1)">
       <use xlink:href="#DejaVuSans-33"/>
      </g>
     </g>
    </g>
    <g id="ytick_5">
     <g id="line2d_27">
      <path d="M 42.679688 191.137344 
L 562.01875 191.137344 
" clip-path="url(#pf1548682ab)" style="fill: none; stroke: #ffffff; stroke-linecap: round"/>
     </g>
     <g id="line2d_28"/>
     <g id="text_15">
      <!-- 4 -->
      <g style="fill: #262626" transform="translate(29.317187 194.936563)scale(0.1 -0.1)">
       <use xlink:href="#DejaVuSans-34"/>
      </g>
     </g>
    </g>
    <g id="ytick_6">
     <g id="line2d_29">
      <path d="M 42.679688 151.420508 
L 562.01875 151.420508 
" clip-path="url(#pf1548682ab)" style="fill: none; stroke: #ffffff; stroke-linecap: round"/>
     </g>
     <g id="line2d_30"/>
     <g id="text_16">
      <!-- 5 -->
      <g style="fill: #262626" transform="translate(29.317187 155.219727)scale(0.1 -0.1)">
       <use xlink:href="#DejaVuSans-35"/>
      </g>
     </g>
    </g>
    <g id="ytick_7">
     <g id="line2d_31">
      <path d="M 42.679688 111.703672 
L 562.01875 111.703672 
" clip-path="url(#pf1548682ab)" style="fill: none; stroke: #ffffff; stroke-linecap: round"/>
     </g>
     <g id="line2d_32"/>
     <g id="text_17">
      <!-- 6 -->
      <g style="fill: #262626" transform="translate(29.317187 115.502891)scale(0.1 -0.1)">
       <use xlink:href="#DejaVuSans-36"/>
      </g>
     </g>
    </g>
    <g id="ytick_8">
     <g id="line2d_33">
      <path d="M 42.679688 71.986836 
L 562.01875 71.986836 
" clip-path="url(#pf1548682ab)" style="fill: none; stroke: #ffffff; stroke-linecap: round"/>
     </g>
     <g id="line2d_34"/>
     <g id="text_18">
      <!-- 7 -->
      <g style="fill: #262626" transform="translate(29.317187 75.786055)scale(0.1 -0.1)">
       <defs>
        <path id="DejaVuSans-37" d="M 525 4666 
L 3525 4666 
L 3525 4397 
L 1831 0 
L 1172 0 
L 2766 4134 
L 525 4134 
L 525 4666 
z
" transform="scale(0.015625)"/>
       </defs>
       <use xlink:href="#DejaVuSans-37"/>
      </g>
     </g>
    </g>
    <g id="ytick_9">
     <g id="line2d_35">
      <path d="M 42.679688 32.27 
L 562.01875 32.27 
" clip-path="url(#pf1548682ab)" style="fill: none; stroke: #ffffff; stroke-linecap: round"/>
     </g>
     <g id="line2d_36"/>
     <g id="text_19">
      <!-- 8 -->
      <g style="fill: #262626" transform="translate(29.317187 36.069219)scale(0.1 -0.1)">
       <defs>
        <path id="DejaVuSans-38" d="M 2034 2216 
Q 1584 2216 1326 1975 
Q 1069 1734 1069 1313 
Q 1069 891 1326 650 
Q 1584 409 2034 409 
Q 2484 409 2743 651 
Q 3003 894 3003 1313 
Q 3003 1734 2745 1975 
Q 2488 2216 2034 2216 
z
M 1403 2484 
Q 997 2584 770 2862 
Q 544 3141 544 3541 
Q 544 4100 942 4425 
Q 1341 4750 2034 4750 
Q 2731 4750 3128 4425 
Q 3525 4100 3525 3541 
Q 3525 3141 3298 2862 
Q 3072 2584 2669 2484 
Q 3125 2378 3379 2068 
Q 3634 1759 3634 1313 
Q 3634 634 3220 271 
Q 2806 -91 2034 -91 
Q 1263 -91 848 271 
Q 434 634 434 1313 
Q 434 1759 690 2068 
Q 947 2378 1403 2484 
z
M 1172 3481 
Q 1172 3119 1398 2916 
Q 1625 2713 2034 2713 
Q 2441 2713 2670 2916 
Q 2900 3119 2900 3481 
Q 2900 3844 2670 4047 
Q 2441 4250 2034 4250 
Q 1625 4250 1398 4047 
Q 1172 3844 1172 3481 
z
" transform="scale(0.015625)"/>
       </defs>
       <use xlink:href="#DejaVuSans-38"/>
      </g>
     </g>
    </g>
    <g id="text_20">
     <!-- $w_2$ -->
     <g style="fill: #262626" transform="translate(22.197656 200.887344)rotate(-90)scale(0.15 -0.15)">
      <use xlink:href="#DejaVuSans-Oblique-77" transform="translate(0 0.3125)"/>
      <use xlink:href="#DejaVuSans-32" transform="translate(81.787109 -16.09375)scale(0.7)"/>
     </g>
    </g>
   </g>
   <g id="PathCollection_1">
    <path d="M 274.745313 203.357908 
L 269.999038 195.210865 
L 271.441874 187.063813 
L 278.798134 178.91677 
L 282.374641 176.700998 
L 293.576557 170.769727 
L 295.691042 169.991101 
L 309.007427 165.956328 
L 322.323812 162.774128 
L 323.208685 162.622685 
L 335.640198 160.99985 
L 348.956583 159.955801 
L 362.272969 159.622344 
L 375.589354 160.01727 
L 388.905739 161.158983 
L 399.143895 162.622685 
L 402.222125 163.219064 
L 415.53851 166.850231 
L 426.566339 170.769727 
L 428.854911 172.0392 
L 438.90058 178.91677 
L 442.171281 184.013966 
L 443.816111 187.063813 
L 442.773973 195.210865 
L 442.171281 195.98102 
L 435.530619 203.357908 
L 428.854911 207.450289 
L 421.07049 211.504951 
L 415.53851 213.494679 
L 402.222125 217.413091 
L 392.416595 219.651993 
L 388.905739 220.262629 
L 375.589354 221.87785 
L 362.272969 222.788905 
L 348.956583 222.978074 
L 335.640198 222.427048 
L 322.323812 221.116887 
L 312.961463 219.651993 
L 309.007427 218.809709 
L 295.691042 214.897149 
L 286.712489 211.504951 
L 282.374641 208.921257 
z
" clip-path="url(#pf1548682ab)" style="fill: #fbfdd0"/>
   </g>
   <g id="PathCollection_2">
    <path d="M 199.806138 203.357908 
L 197.997778 195.210865 
L 199.277291 187.063813 
L 202.476328 181.010646 
L 203.672227 178.91677 
L 211.557751 170.769727 
L 215.792713 167.652035 
L 223.218831 162.622685 
L 229.109099 159.522038 
L 239.609321 154.475642 
L 242.425484 153.368743 
L 255.74187 148.648039 
L 263.075234 146.328599 
L 269.058271 144.729398 
L 282.374641 141.612518 
L 295.691042 138.934678 
L 300.200968 138.181556 
L 309.007427 136.91004 
L 322.323812 135.382924 
L 335.640198 134.253895 
L 348.956583 133.528573 
L 362.272969 133.212695 
L 375.589354 133.312111 
L 388.905739 133.832773 
L 402.222125 134.780751 
L 415.53851 136.162236 
L 428.854911 137.98354 
L 430.022952 138.181556 
L 442.171281 140.60731 
L 455.487667 143.800656 
L 464.509367 146.328599 
L 468.804052 147.794136 
L 482.120437 153.000137 
L 485.466218 154.475642 
L 495.436854 160.108363 
L 499.427536 162.622685 
L 508.724969 170.769727 
L 508.753208 170.809878 
L 513.925088 178.91677 
L 515.903862 187.063813 
L 514.73864 195.210865 
L 510.502045 203.357908 
L 508.753208 205.315075 
L 502.771255 211.504951 
L 495.436854 216.886387 
L 491.332979 219.651993 
L 482.120437 224.461227 
L 475.103672 227.799036 
L 468.804052 230.244581 
L 455.487667 234.903874 
L 452.132919 235.946079 
L 442.171281 238.557493 
L 428.854911 241.607365 
L 416.152103 244.093122 
L 415.53851 244.196898 
L 402.222125 246.048643 
L 388.905739 247.504383 
L 375.589354 248.5585 
L 362.272969 249.205283 
L 348.956583 249.4389 
L 335.640198 249.25341 
L 322.323812 248.642763 
L 309.007427 247.600776 
L 295.691042 246.121161 
L 282.374641 244.197501 
L 281.786462 244.093122 
L 269.058271 241.429126 
L 255.74187 238.100834 
L 248.326871 235.946079 
L 242.425484 233.853593 
L 229.109099 228.457188 
L 227.664233 227.799036 
L 215.792713 220.850703 
L 213.95228 219.651993 
L 204.986095 211.504951 
L 202.476328 207.752026 
z
M 282.374641 208.921257 
L 286.712489 211.504951 
L 295.691042 214.897149 
L 309.007427 218.809709 
L 312.961463 219.651993 
L 322.323812 221.116887 
L 335.640198 222.427048 
L 348.956583 222.978074 
L 362.272969 222.788905 
L 375.589354 221.87785 
L 388.905739 220.262629 
L 392.416595 219.651993 
L 402.222125 217.413091 
L 415.53851 213.494679 
L 421.07049 211.504951 
L 428.854911 207.450289 
L 435.530619 203.357908 
L 442.171281 195.98102 
L 442.773973 195.210865 
L 443.816111 187.063813 
L 442.171281 184.013966 
L 438.90058 178.91677 
L 428.854911 172.0392 
L 426.566339 170.769727 
L 415.53851 166.850231 
L 402.222125 163.219064 
L 399.143895 162.622685 
L 388.905739 161.158983 
L 375.589354 160.01727 
L 362.272969 159.622344 
L 348.956583 159.955801 
L 335.640198 160.99985 
L 323.208685 162.622685 
L 322.323812 162.774128 
L 309.007427 165.956328 
L 295.691042 169.991101 
L 293.576557 170.769727 
L 282.374641 176.700998 
L 278.798134 178.91677 
L 271.441874 187.063813 
L 269.999038 195.210865 
L 274.745313 203.357908 
z
" clip-path="url(#pf1548682ab)" style="fill: #f3fabf"/>
   </g>
   <g id="PathCollection_3">
    <path d="M 160.597258 219.651993 
L 154.375154 211.504951 
L 150.714808 203.357908 
L 149.568916 195.210865 
L 150.891291 187.063813 
L 154.63696 178.91677 
L 160.761963 170.769727 
L 162.527164 169.07821 
L 169.687549 162.622685 
L 175.843549 158.272188 
L 181.576221 154.475642 
L 189.159943 150.345781 
L 197.067398 146.328599 
L 202.476328 143.995385 
L 215.792713 138.666912 
L 217.11147 138.181556 
L 229.109099 134.347518 
L 242.425484 130.454598 
L 244.017764 130.034513 
L 255.74187 127.302809 
L 269.058271 124.530669 
L 282.374641 122.091602 
L 283.672615 121.887471 
L 295.691042 120.19652 
L 309.007427 118.629188 
L 322.323812 117.370783 
L 335.640198 116.4247 
L 348.956583 115.794364 
L 362.272969 115.48328 
L 375.589354 115.494976 
L 388.905739 115.833056 
L 402.222125 116.501169 
L 415.53851 117.503006 
L 428.854911 118.842336 
L 442.171281 120.522965 
L 451.151689 121.887471 
L 455.487667 122.633823 
L 468.804052 125.315812 
L 482.120437 128.399341 
L 488.373365 130.034513 
L 495.436854 132.167487 
L 508.753208 136.658577 
L 512.841756 138.181556 
L 522.069594 142.251939 
L 530.49641 146.328599 
L 535.385979 149.227979 
L 543.518341 154.475642 
L 548.702396 158.796037 
L 552.949701 162.622685 
L 559.372922 170.769727 
L 562.01875 176.397164 
L 562.01875 178.91677 
L 562.01875 187.063813 
L 562.01875 195.210865 
L 562.01875 197.884988 
L 559.544831 203.357908 
L 553.442091 211.504951 
L 548.702396 216.050986 
L 544.708444 219.651993 
L 535.385979 226.219923 
L 532.991853 227.799036 
L 522.069594 233.710828 
L 517.637852 235.946079 
L 508.753208 239.745674 
L 497.785406 244.093122 
L 495.436854 244.901148 
L 482.120437 249.106982 
L 471.252329 252.240165 
L 468.804052 252.863336 
L 455.487667 255.914209 
L 442.171281 258.633562 
L 432.364532 260.387207 
L 428.854911 260.948539 
L 415.53851 262.768375 
L 402.222125 264.280536 
L 388.905739 265.48165 
L 375.589354 266.368272 
L 362.272969 266.936929 
L 348.956583 267.18409 
L 335.640198 267.106156 
L 322.323812 266.699499 
L 309.007427 265.960412 
L 295.691042 264.885159 
L 282.374641 263.469915 
L 269.058271 261.710835 
L 260.680471 260.387207 
L 255.74187 259.502601 
L 242.425484 256.723947 
L 229.109099 253.540275 
L 224.27859 252.240165 
L 215.792713 249.600104 
L 202.476328 244.980521 
L 200.15467 244.093122 
L 189.159943 239.109691 
L 182.785768 235.946079 
L 175.843549 231.714113 
L 169.933922 227.799036 
L 162.527164 221.440925 
z
M 202.476328 207.752026 
L 204.986095 211.504951 
L 213.95228 219.651993 
L 215.792713 220.850703 
L 227.664233 227.799036 
L 229.109099 228.457188 
L 242.425484 233.853593 
L 248.326871 235.946079 
L 255.74187 238.100834 
L 269.058271 241.429126 
L 281.786462 244.093122 
L 282.374641 244.197501 
L 295.691042 246.121161 
L 309.007427 247.600776 
L 322.323812 248.642763 
L 335.640198 249.25341 
L 348.956583 249.4389 
L 362.272969 249.205283 
L 375.589354 248.5585 
L 388.905739 247.504383 
L 402.222125 246.048643 
L 415.53851 244.196898 
L 416.152103 244.093122 
L 428.854911 241.607365 
L 442.171281 238.557493 
L 452.132919 235.946079 
L 455.487667 234.903874 
L 468.804052 230.244581 
L 475.103672 227.799036 
L 482.120437 224.461227 
L 491.332979 219.651993 
L 495.436854 216.886387 
L 502.771255 211.504951 
L 508.753208 205.315075 
L 510.502045 203.357908 
L 514.73864 195.210865 
L 515.903862 187.063813 
L 513.925088 178.91677 
L 508.753208 170.809878 
L 508.724969 170.769727 
L 499.427536 162.622685 
L 495.436854 160.108363 
L 485.466218 154.475642 
L 482.120437 153.000137 
L 468.804052 147.794136 
L 464.509367 146.328599 
L 455.487667 143.800656 
L 442.171281 140.60731 
L 430.022952 138.181556 
L 428.854911 137.98354 
L 415.53851 136.162236 
L 402.222125 134.780751 
L 388.905739 133.832773 
L 375.589354 133.312111 
L 362.272969 133.212695 
L 348.956583 133.528573 
L 335.640198 134.253895 
L 322.323812 135.382924 
L 309.007427 136.91004 
L 300.200968 138.181556 
L 295.691042 138.934678 
L 282.374641 141.612518 
L 269.058271 144.729398 
L 263.075234 146.328599 
L 255.74187 148.648039 
L 242.425484 153.368743 
L 239.609321 154.475642 
L 229.109099 159.522038 
L 223.218831 162.622685 
L 215.792713 167.652035 
L 211.557751 170.769727 
L 203.672227 178.91677 
L 202.476328 181.010646 
L 199.277291 187.063813 
L 197.997778 195.210865 
L 199.806138 203.357908 
z
" clip-path="url(#pf1548682ab)" style="fill: #e9f7b1"/>
   </g>
   <g id="PathCollection_4">
    <path d="M 119.152788 219.651993 
L 114.190059 211.504951 
L 111.348295 203.357908 
L 110.594817 195.210865 
L 111.89763 187.063813 
L 115.225403 178.91677 
L 120.547425 170.769727 
L 122.578008 168.507488 
L 128.135206 162.622685 
L 135.894393 156.143235 
L 138.001024 154.475642 
L 149.210779 147.150735 
L 150.54206 146.328599 
L 162.527164 140.026941 
L 166.253443 138.181556 
L 175.843549 134.046614 
L 185.760618 130.034513 
L 189.159943 128.8168 
L 202.476328 124.370007 
L 210.486428 121.887471 
L 215.792713 120.412535 
L 229.109099 117.00511 
L 242.425484 113.886875 
L 243.117914 113.740428 
L 255.74187 111.321731 
L 269.058271 109.039175 
L 282.374641 107.027626 
L 293.370518 105.593385 
L 295.691042 105.316896 
L 309.007427 103.986587 
L 322.323812 102.911007 
L 335.640198 102.092434 
L 348.956583 101.533192 
L 362.272969 101.235623 
L 375.589354 101.202102 
L 388.905739 101.435038 
L 402.222125 101.936851 
L 415.53851 102.710015 
L 428.854911 103.757009 
L 442.171281 105.080372 
L 446.443826 105.593385 
L 455.487667 106.794059 
L 468.804052 108.871556 
L 482.120437 111.263745 
L 494.293335 113.740428 
L 495.436854 114.000791 
L 508.753208 117.382948 
L 522.069594 121.130056 
L 524.527594 121.887471 
L 535.385979 125.689637 
L 546.767223 130.034513 
L 548.702396 130.88992 
L 562.01875 137.258679 
L 562.01875 138.181556 
L 562.01875 146.328599 
L 562.01875 154.475642 
L 562.01875 162.622685 
L 562.01875 170.769727 
L 562.01875 176.397164 
L 559.372922 170.769727 
L 552.949701 162.622685 
L 548.702396 158.796037 
L 543.518341 154.475642 
L 535.385979 149.227979 
L 530.49641 146.328599 
L 522.069594 142.251939 
L 512.841756 138.181556 
L 508.753208 136.658577 
L 495.436854 132.167487 
L 488.373365 130.034513 
L 482.120437 128.399341 
L 468.804052 125.315812 
L 455.487667 122.633823 
L 451.151689 121.887471 
L 442.171281 120.522965 
L 428.854911 118.842336 
L 415.53851 117.503006 
L 402.222125 116.501169 
L 388.905739 115.833056 
L 375.589354 115.494976 
L 362.272969 115.48328 
L 348.956583 115.794364 
L 335.640198 116.4247 
L 322.323812 117.370783 
L 309.007427 118.629188 
L 295.691042 120.19652 
L 283.672615 121.887471 
L 282.374641 122.091602 
L 269.058271 124.530669 
L 255.74187 127.302809 
L 244.017764 130.034513 
L 242.425484 130.454598 
L 229.109099 134.347518 
L 217.11147 138.181556 
L 215.792713 138.666912 
L 202.476328 143.995385 
L 197.067398 146.328599 
L 189.159943 150.345781 
L 181.576221 154.475642 
L 175.843549 158.272188 
L 169.687549 162.622685 
L 162.527164 169.07821 
L 160.761963 170.769727 
L 154.63696 178.91677 
L 150.891291 187.063813 
L 149.568916 195.210865 
L 150.714808 203.357908 
L 154.375154 211.504951 
L 160.597258 219.651993 
L 162.527164 221.440925 
L 169.933922 227.799036 
L 175.843549 231.714113 
L 182.785768 235.946079 
L 189.159943 239.109691 
L 200.15467 244.093122 
L 202.476328 244.980521 
L 215.792713 249.600104 
L 224.27859 252.240165 
L 229.109099 253.540275 
L 242.425484 256.723947 
L 255.74187 259.502601 
L 260.680471 260.387207 
L 269.058271 261.710835 
L 282.374641 263.469915 
L 295.691042 264.885159 
L 309.007427 265.960412 
L 322.323812 266.699499 
L 335.640198 267.106156 
L 348.956583 267.18409 
L 362.272969 266.936929 
L 375.589354 266.368272 
L 388.905739 265.48165 
L 402.222125 264.280536 
L 415.53851 262.768375 
L 428.854911 260.948539 
L 432.364532 260.387207 
L 442.171281 258.633562 
L 455.487667 255.914209 
L 468.804052 252.863336 
L 471.252329 252.240165 
L 482.120437 249.106982 
L 495.436854 244.901148 
L 497.785406 244.093122 
L 508.753208 239.745674 
L 517.637852 235.946079 
L 522.069594 233.710828 
L 532.991853 227.799036 
L 535.385979 226.219923 
L 544.708444 219.651993 
L 548.702396 216.050986 
L 553.442091 211.504951 
L 559.544831 203.357908 
L 562.01875 197.884988 
L 562.01875 203.357908 
L 562.01875 211.504951 
L 562.01875 219.651993 
L 562.01875 227.799036 
L 562.01875 235.946079 
L 562.01875 237.034521 
L 548.702396 244.002992 
L 548.519238 244.093122 
L 535.385979 249.714072 
L 529.089802 252.240165 
L 522.069594 254.732167 
L 508.753208 259.138672 
L 504.678009 260.387207 
L 495.436854 262.92486 
L 482.120437 266.289638 
L 472.386589 268.53425 
L 468.804052 269.282508 
L 455.487667 271.789854 
L 442.171281 274.027223 
L 428.854911 275.991939 
L 423.410623 276.681298 
L 415.53851 277.591438 
L 402.222125 278.875278 
L 388.905739 279.90295 
L 375.589354 280.672148 
L 362.272969 281.180527 
L 348.956583 281.42572 
L 335.640198 281.405319 
L 322.323812 281.116907 
L 309.007427 280.55802 
L 295.691042 279.726175 
L 282.374641 278.618852 
L 269.058271 277.233496 
L 264.635302 276.681298 
L 255.74187 275.453018 
L 242.425484 273.302334 
L 229.109099 270.834809 
L 218.112908 268.53425 
L 215.792713 267.990693 
L 202.476328 264.517329 
L 189.159943 260.676153 
L 188.243396 260.387207 
L 175.843549 255.941485 
L 166.361235 252.240165 
L 162.527164 250.50545 
L 149.422546 244.093122 
L 149.210779 243.969893 
L 136.388146 235.946079 
L 135.894393 235.565005 
L 126.491051 227.799036 
L 122.578008 223.583569 
z
" clip-path="url(#pf1548682ab)" style="fill: #d9f0b3"/>
   </g>
   <g id="PathCollection_5">
    <path d="M 79.814891 211.504951 
L 77.531725 203.357908 
L 77.034426 195.210865 
L 78.299506 187.063813 
L 81.30389 178.91677 
L 82.628844 176.637454 
L 86.19192 170.769727 
L 92.920638 162.622685 
L 95.945229 159.725253 
L 101.679944 154.475642 
L 109.261618 148.725189 
L 112.575427 146.328599 
L 122.578008 140.153293 
L 125.935432 138.181556 
L 135.894393 133.07958 
L 142.159354 130.034513 
L 149.210779 126.995206 
L 161.737717 121.887471 
L 162.527164 121.598317 
L 175.843549 117.010782 
L 185.954693 113.740428 
L 189.159943 112.799724 
L 202.476328 109.156423 
L 215.792713 105.77108 
L 216.552229 105.593385 
L 229.109099 102.90606 
L 242.425484 100.297978 
L 255.74187 97.933346 
L 258.809253 97.446342 
L 269.058271 95.94764 
L 282.374641 94.230045 
L 295.691042 92.742744 
L 309.007427 91.487634 
L 322.323812 90.466616 
L 335.640198 89.681631 
L 344.955408 89.299299 
L 348.956583 89.14725 
L 362.272969 88.863826 
L 375.589354 88.803832 
L 388.905739 88.968971 
L 400.131148 89.299299 
L 402.222125 89.366169 
L 415.53851 90.0391 
L 428.854911 90.962178 
L 442.171281 92.137514 
L 455.487667 93.567248 
L 468.804052 95.25353 
L 482.120437 97.19855 
L 483.620024 97.446342 
L 495.436854 99.58792 
L 508.753208 102.289594 
L 522.069594 105.283184 
L 523.329388 105.593385 
L 535.385979 108.882362 
L 548.702396 112.844816 
L 551.485623 113.740428 
L 562.01875 117.541331 
L 562.01875 121.887471 
L 562.01875 130.034513 
L 562.01875 137.258679 
L 548.702396 130.88992 
L 546.767223 130.034513 
L 535.385979 125.689637 
L 524.527594 121.887471 
L 522.069594 121.130056 
L 508.753208 117.382948 
L 495.436854 114.000791 
L 494.293335 113.740428 
L 482.120437 111.263745 
L 468.804052 108.871556 
L 455.487667 106.794059 
L 446.443826 105.593385 
L 442.171281 105.080372 
L 428.854911 103.757009 
L 415.53851 102.710015 
L 402.222125 101.936851 
L 388.905739 101.435038 
L 375.589354 101.202102 
L 362.272969 101.235623 
L 348.956583 101.533192 
L 335.640198 102.092434 
L 322.323812 102.911007 
L 309.007427 103.986587 
L 295.691042 105.316896 
L 293.370518 105.593385 
L 282.374641 107.027626 
L 269.058271 109.039175 
L 255.74187 111.321731 
L 243.117914 113.740428 
L 242.425484 113.886875 
L 229.109099 117.00511 
L 215.792713 120.412535 
L 210.486428 121.887471 
L 202.476328 124.370007 
L 189.159943 128.8168 
L 185.760618 130.034513 
L 175.843549 134.046614 
L 166.253443 138.181556 
L 162.527164 140.026941 
L 150.54206 146.328599 
L 149.210779 147.150735 
L 138.001024 154.475642 
L 135.894393 156.143235 
L 128.135206 162.622685 
L 122.578008 168.507488 
L 120.547425 170.769727 
L 115.225403 178.91677 
L 111.89763 187.063813 
L 110.594817 195.210865 
L 111.348295 203.357908 
L 114.190059 211.504951 
L 119.152788 219.651993 
L 122.578008 223.583569 
L 126.491051 227.799036 
L 135.894393 235.565005 
L 136.388146 235.946079 
L 149.210779 243.969893 
L 149.422546 244.093122 
L 162.527164 250.50545 
L 166.361235 252.240165 
L 175.843549 255.941485 
L 188.243396 260.387207 
L 189.159943 260.676153 
L 202.476328 264.517329 
L 215.792713 267.990693 
L 218.112908 268.53425 
L 229.109099 270.834809 
L 242.425484 273.302334 
L 255.74187 275.453018 
L 264.635302 276.681298 
L 269.058271 277.233496 
L 282.374641 278.618852 
L 295.691042 279.726175 
L 309.007427 280.55802 
L 322.323812 281.116907 
L 335.640198 281.405319 
L 348.956583 281.42572 
L 362.272969 281.180527 
L 375.589354 280.672148 
L 388.905739 279.90295 
L 402.222125 278.875278 
L 415.53851 277.591438 
L 423.410623 276.681298 
L 428.854911 275.991939 
L 442.171281 274.027223 
L 455.487667 271.789854 
L 468.804052 269.282508 
L 472.386589 268.53425 
L 482.120437 266.289638 
L 495.436854 262.92486 
L 504.678009 260.387207 
L 508.753208 259.138672 
L 522.069594 254.732167 
L 529.089802 252.240165 
L 535.385979 249.714072 
L 548.519238 244.093122 
L 548.702396 244.002992 
L 562.01875 237.034521 
L 562.01875 244.093122 
L 562.01875 252.240165 
L 562.01875 256.76295 
L 553.066129 260.387207 
L 548.702396 261.973146 
L 535.385979 266.525779 
L 529.116624 268.53425 
L 522.069594 270.581781 
L 508.753208 274.188115 
L 498.825318 276.681298 
L 495.436854 277.459584 
L 482.120437 280.271036 
L 468.804052 282.839862 
L 457.405559 284.82834 
L 455.487667 285.136456 
L 442.171281 287.043081 
L 428.854911 288.720123 
L 415.53851 290.165681 
L 402.222125 291.377858 
L 388.905739 292.354718 
L 377.725722 292.975383 
L 375.589354 293.085181 
L 362.272969 293.547011 
L 348.956583 293.786035 
L 335.640198 293.800535 
L 322.323812 293.58878 
L 309.007427 293.149011 
L 305.547578 292.975383 
L 295.691042 292.437531 
L 282.374641 291.459888 
L 269.058271 290.228588 
L 255.74187 288.741488 
L 242.425484 286.9964 
L 229.109099 284.991121 
L 228.150685 284.82834 
L 215.792713 282.525342 
L 202.476328 279.753296 
L 189.159943 276.687514 
L 189.135246 276.681298 
L 175.843549 272.972936 
L 162.527164 268.924382 
L 161.338731 268.53425 
L 149.210779 264.066754 
L 139.934521 260.387207 
L 135.894393 258.561705 
L 122.835482 252.240165 
L 122.578008 252.095387 
L 109.261618 244.109008 
L 109.236692 244.093122 
L 98.516985 235.946079 
L 95.945229 233.524902 
L 90.200835 227.799036 
L 83.972475 219.651993 
L 82.628844 217.113966 
z
" clip-path="url(#pf1548682ab)" style="fill: #c6e9b4"/>
   </g>
   <g id="PathCollection_6">
    <path d="M 52.9477 219.651993 
L 49.338138 211.504951 
L 47.376813 203.357908 
L 47.043844 195.210865 
L 48.319693 187.063813 
L 51.185089 178.91677 
L 55.621107 170.769727 
L 55.996073 170.261453 
L 61.859368 162.622685 
L 69.312458 154.893739 
L 69.732631 154.475642 
L 79.603538 146.328599 
L 82.628844 144.192032 
L 91.512424 138.181556 
L 95.945229 135.560317 
L 105.718215 130.034513 
L 109.261618 128.255227 
L 122.551934 121.887471 
L 122.578008 121.876235 
L 135.894393 116.422977 
L 142.79496 113.740428 
L 149.210779 111.475106 
L 162.527164 107.02901 
L 167.093085 105.593385 
L 175.843549 103.073891 
L 189.159943 99.476362 
L 197.208198 97.446342 
L 202.476328 96.2211 
L 215.792713 93.348239 
L 229.109099 90.696368 
L 236.776615 89.299299 
L 242.425484 88.34482 
L 255.74187 86.306576 
L 269.058271 84.478472 
L 282.374641 82.862106 
L 295.691042 81.459058 
L 299.136149 81.152257 
L 309.007427 80.333277 
L 322.323812 79.430758 
L 335.640198 78.731289 
L 348.956583 78.236308 
L 362.272969 77.947267 
L 375.589354 77.865635 
L 388.905739 77.992896 
L 402.222125 78.33054 
L 415.53851 78.880074 
L 428.854911 79.643029 
L 442.171281 80.620938 
L 448.102744 81.152257 
L 455.487667 81.867267 
L 468.804052 83.390742 
L 482.120437 85.151754 
L 495.436854 87.152163 
L 508.193053 89.299299 
L 508.753208 89.401952 
L 522.069594 92.100859 
L 535.385979 95.067267 
L 545.182831 97.446342 
L 548.702396 98.384786 
L 562.01875 102.2272 
L 562.01875 105.593385 
L 562.01875 113.740428 
L 562.01875 117.541331 
L 551.485623 113.740428 
L 548.702396 112.844816 
L 535.385979 108.882362 
L 523.329388 105.593385 
L 522.069594 105.283184 
L 508.753208 102.289594 
L 495.436854 99.58792 
L 483.620024 97.446342 
L 482.120437 97.19855 
L 468.804052 95.25353 
L 455.487667 93.567248 
L 442.171281 92.137514 
L 428.854911 90.962178 
L 415.53851 90.0391 
L 402.222125 89.366169 
L 400.131148 89.299299 
L 388.905739 88.968971 
L 375.589354 88.803832 
L 362.272969 88.863826 
L 348.956583 89.14725 
L 344.955408 89.299299 
L 335.640198 89.681631 
L 322.323812 90.466616 
L 309.007427 91.487634 
L 295.691042 92.742744 
L 282.374641 94.230045 
L 269.058271 95.94764 
L 258.809253 97.446342 
L 255.74187 97.933346 
L 242.425484 100.297978 
L 229.109099 102.90606 
L 216.552229 105.593385 
L 215.792713 105.77108 
L 202.476328 109.156423 
L 189.159943 112.799724 
L 185.954693 113.740428 
L 175.843549 117.010782 
L 162.527164 121.598317 
L 161.737717 121.887471 
L 149.210779 126.995206 
L 142.159354 130.034513 
L 135.894393 133.07958 
L 125.935432 138.181556 
L 122.578008 140.153293 
L 112.575427 146.328599 
L 109.261618 148.725189 
L 101.679944 154.475642 
L 95.945229 159.725253 
L 92.920638 162.622685 
L 86.19192 170.769727 
L 82.628844 176.637454 
L 81.30389 178.91677 
L 78.299506 187.063813 
L 77.034426 195.210865 
L 77.531725 203.357908 
L 79.814891 211.504951 
L 82.628844 217.113966 
L 83.972475 219.651993 
L 90.200835 227.799036 
L 95.945229 233.524902 
L 98.516985 235.946079 
L 109.236692 244.093122 
L 109.261618 244.109008 
L 122.578008 252.095387 
L 122.835482 252.240165 
L 135.894393 258.561705 
L 139.934521 260.387207 
L 149.210779 264.066754 
L 161.338731 268.53425 
L 162.527164 268.924382 
L 175.843549 272.972936 
L 189.135246 276.681298 
L 189.159943 276.687514 
L 202.476328 279.753296 
L 215.792713 282.525342 
L 228.150685 284.82834 
L 229.109099 284.991121 
L 242.425484 286.9964 
L 255.74187 288.741488 
L 269.058271 290.228588 
L 282.374641 291.459888 
L 295.691042 292.437531 
L 305.547578 292.975383 
L 309.007427 293.149011 
L 322.323812 293.58878 
L 335.640198 293.800535 
L 348.956583 293.786035 
L 362.272969 293.547011 
L 375.589354 293.085181 
L 377.725722 292.975383 
L 388.905739 292.354718 
L 402.222125 291.377858 
L 415.53851 290.165681 
L 428.854911 288.720123 
L 442.171281 287.043081 
L 455.487667 285.136456 
L 457.405559 284.82834 
L 468.804052 282.839862 
L 482.120437 280.271036 
L 495.436854 277.459584 
L 498.825318 276.681298 
L 508.753208 274.188115 
L 522.069594 270.581781 
L 529.116624 268.53425 
L 535.385979 266.525779 
L 548.702396 261.973146 
L 553.066129 260.387207 
L 562.01875 256.76295 
L 562.01875 260.387207 
L 562.01875 268.53425 
L 562.01875 272.074894 
L 548.702396 276.488781 
L 548.084571 276.681298 
L 535.385979 280.303331 
L 522.069594 283.867028 
L 518.21462 284.82834 
L 508.753208 287.003122 
L 495.436854 289.841328 
L 482.120437 292.457464 
L 479.231325 292.975383 
L 468.804052 294.708314 
L 455.487667 296.710654 
L 442.171281 298.501864 
L 428.854911 300.080343 
L 418.676353 301.122426 
L 415.53851 301.421689 
L 402.222125 302.488322 
L 388.905739 303.35244 
L 375.589354 304.012592 
L 362.272969 304.467337 
L 348.956583 304.715202 
L 335.640198 304.754706 
L 322.323812 304.584368 
L 309.007427 304.202666 
L 295.691042 303.608086 
L 282.374641 302.799098 
L 269.058271 301.774136 
L 262.065603 301.122426 
L 255.74187 300.485211 
L 242.425484 298.908322 
L 229.109099 297.092677 
L 215.792713 295.036393 
L 203.85064 292.975383 
L 202.476328 292.717061 
L 189.159943 289.953711 
L 175.843549 286.921309 
L 167.398605 284.82834 
L 162.527164 283.502145 
L 149.210779 279.58225 
L 140.05773 276.681298 
L 135.894393 275.217159 
L 122.578008 270.201805 
L 118.427063 268.53425 
L 109.261618 264.397211 
L 100.907623 260.387207 
L 95.945229 257.669347 
L 86.590461 252.240165 
L 82.628844 249.563579 
L 74.963559 244.093122 
L 69.312458 239.268106 
L 65.618549 235.946079 
L 58.328521 227.799036 
L 55.996073 224.365504 
z
" clip-path="url(#pf1548682ab)" style="fill: #a7dcb7"/>
   </g>
   <g id="PathCollection_7">
    <path d="M 54.701961 252.240165 
L 44.415928 244.093122 
L 42.679688 242.445276 
L 42.679688 235.946079 
L 42.679688 227.799036 
L 42.679688 219.651993 
L 42.679688 211.504951 
L 42.679688 203.357908 
L 42.679688 195.210865 
L 42.679688 187.063813 
L 42.679688 178.91677 
L 42.679688 170.769727 
L 42.679688 162.622685 
L 42.679688 154.475642 
L 42.679688 152.943453 
L 50.101583 146.328599 
L 55.996073 141.825098 
L 60.955544 138.181556 
L 69.312458 132.809041 
L 73.807863 130.034513 
L 82.628844 125.194879 
L 88.91892 121.887471 
L 95.945229 118.562231 
L 106.596409 113.740428 
L 109.261618 112.643526 
L 122.578008 107.4175 
L 127.462529 105.593385 
L 135.894393 102.70758 
L 149.210779 98.381489 
L 152.256683 97.446342 
L 162.527164 94.536877 
L 175.843549 90.9807 
L 182.554852 89.299299 
L 189.159943 87.763545 
L 202.476328 84.873506 
L 215.792713 82.187298 
L 221.356506 81.152257 
L 229.109099 79.80726 
L 242.425484 77.692458 
L 255.74187 75.77224 
L 269.058271 74.047954 
L 278.158489 73.005214 
L 282.374641 72.552823 
L 295.691042 71.312144 
L 309.007427 70.258732 
L 322.323812 69.393824 
L 335.640198 68.718659 
L 348.956583 68.234487 
L 362.272969 67.942588 
L 375.589354 67.844232 
L 388.905739 67.940719 
L 402.222125 68.233332 
L 415.53851 68.723395 
L 428.854911 69.412233 
L 442.171281 70.301185 
L 455.487667 71.391596 
L 468.804052 72.684825 
L 471.65828 73.005214 
L 482.120437 74.268099 
L 495.436854 76.09583 
L 508.753208 78.146301 
L 522.069594 80.421152 
L 525.969206 81.152257 
L 535.385979 83.062759 
L 548.702396 86.00924 
L 562.01875 89.204567 
L 562.01875 89.299299 
L 562.01875 97.446342 
L 562.01875 102.2272 
L 548.702396 98.384786 
L 545.182831 97.446342 
L 535.385979 95.067267 
L 522.069594 92.100859 
L 508.753208 89.401952 
L 508.193053 89.299299 
L 495.436854 87.152163 
L 482.120437 85.151754 
L 468.804052 83.390742 
L 455.487667 81.867267 
L 448.102744 81.152257 
L 442.171281 80.620938 
L 428.854911 79.643029 
L 415.53851 78.880074 
L 402.222125 78.33054 
L 388.905739 77.992896 
L 375.589354 77.865635 
L 362.272969 77.947267 
L 348.956583 78.236308 
L 335.640198 78.731289 
L 322.323812 79.430758 
L 309.007427 80.333277 
L 299.136149 81.152257 
L 295.691042 81.459058 
L 282.374641 82.862106 
L 269.058271 84.478472 
L 255.74187 86.306576 
L 242.425484 88.34482 
L 236.776615 89.299299 
L 229.109099 90.696368 
L 215.792713 93.348239 
L 202.476328 96.2211 
L 197.208198 97.446342 
L 189.159943 99.476362 
L 175.843549 103.073891 
L 167.093085 105.593385 
L 162.527164 107.02901 
L 149.210779 111.475106 
L 142.79496 113.740428 
L 135.894393 116.422977 
L 122.578008 121.876235 
L 122.551934 121.887471 
L 109.261618 128.255227 
L 105.718215 130.034513 
L 95.945229 135.560317 
L 91.512424 138.181556 
L 82.628844 144.192032 
L 79.603538 146.328599 
L 69.732631 154.475642 
L 69.312458 154.893739 
L 61.859368 162.622685 
L 55.996073 170.261453 
L 55.621107 170.769727 
L 51.185089 178.91677 
L 48.319693 187.063813 
L 47.043844 195.210865 
L 47.376813 203.357908 
L 49.338138 211.504951 
L 52.9477 219.651993 
L 55.996073 224.365504 
L 58.328521 227.799036 
L 65.618549 235.946079 
L 69.312458 239.268106 
L 74.963559 244.093122 
L 82.628844 249.563579 
L 86.590461 252.240165 
L 95.945229 257.669347 
L 100.907623 260.387207 
L 109.261618 264.397211 
L 118.427063 268.53425 
L 122.578008 270.201805 
L 135.894393 275.217159 
L 140.05773 276.681298 
L 149.210779 279.58225 
L 162.527164 283.502145 
L 167.398605 284.82834 
L 175.843549 286.921309 
L 189.159943 289.953711 
L 202.476328 292.717061 
L 203.85064 292.975383 
L 215.792713 295.036393 
L 229.109099 297.092677 
L 242.425484 298.908322 
L 255.74187 300.485211 
L 262.065603 301.122426 
L 269.058271 301.774136 
L 282.374641 302.799098 
L 295.691042 303.608086 
L 309.007427 304.202666 
L 322.323812 304.584368 
L 335.640198 304.754706 
L 348.956583 304.715202 
L 362.272969 304.467337 
L 375.589354 304.012592 
L 388.905739 303.35244 
L 402.222125 302.488322 
L 415.53851 301.421689 
L 418.676353 301.122426 
L 428.854911 300.080343 
L 442.171281 298.501864 
L 455.487667 296.710654 
L 468.804052 294.708314 
L 479.231325 292.975383 
L 482.120437 292.457464 
L 495.436854 289.841328 
L 508.753208 287.003122 
L 518.21462 284.82834 
L 522.069594 283.867028 
L 535.385979 280.303331 
L 548.084571 276.681298 
L 548.702396 276.488781 
L 562.01875 272.074894 
L 562.01875 276.681298 
L 562.01875 284.82834 
L 562.01875 285.092086 
L 548.702396 288.83194 
L 535.385979 292.356917 
L 532.891184 292.975383 
L 522.069594 295.464376 
L 508.753208 298.32252 
L 495.436854 300.975899 
L 494.63762 301.122426 
L 482.120437 303.261991 
L 468.804052 305.3438 
L 455.487667 307.230185 
L 442.171281 308.919765 
L 439.043283 309.269469 
L 428.854911 310.335854 
L 415.53851 311.542114 
L 402.222125 312.560328 
L 388.905739 313.389256 
L 375.589354 314.027643 
L 362.272969 314.474224 
L 348.956583 314.72772 
L 335.640198 314.78685 
L 322.323812 314.650311 
L 309.007427 314.316787 
L 295.691042 313.784953 
L 282.374641 313.05349 
L 269.058271 312.12103 
L 255.74187 310.986228 
L 242.425484 309.647713 
L 239.156893 309.269469 
L 229.109099 308.018779 
L 215.792713 306.140016 
L 202.476328 304.037425 
L 189.159943 301.709356 
L 186.095384 301.122426 
L 175.843549 298.997032 
L 162.527164 295.989784 
L 150.201909 292.975383 
L 149.210779 292.711128 
L 135.894393 288.894283 
L 122.672748 284.82834 
L 122.578008 284.79631 
L 109.261618 279.998026 
L 100.611471 276.681298 
L 95.945229 274.693935 
L 82.628844 268.681186 
L 82.320646 268.53425 
L 69.312458 261.556857 
L 67.243619 260.387207 
L 55.996073 253.119263 
z
" clip-path="url(#pf1548682ab)" style="fill: #87d0ba"/>
   </g>
   <g id="PathCollection_8">
    <path d="M 50.728717 268.53425 
L 42.679688 263.751466 
L 42.679688 260.387207 
L 42.679688 252.240165 
L 42.679688 244.093122 
L 42.679688 242.445276 
L 44.415928 244.093122 
L 54.701961 252.240165 
L 55.996073 253.119263 
L 67.243619 260.387207 
L 69.312458 261.556857 
L 82.320646 268.53425 
L 82.628844 268.681186 
L 95.945229 274.693935 
L 100.611471 276.681298 
L 109.261618 279.998026 
L 122.578008 284.79631 
L 122.672748 284.82834 
L 135.894393 288.894283 
L 149.210779 292.711128 
L 150.201909 292.975383 
L 162.527164 295.989784 
L 175.843549 298.997032 
L 186.095384 301.122426 
L 189.159943 301.709356 
L 202.476328 304.037425 
L 215.792713 306.140016 
L 229.109099 308.018779 
L 239.156893 309.269469 
L 242.425484 309.647713 
L 255.74187 310.986228 
L 269.058271 312.12103 
L 282.374641 313.05349 
L 295.691042 313.784953 
L 309.007427 314.316787 
L 322.323812 314.650311 
L 335.640198 314.78685 
L 348.956583 314.72772 
L 362.272969 314.474224 
L 375.589354 314.027643 
L 388.905739 313.389256 
L 402.222125 312.560328 
L 415.53851 311.542114 
L 428.854911 310.335854 
L 439.043283 309.269469 
L 442.171281 308.919765 
L 455.487667 307.230185 
L 468.804052 305.3438 
L 482.120437 303.261991 
L 494.63762 301.122426 
L 495.436854 300.975899 
L 508.753208 298.32252 
L 522.069594 295.464376 
L 532.891184 292.975383 
L 535.385979 292.356917 
L 548.702396 288.83194 
L 562.01875 285.092086 
L 562.01875 292.975383 
L 562.01875 296.441739 
L 548.702396 299.931658 
L 543.874845 301.122426 
L 535.385979 303.075939 
L 522.069594 305.949184 
L 508.753208 308.632488 
L 505.343569 309.269469 
L 495.436854 311.003445 
L 482.120437 313.15221 
L 468.804052 315.119083 
L 455.487667 316.902864 
L 451.205014 317.416514 
L 442.171281 318.435297 
L 428.854911 319.761645 
L 415.53851 320.91249 
L 402.222125 321.886752 
L 388.905739 322.683337 
L 375.589354 323.301137 
L 362.272969 323.739042 
L 348.956583 323.995931 
L 335.640198 324.070655 
L 322.323812 323.962098 
L 309.007427 323.669096 
L 295.691042 323.190482 
L 282.374641 322.525105 
L 269.058271 321.671765 
L 255.74187 320.629282 
L 242.425484 319.396455 
L 229.109099 317.97207 
L 224.52802 317.416514 
L 215.792713 316.282336 
L 202.476328 314.346893 
L 189.159943 312.202228 
L 175.843549 309.846902 
L 172.843291 309.269469 
L 162.527164 307.131991 
L 149.210779 304.144021 
L 136.713172 301.122426 
L 135.894393 300.908008 
L 122.578008 297.175437 
L 109.261618 293.186762 
L 108.597122 292.975383 
L 95.945229 288.583675 
L 85.747574 284.82834 
L 82.628844 283.564584 
L 69.312458 277.862683 
L 66.694215 276.681298 
L 55.996073 271.313704 
z
" clip-path="url(#pf1548682ab)" style="fill: #6bc6be"/>
    <path d="M 42.679688 146.328599 
L 42.679688 138.181556 
L 42.679688 131.599887 
L 45.022746 130.034513 
L 55.996073 123.511358 
L 58.836075 121.887471 
L 69.312458 116.491839 
L 74.875203 113.740428 
L 82.628844 110.251705 
L 93.427592 105.593385 
L 95.945229 104.597292 
L 109.261618 99.561542 
L 115.12303 97.446342 
L 122.578008 94.962405 
L 135.894393 90.739303 
L 140.681139 89.299299 
L 149.210779 86.916541 
L 162.527164 83.397638 
L 171.541341 81.152257 
L 175.843549 80.152186 
L 189.159943 77.249369 
L 202.476328 74.535718 
L 210.560997 73.005214 
L 215.792713 72.077084 
L 229.109099 69.89779 
L 242.425484 67.899661 
L 255.74187 66.083878 
L 265.746982 64.858171 
L 269.058271 64.47666 
L 282.374641 63.118514 
L 295.691042 61.935179 
L 309.007427 60.927747 
L 322.323812 60.097308 
L 335.640198 59.444941 
L 348.956583 58.971772 
L 362.272969 58.678906 
L 375.589354 58.567453 
L 388.905739 58.638568 
L 402.222125 58.893388 
L 415.53851 59.333059 
L 428.854911 59.958744 
L 442.171281 60.771621 
L 455.487667 61.77286 
L 468.804052 62.963671 
L 482.120437 64.345233 
L 486.467453 64.858171 
L 495.436854 65.991045 
L 508.753208 67.878585 
L 522.069594 69.974418 
L 535.385979 72.279949 
L 539.22976 73.005214 
L 548.702396 74.92891 
L 562.01875 77.860519 
L 562.01875 81.152257 
L 562.01875 89.204567 
L 548.702396 86.00924 
L 535.385979 83.062759 
L 525.969206 81.152257 
L 522.069594 80.421152 
L 508.753208 78.146301 
L 495.436854 76.09583 
L 482.120437 74.268099 
L 471.65828 73.005214 
L 468.804052 72.684825 
L 455.487667 71.391596 
L 442.171281 70.301185 
L 428.854911 69.412233 
L 415.53851 68.723395 
L 402.222125 68.233332 
L 388.905739 67.940719 
L 375.589354 67.844232 
L 362.272969 67.942588 
L 348.956583 68.234487 
L 335.640198 68.718659 
L 322.323812 69.393824 
L 309.007427 70.258732 
L 295.691042 71.312144 
L 282.374641 72.552823 
L 278.158489 73.005214 
L 269.058271 74.047954 
L 255.74187 75.77224 
L 242.425484 77.692458 
L 229.109099 79.80726 
L 221.356506 81.152257 
L 215.792713 82.187298 
L 202.476328 84.873506 
L 189.159943 87.763545 
L 182.554852 89.299299 
L 175.843549 90.9807 
L 162.527164 94.536877 
L 152.256683 97.446342 
L 149.210779 98.381489 
L 135.894393 102.70758 
L 127.462529 105.593385 
L 122.578008 107.4175 
L 109.261618 112.643526 
L 106.596409 113.740428 
L 95.945229 118.562231 
L 88.91892 121.887471 
L 82.628844 125.194879 
L 73.807863 130.034513 
L 69.312458 132.809041 
L 60.955544 138.181556 
L 55.996073 141.825098 
L 50.101583 146.328599 
L 42.679688 152.943453 
z
" clip-path="url(#pf1548682ab)" style="fill: #6bc6be"/>
   </g>
   <g id="PathCollection_9">
    <path d="M 53.437423 284.82834 
L 42.679688 279.732922 
L 42.679688 276.681298 
L 42.679688 268.53425 
L 42.679688 263.751466 
L 50.728717 268.53425 
L 55.996073 271.313704 
L 66.694215 276.681298 
L 69.312458 277.862683 
L 82.628844 283.564584 
L 85.747574 284.82834 
L 95.945229 288.583675 
L 108.597122 292.975383 
L 109.261618 293.186762 
L 122.578008 297.175437 
L 135.894393 300.908008 
L 136.713172 301.122426 
L 149.210779 304.144021 
L 162.527164 307.131991 
L 172.843291 309.269469 
L 175.843549 309.846902 
L 189.159943 312.202228 
L 202.476328 314.346893 
L 215.792713 316.282336 
L 224.52802 317.416514 
L 229.109099 317.97207 
L 242.425484 319.396455 
L 255.74187 320.629282 
L 269.058271 321.671765 
L 282.374641 322.525105 
L 295.691042 323.190482 
L 309.007427 323.669096 
L 322.323812 323.962098 
L 335.640198 324.070655 
L 348.956583 323.995931 
L 362.272969 323.739042 
L 375.589354 323.301137 
L 388.905739 322.683337 
L 402.222125 321.886752 
L 415.53851 320.91249 
L 428.854911 319.761645 
L 442.171281 318.435297 
L 451.205014 317.416514 
L 455.487667 316.902864 
L 468.804052 315.119083 
L 482.120437 313.15221 
L 495.436854 311.003445 
L 505.343569 309.269469 
L 508.753208 308.632488 
L 522.069594 305.949184 
L 535.385979 303.075939 
L 543.874845 301.122426 
L 548.702396 299.931658 
L 562.01875 296.441739 
L 562.01875 301.122426 
L 562.01875 306.787045 
L 551.911009 309.269469 
L 548.702396 310.008199 
L 535.385979 312.893086 
L 522.069594 315.600801 
L 512.504812 317.416514 
L 508.753208 318.086597 
L 495.436854 320.292498 
L 482.120437 322.328291 
L 468.804052 324.192904 
L 458.015074 325.563557 
L 455.487667 325.86662 
L 442.171281 327.297341 
L 428.854911 328.563525 
L 415.53851 329.664228 
L 402.222125 330.598482 
L 388.905739 331.365319 
L 375.589354 331.963749 
L 362.272969 332.392811 
L 348.956583 332.651482 
L 335.640198 332.738772 
L 322.323812 332.653665 
L 309.007427 332.395156 
L 295.691042 331.962211 
L 282.374641 331.353787 
L 269.058271 330.568855 
L 255.74187 329.606355 
L 242.425484 328.465233 
L 229.109099 327.144418 
L 215.792713 325.642837 
L 215.164399 325.563557 
L 202.476328 323.856521 
L 189.159943 321.86998 
L 175.843549 319.687016 
L 163.141984 317.416514 
L 162.527164 317.298775 
L 149.210779 314.540776 
L 135.894393 311.567836 
L 126.291954 309.269469 
L 122.578008 308.311955 
L 109.261618 304.649491 
L 97.214631 301.122426 
L 95.945229 300.719627 
L 82.628844 296.244328 
L 73.432625 292.975383 
L 69.312458 291.376431 
L 55.996073 285.92873 
z
" clip-path="url(#pf1548682ab)" style="fill: #50bbc2"/>
    <path d="M 42.679688 130.034513 
L 42.679688 121.887471 
L 42.679688 115.639773 
L 46.223517 113.740428 
L 55.996073 108.972839 
L 63.195601 105.593385 
L 69.312458 102.95861 
L 82.628844 97.448235 
L 82.633621 97.446342 
L 95.945229 92.573928 
L 105.292268 89.299299 
L 109.261618 88.007255 
L 122.578008 83.873414 
L 131.78402 81.152257 
L 135.894393 80.0179 
L 149.210779 76.532631 
L 162.527164 73.232543 
L 163.501475 73.005214 
L 175.843549 70.305452 
L 189.159943 67.569471 
L 202.476328 65.011092 
L 203.333799 64.858171 
L 215.792713 62.767452 
L 229.109099 60.702617 
L 242.425484 58.808298 
L 255.74187 57.085547 
L 258.963295 56.711128 
L 269.058271 55.603606 
L 282.374641 54.307264 
L 295.691042 53.175808 
L 309.007427 52.210187 
L 322.323812 51.411372 
L 335.640198 50.780333 
L 348.956583 50.31805 
L 362.272969 50.025511 
L 375.589354 49.903715 
L 388.905739 49.953657 
L 402.222125 50.176356 
L 415.53851 50.57283 
L 428.854911 51.144102 
L 442.171281 51.891219 
L 455.487667 52.815209 
L 468.804052 53.917133 
L 482.120437 55.198052 
L 495.436854 56.659028 
L 495.860167 56.711128 
L 508.753208 58.402789 
L 522.069594 60.344215 
L 535.385979 62.481229 
L 548.702396 64.815079 
L 548.929506 64.858171 
L 562.01875 67.518547 
L 562.01875 73.005214 
L 562.01875 77.860519 
L 548.702396 74.92891 
L 539.22976 73.005214 
L 535.385979 72.279949 
L 522.069594 69.974418 
L 508.753208 67.878585 
L 495.436854 65.991045 
L 486.467453 64.858171 
L 482.120437 64.345233 
L 468.804052 62.963671 
L 455.487667 61.77286 
L 442.171281 60.771621 
L 428.854911 59.958744 
L 415.53851 59.333059 
L 402.222125 58.893388 
L 388.905739 58.638568 
L 375.589354 58.567453 
L 362.272969 58.678906 
L 348.956583 58.971772 
L 335.640198 59.444941 
L 322.323812 60.097308 
L 309.007427 60.927747 
L 295.691042 61.935179 
L 282.374641 63.118514 
L 269.058271 64.47666 
L 265.746982 64.858171 
L 255.74187 66.083878 
L 242.425484 67.899661 
L 229.109099 69.89779 
L 215.792713 72.077084 
L 210.560997 73.005214 
L 202.476328 74.535718 
L 189.159943 77.249369 
L 175.843549 80.152186 
L 171.541341 81.152257 
L 162.527164 83.397638 
L 149.210779 86.916541 
L 140.681139 89.299299 
L 135.894393 90.739303 
L 122.578008 94.962405 
L 115.12303 97.446342 
L 109.261618 99.561542 
L 95.945229 104.597292 
L 93.427592 105.593385 
L 82.628844 110.251705 
L 74.875203 113.740428 
L 69.312458 116.491839 
L 58.836075 121.887471 
L 55.996073 123.511358 
L 45.022746 130.034513 
L 42.679688 131.599887 
z
" clip-path="url(#pf1548682ab)" style="fill: #50bbc2"/>
   </g>
   <g id="PathCollection_10">
    <path d="M 42.679688 292.975383 
L 42.679688 284.82834 
L 42.679688 279.732922 
L 53.437423 284.82834 
L 55.996073 285.92873 
L 69.312458 291.376431 
L 73.432625 292.975383 
L 82.628844 296.244328 
L 95.945229 300.719627 
L 97.214631 301.122426 
L 109.261618 304.649491 
L 122.578008 308.311955 
L 126.291954 309.269469 
L 135.894393 311.567836 
L 149.210779 314.540776 
L 162.527164 317.298775 
L 163.141984 317.416514 
L 175.843549 319.687016 
L 189.159943 321.86998 
L 202.476328 323.856521 
L 215.164399 325.563557 
L 215.792713 325.642837 
L 229.109099 327.144418 
L 242.425484 328.465233 
L 255.74187 329.606355 
L 269.058271 330.568855 
L 282.374641 331.353787 
L 295.691042 331.962211 
L 309.007427 332.395156 
L 322.323812 332.653665 
L 335.640198 332.738772 
L 348.956583 332.651482 
L 362.272969 332.392811 
L 375.589354 331.963749 
L 388.905739 331.365319 
L 402.222125 330.598482 
L 415.53851 329.664228 
L 428.854911 328.563525 
L 442.171281 327.297341 
L 455.487667 325.86662 
L 458.015074 325.563557 
L 468.804052 324.192904 
L 482.120437 322.328291 
L 495.436854 320.292498 
L 508.753208 318.086597 
L 512.504812 317.416514 
L 522.069594 315.600801 
L 535.385979 312.893086 
L 548.702396 310.008199 
L 551.911009 309.269469 
L 562.01875 306.787045 
L 562.01875 309.269469 
L 562.01875 316.322529 
L 557.283936 317.416514 
L 548.702396 319.282798 
L 535.385979 322.010764 
L 522.069594 324.571737 
L 516.543806 325.563557 
L 508.753208 326.883994 
L 495.436854 328.979421 
L 482.120437 330.914141 
L 468.804052 332.687223 
L 460.336351 333.710601 
L 455.487667 334.265508 
L 442.171281 335.632894 
L 428.854911 336.844586 
L 415.53851 337.899722 
L 402.222125 338.797443 
L 388.905739 339.536883 
L 375.589354 340.11717 
L 362.272969 340.537418 
L 348.956583 340.796743 
L 335.640198 340.894238 
L 322.323812 340.829021 
L 309.007427 340.600182 
L 295.691042 340.206801 
L 282.374641 339.647955 
L 269.058271 338.92272 
L 255.74187 338.030159 
L 242.425484 336.969344 
L 229.109099 335.739303 
L 215.792713 334.339099 
L 210.460453 333.710601 
L 202.476328 332.710936 
L 189.159943 330.862095 
L 175.843549 328.829274 
L 162.527164 326.611371 
L 156.716723 325.563557 
L 149.210779 324.119529 
L 135.894393 321.359906 
L 122.578008 318.398855 
L 118.437205 317.416514 
L 109.261618 315.083135 
L 95.945229 311.479835 
L 88.240802 309.269469 
L 82.628844 307.534298 
L 69.312458 303.182318 
L 63.333845 301.122426 
L 55.996073 298.380629 
L 42.679688 293.144615 
z
" clip-path="url(#pf1548682ab)" style="fill: #39adc3"/>
    <path d="M 42.679688 113.740428 
L 42.679688 105.593385 
L 42.679688 102.326999 
L 53.559464 97.446342 
L 55.996073 96.436026 
L 69.312458 91.126538 
L 74.084373 89.299299 
L 82.628844 86.25829 
L 95.945229 81.713467 
L 97.665675 81.152257 
L 109.261618 77.619463 
L 122.578008 73.745036 
L 125.25139 73.005214 
L 135.894393 70.242759 
L 149.210779 66.960881 
L 158.226868 64.858171 
L 162.527164 63.914009 
L 175.843549 61.159634 
L 189.159943 58.571614 
L 199.399557 56.711128 
L 202.476328 56.183144 
L 215.792713 54.06058 
L 229.109099 52.098157 
L 242.425484 50.296789 
L 255.74187 48.657409 
L 256.585089 48.564086 
L 269.058271 47.256781 
L 282.374641 46.016428 
L 295.691042 44.932083 
L 309.007427 44.004608 
L 322.323812 43.234864 
L 335.640198 42.623727 
L 348.956583 42.172062 
L 362.272969 41.880748 
L 375.589354 41.750691 
L 388.905739 41.782771 
L 402.222125 41.97789 
L 415.53851 42.336958 
L 428.854911 42.860896 
L 442.171281 43.550621 
L 455.487667 44.407062 
L 468.804052 45.431157 
L 482.120437 46.62384 
L 495.436854 47.98607 
L 500.464502 48.564086 
L 508.753208 49.576171 
L 522.069594 51.383073 
L 535.385979 53.373231 
L 548.702396 55.54775 
L 555.273559 56.711128 
L 562.01875 57.984862 
L 562.01875 64.858171 
L 562.01875 67.518547 
L 548.929506 64.858171 
L 548.702396 64.815079 
L 535.385979 62.481229 
L 522.069594 60.344215 
L 508.753208 58.402789 
L 495.860167 56.711128 
L 495.436854 56.659028 
L 482.120437 55.198052 
L 468.804052 53.917133 
L 455.487667 52.815209 
L 442.171281 51.891219 
L 428.854911 51.144102 
L 415.53851 50.57283 
L 402.222125 50.176356 
L 388.905739 49.953657 
L 375.589354 49.903715 
L 362.272969 50.025511 
L 348.956583 50.31805 
L 335.640198 50.780333 
L 322.323812 51.411372 
L 309.007427 52.210187 
L 295.691042 53.175808 
L 282.374641 54.307264 
L 269.058271 55.603606 
L 258.963295 56.711128 
L 255.74187 57.085547 
L 242.425484 58.808298 
L 229.109099 60.702617 
L 215.792713 62.767452 
L 203.333799 64.858171 
L 202.476328 65.011092 
L 189.159943 67.569471 
L 175.843549 70.305452 
L 163.501475 73.005214 
L 162.527164 73.232543 
L 149.210779 76.532631 
L 135.894393 80.0179 
L 131.78402 81.152257 
L 122.578008 83.873414 
L 109.261618 88.007255 
L 105.292268 89.299299 
L 95.945229 92.573928 
L 82.633621 97.446342 
L 82.628844 97.448235 
L 69.312458 102.95861 
L 63.195601 105.593385 
L 55.996073 108.972839 
L 46.223517 113.740428 
L 42.679688 115.639773 
z
" clip-path="url(#pf1548682ab)" style="fill: #39adc3"/>
   </g>
   <g id="PathCollection_11">
    <path d="M 55.174067 309.269469 
L 42.679688 304.754711 
L 42.679688 301.122426 
L 42.679688 293.144615 
L 55.996073 298.380629 
L 63.333845 301.122426 
L 69.312458 303.182318 
L 82.628844 307.534298 
L 88.240802 309.269469 
L 95.945229 311.479835 
L 109.261618 315.083135 
L 118.437205 317.416514 
L 122.578008 318.398855 
L 135.894393 321.359906 
L 149.210779 324.119529 
L 156.716723 325.563557 
L 162.527164 326.611371 
L 175.843549 328.829274 
L 189.159943 330.862095 
L 202.476328 332.710936 
L 210.460453 333.710601 
L 215.792713 334.339099 
L 229.109099 335.739303 
L 242.425484 336.969344 
L 255.74187 338.030159 
L 269.058271 338.92272 
L 282.374641 339.647955 
L 295.691042 340.206801 
L 309.007427 340.600182 
L 322.323812 340.829021 
L 335.640198 340.894238 
L 348.956583 340.796743 
L 362.272969 340.537418 
L 375.589354 340.11717 
L 388.905739 339.536883 
L 402.222125 338.797443 
L 415.53851 337.899722 
L 428.854911 336.844586 
L 442.171281 335.632894 
L 455.487667 334.265508 
L 460.336351 333.710601 
L 468.804052 332.687223 
L 482.120437 330.914141 
L 495.436854 328.979421 
L 508.753208 326.883994 
L 516.543806 325.563557 
L 522.069594 324.571737 
L 535.385979 322.010764 
L 548.702396 319.282798 
L 557.283936 317.416514 
L 562.01875 316.322529 
L 562.01875 317.416514 
L 562.01875 325.195527 
L 560.332626 325.563557 
L 548.702396 327.961488 
L 535.385979 330.549413 
L 522.069594 332.979418 
L 517.776982 333.710601 
L 508.753208 335.166711 
L 495.436854 337.162781 
L 482.120437 339.006574 
L 468.804052 340.697254 
L 458.74425 341.857644 
L 455.487667 342.214395 
L 442.171281 343.524272 
L 428.854911 344.686386 
L 415.53851 345.699956 
L 402.222125 346.56422 
L 388.905739 347.278382 
L 375.589354 347.841681 
L 362.272969 348.253292 
L 348.956583 348.512443 
L 335.640198 348.618322 
L 322.323812 348.570133 
L 309.007427 348.367045 
L 295.691042 348.008255 
L 282.374641 347.492928 
L 269.058271 346.820234 
L 255.74187 345.989337 
L 242.425484 344.999403 
L 229.109099 343.849562 
L 215.792713 342.538984 
L 209.623912 341.857644 
L 202.476328 341.021837 
L 189.159943 339.293999 
L 175.843549 337.393134 
L 162.527164 335.318257 
L 153.006718 333.710601 
L 149.210779 333.029371 
L 135.894393 330.455747 
L 122.578008 327.693722 
L 112.962121 325.563557 
L 109.261618 324.688664 
L 95.945229 321.341271 
L 82.628844 317.788558 
L 81.308406 317.416514 
L 69.312458 313.791683 
L 55.996073 309.544927 
z
" clip-path="url(#pf1548682ab)" style="fill: #299dc1"/>
    <path d="M 42.679688 97.446342 
L 42.679688 90.605583 
L 45.826209 89.299299 
L 55.996073 85.373654 
L 67.356956 81.152257 
L 69.312458 80.473307 
L 82.628844 76.036326 
L 92.114025 73.005214 
L 95.945229 71.856428 
L 109.261618 68.039155 
L 120.881097 64.858171 
L 122.578008 64.420666 
L 135.894393 61.155671 
L 149.210779 58.053985 
L 155.305131 56.711128 
L 162.527164 55.207676 
L 175.843549 52.594394 
L 189.159943 50.138469 
L 198.289922 48.564086 
L 202.476328 47.880094 
L 215.792713 45.858052 
L 229.109099 43.98778 
L 242.425484 42.270112 
L 255.74187 40.705858 
L 258.4735 40.417043 
L 269.058271 39.354149 
L 282.374641 38.164716 
L 295.691042 37.123329 
L 309.007427 36.230769 
L 322.323812 35.487808 
L 335.640198 34.895229 
L 348.956583 34.45381 
L 362.272969 34.164346 
L 375.589354 34.027642 
L 388.905739 34.044496 
L 402.222125 34.215709 
L 415.53851 34.542111 
L 428.854911 35.024523 
L 442.171281 35.663742 
L 455.487667 36.460627 
L 468.804052 37.41601 
L 482.120437 38.530734 
L 495.436854 39.805643 
L 501.112501 40.417043 
L 508.753208 41.288325 
L 522.069594 42.977012 
L 535.385979 44.838076 
L 548.702396 46.8725 
L 558.905326 48.564086 
L 562.01875 49.112574 
L 562.01875 56.711128 
L 562.01875 57.984862 
L 555.273559 56.711128 
L 548.702396 55.54775 
L 535.385979 53.373231 
L 522.069594 51.383073 
L 508.753208 49.576171 
L 500.464502 48.564086 
L 495.436854 47.98607 
L 482.120437 46.62384 
L 468.804052 45.431157 
L 455.487667 44.407062 
L 442.171281 43.550621 
L 428.854911 42.860896 
L 415.53851 42.336958 
L 402.222125 41.97789 
L 388.905739 41.782771 
L 375.589354 41.750691 
L 362.272969 41.880748 
L 348.956583 42.172062 
L 335.640198 42.623727 
L 322.323812 43.234864 
L 309.007427 44.004608 
L 295.691042 44.932083 
L 282.374641 46.016428 
L 269.058271 47.256781 
L 256.585089 48.564086 
L 255.74187 48.657409 
L 242.425484 50.296789 
L 229.109099 52.098157 
L 215.792713 54.06058 
L 202.476328 56.183144 
L 199.399557 56.711128 
L 189.159943 58.571614 
L 175.843549 61.159634 
L 162.527164 63.914009 
L 158.226868 64.858171 
L 149.210779 66.960881 
L 135.894393 70.242759 
L 125.25139 73.005214 
L 122.578008 73.745036 
L 109.261618 77.619463 
L 97.665675 81.152257 
L 95.945229 81.713467 
L 82.628844 86.25829 
L 74.084373 89.299299 
L 69.312458 91.126538 
L 55.996073 96.436026 
L 53.559464 97.446342 
L 42.679688 102.326999 
z
" clip-path="url(#pf1548682ab)" style="fill: #299dc1"/>
   </g>
   <g id="PathCollection_12">
    <path d="M 48.999154 317.416514 
L 42.679688 315.302922 
L 42.679688 309.269469 
L 42.679688 304.754711 
L 55.174067 309.269469 
L 55.996073 309.544927 
L 69.312458 313.791683 
L 81.308406 317.416514 
L 82.628844 317.788558 
L 95.945229 321.341271 
L 109.261618 324.688664 
L 112.962121 325.563557 
L 122.578008 327.693722 
L 135.894393 330.455747 
L 149.210779 333.029371 
L 153.006718 333.710601 
L 162.527164 335.318257 
L 175.843549 337.393134 
L 189.159943 339.293999 
L 202.476328 341.021837 
L 209.623912 341.857644 
L 215.792713 342.538984 
L 229.109099 343.849562 
L 242.425484 344.999403 
L 255.74187 345.989337 
L 269.058271 346.820234 
L 282.374641 347.492928 
L 295.691042 348.008255 
L 309.007427 348.367045 
L 322.323812 348.570133 
L 335.640198 348.618322 
L 348.956583 348.512443 
L 362.272969 348.253292 
L 375.589354 347.841681 
L 388.905739 347.278382 
L 402.222125 346.56422 
L 415.53851 345.699956 
L 428.854911 344.686386 
L 442.171281 343.524272 
L 455.487667 342.214395 
L 458.74425 341.857644 
L 468.804052 340.697254 
L 482.120437 339.006574 
L 495.436854 337.162781 
L 508.753208 335.166711 
L 517.776982 333.710601 
L 522.069594 332.979418 
L 535.385979 330.549413 
L 548.702396 327.961488 
L 560.332626 325.563557 
L 562.01875 325.195527 
L 562.01875 325.563557 
L 562.01875 333.519661 
L 561.096118 333.710601 
L 548.702396 336.14114 
L 535.385979 338.603329 
L 522.069594 340.91573 
L 516.261634 341.857644 
L 508.753208 343.014512 
L 495.436854 344.920763 
L 482.120437 346.682322 
L 468.804052 348.298432 
L 455.487667 349.768329 
L 453.10519 350.004687 
L 442.171281 350.004687 
L 428.854911 350.004687 
L 415.53851 350.004687 
L 402.222125 350.004687 
L 388.905739 350.004687 
L 375.589354 350.004687 
L 362.272969 350.004687 
L 348.956583 350.004687 
L 335.640198 350.004687 
L 322.323812 350.004687 
L 309.007427 350.004687 
L 295.691042 350.004687 
L 282.374641 350.004687 
L 269.058271 350.004687 
L 255.74187 350.004687 
L 242.425484 350.004687 
L 229.109099 350.004687 
L 215.792713 350.004687 
L 212.770243 350.004687 
L 202.476328 348.876948 
L 189.159943 347.256248 
L 175.843549 345.472249 
L 162.527164 343.524072 
L 152.022344 341.857644 
L 149.210779 341.38524 
L 135.894393 338.975207 
L 122.578008 336.388228 
L 109.681298 333.710601 
L 109.261618 333.617964 
L 95.945229 330.493722 
L 82.628844 327.177685 
L 76.496616 325.563557 
L 69.312458 323.544516 
L 55.996073 319.597907 
z
" clip-path="url(#pf1548682ab)" style="fill: #1e8bbd"/>
    <path d="M 42.679688 89.299299 
L 42.679688 81.152257 
L 42.679688 80.070503 
L 55.996073 75.257508 
L 62.47201 73.005214 
L 69.312458 70.77229 
L 82.628844 66.597323 
L 88.416192 64.858171 
L 95.945229 62.726826 
L 109.261618 59.120759 
L 118.582074 56.711128 
L 122.578008 55.734783 
L 135.894393 52.639188 
L 149.210779 49.698228 
L 154.63886 48.564086 
L 162.527164 47.002008 
L 175.843549 44.515448 
L 189.159943 42.178157 
L 199.885967 40.417043 
L 202.476328 40.012918 
L 215.792713 38.08177 
L 229.109099 36.294854 
L 242.425484 34.652924 
L 255.74187 33.156721 
L 264.49539 32.27 
L 269.058271 32.27 
L 282.374641 32.27 
L 295.691042 32.27 
L 309.007427 32.27 
L 322.323812 32.27 
L 335.640198 32.27 
L 348.956583 32.27 
L 362.272969 32.27 
L 375.589354 32.27 
L 388.905739 32.27 
L 402.222125 32.27 
L 415.53851 32.27 
L 428.854911 32.27 
L 442.171281 32.27 
L 455.487667 32.27 
L 468.804052 32.27 
L 482.120437 32.27 
L 495.436854 32.27 
L 497.683009 32.27 
L 508.753208 33.452594 
L 522.069594 35.03656 
L 535.385979 36.783255 
L 548.702396 38.693553 
L 559.767564 40.417043 
L 562.01875 40.788372 
L 562.01875 48.564086 
L 562.01875 49.112574 
L 558.905326 48.564086 
L 548.702396 46.8725 
L 535.385979 44.838076 
L 522.069594 42.977012 
L 508.753208 41.288325 
L 501.112501 40.417043 
L 495.436854 39.805643 
L 482.120437 38.530734 
L 468.804052 37.41601 
L 455.487667 36.460627 
L 442.171281 35.663742 
L 428.854911 35.024523 
L 415.53851 34.542111 
L 402.222125 34.215709 
L 388.905739 34.044496 
L 375.589354 34.027642 
L 362.272969 34.164346 
L 348.956583 34.45381 
L 335.640198 34.895229 
L 322.323812 35.487808 
L 309.007427 36.230769 
L 295.691042 37.123329 
L 282.374641 38.164716 
L 269.058271 39.354149 
L 258.4735 40.417043 
L 255.74187 40.705858 
L 242.425484 42.270112 
L 229.109099 43.98778 
L 215.792713 45.858052 
L 202.476328 47.880094 
L 198.289922 48.564086 
L 189.159943 50.138469 
L 175.843549 52.594394 
L 162.527164 55.207676 
L 155.305131 56.711128 
L 149.210779 58.053985 
L 135.894393 61.155671 
L 122.578008 64.420666 
L 120.881097 64.858171 
L 109.261618 68.039155 
L 95.945229 71.856428 
L 92.114025 73.005214 
L 82.628844 76.036326 
L 69.312458 80.473307 
L 67.356956 81.152257 
L 55.996073 85.373654 
L 45.826209 89.299299 
L 42.679688 90.605583 
z
" clip-path="url(#pf1548682ab)" style="fill: #1e8bbd"/>
   </g>
   <g id="PathCollection_13">
    <path d="M 44.494649 325.563557 
L 42.679688 324.998905 
L 42.679688 317.416514 
L 42.679688 315.302922 
L 48.999154 317.416514 
L 55.996073 319.597907 
L 69.312458 323.544516 
L 76.496616 325.563557 
L 82.628844 327.177685 
L 95.945229 330.493722 
L 109.261618 333.617964 
L 109.681298 333.710601 
L 122.578008 336.388228 
L 135.894393 338.975207 
L 149.210779 341.38524 
L 152.022344 341.857644 
L 162.527164 343.524072 
L 175.843549 345.472249 
L 189.159943 347.256248 
L 202.476328 348.876948 
L 212.770243 350.004687 
L 202.476328 350.004687 
L 189.159943 350.004687 
L 175.843549 350.004687 
L 162.527164 350.004687 
L 153.820657 350.004687 
L 149.210779 349.277161 
L 135.894393 347.012125 
L 122.578008 344.580285 
L 109.261618 341.980759 
L 108.66834 341.857644 
L 95.945229 339.059951 
L 82.628844 335.952089 
L 73.547601 333.710601 
L 69.312458 332.598839 
L 55.996073 328.913946 
z
" clip-path="url(#pf1548682ab)" style="fill: #2075b3"/>
    <path d="M 42.679688 73.005214 
L 42.679688 70.435724 
L 55.996073 65.907603 
L 59.205054 64.858171 
L 69.312458 61.743667 
L 82.628844 57.80067 
L 86.468825 56.711128 
L 95.945229 54.169425 
L 109.261618 50.751692 
L 118.189681 48.564086 
L 122.578008 47.544704 
L 135.894393 44.601143 
L 149.210779 41.804429 
L 156.190788 40.417043 
L 162.527164 39.220009 
L 175.843549 36.847875 
L 189.159943 34.617726 
L 202.476328 32.530301 
L 204.262064 32.27 
L 215.792713 32.27 
L 229.109099 32.27 
L 242.425484 32.27 
L 255.74187 32.27 
L 264.49539 32.27 
L 255.74187 33.156721 
L 242.425484 34.652924 
L 229.109099 36.294854 
L 215.792713 38.08177 
L 202.476328 40.012918 
L 199.885967 40.417043 
L 189.159943 42.178157 
L 175.843549 44.515448 
L 162.527164 47.002008 
L 154.63886 48.564086 
L 149.210779 49.698228 
L 135.894393 52.639188 
L 122.578008 55.734783 
L 118.582074 56.711128 
L 109.261618 59.120759 
L 95.945229 62.726826 
L 88.416192 64.858171 
L 82.628844 66.597323 
L 69.312458 70.77229 
L 62.47201 73.005214 
L 55.996073 75.257508 
L 42.679688 80.070503 
z
" clip-path="url(#pf1548682ab)" style="fill: #2075b3"/>
    <path d="M 455.487667 349.768329 
L 468.804052 348.298432 
L 482.120437 346.682322 
L 495.436854 344.920763 
L 508.753208 343.014512 
L 516.261634 341.857644 
L 522.069594 340.91573 
L 535.385979 338.603329 
L 548.702396 336.14114 
L 561.096118 333.710601 
L 562.01875 333.519661 
L 562.01875 333.710601 
L 562.01875 341.384015 
L 559.612782 341.857644 
L 548.702396 343.89869 
L 535.385979 346.247373 
L 522.069594 348.453599 
L 512.053479 350.004687 
L 508.753208 350.004687 
L 495.436854 350.004687 
L 482.120437 350.004687 
L 468.804052 350.004687 
L 455.487667 350.004687 
L 453.10519 350.004687 
z
" clip-path="url(#pf1548682ab)" style="fill: #2075b3"/>
    <path d="M 497.683009 32.27 
L 508.753208 32.27 
L 522.069594 32.27 
L 535.385979 32.27 
L 548.702396 32.27 
L 557.80135 32.27 
L 562.01875 32.923449 
L 562.01875 40.417043 
L 562.01875 40.788372 
L 559.767564 40.417043 
L 548.702396 38.693553 
L 535.385979 36.783255 
L 522.069594 35.03656 
L 508.753208 33.452594 
z
" clip-path="url(#pf1548682ab)" style="fill: #2075b3"/>
   </g>
   <g id="PathCollection_14">
    <path d="M 42.679688 333.710601 
L 42.679688 325.563557 
L 42.679688 324.998905 
L 44.494649 325.563557 
L 55.996073 328.913946 
L 69.312458 332.598839 
L 73.547601 333.710601 
L 82.628844 335.952089 
L 95.945229 339.059951 
L 108.66834 341.857644 
L 109.261618 341.980759 
L 122.578008 344.580285 
L 135.894393 347.012125 
L 149.210779 349.277161 
L 153.820657 350.004687 
L 149.210779 350.004687 
L 135.894393 350.004687 
L 122.578008 350.004687 
L 109.852688 350.004687 
L 109.261618 349.889738 
L 95.945229 347.135903 
L 82.628844 344.212578 
L 72.488107 341.857644 
L 69.312458 341.076038 
L 55.996073 337.62138 
L 42.679688 333.983676 
z
" clip-path="url(#pf1548682ab)" style="fill: #225da8"/>
    <path d="M 42.679688 64.858171 
L 42.679688 61.462786 
L 55.996073 57.186899 
L 57.537068 56.711128 
L 69.312458 53.273707 
L 82.628844 49.537537 
L 86.24953 48.564086 
L 95.945229 46.092288 
L 109.261618 42.843547 
L 119.677123 40.417043 
L 122.578008 39.774547 
L 135.894393 36.968197 
L 149.210779 34.301646 
L 159.924334 32.27 
L 162.527164 32.27 
L 175.843549 32.27 
L 189.159943 32.27 
L 202.476328 32.27 
L 204.262064 32.27 
L 202.476328 32.530301 
L 189.159943 34.617726 
L 175.843549 36.847875 
L 162.527164 39.220009 
L 156.190788 40.417043 
L 149.210779 41.804429 
L 135.894393 44.601143 
L 122.578008 47.544704 
L 118.189681 48.564086 
L 109.261618 50.751692 
L 95.945229 54.169425 
L 86.468825 56.711128 
L 82.628844 57.80067 
L 69.312458 61.743667 
L 59.205054 64.858171 
L 55.996073 65.907603 
L 42.679688 70.435724 
z
" clip-path="url(#pf1548682ab)" style="fill: #225da8"/>
    <path d="M 522.069594 348.453599 
L 535.385979 346.247373 
L 548.702396 343.89869 
L 559.612782 341.857644 
L 562.01875 341.384015 
L 562.01875 341.857644 
L 562.01875 348.859339 
L 555.919892 350.004687 
L 548.702396 350.004687 
L 535.385979 350.004687 
L 522.069594 350.004687 
L 512.053479 350.004687 
z
" clip-path="url(#pf1548682ab)" style="fill: #225da8"/>
    <path d="M 557.80135 32.27 
L 562.01875 32.27 
L 562.01875 32.923449 
z
" clip-path="url(#pf1548682ab)" style="fill: #225da8"/>
   </g>
   <g id="PathCollection_15">
    <path d="M 42.679688 341.857644 
L 42.679688 333.983676 
L 55.996073 337.62138 
L 69.312458 341.076038 
L 72.488107 341.857644 
L 82.628844 344.212578 
L 95.945229 347.135903 
L 109.261618 349.889738 
L 109.852688 350.004687 
L 109.261618 350.004687 
L 95.945229 350.004687 
L 82.628844 350.004687 
L 73.345216 350.004687 
L 69.312458 349.070967 
L 55.996073 345.820369 
L 42.679688 342.397555 
z
" clip-path="url(#pf1548682ab)" style="fill: #234b9f"/>
    <path d="M 42.679688 56.711128 
L 42.679688 53.040181 
L 55.996073 48.989158 
L 57.449249 48.564086 
L 69.312458 45.272989 
L 82.628844 41.722343 
L 87.736248 40.417043 
L 95.945229 38.422182 
L 109.261618 35.32589 
L 122.578008 32.367928 
L 123.041373 32.27 
L 135.894393 32.27 
L 149.210779 32.27 
L 159.924334 32.27 
L 149.210779 34.301646 
L 135.894393 36.968197 
L 122.578008 39.774547 
L 119.677123 40.417043 
L 109.261618 42.843547 
L 95.945229 46.092288 
L 86.24953 48.564086 
L 82.628844 49.537537 
L 69.312458 53.273707 
L 57.537068 56.711128 
L 55.996073 57.186899 
L 42.679688 61.462786 
z
" clip-path="url(#pf1548682ab)" style="fill: #234b9f"/>
    <path d="M 562.01875 348.859339 
L 562.01875 350.004687 
L 555.919892 350.004687 
z
" clip-path="url(#pf1548682ab)" style="fill: #234b9f"/>
   </g>
   <g id="PathCollection_16">
    <path d="M 55.996073 345.820369 
L 69.312458 349.070967 
L 73.345216 350.004687 
L 69.312458 350.004687 
L 55.996073 350.004687 
L 42.679688 350.004687 
L 42.679688 342.397555 
z
" clip-path="url(#pf1548682ab)" style="fill: #253896"/>
    <path d="M 42.679688 48.564086 
L 42.679688 45.080121 
L 55.996073 41.230821 
L 58.923218 40.417043 
L 69.312458 37.670186 
L 82.628844 34.286914 
L 90.907421 32.27 
L 95.945229 32.27 
L 109.261618 32.27 
L 122.578008 32.27 
L 123.041373 32.27 
L 122.578008 32.367928 
L 109.261618 35.32589 
L 95.945229 38.422182 
L 87.736248 40.417043 
L 82.628844 41.722343 
L 69.312458 45.272989 
L 57.449249 48.564086 
L 55.996073 48.989158 
L 42.679688 53.040181 
z
" clip-path="url(#pf1548682ab)" style="fill: #253896"/>
   </g>
   <g id="PathCollection_17">
    <path d="M 42.679688 40.417043 
L 42.679688 37.512537 
L 55.996073 33.845226 
L 61.940802 32.27 
L 69.312458 32.27 
L 82.628844 32.27 
L 90.907421 32.27 
L 82.628844 34.286914 
L 69.312458 37.670186 
L 58.923218 40.417043 
L 55.996073 41.230821 
L 42.679688 45.080121 
z
" clip-path="url(#pf1548682ab)" style="fill: #1b2c80"/>
   </g>
   <g id="PathCollection_18">
    <path d="M 42.679688 32.27 
L 55.996073 32.27 
L 61.940802 32.27 
L 55.996073 33.845226 
L 42.679688 37.512537 
z
" clip-path="url(#pf1548682ab)" style="fill: #0e2265"/>
   </g>
   <g id="line2d_37">
    <path d="M 109.254174 308.009682 
L 115.788798 299.337055 
L 122.174343 291.327486 
L 128.412275 283.929744 
L 134.504219 277.096547 
L 140.451972 270.78431 
L 146.257445 264.952816 
L 151.922671 259.564966 
L 157.449774 254.586536 
L 162.840963 249.985948 
L 169.392299 244.722438 
L 175.739406 239.952019 
L 181.88696 235.627714 
L 187.839714 231.707045 
L 193.602472 228.151623 
L 200.273786 224.318563 
L 206.686818 220.907869 
L 212.849905 217.871911 
L 219.7353 214.747538 
L 226.304717 212.017132 
L 233.442051 209.313799 
L 240.201923 206.992805 
L 247.378055 204.769373 
L 254.84826 202.702258 
L 262.491302 200.83164 
L 270.190203 199.179657 
L 278.395086 197.656029 
L 286.838378 196.32154 
L 295.268335 195.202778 
L 295.268335 195.202778 
" clip-path="url(#pf1548682ab)" style="fill: none; stroke: #4c72b0; stroke-width: 1.75; stroke-linecap: round"/>
   </g>
   <g id="line2d_38">
    <path d="M 109.254174 308.009682 
L 116.848326 297.721897 
L 122.462348 290.287551 
L 129.087291 281.712438 
L 136.583916 272.279445 
L 144.821593 262.259975 
L 153.678079 251.909726 
L 163.039291 241.465183 
L 172.799032 231.140861 
L 182.858745 221.127252 
L 193.127239 211.589483 
L 203.520435 202.66655 
L 213.961097 194.471214 
L 224.378588 187.090384 
L 234.708614 180.585987 
L 244.892986 174.996262 
L 254.879386 170.337419 
L 264.621132 166.605481 
L 274.076962 163.778442 
L 283.210798 161.81852 
L 291.991545 160.674485 
L 300.392861 160.284049 
L 308.392939 160.57627 
L 315.974272 161.473783 
L 323.123458 162.89502 
L 329.830962 164.756292 
L 336.090903 166.973645 
L 341.900773 169.464583 
L 347.26127 172.149565 
L 352.176014 174.95331 
L 356.651351 177.805859 
L 360.696058 180.643484 
L 364.321139 183.409277 
L 367.539609 186.053616 
L 372.817146 190.817435 
L 376.663338 194.689499 
L 379.229788 197.540609 
L 381.035023 199.871233 
L 381.116884 200.240126 
L 380.490524 199.827229 
L 377.714602 197.390881 
L 373.780683 194.052702 
L 370.579563 191.712808 
L 368.474884 190.432038 
L 366.461028 189.443791 
L 364.579489 188.770263 
L 362.858994 188.405451 
L 361.317186 188.320948 
L 359.962347 188.47221 
L 358.795141 188.80511 
L 357.383283 189.518616 
L 356.345361 190.325509 
L 355.458964 191.292071 
L 354.9216 192.175967 
L 354.93262 192.221968 
L 354.993044 192.193816 
L 356.487599 191.08746 
L 356.873237 191.134939 
L 357.161923 191.380656 
L 356.965947 191.300726 
L 356.948334 191.322212 
L 356.957976 191.315488 
" clip-path="url(#pf1548682ab)" style="fill: none; stroke: #55a868; stroke-width: 1.75; stroke-linecap: round"/>
   </g>
   <g id="line2d_39">
    <path d="M 110.579857 306.187144 
L 119.402069 294.437797 
L 124.817217 287.502802 
L 130.682802 280.234546 
L 136.872316 272.847845 
L 143.282906 265.513404 
L 149.831079 258.363945 
L 156.449225 251.499794 
L 163.082743 244.993901 
L 169.687704 238.896303 
L 176.228934 233.238087 
L 182.678448 228.034867 
L 189.014168 223.289845 
L 195.218875 218.99641 
L 201.279344 215.140416 
L 207.185643 211.702081 
L 212.930554 208.65761 
L 218.50909 205.980535 
L 223.918105 203.642828 
L 229.155973 201.615797 
L 234.222315 199.870807 
L 239.117778 198.379829 
L 243.843851 197.115885 
L 248.402705 196.053352 
L 252.797065 195.168187 
L 261.105338 193.842372 
L 268.797846 192.981287 
L 275.907224 192.456247 
L 282.467908 192.165134 
L 291.356743 192.000682 
L 303.917431 192.046257 
L 325.146926 192.165664 
L 336.178335 191.980266 
L 356.901143 191.3176 
L 356.901143 191.3176 
" clip-path="url(#pf1548682ab)" style="fill: none; stroke: #c44e52; stroke-width: 1.75; stroke-linecap: round"/>
   </g>
   <g id="PathCollection_19">
    <defs>
     <path id="m6b82577562" d="M 0 -7.416198 
L -1.66504 -2.291731 
L -7.053224 -2.291731 
L -2.694092 0.875363 
L -4.359132 5.999831 
L -0 2.832736 
L 4.359132 5.999831 
L 2.694092 0.875363 
L 7.053224 -2.291731 
L 1.66504 -2.291731 
z
" style="stroke: #000000; stroke-width: 0.3"/>
    </defs>
    <g clip-path="url(#pf1548682ab)">
     <use xlink:href="#m6b82577562" x="367.266602" y="191.137344" style="stroke: #000000; stroke-width: 0.3"/>
    </g>
   </g>
   <g id="patch_3">
    <path d="M 42.679688 350.004687 
L 42.679688 32.27 
" style="fill: none"/>
   </g>
   <g id="patch_4">
    <path d="M 562.01875 350.004687 
L 562.01875 32.27 
" style="fill: none"/>
   </g>
   <g id="patch_5">
    <path d="M 42.679688 350.004687 
L 562.01875 350.004687 
" style="fill: none"/>
   </g>
   <g id="patch_6">
    <path d="M 42.679688 32.27 
L 562.01875 32.27 
" style="fill: none"/>
   </g>
   <g id="text_21">
    <!-- SGD paths for 200 steps $ ( \alpha=1\times 10^{-2} )$ -->
    <g style="fill: #262626" transform="translate(137.364219 26.27)scale(0.17 -0.17)">
     <defs>
      <path id="DejaVuSans-53" d="M 3425 4513 
L 3425 3897 
Q 3066 4069 2747 4153 
Q 2428 4238 2131 4238 
Q 1616 4238 1336 4038 
Q 1056 3838 1056 3469 
Q 1056 3159 1242 3001 
Q 1428 2844 1947 2747 
L 2328 2669 
Q 3034 2534 3370 2195 
Q 3706 1856 3706 1288 
Q 3706 609 3251 259 
Q 2797 -91 1919 -91 
Q 1588 -91 1214 -16 
Q 841 59 441 206 
L 441 856 
Q 825 641 1194 531 
Q 1563 422 1919 422 
Q 2459 422 2753 634 
Q 3047 847 3047 1241 
Q 3047 1584 2836 1778 
Q 2625 1972 2144 2069 
L 1759 2144 
Q 1053 2284 737 2584 
Q 422 2884 422 3419 
Q 422 4038 858 4394 
Q 1294 4750 2059 4750 
Q 2388 4750 2728 4690 
Q 3069 4631 3425 4513 
z
" transform="scale(0.015625)"/>
      <path id="DejaVuSans-47" d="M 3809 666 
L 3809 1919 
L 2778 1919 
L 2778 2438 
L 4434 2438 
L 4434 434 
Q 4069 175 3628 42 
Q 3188 -91 2688 -91 
Q 1594 -91 976 548 
Q 359 1188 359 2328 
Q 359 3472 976 4111 
Q 1594 4750 2688 4750 
Q 3144 4750 3555 4637 
Q 3966 4525 4313 4306 
L 4313 3634 
Q 3963 3931 3569 4081 
Q 3175 4231 2741 4231 
Q 1884 4231 1454 3753 
Q 1025 3275 1025 2328 
Q 1025 1384 1454 906 
Q 1884 428 2741 428 
Q 3075 428 3337 486 
Q 3600 544 3809 666 
z
" transform="scale(0.015625)"/>
      <path id="DejaVuSans-44" d="M 1259 4147 
L 1259 519 
L 2022 519 
Q 2988 519 3436 956 
Q 3884 1394 3884 2338 
Q 3884 3275 3436 3711 
Q 2988 4147 2022 4147 
L 1259 4147 
z
M 628 4666 
L 1925 4666 
Q 3281 4666 3915 4102 
Q 4550 3538 4550 2338 
Q 4550 1131 3912 565 
Q 3275 0 1925 0 
L 628 0 
L 628 4666 
z
" transform="scale(0.015625)"/>
      <path id="DejaVuSans-20" transform="scale(0.015625)"/>
      <path id="DejaVuSans-70" d="M 1159 525 
L 1159 -1331 
L 581 -1331 
L 581 3500 
L 1159 3500 
L 1159 2969 
Q 1341 3281 1617 3432 
Q 1894 3584 2278 3584 
Q 2916 3584 3314 3078 
Q 3713 2572 3713 1747 
Q 3713 922 3314 415 
Q 2916 -91 2278 -91 
Q 1894 -91 1617 61 
Q 1341 213 1159 525 
z
M 3116 1747 
Q 3116 2381 2855 2742 
Q 2594 3103 2138 3103 
Q 1681 3103 1420 2742 
Q 1159 2381 1159 1747 
Q 1159 1113 1420 752 
Q 1681 391 2138 391 
Q 2594 391 2855 752 
Q 3116 1113 3116 1747 
z
" transform="scale(0.015625)"/>
      <path id="DejaVuSans-61" d="M 2194 1759 
Q 1497 1759 1228 1600 
Q 959 1441 959 1056 
Q 959 750 1161 570 
Q 1363 391 1709 391 
Q 2188 391 2477 730 
Q 2766 1069 2766 1631 
L 2766 1759 
L 2194 1759 
z
M 3341 1997 
L 3341 0 
L 2766 0 
L 2766 531 
Q 2569 213 2275 61 
Q 1981 -91 1556 -91 
Q 1019 -91 701 211 
Q 384 513 384 1019 
Q 384 1609 779 1909 
Q 1175 2209 1959 2209 
L 2766 2209 
L 2766 2266 
Q 2766 2663 2505 2880 
Q 2244 3097 1772 3097 
Q 1472 3097 1187 3025 
Q 903 2953 641 2809 
L 641 3341 
Q 956 3463 1253 3523 
Q 1550 3584 1831 3584 
Q 2591 3584 2966 3190 
Q 3341 2797 3341 1997 
z
" transform="scale(0.015625)"/>
      <path id="DejaVuSans-74" d="M 1172 4494 
L 1172 3500 
L 2356 3500 
L 2356 3053 
L 1172 3053 
L 1172 1153 
Q 1172 725 1289 603 
Q 1406 481 1766 481 
L 2356 481 
L 2356 0 
L 1766 0 
Q 1100 0 847 248 
Q 594 497 594 1153 
L 594 3053 
L 172 3053 
L 172 3500 
L 594 3500 
L 594 4494 
L 1172 4494 
z
" transform="scale(0.015625)"/>
      <path id="DejaVuSans-68" d="M 3513 2113 
L 3513 0 
L 2938 0 
L 2938 2094 
Q 2938 2591 2744 2837 
Q 2550 3084 2163 3084 
Q 1697 3084 1428 2787 
Q 1159 2491 1159 1978 
L 1159 0 
L 581 0 
L 581 4863 
L 1159 4863 
L 1159 2956 
Q 1366 3272 1645 3428 
Q 1925 3584 2291 3584 
Q 2894 3584 3203 3211 
Q 3513 2838 3513 2113 
z
" transform="scale(0.015625)"/>
      <path id="DejaVuSans-73" d="M 2834 3397 
L 2834 2853 
Q 2591 2978 2328 3040 
Q 2066 3103 1784 3103 
Q 1356 3103 1142 2972 
Q 928 2841 928 2578 
Q 928 2378 1081 2264 
Q 1234 2150 1697 2047 
L 1894 2003 
Q 2506 1872 2764 1633 
Q 3022 1394 3022 966 
Q 3022 478 2636 193 
Q 2250 -91 1575 -91 
Q 1294 -91 989 -36 
Q 684 19 347 128 
L 347 722 
Q 666 556 975 473 
Q 1284 391 1588 391 
Q 1994 391 2212 530 
Q 2431 669 2431 922 
Q 2431 1156 2273 1281 
Q 2116 1406 1581 1522 
L 1381 1569 
Q 847 1681 609 1914 
Q 372 2147 372 2553 
Q 372 3047 722 3315 
Q 1072 3584 1716 3584 
Q 2034 3584 2315 3537 
Q 2597 3491 2834 3397 
z
" transform="scale(0.015625)"/>
      <path id="DejaVuSans-66" d="M 2375 4863 
L 2375 4384 
L 1825 4384 
Q 1516 4384 1395 4259 
Q 1275 4134 1275 3809 
L 1275 3500 
L 2222 3500 
L 2222 3053 
L 1275 3053 
L 1275 0 
L 697 0 
L 697 3053 
L 147 3053 
L 147 3500 
L 697 3500 
L 697 3744 
Q 697 4328 969 4595 
Q 1241 4863 1831 4863 
L 2375 4863 
z
" transform="scale(0.015625)"/>
      <path id="DejaVuSans-6f" d="M 1959 3097 
Q 1497 3097 1228 2736 
Q 959 2375 959 1747 
Q 959 1119 1226 758 
Q 1494 397 1959 397 
Q 2419 397 2687 759 
Q 2956 1122 2956 1747 
Q 2956 2369 2687 2733 
Q 2419 3097 1959 3097 
z
M 1959 3584 
Q 2709 3584 3137 3096 
Q 3566 2609 3566 1747 
Q 3566 888 3137 398 
Q 2709 -91 1959 -91 
Q 1206 -91 779 398 
Q 353 888 353 1747 
Q 353 2609 779 3096 
Q 1206 3584 1959 3584 
z
" transform="scale(0.015625)"/>
      <path id="DejaVuSans-72" d="M 2631 2963 
Q 2534 3019 2420 3045 
Q 2306 3072 2169 3072 
Q 1681 3072 1420 2755 
Q 1159 2438 1159 1844 
L 1159 0 
L 581 0 
L 581 3500 
L 1159 3500 
L 1159 2956 
Q 1341 3275 1631 3429 
Q 1922 3584 2338 3584 
Q 2397 3584 2469 3576 
Q 2541 3569 2628 3553 
L 2631 2963 
z
" transform="scale(0.015625)"/>
      <path id="DejaVuSans-65" d="M 3597 1894 
L 3597 1613 
L 953 1613 
Q 991 1019 1311 708 
Q 1631 397 2203 397 
Q 2534 397 2845 478 
Q 3156 559 3463 722 
L 3463 178 
Q 3153 47 2828 -22 
Q 2503 -91 2169 -91 
Q 1331 -91 842 396 
Q 353 884 353 1716 
Q 353 2575 817 3079 
Q 1281 3584 2069 3584 
Q 2775 3584 3186 3129 
Q 3597 2675 3597 1894 
z
M 3022 2063 
Q 3016 2534 2758 2815 
Q 2500 3097 2075 3097 
Q 1594 3097 1305 2825 
Q 1016 2553 972 2059 
L 3022 2063 
z
" transform="scale(0.015625)"/>
      <path id="DejaVuSans-28" d="M 1984 4856 
Q 1566 4138 1362 3434 
Q 1159 2731 1159 2009 
Q 1159 1288 1364 580 
Q 1569 -128 1984 -844 
L 1484 -844 
Q 1016 -109 783 600 
Q 550 1309 550 2009 
Q 550 2706 781 3412 
Q 1013 4119 1484 4856 
L 1984 4856 
z
" transform="scale(0.015625)"/>
      <path id="DejaVuSans-Oblique-3b1" d="M 2619 1628 
L 2622 2350 
Q 2625 3088 2069 3091 
Q 1653 3094 1394 2747 
Q 1069 2319 959 1747 
Q 825 1059 994 731 
Q 1169 397 1547 397 
Q 1966 397 2319 1063 
L 2619 1628 
z
M 2166 3578 
Q 3141 3594 3128 2584 
Q 3128 2584 3616 3500 
L 4128 3500 
L 3119 1603 
L 3109 919 
Q 3109 766 3194 638 
Q 3291 488 3391 488 
L 3669 488 
L 3575 0 
L 3228 0 
Q 2934 0 2722 263 
Q 2622 394 2619 669 
Q 2416 334 2066 50 
Q 1900 -81 1453 -78 
Q 722 -72 456 397 
Q 184 884 353 1747 
Q 534 2675 1009 3097 
Q 1544 3569 2166 3578 
z
" transform="scale(0.015625)"/>
      <path id="DejaVuSans-3d" d="M 678 2906 
L 4684 2906 
L 4684 2381 
L 678 2381 
L 678 2906 
z
M 678 1631 
L 4684 1631 
L 4684 1100 
L 678 1100 
L 678 1631 
z
" transform="scale(0.015625)"/>
      <path id="DejaVuSans-d7" d="M 4488 3438 
L 3059 2003 
L 4488 575 
L 4116 197 
L 2681 1631 
L 1247 197 
L 878 575 
L 2303 2003 
L 878 3438 
L 1247 3816 
L 2681 2381 
L 4116 3816 
L 4488 3438 
z
" transform="scale(0.015625)"/>
      <path id="DejaVuSans-29" d="M 513 4856 
L 1013 4856 
Q 1481 4119 1714 3412 
Q 1947 2706 1947 2009 
Q 1947 1309 1714 600 
Q 1481 -109 1013 -844 
L 513 -844 
Q 928 -128 1133 580 
Q 1338 1288 1338 2009 
Q 1338 2731 1133 3434 
Q 928 4138 513 4856 
z
" transform="scale(0.015625)"/>
     </defs>
     <use xlink:href="#DejaVuSans-53" transform="translate(0 0.765625)"/>
     <use xlink:href="#DejaVuSans-47" transform="translate(63.476562 0.765625)"/>
     <use xlink:href="#DejaVuSans-44" transform="translate(140.966797 0.765625)"/>
     <use xlink:href="#DejaVuSans-20" transform="translate(217.96875 0.765625)"/>
     <use xlink:href="#DejaVuSans-70" transform="translate(249.755859 0.765625)"/>
     <use xlink:href="#DejaVuSans-61" transform="translate(313.232422 0.765625)"/>
     <use xlink:href="#DejaVuSans-74" transform="translate(374.511719 0.765625)"/>
     <use xlink:href="#DejaVuSans-68" transform="translate(413.720703 0.765625)"/>
     <use xlink:href="#DejaVuSans-73" transform="translate(477.099609 0.765625)"/>
     <use xlink:href="#DejaVuSans-20" transform="translate(529.199219 0.765625)"/>
     <use xlink:href="#DejaVuSans-66" transform="translate(560.986328 0.765625)"/>
     <use xlink:href="#DejaVuSans-6f" transform="translate(596.191406 0.765625)"/>
     <use xlink:href="#DejaVuSans-72" transform="translate(657.373047 0.765625)"/>
     <use xlink:href="#DejaVuSans-20" transform="translate(698.486328 0.765625)"/>
     <use xlink:href="#DejaVuSans-32" transform="translate(730.273438 0.765625)"/>
     <use xlink:href="#DejaVuSans-30" transform="translate(793.896484 0.765625)"/>
     <use xlink:href="#DejaVuSans-30" transform="translate(857.519531 0.765625)"/>
     <use xlink:href="#DejaVuSans-20" transform="translate(921.142578 0.765625)"/>
     <use xlink:href="#DejaVuSans-73" transform="translate(952.929688 0.765625)"/>
     <use xlink:href="#DejaVuSans-74" transform="translate(1005.029297 0.765625)"/>
     <use xlink:href="#DejaVuSans-65" transform="translate(1044.238281 0.765625)"/>
     <use xlink:href="#DejaVuSans-70" transform="translate(1105.761719 0.765625)"/>
     <use xlink:href="#DejaVuSans-73" transform="translate(1169.238281 0.765625)"/>
     <use xlink:href="#DejaVuSans-20" transform="translate(1221.337891 0.765625)"/>
     <use xlink:href="#DejaVuSans-28" transform="translate(1253.125 0.765625)"/>
     <use xlink:href="#DejaVuSans-Oblique-3b1" transform="translate(1292.138672 0.765625)"/>
     <use xlink:href="#DejaVuSans-3d" transform="translate(1377.539062 0.765625)"/>
     <use xlink:href="#DejaVuSans-31" transform="translate(1480.810547 0.765625)"/>
     <use xlink:href="#DejaVuSans-d7" transform="translate(1563.916016 0.765625)"/>
     <use xlink:href="#DejaVuSans-31" transform="translate(1667.1875 0.765625)"/>
     <use xlink:href="#DejaVuSans-30" transform="translate(1730.810547 0.765625)"/>
     <use xlink:href="#DejaVuSans-2212" transform="translate(1795.390625 39.046875)scale(0.7)"/>
     <use xlink:href="#DejaVuSans-32" transform="translate(1854.042969 39.046875)scale(0.7)"/>
     <use xlink:href="#DejaVuSans-29" transform="translate(1901.313477 0.765625)"/>
    </g>
   </g>
   <g id="legend_1">
    <g id="line2d_40">
     <path d="M 366.254688 51.917656 
L 381.254688 51.917656 
L 396.254688 51.917656 
" style="fill: none; stroke: #4c72b0; stroke-width: 1.75; stroke-linecap: round"/>
    </g>
    <g id="text_22">
     <!-- SGD -->
     <g style="fill: #262626" transform="translate(408.254688 57.167656)scale(0.15 -0.15)">
      <use xlink:href="#DejaVuSans-53"/>
      <use xlink:href="#DejaVuSans-47" x="63.476562"/>
      <use xlink:href="#DejaVuSans-44" x="140.966797"/>
     </g>
    </g>
    <g id="line2d_41">
     <path d="M 366.254688 73.934844 
L 381.254688 73.934844 
L 396.254688 73.934844 
" style="fill: none; stroke: #55a868; stroke-width: 1.75; stroke-linecap: round"/>
    </g>
    <g id="text_23">
     <!-- SGD + Momentum -->
     <g style="fill: #262626" transform="translate(408.254688 79.184844)scale(0.15 -0.15)">
      <defs>
       <path id="DejaVuSans-2b" d="M 2944 4013 
L 2944 2272 
L 4684 2272 
L 4684 1741 
L 2944 1741 
L 2944 0 
L 2419 0 
L 2419 1741 
L 678 1741 
L 678 2272 
L 2419 2272 
L 2419 4013 
L 2944 4013 
z
" transform="scale(0.015625)"/>
       <path id="DejaVuSans-4d" d="M 628 4666 
L 1569 4666 
L 2759 1491 
L 3956 4666 
L 4897 4666 
L 4897 0 
L 4281 0 
L 4281 4097 
L 3078 897 
L 2444 897 
L 1241 4097 
L 1241 0 
L 628 0 
L 628 4666 
z
" transform="scale(0.015625)"/>
       <path id="DejaVuSans-6d" d="M 3328 2828 
Q 3544 3216 3844 3400 
Q 4144 3584 4550 3584 
Q 5097 3584 5394 3201 
Q 5691 2819 5691 2113 
L 5691 0 
L 5113 0 
L 5113 2094 
Q 5113 2597 4934 2840 
Q 4756 3084 4391 3084 
Q 3944 3084 3684 2787 
Q 3425 2491 3425 1978 
L 3425 0 
L 2847 0 
L 2847 2094 
Q 2847 2600 2669 2842 
Q 2491 3084 2119 3084 
Q 1678 3084 1418 2786 
Q 1159 2488 1159 1978 
L 1159 0 
L 581 0 
L 581 3500 
L 1159 3500 
L 1159 2956 
Q 1356 3278 1631 3431 
Q 1906 3584 2284 3584 
Q 2666 3584 2933 3390 
Q 3200 3197 3328 2828 
z
" transform="scale(0.015625)"/>
       <path id="DejaVuSans-6e" d="M 3513 2113 
L 3513 0 
L 2938 0 
L 2938 2094 
Q 2938 2591 2744 2837 
Q 2550 3084 2163 3084 
Q 1697 3084 1428 2787 
Q 1159 2491 1159 1978 
L 1159 0 
L 581 0 
L 581 3500 
L 1159 3500 
L 1159 2956 
Q 1366 3272 1645 3428 
Q 1925 3584 2291 3584 
Q 2894 3584 3203 3211 
Q 3513 2838 3513 2113 
z
" transform="scale(0.015625)"/>
       <path id="DejaVuSans-75" d="M 544 1381 
L 544 3500 
L 1119 3500 
L 1119 1403 
Q 1119 906 1312 657 
Q 1506 409 1894 409 
Q 2359 409 2629 706 
Q 2900 1003 2900 1516 
L 2900 3500 
L 3475 3500 
L 3475 0 
L 2900 0 
L 2900 538 
Q 2691 219 2414 64 
Q 2138 -91 1772 -91 
Q 1169 -91 856 284 
Q 544 659 544 1381 
z
M 1991 3584 
L 1991 3584 
z
" transform="scale(0.015625)"/>
      </defs>
      <use xlink:href="#DejaVuSans-53"/>
      <use xlink:href="#DejaVuSans-47" x="63.476562"/>
      <use xlink:href="#DejaVuSans-44" x="140.966797"/>
      <use xlink:href="#DejaVuSans-20" x="217.96875"/>
      <use xlink:href="#DejaVuSans-2b" x="249.755859"/>
      <use xlink:href="#DejaVuSans-20" x="333.544922"/>
      <use xlink:href="#DejaVuSans-4d" x="365.332031"/>
      <use xlink:href="#DejaVuSans-6f" x="451.611328"/>
      <use xlink:href="#DejaVuSans-6d" x="512.792969"/>
      <use xlink:href="#DejaVuSans-65" x="610.205078"/>
      <use xlink:href="#DejaVuSans-6e" x="671.728516"/>
      <use xlink:href="#DejaVuSans-74" x="735.107422"/>
      <use xlink:href="#DejaVuSans-75" x="774.316406"/>
      <use xlink:href="#DejaVuSans-6d" x="837.695312"/>
     </g>
    </g>
    <g id="line2d_42">
     <path d="M 366.254688 95.952031 
L 381.254688 95.952031 
L 396.254688 95.952031 
" style="fill: none; stroke: #c44e52; stroke-width: 1.75; stroke-linecap: round"/>
    </g>
    <g id="text_24">
     <!-- SGD + Nesterov -->
     <g style="fill: #262626" transform="translate(408.254688 101.202031)scale(0.15 -0.15)">
      <defs>
       <path id="DejaVuSans-4e" d="M 628 4666 
L 1478 4666 
L 3547 763 
L 3547 4666 
L 4159 4666 
L 4159 0 
L 3309 0 
L 1241 3903 
L 1241 0 
L 628 0 
L 628 4666 
z
" transform="scale(0.015625)"/>
       <path id="DejaVuSans-76" d="M 191 3500 
L 800 3500 
L 1894 563 
L 2988 3500 
L 3597 3500 
L 2284 0 
L 1503 0 
L 191 3500 
z
" transform="scale(0.015625)"/>
      </defs>
      <use xlink:href="#DejaVuSans-53"/>
      <use xlink:href="#DejaVuSans-47" x="63.476562"/>
      <use xlink:href="#DejaVuSans-44" x="140.966797"/>
      <use xlink:href="#DejaVuSans-20" x="217.96875"/>
      <use xlink:href="#DejaVuSans-2b" x="249.755859"/>
      <use xlink:href="#DejaVuSans-20" x="333.544922"/>
      <use xlink:href="#DejaVuSans-4e" x="365.332031"/>
      <use xlink:href="#DejaVuSans-65" x="440.136719"/>
      <use xlink:href="#DejaVuSans-73" x="501.660156"/>
      <use xlink:href="#DejaVuSans-74" x="553.759766"/>
      <use xlink:href="#DejaVuSans-65" x="592.96875"/>
      <use xlink:href="#DejaVuSans-72" x="654.492188"/>
      <use xlink:href="#DejaVuSans-6f" x="693.355469"/>
      <use xlink:href="#DejaVuSans-76" x="754.537109"/>
     </g>
    </g>
   </g>
  </g>
 </g>
 <defs>
  <clipPath id="pf1548682ab">
   <rect x="42.679688" y="32.27" width="519.339063" height="317.734687"/>
  </clipPath>
 </defs>
</svg>
