<svg viewBox="0 0 1068 1068.42" xmlns="http://www.w3.org/2000/svg"><path d="M0 21.333h1067.613v1024H0zM999.468 89.48H68.146v887.708h931.322zM806.843 837.715h-68.146V555.14c.145-2.19.227-4.747.227-7.323 0-65.235-52.884-118.12-118.12-118.12s-118.118 52.885-118.118 118.12c0 2.576.082 5.133.245 7.668l-.017-.346v282.576h-68.146V555.14c-.145-2.747-.227-5.963-.227-9.197 0-102.87 83.393-186.264 186.264-186.264s186.264 83.392 186.264 186.263c0 3.235-.082 6.45-.245 9.644l.018-.448zm-477.927 0H260.77V359.334h68.146zm9.54-565.153c0 24.087-19.526 43.613-43.613 43.613s-43.613-19.526-43.613-43.613 19.526-43.613 43.613-43.613 43.613 19.526 43.613 43.613zm164.458 304.383h-68.146v-217.61h68.146z"/></svg>