<svg xmlns="http://www.w3.org/2000/svg" xmlns:xlink="http://www.w3.org/1999/xlink" xmlns:lucid="lucid" width="1060.86" height="555.83"><g transform="translate(-379 -70.7113238343112)" lucid:page-tab-id="0_0"><path d="M700.96 175.92a.97.97 0 0 0-1.92 0l-.73 4.5a6.04 6.04 0 0 1-6.88 5.02l-4.5-.7a.97.97 0 0 0-.6 1.82l4.06 2.1a6.04 6.04 0 0 1 2.63 8.1l-2.05 4.06a.97.97 0 0 0 1.55 1.13l3.24-3.2a6.04 6.04 0 0 1 8.52 0l3.24 3.2a.97.97 0 0 0 1.55-1.13l-2.06-4.07a6.04 6.04 0 0 1 2.62-8.1l4.06-2.1a.97.97 0 0 0-.6-1.8l-4.5.7a6.04 6.04 0 0 1-6.9-5.02z" stroke="#3a414a" fill="#ffe342"/><path d="M640 370c0 5.52-4.48 10-10 10s-10-4.48-10-10 4.48-10 10-10 10 4.48 10 10z" stroke="#3a414a" fill="#282c33"/><path d="M1080.96 179.26a.97.97 0 0 0-1.92 0l-.73 4.5a6.04 6.04 0 0 1-6.88 5l-4.5-.7a.97.97 0 0 0-.6 1.84l4.06 2.08a6.04 6.04 0 0 1 2.63 8.1l-2.05 4.08a.97.97 0 0 0 1.55 1.13l3.24-3.23a6.04 6.04 0 0 1 8.52 0l3.24 3.22a.97.97 0 0 0 1.55-1.14l-2.06-4.08a6.04 6.04 0 0 1 2.62-8.1l4.06-2.08a.97.97 0 0 0-.6-1.83l-4.5.7a6.04 6.04 0 0 1-6.9-5z" stroke="#3a414a" fill="#ffe342"/><path d="M1020 373.33c0 5.53-4.48 10-10 10s-10-4.47-10-10c0-5.52 4.48-10 10-10s10 4.48 10 10z" stroke="#3a414a" fill="#282c33"/><path d="M622.63 360.6l-5-7.6-4.4-7.53-3.3-6.46-2.52-5.6-1.9-4.93-1.4-4.38-1.06-3.93-.75-3.53-.5-3.22-.3-2.96-.14-2.72.02-2.52.14-2.36.25-2.2.35-2.1.44-1.97.52-1.88.6-1.8.7-1.72.76-1.65.84-1.6.93-1.54 1-1.48 1.1-1.45 1.2-1.4 1.28-1.4 1.4-1.32 1.5-1.3 1.62-1.24 1.74-1.2 1.9-1.16 2-1.1 2.16-1.02 2.3-.95 2.43-.85 2.54-.74 2.63-.62 2.7-.48 2.7-.34 2.65-.2.7-.02 13.9-.87 9.13-1.23 6.46-1.35 4.8-1.36 3.73-1.34 2.98-1.33 2.45-1.3 2.06-1.3 1.75-1.27 1.54-1.3 1.34-1.3 1.2-1.34 1.06-1.4.96-1.45.88-1.55.8-1.7.73-1.85.67-2.12.58-2.46.48-3.04.36-4.03.08-6.63-.17-8.5" stroke="#00c2a8" stroke-width="3" stroke-linejoin="round" fill="none"/><path d="M624.72 361.04l-.92.48-1.43 1.42-1-1.54 2.5-1.65z" stroke="#00c2a8" stroke-width=".05" fill="#00c2a8"/><path d="M700.05 202.34l4.78 14.2-9.27.1z" stroke="#00c2a8" stroke-width="3" fill="#00c2a8"/><path d="M609.07 372.56l-3-5.48-3.65-7.32-3.16-7.1-2.73-6.9-2.3-6.6-1.9-6.33-1.56-6.03-1.2-5.7-.92-5.36-.63-5.02-.4-4.66-.18-4.32v-4l.16-3.64.28-3.34.38-3.05.47-2.77.54-2.52.58-2.27.63-2.08.65-1.88.68-1.7.7-1.56.7-1.4.7-1.28.7-1.16.7-1.06.72-.97.7-.9.7-.8.7-.73.68-.68.7-.62.67-.56.68-.52.68-.48.7-.43.67-.38.68-.36.7-.32.68-.3.7-.25.7-.24.72-.2.72-.17.74-.15.75-.1.76-.1.78-.04h.22l28.6-1.7 11.13-1.54 6.18-1.34 4.02-1.18 2.85-1.08 2.16-1 1.72-.96 1.4-.93 1.18-.9 1-.92.9-.93.8-.97.72-1.02.67-1.1.6-1.23.6-1.4.54-1.66.52-2.1.5-2.98.54-5.74.86-16.52" stroke="#e81313" stroke-width="3" stroke-linejoin="round" fill="none"/><path d="M617.42 385.92l-11.5-9.64 7.87-4.9z" stroke="#e81313" stroke-width="3" fill="#e81313"/><path d="M678.56 211.54l.08-1.54" stroke="#e81313" stroke-width="3" fill="none"/><path d="M700 410c0 5.52-4.48 10-10 10s-10-4.48-10-10 4.48-10 10-10 10 4.48 10 10z" stroke="#3a414a" fill="#282c33"/><path d="M630.05 381.5l.1 1.86.38 2.53.6 2.3.78 2.13 1 2.02 1.2 1.93 1.44 1.88 1.76 1.85 2.14 1.86 2.65 1.85 3.34 1.87 4.3 1.86 5.65 1.78 5.7 1.2" stroke="#fc9432" stroke-width="2" stroke-linejoin="round" fill="none"/><path d="M630 380.5l1-.15.05 1.13-2 .1-.06-1.24z" stroke="#fc9432" stroke-width=".05" fill="#fc9432"/><path d="M676.27 409.72l-14.6 3.38.8-9.24z" stroke="#fc9432" stroke-width="2" fill="#fc9432"/><path d="M780.96 245.92a.97.97 0 0 0-1.92 0l-.73 4.5a6.04 6.04 0 0 1-6.88 5.02l-4.5-.7a.97.97 0 0 0-.6 1.82l4.06 2.1a6.04 6.04 0 0 1 2.63 8.1l-2.05 4.06a.97.97 0 0 0 1.55 1.13l3.24-3.2a6.04 6.04 0 0 1 8.52 0l3.24 3.2a.97.97 0 0 0 1.55-1.13l-2.06-4.07a6.04 6.04 0 0 1 2.62-8.1l4.06-2.1a.97.97 0 0 0-.6-1.8l-4.5.7a6.04 6.04 0 0 1-6.9-5.02z" stroke="#3a414a" fill="#ffe342"/><path d="M690.03 398l.03-1.45.18-2.8.28-2.66.37-2.57.47-2.48.56-2.4.66-2.35.74-2.3.85-2.3.94-2.26 1.07-2.27 1.2-2.28 1.34-2.33 1.5-2.37 1.7-2.45 1.95-2.56 2.25-2.73 2.66-2.95 3.24-3.3 4.17-3.9 6.13-5.27 30-24.26 4.34-4.06 3.38-3.45 2.8-3.1 2.37-2.9 2.07-2.7 1.8-2.62 1.6-2.53 1.45-2.5 1.3-2.46 1.15-2.47.66-1.57" stroke="#00c2a8" stroke-width="3" stroke-linejoin="round" fill="none"/><path d="M691.53 397.98l-.03 1.75-1.5-.24-1.5.24.03-1.82z" stroke="#00c2a8" stroke-width=".05" fill="#00c2a8"/><path d="M778.88 272.2l1.22 14.96-9.02-2.14z" stroke="#00c2a8" stroke-width="3" fill="#00c2a8"/><path d="M640 328.43h34.17v34.92H640z" fill="#fff" fill-opacity="0"/><path d="M657 350.33h.54c-.75 2.8-1.9 4.8-3.57 4.8-.96 0-1.85-1.3-1.85-3.26 0-2.1.3-3.94.55-7.48l-7.5 10.2h-3.45l10.95-14.8c.03-.28.07-.7.07-1.07 0-.24 0-1.2-.04-1.58-.17-2.3-.92-3.3-1.92-3.3-.52 0-1.1.62-1.82 2.54h-.55c.6-2.17 1.7-4.75 3.58-4.75 1.24 0 1.9 1.58 1.9 4.67v13.15c0 1.24.06 3.47 1.3 3.47.5 0 1.1-.65 1.8-2.6M668.13 359.76h-6.7v-.37c1.8-.1 2.3-.6 2.3-1.95v-10.9c0-.82-.2-1.2-.72-1.2-.23 0-.65.13-1.08.3l-.66.25v-.34l4.35-2.2.22.06v14.5c0 1.03.5 1.47 2.3 1.47v.36"/><path d="M540 501.08a6 6 0 0 1 6-6h268a6 6 0 0 1 6 6v99.46a6 6 0 0 1-6 6H546a6 6 0 0 1-6-6z" stroke="#000" stroke-opacity="0" fill="#fff" fill-opacity="0"/><use xlink:href="#a" transform="matrix(1,0,0,1,545,500.07692307692304) translate(39.27350427350427 20.51282051282051)"/><use xlink:href="#b" transform="matrix(1,0,0,1,545,500.07692307692304) translate(39.27350427350427 56.06837606837606)"/><use xlink:href="#c" transform="matrix(1,0,0,1,545,500.07692307692304) translate(52.948717948717956 91.62393162393161)"/><path d="M980 494.4a6 6 0 0 1 6-6h228a6 6 0 0 1 6 6v96.47a6 6 0 0 1-6 6H986a6 6 0 0 1-6-6z" stroke="#000" stroke-opacity="0" fill="#fff" fill-opacity="0"/><use xlink:href="#d" transform="matrix(1,0,0,1,985,493.4102564102564) translate(32.948717948717956 20.51282051282051)"/><use xlink:href="#b" transform="matrix(1,0,0,1,985,493.4102564102564) translate(19.273504273504273 56.06837606837606)"/><use xlink:href="#c" transform="matrix(1,0,0,1,985,493.4102564102564) translate(32.948717948717956 91.62393162393161)"/><path d="M1009.18 361.57l-7.6-11.62-5.48-9.6-3.67-7.44-2.5-5.9-1.68-4.83-1.15-4.02-.75-3.4-.47-2.94-.25-2.56-.08-2.26.05-2.03.15-1.84.24-1.66.3-1.54.4-1.43.44-1.34.5-1.26.58-1.2.63-1.13.68-1.08.76-1.05.82-1 .9-1 1-.96 1.1-.94 1.24-.92 1.36-.9 1.54-.9 1.73-.86 1.95-.85 2.25-.8 2.6-.77 3.03-.7 3.53-.58 4.15-.43 3.6-.2 10.73-.65 7.93-.98 6.08-1.16 4.82-1.23 3.93-1.27 3.25-1.3 2.76-1.3 2.4-1.32 2.06-1.33 1.83-1.35 1.63-1.36 1.47-1.4 1.34-1.45 1.22-1.5 1.13-1.6 1.03-1.66.97-1.8.9-1.94.8-2.16.77-2.43.7-2.8.58-3.38.48-4.3.3-6.3-.03-12.17" stroke="#00c2a8" stroke-width="3" stroke-linejoin="round" fill="none"/><path d="M1012 363.15l-2-.32-1.62.26-.48-.74 2.5-1.64z" stroke="#00c2a8" stroke-width=".05" fill="#00c2a8"/><path d="M1080.18 205.68l4.66 14.26-9.27.02z" stroke="#00c2a8" stroke-width="3" fill="#00c2a8"/><path d="M1100 373.33c0 5.53-4.48 10-10 10s-10-4.47-10-10c0-5.52 4.48-10 10-10s10 4.48 10 10z" stroke="#3a414a" fill="#282c33"/><path d="M1220.96 299.26a.97.97 0 0 0-1.92 0l-.73 4.5a6.04 6.04 0 0 1-6.88 5l-4.5-.7a.97.97 0 0 0-.6 1.84l4.06 2.08a6.04 6.04 0 0 1 2.63 8.1l-2.05 4.08a.97.97 0 0 0 1.55 1.13l3.24-3.23a6.04 6.04 0 0 1 8.52 0l3.24 3.22a.97.97 0 0 0 1.55-1.14l-2.06-4.08a6.04 6.04 0 0 1 2.62-8.1l4.06-2.08a.97.97 0 0 0-.6-1.83l-4.5.7a6.04 6.04 0 0 1-6.9-5z" stroke="#3a414a" fill="#ffe342"/><path d="M1090.03 361.33v-.27l.12-1.82.2-1.87.3-1.94.37-2 .5-2.1.6-2.18.74-2.28.9-2.4 1.04-2.5 1.25-2.63 1.45-2.77 1.7-2.93 1.95-3.08 2.25-3.25 2.6-3.4 2.95-3.57 3.34-3.7 3.75-3.84 4.17-3.93 4.56-3.93 4.9-3.9 5.18-3.75 5.36-3.57 5.4-3.28 5.36-2.94 5.2-2.56 4.92-2.2 4.62-1.83 4.3-1.5 3.92-1.18 3.6-.92 3.26-.7 2.97-.5 2.7-.34 2.45-.2 2.24-.1h2.04l1.87.08 1.7.14 1.6.2 1.45.24 1.35.3 1.26.3 1.17.37 1.1.37 1.03.4.97.44.92.47.87.47.8.5.8.52.2.15" stroke="#00c2a8" stroke-width="3" stroke-linejoin="round" fill="none"/><path d="M1091.53 361.32l-.03 1.75-1.5-.24-1.5.24.03-1.8z" stroke="#00c2a8" stroke-width=".05" fill="#00c2a8"/><path d="M1217.65 293.7l-10.97-10.25 8.1-4.5z" stroke="#00c2a8" stroke-width="3" fill="#00c2a8"/><path d="M400 219.33a6 6 0 0 1 6-6h148a6 6 0 0 1 6 6v71.85a6 6 0 0 1-6 6H406a6 6 0 0 1-6-6z" stroke="#000" stroke-opacity="0" fill="#fff" fill-opacity="0"/><use xlink:href="#e" transform="matrix(1,0,0,1,405,218.33333333333331) translate(25.76923076923078 18.538461538461544)"/><use xlink:href="#f" transform="matrix(1,0,0,1,405,218.33333333333331) translate(7.307692307692321 43.15384615384615)"/><use xlink:href="#g" transform="matrix(1,0,0,1,405,218.33333333333331) translate(105.76923076923076 43.15384615384615)"/><use xlink:href="#h" transform="matrix(1,0,0,1,405,218.33333333333331) translate(-4.999999999999972 67.76923076923076)"/><path d="M540 396a6 6 0 0 1 6-6h148a6 6 0 0 1 6 6v63.64a6 6 0 0 1-6 6H546a6 6 0 0 1-6-6z" stroke="#000" stroke-opacity="0" fill="#fff" fill-opacity="0"/><use xlink:href="#i" transform="matrix(1,0,0,1,545,395) translate(25.769230769230766 39.08653846153847)"/><use xlink:href="#j" transform="matrix(1,0,0,1,545,395) translate(50.38461538461539 39.08653846153847)"/><path d="M740 323a6 6 0 0 1 6-6h148a6 6 0 0 1 6 6v96.47a6 6 0 0 1-6 6H746a6 6 0 0 1-6-6z" stroke="#000" stroke-opacity="0" fill="#fff" fill-opacity="0"/><use xlink:href="#k" transform="matrix(1,0,0,1,745,322.00854700854705) translate(13.46153846153846 18.461538461538463)"/><use xlink:href="#l" transform="matrix(1,0,0,1,745,322.00854700854705) translate(7.307692307692307 43.07692307692308)"/><use xlink:href="#m" transform="matrix(1,0,0,1,745,322.00854700854705) translate(56.53846153846154 43.07692307692308)"/><use xlink:href="#n" transform="matrix(1,0,0,1,745,322.00854700854705) translate(1.1538461538461462 67.6923076923077)"/><use xlink:href="#l" transform="matrix(1,0,0,1,745,322.00854700854705) translate(62.692307692307686 67.6923076923077)"/><use xlink:href="#o" transform="matrix(1,0,0,1,745,322.00854700854705) translate(111.92307692307692 67.6923076923077)"/><use xlink:href="#p" transform="matrix(1,0,0,1,745,322.00854700854705) translate(44.230769230769226 92.30769230769232)"/><path d="M620 106a6 6 0 0 1 6-6h148a6 6 0 0 1 6 6v85.52a6 6 0 0 1-6 6H626a6 6 0 0 1-6-6z" stroke="#000" stroke-opacity="0" fill="#fff" fill-opacity="0"/><use xlink:href="#q" transform="matrix(1,0,0,1,625,105) translate(31.92307692307692 51.46153846153847)"/><path d="M709.8 400H740v30.87h-30.2z" fill="#fff" fill-opacity="0"/><path d="M724.8 419.36h.5c-.67 2.5-1.67 4.25-3.16 4.25-.85 0-1.64-1.14-1.64-2.87 0-1.86.27-3.5.5-6.62l-6.63 9.02h-3.07l9.7-13.08c.02-.24.05-.6.05-.94 0-.2 0-1.06-.03-1.4-.15-2.03-.82-2.9-1.7-2.9-.46 0-.97.54-1.6 2.24h-.5c.52-1.92 1.5-4.2 3.16-4.2 1.1 0 1.67 1.4 1.67 4.14v11.62c0 1.1.06 3.07 1.15 3.07.46 0 .97-.58 1.6-2.3M736.38 424.75l-1.16 2.94h-8.4v-.26l3.83-4.06c2-2.12 2.8-3.76 2.8-5.58 0-1.95-1.17-3.02-3-3.02-1.54 0-2.3.68-3.15 2.78l-.45-.1c.45-2.5 1.82-4.27 4.46-4.27 2.44 0 3.98 1.64 3.98 3.76 0 1.7-.84 3.3-2.75 5.33l-3.54 3.76h5c.92 0 1.37-.23 2.07-1.43"/><path d="M1179.86 96.7a6 6 0 0 1 6-6h228a6 6 0 0 1 6 6v51.34a6 6 0 0 1-6 6h-228a6 6 0 0 1-6-6z" stroke="#000" stroke-opacity="0" fill="#fff" fill-opacity="0"/><use xlink:href="#r" transform="matrix(1,0,0,1,1184.8594546874665,95.7113238343112) translate(32.948717948717956 34.74038461538461)"/><use xlink:href="#s" transform="matrix(1,0,0,1,1184.8594546874665,95.7113238343112) translate(49.358974358974365 34.74038461538461)"/><path d="M1140 106.67h80v31.42h-80z" fill="#fff" fill-opacity="0"/><path d="M1159.6 116.75c0 9.25-6.15 17.2-12.12 17.2-3.8 0-5.93-3.15-5.93-8 0-8.35 5.76-16.6 11.65-16.57 3.85 0 6.4 2.57 6.4 7.37m-13.1 4.13h8.57c.28-1.45.46-3.14.46-4.52 0-4.1-.6-5.57-2.33-5.57-2.82 0-5.5 4.93-6.7 10.08m8.22 1.55h-8.65c-.35 1.66-.53 3.3-.53 4.66 0 3.9.95 5.43 2.47 5.43 2.87 0 5.34-5.05 6.72-10.1M1189.72 125.8h-19.65v-2.34h19.65v2.33M1218 128.96h.8c-.53 2.58-1.9 5.16-4.5 5.16-1.7 0-2.45-1.7-2.45-4.13 0-1.7.35-3.47.67-6.15l-6.77 9.7h-3.96l10.65-15.35v-1.76c0-3.36-.85-4.6-1.94-4.6-.77 0-1.58.96-2.1 2.72h-.82c.7-2.6 1.94-5.18 4.4-5.18 1.85 0 1.95 2.5 1.95 5.15v13.66c0 2.77 1.13 3.45 1.94 3.45.75 0 1.6-.92 2.12-2.7"/><path d="M1120 363.33h30.2v30.88H1120z" fill="#fff" fill-opacity="0"/><path d="M1135.02 382.7h.5c-.68 2.48-1.68 4.24-3.17 4.24-.85 0-1.64-1.15-1.64-2.88 0-1.85.3-3.5.5-6.62l-6.62 9.02h-3.06l9.68-13.1c.03-.23.06-.6.06-.93 0-.2 0-1.06-.03-1.4-.15-2.03-.82-2.9-1.7-2.9-.45 0-.97.54-1.6 2.24h-.5c.52-1.9 1.5-4.2 3.16-4.2 1.1 0 1.66 1.4 1.66 4.14v11.63c0 1.1.06 3.07 1.16 3.07.45 0 .97-.58 1.6-2.3M1146.6 388.1l-1.17 2.93h-8.4v-.26l3.83-4.06c2.02-2.1 2.8-3.74 2.8-5.57 0-1.95-1.17-3.02-3-3.02-1.54 0-2.3.7-3.15 2.8l-.44-.1c.45-2.52 1.82-4.28 4.46-4.28 2.43 0 3.97 1.65 3.97 3.78 0 1.7-.84 3.3-2.75 5.32l-3.54 3.78h5.03c.9 0 1.35-.24 2.06-1.44"/><path d="M960 353.33h34.17v34.92H960z" fill="#fff" fill-opacity="0"/><path d="M977 375.23h.54c-.75 2.8-1.9 4.8-3.57 4.8-.96 0-1.85-1.3-1.85-3.26 0-2.1.3-3.94.55-7.48l-7.5 10.2h-3.45l10.95-14.8c.03-.28.07-.7.07-1.07 0-.24 0-1.2-.04-1.58-.17-2.3-.92-3.3-1.92-3.3-.52 0-1.1.62-1.82 2.54h-.55c.6-2.17 1.7-4.75 3.58-4.75 1.24 0 1.9 1.58 1.9 4.67v13.15c0 1.24.06 3.47 1.3 3.47.5 0 1.1-.65 1.8-2.6M988.13 384.66h-6.7v-.37c1.8-.1 2.3-.6 2.3-1.95v-10.9c0-.82-.2-1.2-.72-1.2-.23 0-.65.13-1.08.3l-.66.25v-.34l4.35-2.2.22.06v14.5c0 1.04.5 1.47 2.3 1.47v.36"/><path d="M1130.2 308.48a6 6 0 0 1 6-6h148a6 6 0 0 1 6 6V394a6 6 0 0 1-6 6h-148a6 6 0 0 1-6-6z" stroke="#000" stroke-opacity="0" fill="#fff" fill-opacity="0"/><g><use xlink:href="#q" transform="matrix(1,0,0,1,1135.2133516861666,307.4786324786325) translate(31.92307692307692 51.46153846153847)"/></g><path d="M1019.86 399.35a6 6 0 0 1 6-6h148a6 6 0 0 1 6 6v47.23a6 6 0 0 1-6 6h-148a6 6 0 0 1-6-6z" stroke="#000" stroke-opacity="0" fill="#fff" fill-opacity="0"/><g><use xlink:href="#t" transform="matrix(1,0,0,1,1024.8594546874665,398.3506437303906) translate(56.53846153846153 18.461538461538463)"/><use xlink:href="#u" transform="matrix(1,0,0,1,1024.8594546874665,398.3506437303906) translate(38.07692307692307 43.07692307692308)"/></g><defs><path fill="#3a414a" d="M1077-97C949-31 824 25 627 23c-163 0-294-59-391-177S91-451 91-689c0-337 134-561 362-666 125-60 318-55 438-5 59 26 116 63 170 112l-105 109c-124-120-320-159-478-62-140 86-204 261-201 512 0 200 31 344 93 433s153 133 273 133c93 0 181-22 262-66v-420H634l-21-144h464v656" id="v"/><path fill="#3a414a" d="M912-1076c61 0 101 10 149 23l-24 356H899v-224c-171-3-283 112-356 346v446h214V0H211v-129h164v-795H211v-129h292l31 249c78-155 163-269 378-272" id="w"/><path fill="#3a414a" d="M561-1075c242-4 394 116 394 340v505c0 84 24 115 86 135l-41 118C903 9 834-36 807-125 739-36 626 22 477 23c-203 4-342-127-340-325 0-109 44-189 127-250 108-79 315-93 522-87v-88c16-267-344-226-525-155l-44-127c108-41 213-64 344-66zm73 550c-199-2-317 56-317 221 0 133 68 199 203 199 121-2 213-69 266-149v-271H634" id="x"/><path fill="#3a414a" d="M537 23c-300 0-396-242-401-548 0-212 69-387 190-479 62-48 136-71 223-71 117 0 211 41 282 124v-547l168 21V0H852l-16-139C770-43 679 23 537 23zm294-828c-50-74-125-133-238-135-88 0-156 34-203 103s-71 173-71 312c0 275 84 412 253 412 127 2 206-89 259-166v-526" id="y"/><path fill="#3a414a" d="M479-1429c-1-65 54-117 121-117 70 0 124 50 123 117 1 68-52 120-123 120-68 0-122-53-121-120zm255 376v920h297V0H241v-133h325v-787H251v-133h483" id="z"/><path fill="#3a414a" d="M617-1075c310 0 460 268 424 608H333c1 214 118 350 308 350 127 0 196-40 281-95l79 111C915-32 785 22 639 23c-324-6-476-222-482-548 0-219 84-390 217-479 69-47 150-71 243-71zm266 478c-1-199-84-340-264-340-183 0-278 139-285 340h549" id="A"/><path fill="#3a414a" d="M653-943c-139 4-223 94-284 176V0H201v-1053h143l13 146c69-93 203-165 348-168 204-2 296 113 296 310V0H833v-641c-2-175-5-306-180-302" id="B"/><path fill="#3a414a" d="M770-117c82 0 147-22 202-50l65 114C973-8 859 23 755 23 544 29 402-98 401-295v-628H159v-130h242v-239l168-20v259h364l-20 130H569v626c3 126 65 181 201 180" id="C"/><path fill="#3a414a" d="M199-553v-146h802v146H199" id="D"/><path fill="#3a414a" d="M763-729c175 34 319 119 316 336C1073-100 851 0 563 0H193v-1377h339c265 6 487 79 487 347 0 178-115 264-256 301zm-175-62c161-1 254-67 253-230 1-161-110-216-270-216H366v446h222zM366-143c263 4 530 23 530-244 0-191-114-261-295-261H366v505" id="E"/><path fill="#3a414a" d="M243-230c76 62 183 114 316 114 170 0 313-88 245-249-12-23-36-44-72-63-77-43-270-78-356-120-96-47-168-106-169-240-6-270 370-339 621-253 63 23 117 50 161 82l-74 114c-81-54-169-95-306-94-136-1-228 31-228 138 0 80 44 103 112 132 87 36 264 72 348 119 96 49 162 119 162 259C997-57 792 16 559 23c-184 3-316-62-412-142" id="F"/><g id="a"><use transform="matrix(0.011396011396011393,0,0,0.011396011396011393,0,0)" xlink:href="#v"/><use transform="matrix(0.011396011396011393,0,0,0.011396011396011393,13.675213675213671,0)" xlink:href="#w"/><use transform="matrix(0.011396011396011393,0,0,0.011396011396011393,27.350427350427342,0)" xlink:href="#x"/><use transform="matrix(0.011396011396011393,0,0,0.011396011396011393,41.025641025641015,0)" xlink:href="#y"/><use transform="matrix(0.011396011396011393,0,0,0.011396011396011393,54.700854700854684,0)" xlink:href="#z"/><use transform="matrix(0.011396011396011393,0,0,0.011396011396011393,68.37606837606836,0)" xlink:href="#A"/><use transform="matrix(0.011396011396011393,0,0,0.011396011396011393,82.05128205128203,0)" xlink:href="#B"/><use transform="matrix(0.011396011396011393,0,0,0.011396011396011393,95.7264957264957,0)" xlink:href="#C"/><use transform="matrix(0.011396011396011393,0,0,0.011396011396011393,109.40170940170937,0)" xlink:href="#D"/><use transform="matrix(0.011396011396011393,0,0,0.011396011396011393,123.07692307692305,0)" xlink:href="#E"/><use transform="matrix(0.011396011396011393,0,0,0.011396011396011393,136.75213675213672,0)" xlink:href="#x"/><use transform="matrix(0.011396011396011393,0,0,0.011396011396011393,150.4273504273504,0)" xlink:href="#F"/><use transform="matrix(0.011396011396011393,0,0,0.011396011396011393,164.1025641025641,0)" xlink:href="#A"/><use transform="matrix(0.011396011396011393,0,0,0.011396011396011393,177.77777777777777,0)" xlink:href="#y"/></g><path fill="#3a414a" d="M860 0v-653H340V0H167v-1377h173v582h520v-582h173V0H860" id="G"/><path fill="#3a414a" d="M1077-1053L707 7c-78 218-197 392-470 416l-26-134C408 262 493 167 547 0h-56L123-1053h180l302 925 298-925h174" id="H"/><path fill="#3a414a" d="M358-906c68-94 166-166 314-169 303 3 381 242 381 548 0 304-107 542-406 550-115 0-208-41-278-122v502l-168 21v-1477h143zm11 657c48 72 129 131 241 132 87 0 153-33 197-100s66-170 66-311c0-275-80-412-241-412-124-2-211 95-263 169v522" id="I"/><path fill="#3a414a" d="M663-936c55-73 112-139 232-139 155 0 204 114 204 291V0H943v-757c0-66-4-114-12-143s-31-44-69-44c-90 7-138 56-184 126V0H521v-757c0-66-4-114-12-143s-31-44-69-44c-92 7-137 55-184 126V0H101v-1053h132l10 122c54-71 111-144 229-144 101 0 166 44 191 139" id="J"/><g id="b"><use transform="matrix(0.011396011396011393,0,0,0.011396011396011393,0,0)" xlink:href="#G"/><use transform="matrix(0.011396011396011393,0,0,0.011396011396011393,13.675213675213671,0)" xlink:href="#H"/><use transform="matrix(0.011396011396011393,0,0,0.011396011396011393,27.350427350427342,0)" xlink:href="#I"/><use transform="matrix(0.011396011396011393,0,0,0.011396011396011393,41.025641025641015,0)" xlink:href="#A"/><use transform="matrix(0.011396011396011393,0,0,0.011396011396011393,54.700854700854684,0)" xlink:href="#w"/><use transform="matrix(0.011396011396011393,0,0,0.011396011396011393,68.37606837606836,0)" xlink:href="#I"/><use transform="matrix(0.011396011396011393,0,0,0.011396011396011393,82.05128205128203,0)" xlink:href="#x"/><use transform="matrix(0.011396011396011393,0,0,0.011396011396011393,95.7264957264957,0)" xlink:href="#w"/><use transform="matrix(0.011396011396011393,0,0,0.011396011396011393,109.40170940170937,0)" xlink:href="#x"/><use transform="matrix(0.011396011396011393,0,0,0.011396011396011393,123.07692307692305,0)" xlink:href="#J"/><use transform="matrix(0.011396011396011393,0,0,0.011396011396011393,136.75213675213672,0)" xlink:href="#A"/><use transform="matrix(0.011396011396011393,0,0,0.011396011396011393,150.4273504273504,0)" xlink:href="#C"/><use transform="matrix(0.011396011396011393,0,0,0.011396011396011393,164.1025641025641,0)" xlink:href="#A"/><use transform="matrix(0.011396011396011393,0,0,0.011396011396011393,177.77777777777777,0)" xlink:href="#w"/></g><path fill="#3a414a" d="M147-525c6-319 139-544 455-550 309-3 455 233 451 548-4 317-139 543-453 550-308 3-455-235-453-548zm658-313c-87-128-321-126-409 1-82 118-82 502 0 621 87 127 321 127 408 0 81-118 82-504 1-622" id="K"/><path fill="#3a414a" d="M411-143h586L975 0H205v-127l584-780H251v-146h740v130" id="L"/><g id="c"><use transform="matrix(0.011396011396011393,0,0,0.011396011396011393,0,0)" xlink:href="#K"/><use transform="matrix(0.011396011396011393,0,0,0.011396011396011393,13.675213675213671,0)" xlink:href="#I"/><use transform="matrix(0.011396011396011393,0,0,0.011396011396011393,27.350427350427342,0)" xlink:href="#C"/><use transform="matrix(0.011396011396011393,0,0,0.011396011396011393,41.025641025641015,0)" xlink:href="#z"/><use transform="matrix(0.011396011396011393,0,0,0.011396011396011393,54.700854700854684,0)" xlink:href="#J"/><use transform="matrix(0.011396011396011393,0,0,0.011396011396011393,68.37606837606836,0)" xlink:href="#z"/><use transform="matrix(0.011396011396011393,0,0,0.011396011396011393,82.05128205128203,0)" xlink:href="#L"/><use transform="matrix(0.011396011396011393,0,0,0.011396011396011393,95.7264957264957,0)" xlink:href="#x"/><use transform="matrix(0.011396011396011393,0,0,0.011396011396011393,109.40170940170937,0)" xlink:href="#C"/><use transform="matrix(0.011396011396011393,0,0,0.011396011396011393,123.07692307692305,0)" xlink:href="#z"/><use transform="matrix(0.011396011396011393,0,0,0.011396011396011393,136.75213675213672,0)" xlink:href="#K"/><use transform="matrix(0.011396011396011393,0,0,0.011396011396011393,150.4273504273504,0)" xlink:href="#B"/></g><path fill="#3a414a" d="M599-1254c-140 0-279 61-275 203 6 104 56 139 140 181 101 51 299 91 406 152 118 63 208 156 203 337-8 277-212 401-503 404-210 0-373-70-483-176l103-116c93 85 208 149 383 146 177-3 320-76 320-255 0-188-142-217-302-269-160-53-304-103-389-215-73-95-71-267 2-366 76-102 213-172 389-171 202 0 329 61 440 157l-102 113c-84-75-190-122-332-125" id="M"/><path fill="#3a414a" d="M365-522c0 247 100 400 312 400 115 0 203-43 274-92l82 110C955-34 815 22 677 23c-328-6-494-215-494-545 0-326 169-546 496-553 134 0 251 41 352 122l-82 112c-91-63-182-94-272-94-209 8-312 171-312 413" id="N"/><path fill="#3a414a" d="M651-943c-136 0-221 94-282 176V0H201v-1475l168-18v584c68-95 190-163 336-166 203-2 296 113 296 310V0H833v-761c-1-127-56-182-182-182" id="O"/><g id="d"><use transform="matrix(0.011396011396011393,0,0,0.011396011396011393,0,0)" xlink:href="#M"/><use transform="matrix(0.011396011396011393,0,0,0.011396011396011393,13.675213675213671,0)" xlink:href="#A"/><use transform="matrix(0.011396011396011393,0,0,0.011396011396011393,27.350427350427342,0)" xlink:href="#x"/><use transform="matrix(0.011396011396011393,0,0,0.011396011396011393,41.025641025641015,0)" xlink:href="#w"/><use transform="matrix(0.011396011396011393,0,0,0.011396011396011393,54.700854700854684,0)" xlink:href="#N"/><use transform="matrix(0.011396011396011393,0,0,0.011396011396011393,68.37606837606836,0)" xlink:href="#O"/><use transform="matrix(0.011396011396011393,0,0,0.011396011396011393,82.05128205128203,0)" xlink:href="#D"/><use transform="matrix(0.011396011396011393,0,0,0.011396011396011393,95.7264957264957,0)" xlink:href="#E"/><use transform="matrix(0.011396011396011393,0,0,0.011396011396011393,109.40170940170937,0)" xlink:href="#x"/><use transform="matrix(0.011396011396011393,0,0,0.011396011396011393,123.07692307692305,0)" xlink:href="#F"/><use transform="matrix(0.011396011396011393,0,0,0.011396011396011393,136.75213675213672,0)" xlink:href="#A"/><use transform="matrix(0.011396011396011393,0,0,0.011396011396011393,150.4273504273504,0)" xlink:href="#y"/></g><path fill="#3a414a" d="M380-1498V0H212v-1477zm703 445L609-579 1138 0H917L399-575l466-478h218" id="P"/><g id="e"><use transform="matrix(0.010256410256410253,0,0,0.010256410256410253,0,0)" xlink:href="#E"/><use transform="matrix(0.010256410256410253,0,0,0.010256410256410253,12.307692307692303,0)" xlink:href="#x"/><use transform="matrix(0.010256410256410253,0,0,0.010256410256410253,24.615384615384606,0)" xlink:href="#N"/><use transform="matrix(0.010256410256410253,0,0,0.010256410256410253,36.923076923076906,0)" xlink:href="#P"/><use transform="matrix(0.010256410256410253,0,0,0.010256410256410253,49.23076923076921,0)" xlink:href="#I"/><use transform="matrix(0.010256410256410253,0,0,0.010256410256410253,61.53846153846152,0)" xlink:href="#w"/><use transform="matrix(0.010256410256410253,0,0,0.010256410256410253,73.84615384615383,0)" xlink:href="#K"/><use transform="matrix(0.010256410256410253,0,0,0.010256410256410253,86.15384615384612,0)" xlink:href="#I"/></g><path fill="#3a414a" d="M505 23C304 25 201-90 201-287v-766h168v746c0 134 49 194 177 196 125 1 236-87 285-167v-775h168V0H856l-14-142C774-50 649 20 505 23" id="Q"/><path fill="#3a414a" d="M577-1076c214 0 342-26 480-89l52 158c-91 29-189 30-308 31 122 56 183 144 183 265 0 217-164 365-396 358-67 0-107-6-157-20-28 19-55 58-55 102 1 127 205 88 331 88 144 0 261 58 323 141 93 128 46 308-82 383-89 53-212 83-372 83-272 0-443-59-445-317h152c1 161 119 178 292 180 116 0 201-14 254-43s80-73 80-130C900-59 669-41 483-37c-155 4-265-71-265-198 0-72 39-133 116-184-118-63-177-160-177-291 0-237 176-366 420-366zm4 611c150 0 230-95 229-246 0-161-78-242-233-242-160 0-246 96-248 243 2 150 90 245 252 245" id="R"/><g id="f"><use transform="matrix(0.010256410256410253,0,0,0.010256410256410253,0,0)" xlink:href="#C"/><use transform="matrix(0.010256410256410253,0,0,0.010256410256410253,12.307692307692303,0)" xlink:href="#O"/><use transform="matrix(0.010256410256410253,0,0,0.010256410256410253,24.615384615384606,0)" xlink:href="#w"/><use transform="matrix(0.010256410256410253,0,0,0.010256410256410253,36.923076923076906,0)" xlink:href="#K"/><use transform="matrix(0.010256410256410253,0,0,0.010256410256410253,49.23076923076921,0)" xlink:href="#Q"/><use transform="matrix(0.010256410256410253,0,0,0.010256410256410253,61.53846153846152,0)" xlink:href="#R"/><use transform="matrix(0.010256410256410253,0,0,0.010256410256410253,73.84615384615383,0)" xlink:href="#O"/></g><g id="g"><use transform="matrix(0.010256410256410253,0,0,0.010256410256410253,0,0)" xlink:href="#C"/><use transform="matrix(0.010256410256410253,0,0,0.010256410256410253,12.307692307692303,0)" xlink:href="#O"/><use transform="matrix(0.010256410256410253,0,0,0.010256410256410253,24.615384615384606,0)" xlink:href="#A"/></g><path fill="#3a414a" d="M439-1181c3-263 268-355 538-302 46 10 90 24 131 42l-54 125c-63-27-140-44-226-44-147 0-221 58-221 175v214h357l-18 132H607V0H439v-839H188v-132h251v-210" id="S"/><path fill="#3a414a" d="M981 0H743L607-773 459 0H227L35-1053h172l134 949 168-815h199l159 815 134-949h164" id="T"/><g id="h"><use transform="matrix(0.010256410256410253,0,0,0.010256410256410253,0,0)" xlink:href="#S"/><use transform="matrix(0.010256410256410253,0,0,0.010256410256410253,12.307692307692303,0)" xlink:href="#K"/><use transform="matrix(0.010256410256410253,0,0,0.010256410256410253,24.615384615384606,0)" xlink:href="#w"/><use transform="matrix(0.010256410256410253,0,0,0.010256410256410253,36.923076923076906,0)" xlink:href="#T"/><use transform="matrix(0.010256410256410253,0,0,0.010256410256410253,49.23076923076921,0)" xlink:href="#x"/><use transform="matrix(0.010256410256410253,0,0,0.010256410256410253,61.53846153846152,0)" xlink:href="#w"/><use transform="matrix(0.010256410256410253,0,0,0.010256410256410253,73.84615384615383,0)" xlink:href="#y"/><use transform="matrix(0.010256410256410253,0,0,0.010256410256410253,86.15384615384612,0)" xlink:href="#D"/><use transform="matrix(0.010256410256410253,0,0,0.010256410256410253,98.46153846153845,0)" xlink:href="#C"/><use transform="matrix(0.010256410256410253,0,0,0.010256410256410253,110.76923076923075,0)" xlink:href="#w"/><use transform="matrix(0.010256410256410253,0,0,0.010256410256410253,123.07692307692305,0)" xlink:href="#x"/><use transform="matrix(0.010256410256410253,0,0,0.010256410256410253,135.38461538461536,0)" xlink:href="#N"/><use transform="matrix(0.010256410256410253,0,0,0.010256410256410253,147.69230769230765,0)" xlink:href="#A"/></g><path fill="#202122" d="M553-1053c-52-183-143-289-352-316l28-134c316 40 446 211 514 506 54 237 113 434 169 594s124 281 205 362L944 23C765-215 673-537 595-923L259 25 97-11l388-1042h68" id="U"/><use transform="matrix(0.010256410256410256,0,0,0.010256410256410256,0,0)" xlink:href="#U" id="i"/><path fill="#3a414a" d="M598-127c189-1 282-114 282-313v-937h175v931c-7 288-169 469-457 469-290 0-453-180-453-469v-931h172v937c-2 198 93 311 281 313" id="V"/><g id="j"><use transform="matrix(0.010256410256410256,0,0,0.010256410256410256,0,0)" xlink:href="#V"/><use transform="matrix(0.010256410256410256,0,0,0.010256410256410256,12.307692307692308,0)" xlink:href="#I"/><use transform="matrix(0.010256410256410256,0,0,0.010256410256410256,24.615384615384617,0)" xlink:href="#y"/><use transform="matrix(0.010256410256410256,0,0,0.010256410256410256,36.92307692307693,0)" xlink:href="#x"/><use transform="matrix(0.010256410256410256,0,0,0.010256410256410256,49.23076923076923,0)" xlink:href="#C"/><use transform="matrix(0.010256410256410256,0,0,0.010256410256410256,61.53846153846154,0)" xlink:href="#A"/></g><path fill="#202122" d="M1050-1060c75 203 77 539 0 742C980-125 847 23 600 23 222 23 97-295 93-685c-3-274 79-498 227-623 140-118 421-121 560-2 75 59 132 143 170 250zM850-268c97-168 96-671 0-840-54-95-134-146-250-146s-196 51-250 147c-96 170-97 674 3 841 56 93 134 143 247 143 116 0 196-51 250-145" id="W"/><path fill="#202122" d="M358-906c68-94 166-166 314-169 303 3 381 242 381 548 0 304-107 542-406 550-115 0-208-41-278-122v502l-168 21v-1477h143zm11 657c48 72 129 131 241 132 87 0 153-33 197-100s66-170 66-311c0-275-80-412-241-412-124-2-211 95-263 169v522" id="X"/><path fill="#202122" d="M770-117c82 0 147-22 202-50l65 114C973-8 859 23 755 23 544 29 402-98 401-295v-628H159v-130h242v-239l168-20v259h364l-20 130H569v626c3 126 65 181 201 180" id="Y"/><path fill="#202122" d="M479-1429c-1-65 54-117 121-117 70 0 124 50 123 117 1 68-52 120-123 120-68 0-122-53-121-120zm255 376v920h297V0H241v-133h325v-787H251v-133h483" id="Z"/><path fill="#202122" d="M663-936c55-73 112-139 232-139 155 0 204 114 204 291V0H943v-757c0-66-4-114-12-143s-31-44-69-44c-90 7-138 56-184 126V0H521v-757c0-66-4-114-12-143s-31-44-69-44c-92 7-137 55-184 126V0H101v-1053h132l10 122c54-71 111-144 229-144 101 0 166 44 191 139" id="aa"/><path fill="#202122" d="M411-143h586L975 0H205v-127l584-780H251v-146h740v130" id="ab"/><path fill="#202122" d="M653-943c-139 4-223 94-284 176V0H201v-1053h143l13 146c69-93 203-165 348-168 204-2 296 113 296 310V0H833v-641c-2-175-5-306-180-302" id="ac"/><path fill="#202122" d="M577-1076c214 0 342-26 480-89l52 158c-91 29-189 30-308 31 122 56 183 144 183 265 0 217-164 365-396 358-67 0-107-6-157-20-28 19-55 58-55 102 1 127 205 88 331 88 144 0 261 58 323 141 93 128 46 308-82 383-89 53-212 83-372 83-272 0-443-59-445-317h152c1 161 119 178 292 180 116 0 201-14 254-43s80-73 80-130C900-59 669-41 483-37c-155 4-265-71-265-198 0-72 39-133 116-184-118-63-177-160-177-291 0-237 176-366 420-366zm4 611c150 0 230-95 229-246 0-161-78-242-233-242-160 0-246 96-248 243 2 150 90 245 252 245" id="ad"/><g id="k"><use transform="matrix(0.010256410256410256,0,0,0.010256410256410256,0,0)" xlink:href="#W"/><use transform="matrix(0.010256410256410256,0,0,0.010256410256410256,12.307692307692308,0)" xlink:href="#X"/><use transform="matrix(0.010256410256410256,0,0,0.010256410256410256,24.615384615384617,0)" xlink:href="#Y"/><use transform="matrix(0.010256410256410256,0,0,0.010256410256410256,36.92307692307693,0)" xlink:href="#Z"/><use transform="matrix(0.010256410256410256,0,0,0.010256410256410256,49.23076923076923,0)" xlink:href="#aa"/><use transform="matrix(0.010256410256410256,0,0,0.010256410256410256,61.53846153846154,0)" xlink:href="#Z"/><use transform="matrix(0.010256410256410256,0,0,0.010256410256410256,73.84615384615385,0)" xlink:href="#ab"/><use transform="matrix(0.010256410256410256,0,0,0.010256410256410256,86.15384615384616,0)" xlink:href="#Z"/><use transform="matrix(0.010256410256410256,0,0,0.010256410256410256,98.46153846153847,0)" xlink:href="#ac"/><use transform="matrix(0.010256410256410256,0,0,0.010256410256410256,110.76923076923077,0)" xlink:href="#ad"/></g><path fill="#202122" d="M651-943c-136 0-221 94-282 176V0H201v-1475l168-18v584c68-95 190-163 336-166 203-2 296 113 296 310V0H833v-761c-1-127-56-182-182-182" id="ae"/><path fill="#202122" d="M617-1075c310 0 460 268 424 608H333c1 214 118 350 308 350 127 0 196-40 281-95l79 111C915-32 785 22 639 23c-324-6-476-222-482-548 0-219 84-390 217-479 69-47 150-71 243-71zm266 478c-1-199-84-340-264-340-183 0-278 139-285 340h549" id="af"/><g id="l"><use transform="matrix(0.010256410256410256,0,0,0.010256410256410256,0,0)" xlink:href="#Y"/><use transform="matrix(0.010256410256410256,0,0,0.010256410256410256,12.307692307692308,0)" xlink:href="#ae"/><use transform="matrix(0.010256410256410256,0,0,0.010256410256410256,24.615384615384617,0)" xlink:href="#af"/></g><path fill="#202122" d="M981 0H743L607-773 459 0H227L35-1053h172l134 949 168-815h199l159 815 134-949h164" id="ag"/><path fill="#202122" d="M243-230c76 62 183 114 316 114 170 0 313-88 245-249-12-23-36-44-72-63-77-43-270-78-356-120-96-47-168-106-169-240-6-270 370-339 621-253 63 23 117 50 161 82l-74 114c-81-54-169-95-306-94-136-1-228 31-228 138 0 80 44 103 112 132 87 36 264 72 348 119 96 49 162 119 162 259C997-57 792 16 559 23c-184 3-316-62-412-142" id="ah"/><g id="m"><use transform="matrix(0.010256410256410256,0,0,0.010256410256410256,0,0)" xlink:href="#ag"/><use transform="matrix(0.010256410256410256,0,0,0.010256410256410256,12.307692307692308,0)" xlink:href="#af"/><use transform="matrix(0.010256410256410256,0,0,0.010256410256410256,24.615384615384617,0)" xlink:href="#Z"/><use transform="matrix(0.010256410256410256,0,0,0.010256410256410256,36.92307692307693,0)" xlink:href="#ad"/><use transform="matrix(0.010256410256410256,0,0,0.010256410256410256,49.23076923076923,0)" xlink:href="#ae"/><use transform="matrix(0.010256410256410256,0,0,0.010256410256410256,61.53846153846154,0)" xlink:href="#Y"/><use transform="matrix(0.010256410256410256,0,0,0.010256410256410256,73.84615384615385,0)" xlink:href="#ah"/></g><path fill="#202122" d="M439-1181c3-263 268-355 538-302 46 10 90 24 131 42l-54 125c-63-27-140-44-226-44-147 0-221 58-221 175v214h357l-18 132H607V0H439v-839H188v-132h251v-210" id="ai"/><path fill="#202122" d="M912-1076c61 0 101 10 149 23l-24 356H899v-224c-171-3-283 112-356 346v446h214V0H211v-129h164v-795H211v-129h292l31 249c78-155 163-269 378-272" id="aj"/><path fill="#202122" d="M147-525c6-319 139-544 455-550 309-3 455 233 451 548-4 317-139 543-453 550-308 3-455-235-453-548zm658-313c-87-128-321-126-409 1-82 118-82 502 0 621 87 127 321 127 408 0 81-118 82-504 1-622" id="ak"/><g id="n"><use transform="matrix(0.010256410256410256,0,0,0.010256410256410256,0,0)" xlink:href="#ai"/><use transform="matrix(0.010256410256410256,0,0,0.010256410256410256,12.307692307692308,0)" xlink:href="#aj"/><use transform="matrix(0.010256410256410256,0,0,0.010256410256410256,24.615384615384617,0)" xlink:href="#ak"/><use transform="matrix(0.010256410256410256,0,0,0.010256410256410256,36.92307692307693,0)" xlink:href="#aa"/></g><g id="o"><use transform="matrix(0.010256410256410256,0,0,0.010256410256410256,0,0)" xlink:href="#ac"/><use transform="matrix(0.010256410256410256,0,0,0.010256410256410256,12.307692307692308,0)" xlink:href="#af"/><use transform="matrix(0.010256410256410256,0,0,0.010256410256410256,24.615384615384617,0)" xlink:href="#ag"/></g><path fill="#202122" d="M561-1075c242-4 394 116 394 340v505c0 84 24 115 86 135l-41 118C903 9 834-36 807-125 739-36 626 22 477 23c-203 4-342-127-340-325 0-109 44-189 127-250 108-79 315-93 522-87v-88c16-267-344-226-525-155l-44-127c108-41 213-64 344-66zm73 550c-199-2-317 56-317 221 0 133 68 199 203 199 121-2 213-69 266-149v-271H634" id="al"/><g id="p"><use transform="matrix(0.010256410256410256,0,0,0.010256410256410256,0,0)" xlink:href="#ah"/><use transform="matrix(0.010256410256410256,0,0,0.010256410256410256,12.307692307692308,0)" xlink:href="#Y"/><use transform="matrix(0.010256410256410256,0,0,0.010256410256410256,24.615384615384617,0)" xlink:href="#al"/><use transform="matrix(0.010256410256410256,0,0,0.010256410256410256,36.92307692307693,0)" xlink:href="#Y"/><use transform="matrix(0.010256410256410256,0,0,0.010256410256410256,49.23076923076923,0)" xlink:href="#af"/></g><path fill="#202122" d="M505 23C304 25 201-90 201-287v-766h168v746c0 134 49 194 177 196 125 1 236-87 285-167v-775h168V0H856l-14-142C774-50 649 20 505 23" id="am"/><g id="q"><use transform="matrix(0.010256410256410256,0,0,0.010256410256410256,0,0)" xlink:href="#W"/><use transform="matrix(0.010256410256410256,0,0,0.010256410256410256,12.307692307692308,0)" xlink:href="#X"/><use transform="matrix(0.010256410256410256,0,0,0.010256410256410256,24.615384615384617,0)" xlink:href="#Y"/><use transform="matrix(0.010256410256410256,0,0,0.010256410256410256,36.92307692307693,0)" xlink:href="#Z"/><use transform="matrix(0.010256410256410256,0,0,0.010256410256410256,49.23076923076923,0)" xlink:href="#aa"/><use transform="matrix(0.010256410256410256,0,0,0.010256410256410256,61.53846153846154,0)" xlink:href="#am"/><use transform="matrix(0.010256410256410256,0,0,0.010256410256410256,73.84615384615385,0)" xlink:href="#aa"/></g><path fill="#3a414a" d="M271 0v-1377h174v1222h628L1053 0H271" id="an"/><g id="s"><use transform="matrix(0.013675213675213673,0,0,0.013675213675213673,0,0)" xlink:href="#an"/><use transform="matrix(0.013675213675213673,0,0,0.013675213675213673,16.41025641025641,0)" xlink:href="#x"/><use transform="matrix(0.013675213675213673,0,0,0.013675213675213673,32.82051282051282,0)" xlink:href="#B"/><use transform="matrix(0.013675213675213673,0,0,0.013675213675213673,49.230769230769226,0)" xlink:href="#y"/><use transform="matrix(0.013675213675213673,0,0,0.013675213675213673,65.64102564102564,0)" xlink:href="#F"/><use transform="matrix(0.013675213675213673,0,0,0.013675213675213673,82.05128205128204,0)" xlink:href="#N"/><use transform="matrix(0.013675213675213673,0,0,0.013675213675213673,98.46153846153845,0)" xlink:href="#x"/><use transform="matrix(0.013675213675213673,0,0,0.013675213675213673,114.87179487179486,0)" xlink:href="#I"/><use transform="matrix(0.013675213675213673,0,0,0.013675213675213673,131.28205128205127,0)" xlink:href="#A"/></g><path fill="#202122" d="M895-161c-34-368-21-811-23-1216h161V0H790L305-1211c32 371 21 806 23 1211H167v-1377h235" id="ao"/><g id="t"><use transform="matrix(0.010256410256410256,0,0,0.010256410256410256,0,0)" xlink:href="#ao"/><use transform="matrix(0.010256410256410256,0,0,0.010256410256410256,12.307692307692308,0)" xlink:href="#af"/><use transform="matrix(0.010256410256410256,0,0,0.010256410256410256,24.615384615384617,0)" xlink:href="#ag"/></g><path fill="#202122" d="M599-1254c-140 0-279 61-275 203 6 104 56 139 140 181 101 51 299 91 406 152 118 63 208 156 203 337-8 277-212 401-503 404-210 0-373-70-483-176l103-116c93 85 208 149 383 146 177-3 320-76 320-255 0-188-142-217-302-269-160-53-304-103-389-215-73-95-71-267 2-366 76-102 213-172 389-171 202 0 329 61 440 157l-102 113c-84-75-190-122-332-125" id="ap"/><path fill="#202122" d="M757 23C575 25 443-87 443-269v-1075H120v-133h491v1217C599-84 846-101 962-154l45 123C944-1 855 25 757 23" id="aq"/><g id="u"><use transform="matrix(0.010256410256410256,0,0,0.010256410256410256,0,0)" xlink:href="#ap"/><use transform="matrix(0.010256410256410256,0,0,0.010256410256410256,12.307692307692308,0)" xlink:href="#al"/><use transform="matrix(0.010256410256410256,0,0,0.010256410256410256,24.615384615384617,0)" xlink:href="#aa"/><use transform="matrix(0.010256410256410256,0,0,0.010256410256410256,36.92307692307693,0)" xlink:href="#X"/><use transform="matrix(0.010256410256410256,0,0,0.010256410256410256,49.23076923076923,0)" xlink:href="#aq"/><use transform="matrix(0.010256410256410256,0,0,0.010256410256410256,61.53846153846154,0)" xlink:href="#af"/></g></defs></g></svg>