<svg xmlns="http://www.w3.org/2000/svg" xmlns:xlink="http://www.w3.org/1999/xlink" xmlns:lucid="lucid" width="1080" height="428.93"><g transform="translate(-100 -149.44444444444443)" lucid:page-tab-id="0_0"><path d="M260 483.26c0-3.3 2.7-6 6-6h228c3.3 0 6 2.7 6 6v69.12c0 3.3-2.7 6-6 6H266c-3.3 0-6-2.7-6-6z" stroke="#000" stroke-opacity="0" fill="#fff" fill-opacity="0"/><use xlink:href="#a" transform="matrix(1,0,0,1,265,482.2649572649573) translate(52.77777777777779 26.666666666666664)"/><use xlink:href="#b" transform="matrix(1,0,0,1,265,482.2649572649573) translate(70.55555555555557 62.22222222222222)"/><path d="M920 175.44c0-3.3 2.7-6 6-6h228c3.3 0 6 2.7 6 6v69.12c0 3.3-2.7 6-6 6H926c-3.3 0-6-2.7-6-6z" stroke="#000" stroke-opacity="0" fill="#fff" fill-opacity="0"/><use xlink:href="#c" transform="matrix(1,0,0,1,925,174.44444444444443) translate(35.000000000000014 26.666666666666664)"/><use xlink:href="#d" transform="matrix(1,0,0,1,925,174.44444444444443) translate(70.55555555555557 62.22222222222222)"/><path d="M320 326c0-3.3 2.7-6 6-6h108c3.3 0 6 2.7 6 6v75.82c0 3.3-2.7 6-6 6H326c-3.3 0-6-2.7-6-6z" stroke="#3a414a" fill="#fff"/><use xlink:href="#e" transform="matrix(1,0,0,1,325,325) translate(26.282051282051288 48.217948717948715)"/><path d="M860 326c0-3.3 2.7-6 6-6h108c3.3 0 6 2.7 6 6v75.82c0 3.3-2.7 6-6 6H866c-3.3 0-6-2.7-6-6z" stroke="#3a414a" fill="#fff"/><use xlink:href="#f" transform="matrix(1,0,0,1,865,325) translate(26.282051282051288 48.217948717948715)"/><path d="M120 175.44c0-3.3 2.7-6 6-6h228c3.3 0 6 2.7 6 6v69.12c0 3.3-2.7 6-6 6H126c-3.3 0-6-2.7-6-6z" stroke="#000" stroke-opacity="0" fill="#fff" fill-opacity="0"/><use xlink:href="#a" transform="matrix(1,0,0,1,125,174.44444444444446) translate(52.77777777777779 26.666666666666664)"/><use xlink:href="#b" transform="matrix(1,0,0,1,125,174.44444444444446) translate(70.55555555555557 62.22222222222222)"/><path d="M380 175.44c0-3.3 2.7-6 6-6h228c3.3 0 6 2.7 6 6v69.12c0 3.3-2.7 6-6 6H386c-3.3 0-6-2.7-6-6z" stroke="#000" stroke-opacity="0" fill="#fff" fill-opacity="0"/><use xlink:href="#g" transform="matrix(1,0,0,1,385,174.44444444444446) translate(61.66666666666668 26.666666666666664)"/><use xlink:href="#b" transform="matrix(1,0,0,1,385,174.44444444444446) translate(70.55555555555557 62.22222222222222)"/><path d="M660 175.44c0-3.3 2.7-6 6-6h228c3.3 0 6 2.7 6 6v69.12c0 3.3-2.7 6-6 6H666c-3.3 0-6-2.7-6-6z" stroke="#000" stroke-opacity="0" fill="#fff" fill-opacity="0"/><use xlink:href="#g" transform="matrix(1,0,0,1,665,174.44444444444446) translate(61.66666666666668 26.666666666666664)"/><use xlink:href="#b" transform="matrix(1,0,0,1,665,174.44444444444446) translate(70.55555555555557 62.22222222222222)"/><path d="M800 483.26c0-3.3 2.7-6 6-6h228c3.3 0 6 2.7 6 6v69.12c0 3.3-2.7 6-6 6H806c-3.3 0-6-2.7-6-6z" stroke="#000" stroke-opacity="0" fill="#fff" fill-opacity="0"/><use xlink:href="#c" transform="matrix(1,0,0,1,805,482.2649572649573) translate(35.000000000000014 26.666666666666664)"/><use xlink:href="#d" transform="matrix(1,0,0,1,805,482.2649572649573) translate(70.55555555555557 62.22222222222222)"/><path d="M240 251.06v27.97c0 3.3 2.7 6 6 6h128c3.3 0 6 2.68 6 6v12.1" stroke="#3a414a" fill="none"/><path d="M240.5 251.07h-1v-.5h1z" stroke="#3a414a" stroke-width=".05" fill="#3a414a"/><path d="M380 317.88l-4.64-14.26h9.28z" stroke="#3a414a" fill="#3a414a"/><path d="M500 251.06v27.97c0 3.3-2.7 6-6 6H386c-3.3 0-6 2.68-6 6v12.1" stroke="#3a414a" fill="none"/><path d="M500.5 251.07h-1v-.5h1z" stroke="#3a414a" stroke-width=".05" fill="#3a414a"/><path d="M380 317.88l-4.64-14.26h9.28z" stroke="#3a414a" fill="#3a414a"/><path d="M380 408.82v52.06" stroke="#3a414a" fill="none"/><path d="M380.5 408.83h-1v-.5h1z" stroke="#3a414a" stroke-width=".05" fill="#3a414a"/><path d="M380 475.65l-4.64-14.27h9.28z" stroke="#3a414a" fill="#3a414a"/><path d="M780 251.06v27.97c0 3.3 2.7 6 6 6h128c3.3 0 6 2.68 6 6v12.1" stroke="#3a414a" fill="none"/><path d="M780.5 251.07h-1v-.5h1z" stroke="#3a414a" stroke-width=".05" fill="#3a414a"/><path d="M920 317.88l-4.64-14.26h9.28z" stroke="#3a414a" fill="#3a414a"/><path d="M1040 251.06v27.97c0 3.3-2.7 6-6 6H926c-3.3 0-6 2.68-6 6v12.1" stroke="#3a414a" fill="none"/><path d="M1040.5 251.07h-1v-.5h1z" stroke="#3a414a" stroke-width=".05" fill="#3a414a"/><path d="M920 317.88l-4.64-14.26h9.28z" stroke="#3a414a" fill="#3a414a"/><path d="M920 408.82v52.06" stroke="#3a414a" fill="none"/><path d="M920.5 408.83h-1v-.5h1z" stroke="#3a414a" stroke-width=".05" fill="#3a414a"/><path d="M920 475.65l-4.64-14.27h9.28z" stroke="#3a414a" fill="#3a414a"/><path d="M496.38 363.9h287.24" stroke="#3a414a" fill="none"/><path d="M481.62 363.9l14.26-4.63v9.28zM798.38 363.9l-14.26 4.65v-9.28z" stroke="#3a414a" fill="#3a414a"/><path d="M520 366c0-3.3 2.7-6 6-6h228c3.3 0 6 2.7 6 6v63.64c0 3.3-2.7 6-6 6H526c-3.3 0-6-2.7-6-6z" stroke="#000" stroke-opacity="0" fill="#fff" fill-opacity="0"/><g><use xlink:href="#h" transform="matrix(1,0,0,1,525,365) translate(35.000000000000014 41.104166666666664)"/></g><defs><path fill="#3a414a" d="M683-1228V0H510v-1228H80v-149h1039l-18 149H683" id="i"/><path fill="#3a414a" d="M561-1075c242-4 394 116 394 340v505c0 84 24 115 86 135l-41 118C903 9 834-36 807-125 739-36 626 22 477 23c-203 4-342-127-340-325 0-109 44-189 127-250 108-79 315-93 522-87v-88c16-267-344-226-525-155l-44-127c108-41 213-64 344-66zm73 550c-199-2-317 56-317 221 0 133 68 199 203 199 121-2 213-69 266-149v-271H634" id="j"/><path fill="#3a414a" d="M653-943c-139 4-223 94-284 176V0H201v-1053h143l13 146c69-93 203-165 348-168 204-2 296 113 296 310V0H833v-641c-2-175-5-306-180-302" id="k"/><path fill="#3a414a" d="M577-1076c214 0 342-26 480-89l52 158c-91 29-189 30-308 31 122 56 183 144 183 265 0 217-164 365-396 358-67 0-107-6-157-20-28 19-55 58-55 102 1 127 205 88 331 88 144 0 261 58 323 141 93 128 46 308-82 383-89 53-212 83-372 83-272 0-443-59-445-317h152c1 161 119 178 292 180 116 0 201-14 254-43s80-73 80-130C900-59 669-41 483-37c-155 4-265-71-265-198 0-72 39-133 116-184-118-63-177-160-177-291 0-237 176-366 420-366zm4 611c150 0 230-95 229-246 0-161-78-242-233-242-160 0-246 96-248 243 2 150 90 245 252 245" id="l"/><path fill="#3a414a" d="M617-1075c310 0 460 268 424 608H333c1 214 118 350 308 350 127 0 196-40 281-95l79 111C915-32 785 22 639 23c-324-6-476-222-482-548 0-219 84-390 217-479 69-47 150-71 243-71zm266 478c-1-199-84-340-264-340-183 0-278 139-285 340h549" id="m"/><path fill="#3a414a" d="M770-117c82 0 147-22 202-50l65 114C973-8 859 23 755 23 544 29 402-98 401-295v-628H159v-130h242v-239l168-20v259h364l-20 130H569v626c3 126 65 181 201 180" id="n"/><g id="a"><use transform="matrix(0.014814814814814814,0,0,0.014814814814814814,0,0)" xlink:href="#i"/><use transform="matrix(0.014814814814814814,0,0,0.014814814814814814,17.777777777777775,0)" xlink:href="#j"/><use transform="matrix(0.014814814814814814,0,0,0.014814814814814814,35.55555555555555,0)" xlink:href="#k"/><use transform="matrix(0.014814814814814814,0,0,0.014814814814814814,53.33333333333333,0)" xlink:href="#l"/><use transform="matrix(0.014814814814814814,0,0,0.014814814814814814,71.1111111111111,0)" xlink:href="#m"/><use transform="matrix(0.014814814814814814,0,0,0.014814814814814814,88.88888888888887,0)" xlink:href="#k"/><use transform="matrix(0.014814814814814814,0,0,0.014814814814814814,106.66666666666664,0)" xlink:href="#n"/></g><path fill="#3a414a" d="M599-1254c-140 0-279 61-275 203 6 104 56 139 140 181 101 51 299 91 406 152 118 63 208 156 203 337-8 277-212 401-503 404-210 0-373-70-483-176l103-116c93 85 208 149 383 146 177-3 320-76 320-255 0-188-142-217-302-269-160-53-304-103-389-215-73-95-71-267 2-366 76-102 213-172 389-171 202 0 329 61 440 157l-102 113c-84-75-190-122-332-125" id="o"/><path fill="#3a414a" d="M358-906c68-94 166-166 314-169 303 3 381 242 381 548 0 304-107 542-406 550-115 0-208-41-278-122v502l-168 21v-1477h143zm11 657c48 72 129 131 241 132 87 0 153-33 197-100s66-170 66-311c0-275-80-412-241-412-124-2-211 95-263 169v522" id="p"/><path fill="#3a414a" d="M365-522c0 247 100 400 312 400 115 0 203-43 274-92l82 110C955-34 815 22 677 23c-328-6-494-215-494-545 0-326 169-546 496-553 134 0 251 41 352 122l-82 112c-91-63-182-94-272-94-209 8-312 171-312 413" id="q"/><g id="b"><use transform="matrix(0.014814814814814814,0,0,0.014814814814814814,0,0)" xlink:href="#o"/><use transform="matrix(0.014814814814814814,0,0,0.014814814814814814,17.777777777777775,0)" xlink:href="#p"/><use transform="matrix(0.014814814814814814,0,0,0.014814814814814814,35.55555555555555,0)" xlink:href="#j"/><use transform="matrix(0.014814814814814814,0,0,0.014814814814814814,53.33333333333333,0)" xlink:href="#q"/><use transform="matrix(0.014814814814814814,0,0,0.014814814814814814,71.1111111111111,0)" xlink:href="#m"/></g><path fill="#3a414a" d="M1135-127C1044-43 909 27 723 23 326 6 130-270 127-689c-4-300 116-515 295-629 139-89 356-102 520-47 61 23 118 56 173 100l-97 113c-75-65-163-102-289-102-304 0-423 227-422 565 0 334 113 551 418 563 148 3 242-54 320-115" id="r"/><path fill="#3a414a" d="M147-525c6-319 139-544 455-550 309-3 455 233 451 548-4 317-139 543-453 550-308 3-455-235-453-548zm658-313c-87-128-321-126-409 1-82 118-82 502 0 621 87 127 321 127 408 0 81-118 82-504 1-622" id="s"/><g id="c"><use transform="matrix(0.014814814814814814,0,0,0.014814814814814814,0,0)" xlink:href="#r"/><use transform="matrix(0.014814814814814814,0,0,0.014814814814814814,17.777777777777775,0)" xlink:href="#s"/><use transform="matrix(0.014814814814814814,0,0,0.014814814814814814,35.55555555555555,0)" xlink:href="#n"/><use transform="matrix(0.014814814814814814,0,0,0.014814814814814814,53.33333333333333,0)" xlink:href="#j"/><use transform="matrix(0.014814814814814814,0,0,0.014814814814814814,71.1111111111111,0)" xlink:href="#k"/><use transform="matrix(0.014814814814814814,0,0,0.014814814814814814,88.88888888888887,0)" xlink:href="#l"/><use transform="matrix(0.014814814814814814,0,0,0.014814814814814814,106.66666666666664,0)" xlink:href="#m"/><use transform="matrix(0.014814814814814814,0,0,0.014814814814814814,124.44444444444441,0)" xlink:href="#k"/><use transform="matrix(0.014814814814814814,0,0,0.014814814814814814,142.2222222222222,0)" xlink:href="#n"/></g><g id="d"><use transform="matrix(0.014814814814814814,0,0,0.014814814814814814,0,0)" xlink:href="#o"/><use transform="matrix(0.014814814814814814,0,0,0.014814814814814814,17.777777777777775,0)" xlink:href="#p"/><use transform="matrix(0.014814814814814814,0,0,0.014814814814814814,35.55555555555555,0)" xlink:href="#j"/><use transform="matrix(0.014814814814814814,0,0,0.014814814814814814,53.33333333333333,0)" xlink:href="#q"/><use transform="matrix(0.014814814814814814,0,0,0.014814814814814814,71.1111111111111,0)" xlink:href="#m"/></g><path fill="#3a414a" d="M613-1429c-1-66 52-117 120-117 70 0 125 50 124 117 1 68-53 120-124 120-69 0-121-52-120-120zM191 294c276-54 531-135 531-452v-762H284v-133h606v884c-8 408-311 525-671 593" id="t"/><path fill="#3a414a" d="M1079-1053L696 0H501L121-1053h178l305 900 301-900h174" id="u"/><g id="e"><use transform="matrix(0.015954415954415952,0,0,0.015954415954415952,0,0)" xlink:href="#t"/><use transform="matrix(0.015954415954415952,0,0,0.015954415954415952,19.14529914529914,0)" xlink:href="#u"/><use transform="matrix(0.015954415954415952,0,0,0.015954415954415952,38.29059829059828,0)" xlink:href="#p"/></g><g id="f"><use transform="matrix(0.015954415954415952,0,0,0.015954415954415952,0,0)" xlink:href="#u"/><use transform="matrix(0.015954415954415952,0,0,0.015954415954415952,19.14529914529914,0)" xlink:href="#t"/><use transform="matrix(0.015954415954415952,0,0,0.015954415954415952,38.29059829059828,0)" xlink:href="#p"/></g><path fill="#3a414a" d="M583-1377c309 1 532 120 531 423 0 322-216 439-533 443H405V0H231v-1377h352zm14 726c210-1 331-82 331-301 0-204-126-287-324-287H405v588h192" id="v"/><path fill="#3a414a" d="M912-1076c61 0 101 10 149 23l-24 356H899v-224c-171-3-283 112-356 346v446h214V0H211v-129h164v-795H211v-129h292l31 249c78-155 163-269 378-272" id="w"/><path fill="#3a414a" d="M479-1429c-1-65 54-117 121-117 70 0 124 50 123 117 1 68-52 120-123 120-68 0-122-53-121-120zm255 376v920h297V0H241v-133h325v-787H251v-133h483" id="x"/><path fill="#3a414a" d="M663-936c55-73 112-139 232-139 155 0 204 114 204 291V0H943v-757c0-66-4-114-12-143s-31-44-69-44c-90 7-138 56-184 126V0H521v-757c0-66-4-114-12-143s-31-44-69-44c-92 7-137 55-184 126V0H101v-1053h132l10 122c54-71 111-144 229-144 101 0 166 44 191 139" id="y"/><path fill="#3a414a" d="M757 23C575 25 443-87 443-269v-1075H120v-133h491v1217C599-84 846-101 962-154l45 123C944-1 855 25 757 23" id="z"/><g id="g"><use transform="matrix(0.014814814814814814,0,0,0.014814814814814814,0,0)" xlink:href="#v"/><use transform="matrix(0.014814814814814814,0,0,0.014814814814814814,17.777777777777775,0)" xlink:href="#w"/><use transform="matrix(0.014814814814814814,0,0,0.014814814814814814,35.55555555555555,0)" xlink:href="#x"/><use transform="matrix(0.014814814814814814,0,0,0.014814814814814814,53.33333333333333,0)" xlink:href="#y"/><use transform="matrix(0.014814814814814814,0,0,0.014814814814814814,71.1111111111111,0)" xlink:href="#j"/><use transform="matrix(0.014814814814814814,0,0,0.014814814814814814,88.88888888888887,0)" xlink:href="#z"/></g><path fill="#3a414a" d="M243-230c76 62 183 114 316 114 170 0 313-88 245-249-12-23-36-44-72-63-77-43-270-78-356-120-96-47-168-106-169-240-6-270 370-339 621-253 63 23 117 50 161 82l-74 114c-81-54-169-95-306-94-136-1-228 31-228 138 0 80 44 103 112 132 87 36 264 72 348 119 96 49 162 119 162 259C997-57 792 16 559 23c-184 3-316-62-412-142" id="A"/><g id="h"><use transform="matrix(0.014814814814814814,0,0,0.014814814814814814,0,0)" xlink:href="#i"/><use transform="matrix(0.014814814814814814,0,0,0.014814814814814814,17.777777777777775,0)" xlink:href="#w"/><use transform="matrix(0.014814814814814814,0,0,0.014814814814814814,35.55555555555555,0)" xlink:href="#j"/><use transform="matrix(0.014814814814814814,0,0,0.014814814814814814,53.33333333333333,0)" xlink:href="#k"/><use transform="matrix(0.014814814814814814,0,0,0.014814814814814814,71.1111111111111,0)" xlink:href="#A"/><use transform="matrix(0.014814814814814814,0,0,0.014814814814814814,88.88888888888887,0)" xlink:href="#p"/><use transform="matrix(0.014814814814814814,0,0,0.014814814814814814,106.66666666666664,0)" xlink:href="#s"/><use transform="matrix(0.014814814814814814,0,0,0.014814814814814814,124.44444444444441,0)" xlink:href="#A"/><use transform="matrix(0.014814814814814814,0,0,0.014814814814814814,142.2222222222222,0)" xlink:href="#m"/></g></defs></g></svg>