<svg xmlns="http://www.w3.org/2000/svg" xmlns:xlink="http://www.w3.org/1999/xlink" xmlns:lucid="lucid" width="800" height="901"><g transform="translate(-180 440)" lucid:page-tab-id="0_0"><path d="M398.45 434.2A4.6 4.6 0 0 1 394 440H246a4.6 4.6 0 0 1-4.45-5.8l28.9-108.4A7.8 7.8 0 0 1 278 320h84a7.8 7.8 0 0 1 7.55 5.8zM742.42 434.2a4.6 4.6 0 0 1-4.45 5.8h-148a4.6 4.6 0 0 1-4.46-5.8l28.92-108.4a7.8 7.8 0 0 1 7.55-5.8h84a7.8 7.8 0 0 1 7.54 5.8zM703.97 179c0 22.1-17.9 40-40 40s-40-17.9-40-40 17.9-40 40-40 40 17.9 40 40z" stroke="#282c33" stroke-width="2" fill="#fff"/><use xlink:href="#a" transform="matrix(1,0,0,1,628.9675323968612,143.9993762803116) translate(17.307000000000002 39.817499999999995)"/><path d="M703.97-11c0 22.1-17.9 40-40 40s-40-17.9-40-40 17.9-40 40-40 40 17.9 40 40z" stroke="#282c33" stroke-width="2" fill="#fff"/><use xlink:href="#b" transform="matrix(1,0,0,1,628.9675323968612,-46.000623719688406) translate(17.307000000000002 39.817499999999995)"/><path d="M315.76 143.24a6 6 0 0 1 8.48 0l41.52 41.52a6 6 0 0 1 0 8.48l-41.52 41.52a6 6 0 0 1-8.48 0l-41.52-41.52a6 6 0 0 1 0-8.48z" stroke="#282c33" stroke-width="2" fill="#fff"/><use xlink:href="#c" transform="matrix(1,0,0,1,275,143.99937628031162) translate(27.947 48.567499999999995)"/><path d="M315.76-56.76a6 6 0 0 1 8.48 0l41.52 41.52a6 6 0 0 1 0 8.48l-41.52 41.52a6 6 0 0 1-8.48 0L274.24-6.76a6 6 0 0 1 0-8.48z" stroke="#282c33" stroke-width="2" fill="#fff"/><use xlink:href="#d" transform="matrix(1,0,0,1,275,-56.000623719688406) translate(27.947 48.567499999999995)"/><path d="M320 318.5v-64.6" stroke="#3a414a" fill="none"/><path d="M320.48 319h-.96v-.5h.96z" stroke="#3a414a" stroke-width=".05" fill="#3a414a"/><path d="M320 239.14l4.63 14.26h-9.26z" stroke="#3a414a" fill="#3a414a"/><path d="M320 139.98V53.9" stroke="#3a414a" fill="none"/><path d="M320.48 140.52l-.48-.04-.48.04v-.55h.96z" stroke="#3a414a" stroke-width=".05" fill="#3a414a"/><path d="M320 39.13l4.63 14.27h-9.26z" stroke="#3a414a" fill="#3a414a"/><path d="M369.02 189H607.9" stroke="#3a414a" fill="none"/><path d="M369.03 189.47h-.55l.04-.47-.04-.48h.55z" stroke="#3a414a" stroke-width=".05" fill="#3a414a"/><path d="M622.65 189l-14.26 4.63v-9.27z" stroke="#3a414a" fill="#3a414a"/><path d="M369.02-11h237.56" stroke="#3a414a" fill="none"/><path d="M369.03-10.53h-.55l.04-.47-.04-.48h.55z" stroke="#3a414a" stroke-width=".05" fill="#3a414a"/><path d="M621.35-11l-14.27 4.63v-9.27z" stroke="#3a414a" fill="#3a414a"/><path d="M663.97 30.5v91.11" stroke="#3a414a" fill="none"/><path d="M663.95 30l.5-.02v.53h-.96v-.53z" stroke="#3a414a" stroke-width=".05" fill="#3a414a"/><path d="M663.97 136.38l-4.64-14.27 9.27.02z" stroke="#3a414a" fill="#3a414a"/><path d="M663.97 220.5v82.12" stroke="#3a414a" fill="none"/><path d="M663.95 220l.5-.02v.53h-.96v-.53z" stroke="#3a414a" stroke-width=".05" fill="#3a414a"/><path d="M663.97 317.38l-4.64-14.26h9.27z" stroke="#3a414a" fill="#3a414a"/><path d="M703.97-370c0 22.1-17.9 40-40 40s-40-17.9-40-40 17.9-40 40-40 40 17.9 40 40z" stroke="#282c33" stroke-width="2" fill="#fff"/><use xlink:href="#e" transform="matrix(1,0,0,1,628.9675323968612,-405) translate(17.685000000000002 39.817499999999995)"/><path d="M315.76-415.76a6 6 0 0 1 8.48 0l41.52 41.52a6 6 0 0 1 0 8.48l-41.52 41.52a6 6 0 0 1-8.48 0l-41.52-41.52a6 6 0 0 1 0-8.48z" stroke="#282c33" stroke-width="2" fill="#fff"/><use xlink:href="#f" transform="matrix(1,0,0,1,275,-415) translate(28.325 48.567499999999995)"/><path d="M369.02-370h237.56" stroke="#3a414a" fill="none"/><path d="M369.03-369.52h-.55l.04-.48-.04-.48h.55z" stroke="#3a414a" stroke-width=".05" fill="#3a414a"/><path d="M621.35-370l-14.27 4.63v-9.26z" stroke="#3a414a" fill="#3a414a"/><path d="M703.97-210c0 22.1-17.9 40-40 40s-40-17.9-40-40 17.9-40 40-40 40 17.9 40 40z" stroke="#000" stroke-opacity="0" stroke-width="2" fill-opacity="0"/><use xlink:href="#g" transform="matrix(1,0,0,1,628.9675323968612,-245) translate(16.225 39.817499999999995)"/><path d="M315.76-255.76a6 6 0 0 1 8.48 0l41.52 41.52a6 6 0 0 1 0 8.48l-41.52 41.52a6 6 0 0 1-8.48 0l-41.52-41.52a6 6 0 0 1 0-8.48z" stroke="#000" stroke-opacity="0" stroke-width="2" fill-opacity="0"/><use xlink:href="#g" transform="matrix(1,0,0,1,275.0000000000001,-255) translate(26.224999999999998 48.567499999999995)"/><path d="M368-210H607.6" stroke="#000" stroke-opacity="0" fill="none"/><path d="M622.35-210l-14.27 4.63v-9.26z" stroke="#000" stroke-opacity="0" fill-opacity="0"/><path d="M320-60.02v-86.08" stroke="#3a414a" fill="none"/><path d="M320.48-59.48l-.48-.04-.48.04v-.55h.96z" stroke="#3a414a" stroke-width=".05" fill="#3a414a"/><path d="M320-160.87l4.63 14.27h-9.26z" stroke="#3a414a" fill="#3a414a"/><path d="M320-258v-47.1" stroke="#3a414a" fill="none"/><path d="M320.48-257.48l-.48-.03-.48.02v-.55h.96z" stroke="#3a414a" stroke-width=".05" fill="#3a414a"/><path d="M320-319.86l4.63 14.26h-9.26z" stroke="#3a414a" fill="#3a414a"/><path d="M200 356a6 6 0 0 1 6-6h228a6 6 0 0 1 6 6v48a6 6 0 0 1-6 6H206a6 6 0 0 1-6-6z" fill="none"/><use xlink:href="#h" transform="matrix(1,0,0,1,200,350) translate(64 39.33333333333333)"/><path d="M543.97 356a6 6 0 0 1 6-6h228a6 6 0 0 1 6 6v48a6 6 0 0 1-6 6h-228a6 6 0 0 1-6-6z" fill="none"/><use xlink:href="#i" transform="matrix(1,0,0,1,543.9675323968612,350) translate(64 39.33333333333333)"/><path d="M720-55a6 6 0 0 1 6-6h228a6 6 0 0 1 6 6v48a6 6 0 0 1-6 6H726a6 6 0 0 1-6-6z" fill="none"/><use xlink:href="#j" transform="matrix(1,0,0,1,720,-61.000623719688406) translate(24 25.866666666666667)"/><use xlink:href="#k" transform="matrix(1,0,0,1,720,-61.000623719688406) translate(72 58.93333333333334)"/><path d="M663.97-328.5v62.12" stroke="#3a414a" fill="none"/><path d="M663.95-329l.5-.02v.53h-.96v-.53z" stroke="#3a414a" stroke-width=".05" fill="#3a414a"/><path d="M663.97-251.62l-4.64-14.26h9.27z" stroke="#3a414a" fill="#3a414a"/><path d="M663.97-169.5V-68.4" stroke="#3a414a" fill="none"/><path d="M663.97-170l.47-.02v.53h-.95v-.53z" stroke="#3a414a" stroke-width=".05" fill="#3a414a"/><path d="M663.97-53.62l-4.64-14.27 9.27.02z" stroke="#3a414a" fill="#3a414a"/><defs><path fill="#3a414a" d="M320 12c-29 16-179-93-218-80-31 0-51 14-53 37-3 32-10 44-27 44C13 13 7 6 7-4c0-21 30-68 63-100 44-44 89-71 251-161 87-48 108-64 135-100-44 23-81 33-116 33-37 12-144-56-180-56-29 0-50 14-78 52l-13-9c47-63 91-91 142-91 33 0 48 5 104 36 43 24 67 33 88 33 35 0 61-17 67-45 4-19 9-26 18-26 10 0 15 6 15 17 0 23-25 62-59 95-47 45-47 45-268 171-65 37-85 51-108 76 37-18 63-24 97-24 42 0 48 3 142 50 59 30 94 13 133-43l14 10c-40 60-92 98-134 98" id="l"/><path fill="#3a414a" d="M303-90c-9 58 10 73 76 73l-3 17H120l4-17c65 0 87 5 101-64l102-504c-64 51-136 94-185 110l6-29c95-40 183-107 236-179h40" id="m"/><g id="a"><use transform="matrix(0.04,0,0,0.04,0,0)" xlink:href="#l"/><use transform="matrix(0.027999999999999997,0,0,0.027999999999999997,20.64,5.053999999999999)" xlink:href="#m"/></g><path fill="#3a414a" d="M8 0v-16c101-97 263-260 324-341 48-64 76-129 76-181 0-60-44-100-109-100-74 0-133 47-164 133h-21c20-108 102-179 205-179s174 62 174 152c0 53-22 99-88 169-50 53-232 213-311 291h254c41 6 47-21 55-64h20L399 0H8" id="n"/><g id="b"><use transform="matrix(0.04,0,0,0.04,0,0)" xlink:href="#l"/><use transform="matrix(0.027999999999999997,0,0,0.027999999999999997,20.64,5.053999999999999)" xlink:href="#n"/></g><path fill="#3a414a" d="M57 12c-29 0-26-4-23-22 43-215 88-428 131-643 0-4-3-8-7-8-6 0-25 8-53 24l-9-16c44-22 84-55 133-69 12-3 15 14 12 25l-98 484c104-140 197-225 244-225 48 0 43 80 30 129-24 85-45 169-66 256 0 5 4 10 9 10 13 0 42-24 84-72l11 11C406-40 342 13 313 13c-40 0-28-68-19-105 21-90 65-177 65-274 0-15-6-24-16-24-31 0-120 93-209 218L103-24c-8 36-8 36-46 36" id="o"/><g id="c"><use transform="matrix(0.04,0,0,0.04,0,0)" xlink:href="#o"/><use transform="matrix(0.027999999999999997,0,0,0.027999999999999997,19.36,5.053999999999999)" xlink:href="#m"/></g><g id="d"><use transform="matrix(0.04,0,0,0.04,0,0)" xlink:href="#o"/><use transform="matrix(0.027999999999999997,0,0,0.027999999999999997,19.36,5.053999999999999)" xlink:href="#n"/></g><path fill="#3a414a" d="M84 12c-39-1-40 0-37-18 22-116 47-231 70-346 0-5-2-7-5-7-9 1-27 19-60 64l-13-11c40-62 112-132 137-132 10 0 18 9 18 20 0 69-28 142-40 210 124-157 202-230 247-230 48-1 46 78 33 124-25 91-50 180-70 274 0 5 3 9 7 9 12 0 34-21 93-90l12 10C413-30 361 13 327 13c-29 0-33-47-25-78 27-98 52-194 73-296-4-44-35-28-59-5-49 48-126 137-169 196L113-7c-4 19-4 19-29 19" id="p"/><g id="e"><use transform="matrix(0.04,0,0,0.04,0,0)" xlink:href="#l"/><use transform="matrix(0.027999999999999997,0,0,0.027999999999999997,20.64,5.053999999999999)" xlink:href="#p"/></g><g id="f"><use transform="matrix(0.04,0,0,0.04,0,0)" xlink:href="#o"/><use transform="matrix(0.027999999999999997,0,0,0.027999999999999997,19.36,5.053999999999999)" xlink:href="#p"/></g><path d="M75-35c-7-68 92-90 92-14 8 67-93 88-92 14" id="q"/><g id="g"><use transform="matrix(0.04,0,0,0.04,0,0)" xlink:href="#q"/><use transform="matrix(0.04,0,0,0.04,12.52,0)" xlink:href="#q"/><use transform="matrix(0.04,0,0,0.04,25.04,0)" xlink:href="#q"/></g><path fill="#3a414a" d="M95 0v-720h425v82H185v226h300v82H185v248h335V0H95" id="r"/><path fill="#3a414a" d="M302-484c-78-1-124 58-124 139V0H88v-550h85v95h8c16-66 70-105 151-105 118 4 181 75 181 194V0h-90v-351c1-80-43-133-121-133" id="s"/><path fill="#3a414a" d="M528-175C513-64 431 10 308 10 169 7 88-67 88-205v-140c4-138 81-212 220-215 123-1 206 75 220 185h-90c-8-62-61-106-130-105-80-1-130 53-130 135v140c-1 82 49 136 130 135 69 1 122-43 130-105h90" id="t"/><path fill="#3a414a" d="M520-205c1 133-86 217-220 215C161 7 80-67 80-205v-140c4-138 81-211 220-215 133-2 220 81 220 214v141zM300-480c-80-1-130 53-130 135v140c-1 82 49 136 130 135 80 1 130-53 130-135v-140c1-82-50-136-130-135" id="u"/><path fill="#3a414a" d="M265 10C140 5 80-77 80-205v-140c4-128 60-210 185-215 82 0 138 40 154 105h8c-8-82-4-175-5-265h90V0h-85v-95h-8C403-30 347 10 265 10zm34-492c-82 0-130 53-129 137v140c-1 81 49 138 129 137 77 1 123-58 123-137v-140c2-79-46-138-123-137" id="v"/><path fill="#3a414a" d="M300 10C167 12 80-68 80-200v-150c-1-132 87-212 220-210 133-2 221 78 220 210v101H170C159-141 202-70 300-70c58 0 106-19 127-55h90C496-41 407 11 300 10zm0-490c-91 0-138 57-130 156h260c8-99-39-156-130-156" id="w"/><path fill="#3a414a" d="M331-481c-79-1-129 55-129 136V0h-90v-550h85v95h8c16-64 75-106 155-105 129 0 196 94 186 235h-90c6-96-36-156-125-156" id="x"/><g id="h"><use transform="matrix(0.02666666666666667,0,0,0.02666666666666667,0,0)" xlink:href="#r"/><use transform="matrix(0.02666666666666667,0,0,0.02666666666666667,16,0)" xlink:href="#s"/><use transform="matrix(0.02666666666666667,0,0,0.02666666666666667,32,0)" xlink:href="#t"/><use transform="matrix(0.02666666666666667,0,0,0.02666666666666667,48,0)" xlink:href="#u"/><use transform="matrix(0.02666666666666667,0,0,0.02666666666666667,64,0)" xlink:href="#v"/><use transform="matrix(0.02666666666666667,0,0,0.02666666666666667,80,0)" xlink:href="#w"/><use transform="matrix(0.02666666666666667,0,0,0.02666666666666667,96,0)" xlink:href="#x"/></g><path fill="#3a414a" d="M520-220C515-78 431 0 289 0H88v-720h201c142 5 231 78 231 219v281zm-91-281c1-83-57-139-140-139H178v560h111c83 1 140-57 140-140v-281" id="y"/><g id="i"><use transform="matrix(0.02666666666666667,0,0,0.02666666666666667,0,0)" xlink:href="#y"/><use transform="matrix(0.02666666666666667,0,0,0.02666666666666667,16,0)" xlink:href="#w"/><use transform="matrix(0.02666666666666667,0,0,0.02666666666666667,32,0)" xlink:href="#t"/><use transform="matrix(0.02666666666666667,0,0,0.02666666666666667,48,0)" xlink:href="#u"/><use transform="matrix(0.02666666666666667,0,0,0.02666666666666667,64,0)" xlink:href="#v"/><use transform="matrix(0.02666666666666667,0,0,0.02666666666666667,80,0)" xlink:href="#w"/><use transform="matrix(0.02666666666666667,0,0,0.02666666666666667,96,0)" xlink:href="#x"/></g><path fill="#3a414a" d="M90 0v-720h90v304h240v-304h90V0h-90v-334H180V0H90" id="z"/><path fill="#3a414a" d="M95 0v-82h200v-386H120v-82h265v468h165V0H95zm155-704c0-43 35-61 85-61 37 0 66 25 65 61 0 43-36 59-85 59-37 0-66-22-65-59" id="A"/><path fill="#3a414a" d="M244 10C137 12 62-55 63-160c4-115 78-170 195-170h164c12-102-35-154-130-153-58-1-107 23-122 64H80c18-88 105-142 214-141 126-2 218 60 218 180V0h-82v-105h-8C406-34 333 11 244 10zm16-270c-64-1-107 35-107 98 0 64 44 99 111 98 87-3 151-38 158-121v-75H260" id="B"/><path fill="#3a414a" d="M302-484c-78-1-124 58-124 139V0H88v-720h90c-1 89 4 184-5 265h8c16-65 71-105 151-105 118 5 181 75 181 194V0h-90v-351c1-80-43-133-121-133" id="C"/><path fill="#3a414a" d="M387 0C286 1 222-60 222-160v-488H40v-82h272v570c-1 48 28 78 75 78h163V0H387" id="D"/><g id="j"><use transform="matrix(0.02666666666666667,0,0,0.02666666666666667,0,0)" xlink:href="#z"/><use transform="matrix(0.02666666666666667,0,0,0.02666666666666667,16,0)" xlink:href="#A"/><use transform="matrix(0.02666666666666667,0,0,0.02666666666666667,32,0)" xlink:href="#w"/><use transform="matrix(0.02666666666666667,0,0,0.02666666666666667,48,0)" xlink:href="#x"/><use transform="matrix(0.02666666666666667,0,0,0.02666666666666667,64,0)" xlink:href="#B"/><use transform="matrix(0.02666666666666667,0,0,0.02666666666666667,80,0)" xlink:href="#x"/><use transform="matrix(0.02666666666666667,0,0,0.02666666666666667,96,0)" xlink:href="#t"/><use transform="matrix(0.02666666666666667,0,0,0.02666666666666667,112.00000000000001,0)" xlink:href="#C"/><use transform="matrix(0.02666666666666667,0,0,0.02666666666666667,128,0)" xlink:href="#A"/><use transform="matrix(0.02666666666666667,0,0,0.02666666666666667,144,0)" xlink:href="#t"/><use transform="matrix(0.02666666666666667,0,0,0.02666666666666667,160,0)" xlink:href="#B"/><use transform="matrix(0.02666666666666667,0,0,0.02666666666666667,176,0)" xlink:href="#D"/></g><path fill="#3a414a" d="M550-510c0 133-83 210-217 210H180V0H90v-720h243c135 4 217 76 217 210zm-93 0c1-76-49-130-124-130H180v260h153c75 1 125-54 124-130" id="E"/><path fill="#3a414a" d="M518-154c0 120-98 164-233 164C177 10 88-43 77-135h95c12 49 73 65 141 65 63 0 109-26 114-83 6-72-103-81-175-91-98-13-159-56-161-160-5-142 160-182 301-146 64 16 111 60 124 129h-95c-12-45-67-59-131-59-62 0-107 22-108 80-2 80 98 71 166 83 106 19 170 53 170 163" id="F"/><g id="k"><use transform="matrix(0.02666666666666667,0,0,0.02666666666666667,0,0)" xlink:href="#E"/><use transform="matrix(0.02666666666666667,0,0,0.02666666666666667,16,0)" xlink:href="#x"/><use transform="matrix(0.02666666666666667,0,0,0.02666666666666667,32,0)" xlink:href="#A"/><use transform="matrix(0.02666666666666667,0,0,0.02666666666666667,48,0)" xlink:href="#u"/><use transform="matrix(0.02666666666666667,0,0,0.02666666666666667,64,0)" xlink:href="#x"/><use transform="matrix(0.02666666666666667,0,0,0.02666666666666667,80,0)" xlink:href="#F"/></g></defs></g></svg>